G04 #@! TF.GenerationSoftware,KiCad,Pcbnew,(5.1.5)-3*
G04 #@! TF.CreationDate,2020-10-28T17:30:45+01:00*
G04 #@! TF.ProjectId,exciter,65786369-7465-4722-9e6b-696361645f70,rev?*
G04 #@! TF.SameCoordinates,Original*
G04 #@! TF.FileFunction,Copper,L2,Bot*
G04 #@! TF.FilePolarity,Positive*
%FSLAX46Y46*%
G04 Gerber Fmt 4.6, Leading zero omitted, Abs format (unit mm)*
G04 Created by KiCad (PCBNEW (5.1.5)-3) date 2020-10-28 17:30:45*
%MOMM*%
%LPD*%
G04 APERTURE LIST*
%ADD10C,1.440000*%
%ADD11C,3.000000*%
%ADD12C,2.500000*%
%ADD13R,2.500000X2.500000*%
%ADD14C,2.250000*%
%ADD15C,2.050000*%
%ADD16C,2.340000*%
%ADD17R,1.200000X1.200000*%
%ADD18C,1.200000*%
%ADD19R,1.600000X1.600000*%
%ADD20C,1.600000*%
%ADD21C,0.800000*%
%ADD22C,0.500000*%
%ADD23C,0.254000*%
G04 APERTURE END LIST*
D10*
X104648000Y-65278000D03*
X104648000Y-62738000D03*
X104648000Y-60198000D03*
D11*
X98900000Y-65148000D03*
X88900000Y-53848000D03*
X88900000Y-69848000D03*
X98900000Y-53848000D03*
X98900000Y-59148000D03*
X98900000Y-69848000D03*
D12*
X46664880Y-71407000D03*
X46664880Y-76407000D03*
D13*
X46664880Y-81407000D03*
D11*
X143830020Y-51950080D03*
X143830020Y-59950080D03*
X143830020Y-67950080D03*
X153830020Y-51950080D03*
X153830020Y-67950080D03*
D14*
X145625820Y-47812960D03*
X145625820Y-42732960D03*
X150705820Y-42732960D03*
X150705820Y-47812960D03*
D15*
X148165820Y-45272960D03*
D11*
X78483480Y-90808080D03*
X78483480Y-82808080D03*
X78483480Y-74808080D03*
X68483480Y-90808080D03*
X68483480Y-74808080D03*
X100584000Y-90932000D03*
X100584000Y-74932000D03*
X90584000Y-90932000D03*
X90584000Y-82932000D03*
X90584000Y-74932000D03*
X68491080Y-53880480D03*
X68491080Y-61880480D03*
X68491080Y-69880480D03*
X78491080Y-53880480D03*
X78491080Y-69880480D03*
D14*
X73898760Y-48610520D03*
X73898760Y-43530520D03*
X78978760Y-43530520D03*
X78978760Y-48610520D03*
D15*
X76438760Y-46070520D03*
X55626000Y-89027000D03*
D14*
X58166000Y-91567000D03*
X58166000Y-86487000D03*
X53086000Y-86487000D03*
X53086000Y-91567000D03*
D15*
X90678000Y-45791120D03*
D14*
X93218000Y-48331120D03*
X93218000Y-43251120D03*
X88138000Y-43251120D03*
X88138000Y-48331120D03*
X100421440Y-48285400D03*
X100421440Y-43205400D03*
X105501440Y-43205400D03*
X105501440Y-48285400D03*
D15*
X102961440Y-45745400D03*
D16*
X60380880Y-77735440D03*
X62880880Y-75235440D03*
X60380880Y-72735440D03*
D17*
X56075000Y-79350000D03*
D18*
X54075000Y-79350000D03*
X60655200Y-53988720D03*
D17*
X60655200Y-51988720D03*
D19*
X60929520Y-64140080D03*
D20*
X60929520Y-66640080D03*
D17*
X53467000Y-69966840D03*
D18*
X55467000Y-69966840D03*
D12*
X117776000Y-45369480D03*
D13*
X112776000Y-45369480D03*
D21*
X115341400Y-59507120D03*
X117685820Y-59387740D03*
X137871200Y-51625500D03*
X137871200Y-55529480D03*
X137949940Y-58237120D03*
X64993520Y-48564800D03*
X129595880Y-86710520D03*
X133959600Y-92958920D03*
X116900960Y-76570840D03*
X115397280Y-71826120D03*
X114066320Y-71815960D03*
X110307120Y-65648840D03*
X59491880Y-56545480D03*
X77200760Y-51033680D03*
X100086160Y-50718720D03*
X108747560Y-46050200D03*
X159862520Y-53964840D03*
X159862520Y-48869600D03*
X122829320Y-50703480D03*
X107523280Y-70541776D03*
X62580520Y-91653360D03*
X107523280Y-55769734D03*
X107523280Y-73003783D03*
X107523280Y-77927797D03*
X107523280Y-80389804D03*
X107523280Y-85313818D03*
X107523280Y-87775825D03*
X108422440Y-93726000D03*
X107523280Y-82851811D03*
X107523280Y-75465790D03*
X107523280Y-53307727D03*
X108849160Y-48671480D03*
X108778040Y-43352720D03*
X110891320Y-79207360D03*
X111353600Y-93726000D03*
X115097560Y-93726000D03*
X118907560Y-93726000D03*
X55366920Y-93726000D03*
X57845960Y-93726000D03*
X60462160Y-93726000D03*
X62473840Y-93726000D03*
X65054480Y-93726000D03*
X67543680Y-93726000D03*
X70078600Y-93726000D03*
X72628760Y-93726000D03*
X75184000Y-93726000D03*
X77759560Y-93726000D03*
X80264000Y-93726000D03*
X93959680Y-93726000D03*
X96545400Y-93726000D03*
X99578160Y-93726000D03*
X102605840Y-93726000D03*
X106161840Y-93726000D03*
X122930920Y-93731080D03*
X126979680Y-93700600D03*
X131648200Y-93731080D03*
X137520680Y-92311220D03*
X122054620Y-90225880D03*
X122054620Y-87294720D03*
X122054620Y-84587080D03*
X122054620Y-81879440D03*
X122054620Y-79527400D03*
X122054620Y-76845160D03*
X122054620Y-73797160D03*
X122054620Y-70622160D03*
X122054620Y-67929760D03*
X122054620Y-64876680D03*
X122054620Y-61569600D03*
X122054620Y-58488580D03*
X122054620Y-54731920D03*
X124515880Y-50744120D03*
X127726440Y-50769520D03*
X130759200Y-50794920D03*
X134543800Y-50718720D03*
X122748040Y-42478960D03*
X126032260Y-41968420D03*
X128998980Y-41988740D03*
X131671060Y-41988740D03*
X134388860Y-41968420D03*
X109514640Y-71815960D03*
X126349760Y-57363360D03*
X129819400Y-57327800D03*
X133624320Y-57256680D03*
X124907040Y-74137520D03*
X131003040Y-74249280D03*
X137520680Y-88737440D03*
X137566400Y-85166200D03*
X137520680Y-81917540D03*
X137726420Y-75463400D03*
X137756900Y-70609460D03*
X137881360Y-66052700D03*
X137843260Y-61828680D03*
X114381280Y-53086000D03*
X116951760Y-53152040D03*
X119522240Y-53086000D03*
X115148360Y-60914280D03*
X51054000Y-71368920D03*
X50967640Y-65994280D03*
X50606960Y-61071760D03*
X50606960Y-56057800D03*
X46675000Y-61650000D03*
X65933320Y-50718720D03*
X71277480Y-50718720D03*
X55737760Y-60914280D03*
X55925720Y-55874920D03*
X83179920Y-56286400D03*
X83291680Y-52826920D03*
X71069200Y-45857160D03*
X83276440Y-62346840D03*
X91810840Y-93675200D03*
X142184120Y-93708220D03*
X144741900Y-93753940D03*
X147347940Y-93766640D03*
X149862540Y-93779340D03*
X152361900Y-93759020D03*
X154906980Y-93789500D03*
X125844300Y-44810680D03*
X128940560Y-44810680D03*
X134277100Y-44772580D03*
X141226540Y-48417480D03*
X141163040Y-45679360D03*
X141063980Y-41800780D03*
X137751820Y-47292260D03*
X137751820Y-43202860D03*
X142240000Y-91440000D03*
X144780000Y-91440000D03*
X147320000Y-91440000D03*
X149860000Y-91440000D03*
X152400000Y-91440000D03*
X146050000Y-88900000D03*
X148590000Y-88900000D03*
X151130000Y-88900000D03*
X153670000Y-88900000D03*
X147320000Y-86360000D03*
X149860000Y-86360000D03*
X160020000Y-86360000D03*
X160020000Y-83820000D03*
X160020000Y-81280000D03*
X160020000Y-78740000D03*
X160020000Y-76200000D03*
X160020000Y-73660000D03*
X160020000Y-71120000D03*
X160020000Y-68580000D03*
X160020000Y-66040000D03*
X160020000Y-63500000D03*
X160020000Y-60960000D03*
X160020000Y-58420000D03*
X160020000Y-55880000D03*
X157480000Y-80010000D03*
X157480000Y-77470000D03*
X157480000Y-74930000D03*
X157480000Y-72390000D03*
X157480000Y-69850000D03*
X157480000Y-67310000D03*
X157480000Y-64770000D03*
X156210000Y-78740000D03*
X156210000Y-76200000D03*
X156210000Y-73660000D03*
X156210000Y-71120000D03*
X105410000Y-72390000D03*
X102870000Y-72390000D03*
X105410000Y-88900000D03*
X105410000Y-86360000D03*
X105410000Y-83820000D03*
X105410000Y-81280000D03*
X105410000Y-78740000D03*
X105410000Y-76200000D03*
X102870000Y-53340000D03*
X105410000Y-53340000D03*
X96520000Y-49530000D03*
X96520000Y-45720000D03*
X125999240Y-63637160D03*
X124023120Y-63611760D03*
D22*
X117566440Y-59507120D02*
X117685820Y-59387740D01*
X115341400Y-59507120D02*
X117566440Y-59507120D01*
X125973840Y-63611760D02*
X125999240Y-63637160D01*
X124023120Y-63611760D02*
X125973840Y-63611760D01*
D23*
G36*
X144688172Y-41240171D02*
G01*
X144580894Y-41508429D01*
X145625820Y-42553355D01*
X146670746Y-41508429D01*
X146563739Y-41240849D01*
X149767437Y-41242009D01*
X149660894Y-41508429D01*
X150705820Y-42553355D01*
X151750746Y-41508429D01*
X151644475Y-41242688D01*
X161958789Y-41246421D01*
X161988531Y-94401731D01*
X43976975Y-94346469D01*
X43976131Y-91329092D01*
X44528940Y-91329092D01*
X44528940Y-91769348D01*
X44614830Y-92201145D01*
X44783309Y-92607889D01*
X45027902Y-92973949D01*
X45339211Y-93285258D01*
X45705271Y-93529851D01*
X46112015Y-93698330D01*
X46543812Y-93784220D01*
X46984068Y-93784220D01*
X47415865Y-93698330D01*
X47822609Y-93529851D01*
X48188669Y-93285258D01*
X48499978Y-92973949D01*
X48621865Y-92791531D01*
X52041074Y-92791531D01*
X52151921Y-93068714D01*
X52462840Y-93222089D01*
X52797705Y-93311860D01*
X53143650Y-93334576D01*
X53487380Y-93289366D01*
X53815685Y-93177966D01*
X54020079Y-93068714D01*
X54130926Y-92791531D01*
X57121074Y-92791531D01*
X57231921Y-93068714D01*
X57542840Y-93222089D01*
X57877705Y-93311860D01*
X58223650Y-93334576D01*
X58567380Y-93289366D01*
X58895685Y-93177966D01*
X59100079Y-93068714D01*
X59210926Y-92791531D01*
X58166000Y-91746605D01*
X57121074Y-92791531D01*
X54130926Y-92791531D01*
X53086000Y-91746605D01*
X52041074Y-92791531D01*
X48621865Y-92791531D01*
X48744571Y-92607889D01*
X48913050Y-92201145D01*
X48998940Y-91769348D01*
X48998940Y-91624650D01*
X51318424Y-91624650D01*
X51363634Y-91968380D01*
X51475034Y-92296685D01*
X51584286Y-92501079D01*
X51861469Y-92611926D01*
X52906395Y-91567000D01*
X53265605Y-91567000D01*
X54310531Y-92611926D01*
X54587714Y-92501079D01*
X54741089Y-92190160D01*
X54830860Y-91855295D01*
X54846004Y-91624650D01*
X56398424Y-91624650D01*
X56443634Y-91968380D01*
X56555034Y-92296685D01*
X56664286Y-92501079D01*
X56941469Y-92611926D01*
X57986395Y-91567000D01*
X58345605Y-91567000D01*
X59390531Y-92611926D01*
X59667714Y-92501079D01*
X59767037Y-92299733D01*
X67171432Y-92299733D01*
X67327442Y-92615294D01*
X67702225Y-92806100D01*
X68107031Y-92920124D01*
X68526304Y-92952982D01*
X68943931Y-92903414D01*
X69343863Y-92773323D01*
X69639518Y-92615294D01*
X69795528Y-92299733D01*
X68483480Y-90987685D01*
X67171432Y-92299733D01*
X59767037Y-92299733D01*
X59821089Y-92190160D01*
X59910860Y-91855295D01*
X59933576Y-91509350D01*
X59888366Y-91165620D01*
X59781578Y-90850904D01*
X66338578Y-90850904D01*
X66388146Y-91268531D01*
X66518237Y-91668463D01*
X66676266Y-91964118D01*
X66991827Y-92120128D01*
X68303875Y-90808080D01*
X68663085Y-90808080D01*
X69975133Y-92120128D01*
X70290694Y-91964118D01*
X70481500Y-91589335D01*
X70595524Y-91184529D01*
X70628382Y-90765256D01*
X70608507Y-90597801D01*
X76348480Y-90597801D01*
X76348480Y-91018359D01*
X76430527Y-91430836D01*
X76591468Y-91819382D01*
X76825117Y-92169063D01*
X77122497Y-92466443D01*
X77472178Y-92700092D01*
X77860724Y-92861033D01*
X78273201Y-92943080D01*
X78693759Y-92943080D01*
X79106236Y-92861033D01*
X79494782Y-92700092D01*
X79844463Y-92466443D01*
X80141843Y-92169063D01*
X80375492Y-91819382D01*
X80536433Y-91430836D01*
X80618480Y-91018359D01*
X80618480Y-90721721D01*
X88449000Y-90721721D01*
X88449000Y-91142279D01*
X88531047Y-91554756D01*
X88691988Y-91943302D01*
X88925637Y-92292983D01*
X89223017Y-92590363D01*
X89572698Y-92824012D01*
X89961244Y-92984953D01*
X90373721Y-93067000D01*
X90794279Y-93067000D01*
X91206756Y-92984953D01*
X91595302Y-92824012D01*
X91944983Y-92590363D01*
X92242363Y-92292983D01*
X92476012Y-91943302D01*
X92636953Y-91554756D01*
X92719000Y-91142279D01*
X92719000Y-90721721D01*
X98449000Y-90721721D01*
X98449000Y-91142279D01*
X98531047Y-91554756D01*
X98691988Y-91943302D01*
X98925637Y-92292983D01*
X99223017Y-92590363D01*
X99572698Y-92824012D01*
X99961244Y-92984953D01*
X100373721Y-93067000D01*
X100794279Y-93067000D01*
X101206756Y-92984953D01*
X101595302Y-92824012D01*
X101944983Y-92590363D01*
X102242363Y-92292983D01*
X102476012Y-91943302D01*
X102636953Y-91554756D01*
X102663146Y-91423072D01*
X156573420Y-91423072D01*
X156573420Y-91863328D01*
X156659310Y-92295125D01*
X156827789Y-92701869D01*
X157072382Y-93067929D01*
X157383691Y-93379238D01*
X157749751Y-93623831D01*
X158156495Y-93792310D01*
X158588292Y-93878200D01*
X159028548Y-93878200D01*
X159460345Y-93792310D01*
X159867089Y-93623831D01*
X160233149Y-93379238D01*
X160544458Y-93067929D01*
X160789051Y-92701869D01*
X160957530Y-92295125D01*
X161043420Y-91863328D01*
X161043420Y-91423072D01*
X160957530Y-90991275D01*
X160789051Y-90584531D01*
X160544458Y-90218471D01*
X160233149Y-89907162D01*
X159867089Y-89662569D01*
X159460345Y-89494090D01*
X159028548Y-89408200D01*
X158588292Y-89408200D01*
X158156495Y-89494090D01*
X157749751Y-89662569D01*
X157383691Y-89907162D01*
X157072382Y-90218471D01*
X156827789Y-90584531D01*
X156659310Y-90991275D01*
X156573420Y-91423072D01*
X102663146Y-91423072D01*
X102719000Y-91142279D01*
X102719000Y-90721721D01*
X102636953Y-90309244D01*
X102476012Y-89920698D01*
X102242363Y-89571017D01*
X101944983Y-89273637D01*
X101595302Y-89039988D01*
X101206756Y-88879047D01*
X100794279Y-88797000D01*
X100373721Y-88797000D01*
X99961244Y-88879047D01*
X99572698Y-89039988D01*
X99223017Y-89273637D01*
X98925637Y-89571017D01*
X98691988Y-89920698D01*
X98531047Y-90309244D01*
X98449000Y-90721721D01*
X92719000Y-90721721D01*
X92636953Y-90309244D01*
X92476012Y-89920698D01*
X92242363Y-89571017D01*
X91944983Y-89273637D01*
X91595302Y-89039988D01*
X91206756Y-88879047D01*
X90794279Y-88797000D01*
X90373721Y-88797000D01*
X89961244Y-88879047D01*
X89572698Y-89039988D01*
X89223017Y-89273637D01*
X88925637Y-89571017D01*
X88691988Y-89920698D01*
X88531047Y-90309244D01*
X88449000Y-90721721D01*
X80618480Y-90721721D01*
X80618480Y-90597801D01*
X80536433Y-90185324D01*
X80375492Y-89796778D01*
X80141843Y-89447097D01*
X79844463Y-89149717D01*
X79494782Y-88916068D01*
X79106236Y-88755127D01*
X78693759Y-88673080D01*
X78273201Y-88673080D01*
X77860724Y-88755127D01*
X77472178Y-88916068D01*
X77122497Y-89149717D01*
X76825117Y-89447097D01*
X76591468Y-89796778D01*
X76430527Y-90185324D01*
X76348480Y-90597801D01*
X70608507Y-90597801D01*
X70578814Y-90347629D01*
X70448723Y-89947697D01*
X70290694Y-89652042D01*
X69975133Y-89496032D01*
X68663085Y-90808080D01*
X68303875Y-90808080D01*
X66991827Y-89496032D01*
X66676266Y-89652042D01*
X66485460Y-90026825D01*
X66371436Y-90431631D01*
X66338578Y-90850904D01*
X59781578Y-90850904D01*
X59776966Y-90837315D01*
X59667714Y-90632921D01*
X59390531Y-90522074D01*
X58345605Y-91567000D01*
X57986395Y-91567000D01*
X56941469Y-90522074D01*
X56664286Y-90632921D01*
X56510911Y-90943840D01*
X56421140Y-91278705D01*
X56398424Y-91624650D01*
X54846004Y-91624650D01*
X54853576Y-91509350D01*
X54808366Y-91165620D01*
X54696966Y-90837315D01*
X54587714Y-90632921D01*
X54310531Y-90522074D01*
X53265605Y-91567000D01*
X52906395Y-91567000D01*
X51861469Y-90522074D01*
X51584286Y-90632921D01*
X51430911Y-90943840D01*
X51341140Y-91278705D01*
X51318424Y-91624650D01*
X48998940Y-91624650D01*
X48998940Y-91329092D01*
X48913050Y-90897295D01*
X48744571Y-90490551D01*
X48645626Y-90342469D01*
X52041074Y-90342469D01*
X53086000Y-91387395D01*
X54130926Y-90342469D01*
X54020079Y-90065286D01*
X53709160Y-89911911D01*
X53374295Y-89822140D01*
X53028350Y-89799424D01*
X52684620Y-89844634D01*
X52356315Y-89956034D01*
X52151921Y-90065286D01*
X52041074Y-90342469D01*
X48645626Y-90342469D01*
X48499978Y-90124491D01*
X48188669Y-89813182D01*
X47822609Y-89568589D01*
X47415865Y-89400110D01*
X46984068Y-89314220D01*
X46543812Y-89314220D01*
X46112015Y-89400110D01*
X45705271Y-89568589D01*
X45339211Y-89813182D01*
X45027902Y-90124491D01*
X44783309Y-90490551D01*
X44614830Y-90897295D01*
X44528940Y-91329092D01*
X43976131Y-91329092D01*
X43975442Y-88863504D01*
X53966000Y-88863504D01*
X53966000Y-89190496D01*
X54029793Y-89511204D01*
X54154927Y-89813305D01*
X54336594Y-90085188D01*
X54567812Y-90316406D01*
X54839695Y-90498073D01*
X55141796Y-90623207D01*
X55462504Y-90687000D01*
X55789496Y-90687000D01*
X56110204Y-90623207D01*
X56412305Y-90498073D01*
X56645182Y-90342469D01*
X57121074Y-90342469D01*
X58166000Y-91387395D01*
X59210926Y-90342469D01*
X59100079Y-90065286D01*
X58789160Y-89911911D01*
X58454295Y-89822140D01*
X58108350Y-89799424D01*
X57764620Y-89844634D01*
X57436315Y-89956034D01*
X57231921Y-90065286D01*
X57121074Y-90342469D01*
X56645182Y-90342469D01*
X56684188Y-90316406D01*
X56915406Y-90085188D01*
X57097073Y-89813305D01*
X57222207Y-89511204D01*
X57260950Y-89316427D01*
X67171432Y-89316427D01*
X68483480Y-90628475D01*
X69795528Y-89316427D01*
X69639518Y-89000866D01*
X69264735Y-88810060D01*
X68859929Y-88696036D01*
X68440656Y-88663178D01*
X68023029Y-88712746D01*
X67623097Y-88842837D01*
X67327442Y-89000866D01*
X67171432Y-89316427D01*
X57260950Y-89316427D01*
X57286000Y-89190496D01*
X57286000Y-88863504D01*
X57222207Y-88542796D01*
X57097073Y-88240695D01*
X56915406Y-87968812D01*
X56684188Y-87737594D01*
X56645183Y-87711531D01*
X57121074Y-87711531D01*
X57231921Y-87988714D01*
X57542840Y-88142089D01*
X57877705Y-88231860D01*
X58223650Y-88254576D01*
X58567380Y-88209366D01*
X58895685Y-88097966D01*
X59100079Y-87988714D01*
X59210926Y-87711531D01*
X58166000Y-86666605D01*
X57121074Y-87711531D01*
X56645183Y-87711531D01*
X56412305Y-87555927D01*
X56110204Y-87430793D01*
X55789496Y-87367000D01*
X55462504Y-87367000D01*
X55141796Y-87430793D01*
X54839695Y-87555927D01*
X54567812Y-87737594D01*
X54336594Y-87968812D01*
X54154927Y-88240695D01*
X54029793Y-88542796D01*
X53966000Y-88863504D01*
X43975442Y-88863504D01*
X43975120Y-87711531D01*
X52041074Y-87711531D01*
X52151921Y-87988714D01*
X52462840Y-88142089D01*
X52797705Y-88231860D01*
X53143650Y-88254576D01*
X53487380Y-88209366D01*
X53815685Y-88097966D01*
X54020079Y-87988714D01*
X54130926Y-87711531D01*
X53086000Y-86666605D01*
X52041074Y-87711531D01*
X43975120Y-87711531D01*
X43974793Y-86544650D01*
X51318424Y-86544650D01*
X51363634Y-86888380D01*
X51475034Y-87216685D01*
X51584286Y-87421079D01*
X51861469Y-87531926D01*
X52906395Y-86487000D01*
X53265605Y-86487000D01*
X54310531Y-87531926D01*
X54587714Y-87421079D01*
X54741089Y-87110160D01*
X54830860Y-86775295D01*
X54846004Y-86544650D01*
X56398424Y-86544650D01*
X56443634Y-86888380D01*
X56555034Y-87216685D01*
X56664286Y-87421079D01*
X56941469Y-87531926D01*
X57986395Y-86487000D01*
X58345605Y-86487000D01*
X59390531Y-87531926D01*
X59667714Y-87421079D01*
X59821089Y-87110160D01*
X59910860Y-86775295D01*
X59933576Y-86429350D01*
X59888366Y-86085620D01*
X59776966Y-85757315D01*
X59667714Y-85552921D01*
X59390531Y-85442074D01*
X58345605Y-86487000D01*
X57986395Y-86487000D01*
X56941469Y-85442074D01*
X56664286Y-85552921D01*
X56510911Y-85863840D01*
X56421140Y-86198705D01*
X56398424Y-86544650D01*
X54846004Y-86544650D01*
X54853576Y-86429350D01*
X54808366Y-86085620D01*
X54696966Y-85757315D01*
X54587714Y-85552921D01*
X54310531Y-85442074D01*
X53265605Y-86487000D01*
X52906395Y-86487000D01*
X51861469Y-85442074D01*
X51584286Y-85552921D01*
X51430911Y-85863840D01*
X51341140Y-86198705D01*
X51318424Y-86544650D01*
X43974793Y-86544650D01*
X43974435Y-85262469D01*
X52041074Y-85262469D01*
X53086000Y-86307395D01*
X54130926Y-85262469D01*
X57121074Y-85262469D01*
X58166000Y-86307395D01*
X59210926Y-85262469D01*
X59100079Y-84985286D01*
X58789160Y-84831911D01*
X58454295Y-84742140D01*
X58108350Y-84719424D01*
X57764620Y-84764634D01*
X57436315Y-84876034D01*
X57231921Y-84985286D01*
X57121074Y-85262469D01*
X54130926Y-85262469D01*
X54020079Y-84985286D01*
X53709160Y-84831911D01*
X53374295Y-84742140D01*
X53028350Y-84719424D01*
X52684620Y-84764634D01*
X52356315Y-84876034D01*
X52151921Y-84985286D01*
X52041074Y-85262469D01*
X43974435Y-85262469D01*
X43974166Y-84299733D01*
X77171432Y-84299733D01*
X77327442Y-84615294D01*
X77702225Y-84806100D01*
X78107031Y-84920124D01*
X78526304Y-84952982D01*
X78943931Y-84903414D01*
X79343863Y-84773323D01*
X79639518Y-84615294D01*
X79795528Y-84299733D01*
X78483480Y-82987685D01*
X77171432Y-84299733D01*
X43974166Y-84299733D01*
X43973705Y-82657000D01*
X44776808Y-82657000D01*
X44789068Y-82781482D01*
X44825378Y-82901180D01*
X44884343Y-83011494D01*
X44963695Y-83108185D01*
X45060386Y-83187537D01*
X45170700Y-83246502D01*
X45290398Y-83282812D01*
X45414880Y-83295072D01*
X46379130Y-83292000D01*
X46537880Y-83133250D01*
X46537880Y-81534000D01*
X46791880Y-81534000D01*
X46791880Y-83133250D01*
X46950630Y-83292000D01*
X47914880Y-83295072D01*
X48039362Y-83282812D01*
X48159060Y-83246502D01*
X48269374Y-83187537D01*
X48366065Y-83108185D01*
X48445417Y-83011494D01*
X48504382Y-82901180D01*
X48519633Y-82850904D01*
X76338578Y-82850904D01*
X76388146Y-83268531D01*
X76518237Y-83668463D01*
X76676266Y-83964118D01*
X76991827Y-84120128D01*
X78303875Y-82808080D01*
X78663085Y-82808080D01*
X79975133Y-84120128D01*
X80290694Y-83964118D01*
X80481500Y-83589335D01*
X80595524Y-83184529D01*
X80628382Y-82765256D01*
X80623215Y-82721721D01*
X88449000Y-82721721D01*
X88449000Y-83142279D01*
X88531047Y-83554756D01*
X88691988Y-83943302D01*
X88925637Y-84292983D01*
X89223017Y-84590363D01*
X89572698Y-84824012D01*
X89961244Y-84984953D01*
X90373721Y-85067000D01*
X90794279Y-85067000D01*
X91206756Y-84984953D01*
X91595302Y-84824012D01*
X91944983Y-84590363D01*
X92242363Y-84292983D01*
X92476012Y-83943302D01*
X92636953Y-83554756D01*
X92719000Y-83142279D01*
X92719000Y-82721721D01*
X92636953Y-82309244D01*
X92476012Y-81920698D01*
X92242363Y-81571017D01*
X91944983Y-81273637D01*
X91595302Y-81039988D01*
X91206756Y-80879047D01*
X90794279Y-80797000D01*
X90373721Y-80797000D01*
X89961244Y-80879047D01*
X89572698Y-81039988D01*
X89223017Y-81273637D01*
X88925637Y-81571017D01*
X88691988Y-81920698D01*
X88531047Y-82309244D01*
X88449000Y-82721721D01*
X80623215Y-82721721D01*
X80578814Y-82347629D01*
X80448723Y-81947697D01*
X80290694Y-81652042D01*
X79975133Y-81496032D01*
X78663085Y-82808080D01*
X78303875Y-82808080D01*
X76991827Y-81496032D01*
X76676266Y-81652042D01*
X76485460Y-82026825D01*
X76371436Y-82431631D01*
X76338578Y-82850904D01*
X48519633Y-82850904D01*
X48540692Y-82781482D01*
X48552952Y-82657000D01*
X48549880Y-81692750D01*
X48391130Y-81534000D01*
X46791880Y-81534000D01*
X46537880Y-81534000D01*
X44938630Y-81534000D01*
X44779880Y-81692750D01*
X44776808Y-82657000D01*
X43973705Y-82657000D01*
X43973331Y-81316427D01*
X77171432Y-81316427D01*
X78483480Y-82628475D01*
X79795528Y-81316427D01*
X79639518Y-81000866D01*
X79264735Y-80810060D01*
X78859929Y-80696036D01*
X78440656Y-80663178D01*
X78023029Y-80712746D01*
X77623097Y-80842837D01*
X77327442Y-81000866D01*
X77171432Y-81316427D01*
X43973331Y-81316427D01*
X43973006Y-80157000D01*
X44776808Y-80157000D01*
X44779880Y-81121250D01*
X44938630Y-81280000D01*
X46537880Y-81280000D01*
X46537880Y-79680750D01*
X46791880Y-79680750D01*
X46791880Y-81280000D01*
X48391130Y-81280000D01*
X48549880Y-81121250D01*
X48552952Y-80157000D01*
X48540692Y-80032518D01*
X48504382Y-79912820D01*
X48445417Y-79802506D01*
X48366065Y-79705815D01*
X48269374Y-79626463D01*
X48159060Y-79567498D01*
X48039362Y-79531188D01*
X47914880Y-79518928D01*
X46950630Y-79522000D01*
X46791880Y-79680750D01*
X46537880Y-79680750D01*
X46379130Y-79522000D01*
X45414880Y-79518928D01*
X45290398Y-79531188D01*
X45170700Y-79567498D01*
X45060386Y-79626463D01*
X44963695Y-79705815D01*
X44884343Y-79802506D01*
X44825378Y-79912820D01*
X44789068Y-80032518D01*
X44776808Y-80157000D01*
X43973006Y-80157000D01*
X43972747Y-79228363D01*
X52840000Y-79228363D01*
X52840000Y-79471637D01*
X52887460Y-79710236D01*
X52980557Y-79934992D01*
X53115713Y-80137267D01*
X53287733Y-80309287D01*
X53490008Y-80444443D01*
X53714764Y-80537540D01*
X53953363Y-80585000D01*
X54196637Y-80585000D01*
X54435236Y-80537540D01*
X54659992Y-80444443D01*
X54862267Y-80309287D01*
X54917501Y-80254053D01*
X54944463Y-80304494D01*
X55023815Y-80401185D01*
X55120506Y-80480537D01*
X55230820Y-80539502D01*
X55350518Y-80575812D01*
X55475000Y-80588072D01*
X56675000Y-80588072D01*
X56799482Y-80575812D01*
X56919180Y-80539502D01*
X57029494Y-80480537D01*
X57126185Y-80401185D01*
X57205537Y-80304494D01*
X57264502Y-80194180D01*
X57300812Y-80074482D01*
X57313072Y-79950000D01*
X57313072Y-78992042D01*
X59303883Y-78992042D01*
X59420155Y-79273829D01*
X59738740Y-79431697D01*
X60082002Y-79524378D01*
X60436749Y-79548313D01*
X60789350Y-79502579D01*
X61126253Y-79388935D01*
X61341605Y-79273829D01*
X61457877Y-78992042D01*
X60380880Y-77915045D01*
X59303883Y-78992042D01*
X57313072Y-78992042D01*
X57313072Y-78750000D01*
X57300812Y-78625518D01*
X57264502Y-78505820D01*
X57205537Y-78395506D01*
X57126185Y-78298815D01*
X57029494Y-78219463D01*
X56919180Y-78160498D01*
X56799482Y-78124188D01*
X56675000Y-78111928D01*
X55475000Y-78111928D01*
X55350518Y-78124188D01*
X55230820Y-78160498D01*
X55120506Y-78219463D01*
X55023815Y-78298815D01*
X54944463Y-78395506D01*
X54917501Y-78445947D01*
X54862267Y-78390713D01*
X54659992Y-78255557D01*
X54435236Y-78162460D01*
X54196637Y-78115000D01*
X53953363Y-78115000D01*
X53714764Y-78162460D01*
X53490008Y-78255557D01*
X53287733Y-78390713D01*
X53115713Y-78562733D01*
X52980557Y-78765008D01*
X52887460Y-78989764D01*
X52840000Y-79228363D01*
X43972747Y-79228363D01*
X43971905Y-76221344D01*
X44779880Y-76221344D01*
X44779880Y-76592656D01*
X44852319Y-76956834D01*
X44994414Y-77299882D01*
X45200705Y-77608618D01*
X45463262Y-77871175D01*
X45771998Y-78077466D01*
X46115046Y-78219561D01*
X46479224Y-78292000D01*
X46850536Y-78292000D01*
X47214714Y-78219561D01*
X47557762Y-78077466D01*
X47866498Y-77871175D01*
X47946364Y-77791309D01*
X58568007Y-77791309D01*
X58613741Y-78143910D01*
X58727385Y-78480813D01*
X58842491Y-78696165D01*
X59124278Y-78812437D01*
X60201275Y-77735440D01*
X59124278Y-76658443D01*
X58842491Y-76774715D01*
X58684623Y-77093300D01*
X58591942Y-77436562D01*
X58568007Y-77791309D01*
X47946364Y-77791309D01*
X48129055Y-77608618D01*
X48335346Y-77299882D01*
X48477441Y-76956834D01*
X48549880Y-76592656D01*
X48549880Y-76221344D01*
X48477441Y-75857166D01*
X48335346Y-75514118D01*
X48129055Y-75205382D01*
X47866498Y-74942825D01*
X47557762Y-74736534D01*
X47214714Y-74594439D01*
X46850536Y-74522000D01*
X46479224Y-74522000D01*
X46115046Y-74594439D01*
X45771998Y-74736534D01*
X45463262Y-74942825D01*
X45200705Y-75205382D01*
X44994414Y-75514118D01*
X44852319Y-75857166D01*
X44779880Y-76221344D01*
X43971905Y-76221344D01*
X43970506Y-71221344D01*
X44779880Y-71221344D01*
X44779880Y-71592656D01*
X44852319Y-71956834D01*
X44994414Y-72299882D01*
X45200705Y-72608618D01*
X45463262Y-72871175D01*
X45771998Y-73077466D01*
X46115046Y-73219561D01*
X46479224Y-73292000D01*
X46850536Y-73292000D01*
X47214714Y-73219561D01*
X47557762Y-73077466D01*
X47866498Y-72871175D01*
X48129055Y-72608618D01*
X48163102Y-72557663D01*
X58575880Y-72557663D01*
X58575880Y-72913217D01*
X58645245Y-73261939D01*
X58781309Y-73590428D01*
X58978845Y-73886061D01*
X59230259Y-74137475D01*
X59525892Y-74335011D01*
X59854381Y-74471075D01*
X60203103Y-74540440D01*
X60558657Y-74540440D01*
X60907379Y-74471075D01*
X61235868Y-74335011D01*
X61372813Y-74243507D01*
X61281309Y-74380452D01*
X61145245Y-74708941D01*
X61075880Y-75057663D01*
X61075880Y-75413217D01*
X61145245Y-75761939D01*
X61281309Y-76090428D01*
X61478845Y-76386061D01*
X61514748Y-76421964D01*
X61457876Y-76478836D01*
X61341605Y-76197051D01*
X61023020Y-76039183D01*
X60679758Y-75946502D01*
X60325011Y-75922567D01*
X59972410Y-75968301D01*
X59635507Y-76081945D01*
X59420155Y-76197051D01*
X59303883Y-76478838D01*
X60380880Y-77555835D01*
X60395023Y-77541693D01*
X60574628Y-77721298D01*
X60560485Y-77735440D01*
X61637482Y-78812437D01*
X61919269Y-78696165D01*
X62077137Y-78377580D01*
X62169818Y-78034318D01*
X62193753Y-77679571D01*
X62148019Y-77326970D01*
X62034375Y-76990067D01*
X61919269Y-76774715D01*
X61637484Y-76658444D01*
X61694356Y-76601572D01*
X61730259Y-76637475D01*
X62025892Y-76835011D01*
X62354381Y-76971075D01*
X62703103Y-77040440D01*
X63058657Y-77040440D01*
X63407379Y-76971075D01*
X63735868Y-76835011D01*
X64031501Y-76637475D01*
X64282915Y-76386061D01*
X64480451Y-76090428D01*
X64616515Y-75761939D01*
X64685880Y-75413217D01*
X64685880Y-75057663D01*
X64616515Y-74708941D01*
X64570480Y-74597801D01*
X66348480Y-74597801D01*
X66348480Y-75018359D01*
X66430527Y-75430836D01*
X66591468Y-75819382D01*
X66825117Y-76169063D01*
X67122497Y-76466443D01*
X67472178Y-76700092D01*
X67860724Y-76861033D01*
X68273201Y-76943080D01*
X68693759Y-76943080D01*
X69106236Y-76861033D01*
X69494782Y-76700092D01*
X69844463Y-76466443D01*
X70141843Y-76169063D01*
X70375492Y-75819382D01*
X70536433Y-75430836D01*
X70618480Y-75018359D01*
X70618480Y-74597801D01*
X76348480Y-74597801D01*
X76348480Y-75018359D01*
X76430527Y-75430836D01*
X76591468Y-75819382D01*
X76825117Y-76169063D01*
X77122497Y-76466443D01*
X77472178Y-76700092D01*
X77860724Y-76861033D01*
X78273201Y-76943080D01*
X78693759Y-76943080D01*
X79106236Y-76861033D01*
X79494782Y-76700092D01*
X79844463Y-76466443D01*
X80141843Y-76169063D01*
X80375492Y-75819382D01*
X80536433Y-75430836D01*
X80618480Y-75018359D01*
X80618480Y-74721721D01*
X88449000Y-74721721D01*
X88449000Y-75142279D01*
X88531047Y-75554756D01*
X88691988Y-75943302D01*
X88925637Y-76292983D01*
X89223017Y-76590363D01*
X89572698Y-76824012D01*
X89961244Y-76984953D01*
X90373721Y-77067000D01*
X90794279Y-77067000D01*
X91206756Y-76984953D01*
X91595302Y-76824012D01*
X91944983Y-76590363D01*
X92111693Y-76423653D01*
X99271952Y-76423653D01*
X99427962Y-76739214D01*
X99802745Y-76930020D01*
X100207551Y-77044044D01*
X100626824Y-77076902D01*
X101044451Y-77027334D01*
X101444383Y-76897243D01*
X101740038Y-76739214D01*
X101896048Y-76423653D01*
X100584000Y-75111605D01*
X99271952Y-76423653D01*
X92111693Y-76423653D01*
X92242363Y-76292983D01*
X92476012Y-75943302D01*
X92636953Y-75554756D01*
X92719000Y-75142279D01*
X92719000Y-74974824D01*
X98439098Y-74974824D01*
X98488666Y-75392451D01*
X98618757Y-75792383D01*
X98776786Y-76088038D01*
X99092347Y-76244048D01*
X100404395Y-74932000D01*
X100763605Y-74932000D01*
X102075653Y-76244048D01*
X102391214Y-76088038D01*
X102582020Y-75713255D01*
X102696044Y-75308449D01*
X102728902Y-74889176D01*
X102679334Y-74471549D01*
X102549243Y-74071617D01*
X102391214Y-73775962D01*
X102075653Y-73619952D01*
X100763605Y-74932000D01*
X100404395Y-74932000D01*
X99092347Y-73619952D01*
X98776786Y-73775962D01*
X98585980Y-74150745D01*
X98471956Y-74555551D01*
X98439098Y-74974824D01*
X92719000Y-74974824D01*
X92719000Y-74721721D01*
X92636953Y-74309244D01*
X92476012Y-73920698D01*
X92242363Y-73571017D01*
X92111693Y-73440347D01*
X99271952Y-73440347D01*
X100584000Y-74752395D01*
X101896048Y-73440347D01*
X101740038Y-73124786D01*
X101365255Y-72933980D01*
X100960449Y-72819956D01*
X100541176Y-72787098D01*
X100123549Y-72836666D01*
X99723617Y-72966757D01*
X99427962Y-73124786D01*
X99271952Y-73440347D01*
X92111693Y-73440347D01*
X91944983Y-73273637D01*
X91595302Y-73039988D01*
X91206756Y-72879047D01*
X90794279Y-72797000D01*
X90373721Y-72797000D01*
X89961244Y-72879047D01*
X89572698Y-73039988D01*
X89223017Y-73273637D01*
X88925637Y-73571017D01*
X88691988Y-73920698D01*
X88531047Y-74309244D01*
X88449000Y-74721721D01*
X80618480Y-74721721D01*
X80618480Y-74597801D01*
X80536433Y-74185324D01*
X80375492Y-73796778D01*
X80141843Y-73447097D01*
X79844463Y-73149717D01*
X79494782Y-72916068D01*
X79106236Y-72755127D01*
X78693759Y-72673080D01*
X78273201Y-72673080D01*
X77860724Y-72755127D01*
X77472178Y-72916068D01*
X77122497Y-73149717D01*
X76825117Y-73447097D01*
X76591468Y-73796778D01*
X76430527Y-74185324D01*
X76348480Y-74597801D01*
X70618480Y-74597801D01*
X70536433Y-74185324D01*
X70375492Y-73796778D01*
X70141843Y-73447097D01*
X69844463Y-73149717D01*
X69494782Y-72916068D01*
X69106236Y-72755127D01*
X68693759Y-72673080D01*
X68273201Y-72673080D01*
X67860724Y-72755127D01*
X67472178Y-72916068D01*
X67122497Y-73149717D01*
X66825117Y-73447097D01*
X66591468Y-73796778D01*
X66430527Y-74185324D01*
X66348480Y-74597801D01*
X64570480Y-74597801D01*
X64480451Y-74380452D01*
X64282915Y-74084819D01*
X64031501Y-73833405D01*
X63735868Y-73635869D01*
X63407379Y-73499805D01*
X63058657Y-73430440D01*
X62703103Y-73430440D01*
X62354381Y-73499805D01*
X62025892Y-73635869D01*
X61888947Y-73727373D01*
X61980451Y-73590428D01*
X62116515Y-73261939D01*
X62185880Y-72913217D01*
X62185880Y-72557663D01*
X62116515Y-72208941D01*
X61980451Y-71880452D01*
X61782915Y-71584819D01*
X61531501Y-71333405D01*
X61235868Y-71135869D01*
X60907379Y-70999805D01*
X60558657Y-70930440D01*
X60203103Y-70930440D01*
X59854381Y-70999805D01*
X59525892Y-71135869D01*
X59230259Y-71333405D01*
X58978845Y-71584819D01*
X58781309Y-71880452D01*
X58645245Y-72208941D01*
X58575880Y-72557663D01*
X48163102Y-72557663D01*
X48335346Y-72299882D01*
X48477441Y-71956834D01*
X48549880Y-71592656D01*
X48549880Y-71221344D01*
X48477441Y-70857166D01*
X48335346Y-70514118D01*
X48129055Y-70205382D01*
X47866498Y-69942825D01*
X47557762Y-69736534D01*
X47214714Y-69594439D01*
X46850536Y-69522000D01*
X46479224Y-69522000D01*
X46115046Y-69594439D01*
X45771998Y-69736534D01*
X45463262Y-69942825D01*
X45200705Y-70205382D01*
X44994414Y-70514118D01*
X44852319Y-70857166D01*
X44779880Y-71221344D01*
X43970506Y-71221344D01*
X43969987Y-69366840D01*
X52228928Y-69366840D01*
X52228928Y-70566840D01*
X52241188Y-70691322D01*
X52277498Y-70811020D01*
X52336463Y-70921334D01*
X52415815Y-71018025D01*
X52512506Y-71097377D01*
X52622820Y-71156342D01*
X52742518Y-71192652D01*
X52867000Y-71204912D01*
X54067000Y-71204912D01*
X54191482Y-71192652D01*
X54311180Y-71156342D01*
X54421494Y-71097377D01*
X54518185Y-71018025D01*
X54597537Y-70921334D01*
X54624499Y-70870893D01*
X54679733Y-70926127D01*
X54882008Y-71061283D01*
X55106764Y-71154380D01*
X55345363Y-71201840D01*
X55588637Y-71201840D01*
X55827236Y-71154380D01*
X56051992Y-71061283D01*
X56254267Y-70926127D01*
X56426287Y-70754107D01*
X56561443Y-70551832D01*
X56654540Y-70327076D01*
X56702000Y-70088477D01*
X56702000Y-69845203D01*
X56667191Y-69670201D01*
X66356080Y-69670201D01*
X66356080Y-70090759D01*
X66438127Y-70503236D01*
X66599068Y-70891782D01*
X66832717Y-71241463D01*
X67130097Y-71538843D01*
X67479778Y-71772492D01*
X67868324Y-71933433D01*
X68280801Y-72015480D01*
X68701359Y-72015480D01*
X69113836Y-71933433D01*
X69502382Y-71772492D01*
X69852063Y-71538843D01*
X70018773Y-71372133D01*
X77179032Y-71372133D01*
X77335042Y-71687694D01*
X77709825Y-71878500D01*
X78114631Y-71992524D01*
X78533904Y-72025382D01*
X78951531Y-71975814D01*
X79351463Y-71845723D01*
X79647118Y-71687694D01*
X79803128Y-71372133D01*
X79770648Y-71339653D01*
X87587952Y-71339653D01*
X87743962Y-71655214D01*
X88118745Y-71846020D01*
X88523551Y-71960044D01*
X88942824Y-71992902D01*
X89360451Y-71943334D01*
X89760383Y-71813243D01*
X90056038Y-71655214D01*
X90212048Y-71339653D01*
X88900000Y-70027605D01*
X87587952Y-71339653D01*
X79770648Y-71339653D01*
X78491080Y-70060085D01*
X77179032Y-71372133D01*
X70018773Y-71372133D01*
X70149443Y-71241463D01*
X70383092Y-70891782D01*
X70544033Y-70503236D01*
X70626080Y-70090759D01*
X70626080Y-69923304D01*
X76346178Y-69923304D01*
X76395746Y-70340931D01*
X76525837Y-70740863D01*
X76683866Y-71036518D01*
X76999427Y-71192528D01*
X78311475Y-69880480D01*
X78670685Y-69880480D01*
X79982733Y-71192528D01*
X80298294Y-71036518D01*
X80489100Y-70661735D01*
X80603124Y-70256929D01*
X80631815Y-69890824D01*
X86755098Y-69890824D01*
X86804666Y-70308451D01*
X86934757Y-70708383D01*
X87092786Y-71004038D01*
X87408347Y-71160048D01*
X88720395Y-69848000D01*
X89079605Y-69848000D01*
X90391653Y-71160048D01*
X90707214Y-71004038D01*
X90898020Y-70629255D01*
X91012044Y-70224449D01*
X91044902Y-69805176D01*
X91025027Y-69637721D01*
X96765000Y-69637721D01*
X96765000Y-70058279D01*
X96847047Y-70470756D01*
X97007988Y-70859302D01*
X97241637Y-71208983D01*
X97539017Y-71506363D01*
X97888698Y-71740012D01*
X98277244Y-71900953D01*
X98689721Y-71983000D01*
X99110279Y-71983000D01*
X99522756Y-71900953D01*
X99911302Y-71740012D01*
X100260983Y-71506363D01*
X100558363Y-71208983D01*
X100792012Y-70859302D01*
X100952953Y-70470756D01*
X101035000Y-70058279D01*
X101035000Y-69637721D01*
X100952953Y-69225244D01*
X100792012Y-68836698D01*
X100558363Y-68487017D01*
X100260983Y-68189637D01*
X99911302Y-67955988D01*
X99522756Y-67795047D01*
X99245017Y-67739801D01*
X141695020Y-67739801D01*
X141695020Y-68160359D01*
X141777067Y-68572836D01*
X141938008Y-68961382D01*
X142171657Y-69311063D01*
X142469037Y-69608443D01*
X142818718Y-69842092D01*
X143207264Y-70003033D01*
X143619741Y-70085080D01*
X144040299Y-70085080D01*
X144452776Y-70003033D01*
X144841322Y-69842092D01*
X145191003Y-69608443D01*
X145488383Y-69311063D01*
X145722032Y-68961382D01*
X145882973Y-68572836D01*
X145965020Y-68160359D01*
X145965020Y-67739801D01*
X151695020Y-67739801D01*
X151695020Y-68160359D01*
X151777067Y-68572836D01*
X151938008Y-68961382D01*
X152171657Y-69311063D01*
X152469037Y-69608443D01*
X152818718Y-69842092D01*
X153207264Y-70003033D01*
X153619741Y-70085080D01*
X154040299Y-70085080D01*
X154452776Y-70003033D01*
X154841322Y-69842092D01*
X155191003Y-69608443D01*
X155488383Y-69311063D01*
X155722032Y-68961382D01*
X155882973Y-68572836D01*
X155965020Y-68160359D01*
X155965020Y-67739801D01*
X155882973Y-67327324D01*
X155722032Y-66938778D01*
X155488383Y-66589097D01*
X155191003Y-66291717D01*
X154841322Y-66058068D01*
X154452776Y-65897127D01*
X154040299Y-65815080D01*
X153619741Y-65815080D01*
X153207264Y-65897127D01*
X152818718Y-66058068D01*
X152469037Y-66291717D01*
X152171657Y-66589097D01*
X151938008Y-66938778D01*
X151777067Y-67327324D01*
X151695020Y-67739801D01*
X145965020Y-67739801D01*
X145882973Y-67327324D01*
X145722032Y-66938778D01*
X145488383Y-66589097D01*
X145191003Y-66291717D01*
X144841322Y-66058068D01*
X144452776Y-65897127D01*
X144040299Y-65815080D01*
X143619741Y-65815080D01*
X143207264Y-65897127D01*
X142818718Y-66058068D01*
X142469037Y-66291717D01*
X142171657Y-66589097D01*
X141938008Y-66938778D01*
X141777067Y-67327324D01*
X141695020Y-67739801D01*
X99245017Y-67739801D01*
X99110279Y-67713000D01*
X98689721Y-67713000D01*
X98277244Y-67795047D01*
X97888698Y-67955988D01*
X97539017Y-68189637D01*
X97241637Y-68487017D01*
X97007988Y-68836698D01*
X96847047Y-69225244D01*
X96765000Y-69637721D01*
X91025027Y-69637721D01*
X90995334Y-69387549D01*
X90865243Y-68987617D01*
X90707214Y-68691962D01*
X90391653Y-68535952D01*
X89079605Y-69848000D01*
X88720395Y-69848000D01*
X87408347Y-68535952D01*
X87092786Y-68691962D01*
X86901980Y-69066745D01*
X86787956Y-69471551D01*
X86755098Y-69890824D01*
X80631815Y-69890824D01*
X80635982Y-69837656D01*
X80586414Y-69420029D01*
X80456323Y-69020097D01*
X80298294Y-68724442D01*
X79982733Y-68568432D01*
X78670685Y-69880480D01*
X78311475Y-69880480D01*
X76999427Y-68568432D01*
X76683866Y-68724442D01*
X76493060Y-69099225D01*
X76379036Y-69504031D01*
X76346178Y-69923304D01*
X70626080Y-69923304D01*
X70626080Y-69670201D01*
X70544033Y-69257724D01*
X70383092Y-68869178D01*
X70149443Y-68519497D01*
X70018773Y-68388827D01*
X77179032Y-68388827D01*
X78491080Y-69700875D01*
X79803128Y-68388827D01*
X79787071Y-68356347D01*
X87587952Y-68356347D01*
X88900000Y-69668395D01*
X90212048Y-68356347D01*
X90056038Y-68040786D01*
X89681255Y-67849980D01*
X89276449Y-67735956D01*
X88857176Y-67703098D01*
X88439549Y-67752666D01*
X88039617Y-67882757D01*
X87743962Y-68040786D01*
X87587952Y-68356347D01*
X79787071Y-68356347D01*
X79647118Y-68073266D01*
X79272335Y-67882460D01*
X78867529Y-67768436D01*
X78448256Y-67735578D01*
X78030629Y-67785146D01*
X77630697Y-67915237D01*
X77335042Y-68073266D01*
X77179032Y-68388827D01*
X70018773Y-68388827D01*
X69852063Y-68222117D01*
X69502382Y-67988468D01*
X69113836Y-67827527D01*
X68701359Y-67745480D01*
X68280801Y-67745480D01*
X67868324Y-67827527D01*
X67479778Y-67988468D01*
X67130097Y-68222117D01*
X66832717Y-68519497D01*
X66599068Y-68869178D01*
X66438127Y-69257724D01*
X66356080Y-69670201D01*
X56667191Y-69670201D01*
X56654540Y-69606604D01*
X56561443Y-69381848D01*
X56426287Y-69179573D01*
X56254267Y-69007553D01*
X56051992Y-68872397D01*
X55827236Y-68779300D01*
X55588637Y-68731840D01*
X55345363Y-68731840D01*
X55106764Y-68779300D01*
X54882008Y-68872397D01*
X54679733Y-69007553D01*
X54624499Y-69062787D01*
X54597537Y-69012346D01*
X54518185Y-68915655D01*
X54421494Y-68836303D01*
X54311180Y-68777338D01*
X54191482Y-68741028D01*
X54067000Y-68728768D01*
X52867000Y-68728768D01*
X52742518Y-68741028D01*
X52622820Y-68777338D01*
X52512506Y-68836303D01*
X52415815Y-68915655D01*
X52336463Y-69012346D01*
X52277498Y-69122660D01*
X52241188Y-69242358D01*
X52228928Y-69366840D01*
X43969987Y-69366840D01*
X43969502Y-67632782D01*
X60116423Y-67632782D01*
X60188006Y-67876751D01*
X60443516Y-67997651D01*
X60717704Y-68066380D01*
X61000032Y-68080297D01*
X61279650Y-68038867D01*
X61545812Y-67943683D01*
X61671034Y-67876751D01*
X61742617Y-67632782D01*
X60929520Y-66819685D01*
X60116423Y-67632782D01*
X43969502Y-67632782D01*
X43969244Y-66710592D01*
X59489303Y-66710592D01*
X59530733Y-66990210D01*
X59625917Y-67256372D01*
X59692849Y-67381594D01*
X59936818Y-67453177D01*
X60749915Y-66640080D01*
X61109125Y-66640080D01*
X61922222Y-67453177D01*
X62166191Y-67381594D01*
X62287091Y-67126084D01*
X62355820Y-66851896D01*
X62369737Y-66569568D01*
X62328307Y-66289950D01*
X62233123Y-66023788D01*
X62166191Y-65898566D01*
X61922222Y-65826983D01*
X61109125Y-66640080D01*
X60749915Y-66640080D01*
X59936818Y-65826983D01*
X59692849Y-65898566D01*
X59571949Y-66154076D01*
X59503220Y-66428264D01*
X59489303Y-66710592D01*
X43969244Y-66710592D01*
X43968301Y-63340080D01*
X59491448Y-63340080D01*
X59491448Y-64940080D01*
X59503708Y-65064562D01*
X59540018Y-65184260D01*
X59598983Y-65294574D01*
X59678335Y-65391265D01*
X59775026Y-65470617D01*
X59885340Y-65529582D01*
X60005038Y-65565892D01*
X60129520Y-65578152D01*
X60136735Y-65578152D01*
X60116423Y-65647378D01*
X60929520Y-66460475D01*
X61742617Y-65647378D01*
X61722305Y-65578152D01*
X61729520Y-65578152D01*
X61854002Y-65565892D01*
X61973700Y-65529582D01*
X62084014Y-65470617D01*
X62180705Y-65391265D01*
X62260057Y-65294574D01*
X62319022Y-65184260D01*
X62355332Y-65064562D01*
X62367592Y-64940080D01*
X62367592Y-64937721D01*
X96765000Y-64937721D01*
X96765000Y-65358279D01*
X96847047Y-65770756D01*
X97007988Y-66159302D01*
X97241637Y-66508983D01*
X97539017Y-66806363D01*
X97888698Y-67040012D01*
X98277244Y-67200953D01*
X98689721Y-67283000D01*
X99110279Y-67283000D01*
X99522756Y-67200953D01*
X99911302Y-67040012D01*
X100260983Y-66806363D01*
X100558363Y-66508983D01*
X100792012Y-66159302D01*
X100952953Y-65770756D01*
X101035000Y-65358279D01*
X101035000Y-65144544D01*
X103293000Y-65144544D01*
X103293000Y-65411456D01*
X103345072Y-65673239D01*
X103447215Y-65919833D01*
X103595503Y-66141762D01*
X103784238Y-66330497D01*
X104006167Y-66478785D01*
X104252761Y-66580928D01*
X104514544Y-66633000D01*
X104781456Y-66633000D01*
X105043239Y-66580928D01*
X105289833Y-66478785D01*
X105511762Y-66330497D01*
X105700497Y-66141762D01*
X105848785Y-65919833D01*
X105950928Y-65673239D01*
X106003000Y-65411456D01*
X106003000Y-65144544D01*
X105950928Y-64882761D01*
X105848785Y-64636167D01*
X105700497Y-64414238D01*
X105511762Y-64225503D01*
X105289833Y-64077215D01*
X105121676Y-64007562D01*
X105236353Y-63965875D01*
X105342068Y-63909368D01*
X105403955Y-63673560D01*
X105240216Y-63509821D01*
X122988120Y-63509821D01*
X122988120Y-63713699D01*
X123027894Y-63913658D01*
X123105915Y-64102016D01*
X123219183Y-64271534D01*
X123363346Y-64415697D01*
X123532864Y-64528965D01*
X123721222Y-64606986D01*
X123921181Y-64646760D01*
X124125059Y-64646760D01*
X124325018Y-64606986D01*
X124513376Y-64528965D01*
X124561574Y-64496760D01*
X125422772Y-64496760D01*
X125508984Y-64554365D01*
X125697342Y-64632386D01*
X125897301Y-64672160D01*
X126101179Y-64672160D01*
X126301138Y-64632386D01*
X126489496Y-64554365D01*
X126659014Y-64441097D01*
X126803177Y-64296934D01*
X126916445Y-64127416D01*
X126994466Y-63939058D01*
X127034240Y-63739099D01*
X127034240Y-63535221D01*
X126994466Y-63335262D01*
X126916445Y-63146904D01*
X126803177Y-62977386D01*
X126659014Y-62833223D01*
X126489496Y-62719955D01*
X126301138Y-62641934D01*
X126101179Y-62602160D01*
X125897301Y-62602160D01*
X125697342Y-62641934D01*
X125508984Y-62719955D01*
X125498800Y-62726760D01*
X124561574Y-62726760D01*
X124513376Y-62694555D01*
X124325018Y-62616534D01*
X124125059Y-62576760D01*
X123921181Y-62576760D01*
X123721222Y-62616534D01*
X123532864Y-62694555D01*
X123363346Y-62807823D01*
X123219183Y-62951986D01*
X123105915Y-63121504D01*
X123027894Y-63309862D01*
X122988120Y-63509821D01*
X105240216Y-63509821D01*
X104648000Y-62917605D01*
X103892045Y-63673560D01*
X103953932Y-63909368D01*
X104169007Y-64009764D01*
X104006167Y-64077215D01*
X103784238Y-64225503D01*
X103595503Y-64414238D01*
X103447215Y-64636167D01*
X103345072Y-64882761D01*
X103293000Y-65144544D01*
X101035000Y-65144544D01*
X101035000Y-64937721D01*
X100952953Y-64525244D01*
X100792012Y-64136698D01*
X100558363Y-63787017D01*
X100260983Y-63489637D01*
X99911302Y-63255988D01*
X99522756Y-63095047D01*
X99110279Y-63013000D01*
X98689721Y-63013000D01*
X98277244Y-63095047D01*
X97888698Y-63255988D01*
X97539017Y-63489637D01*
X97241637Y-63787017D01*
X97007988Y-64136698D01*
X96847047Y-64525244D01*
X96765000Y-64937721D01*
X62367592Y-64937721D01*
X62367592Y-63340080D01*
X62355332Y-63215598D01*
X62319022Y-63095900D01*
X62260057Y-62985586D01*
X62180705Y-62888895D01*
X62084014Y-62809543D01*
X61973700Y-62750578D01*
X61854002Y-62714268D01*
X61729520Y-62702008D01*
X60129520Y-62702008D01*
X60005038Y-62714268D01*
X59885340Y-62750578D01*
X59775026Y-62809543D01*
X59678335Y-62888895D01*
X59598983Y-62985586D01*
X59540018Y-63095900D01*
X59503708Y-63215598D01*
X59491448Y-63340080D01*
X43968301Y-63340080D01*
X43967834Y-61670201D01*
X66356080Y-61670201D01*
X66356080Y-62090759D01*
X66438127Y-62503236D01*
X66599068Y-62891782D01*
X66832717Y-63241463D01*
X67130097Y-63538843D01*
X67479778Y-63772492D01*
X67868324Y-63933433D01*
X68280801Y-64015480D01*
X68701359Y-64015480D01*
X69113836Y-63933433D01*
X69502382Y-63772492D01*
X69852063Y-63538843D01*
X70149443Y-63241463D01*
X70383092Y-62891782D01*
X70416271Y-62811680D01*
X103288439Y-62811680D01*
X103328937Y-63075501D01*
X103420125Y-63326353D01*
X103476632Y-63432068D01*
X103712440Y-63493955D01*
X104468395Y-62738000D01*
X104827605Y-62738000D01*
X105583560Y-63493955D01*
X105819368Y-63432068D01*
X105932266Y-63190210D01*
X105995811Y-62930973D01*
X106007561Y-62664320D01*
X105967063Y-62400499D01*
X105875875Y-62149647D01*
X105819368Y-62043932D01*
X105583560Y-61982045D01*
X104827605Y-62738000D01*
X104468395Y-62738000D01*
X103712440Y-61982045D01*
X103476632Y-62043932D01*
X103363734Y-62285790D01*
X103300189Y-62545027D01*
X103288439Y-62811680D01*
X70416271Y-62811680D01*
X70544033Y-62503236D01*
X70626080Y-62090759D01*
X70626080Y-61670201D01*
X70544033Y-61257724D01*
X70383092Y-60869178D01*
X70149443Y-60519497D01*
X69852063Y-60222117D01*
X69502382Y-59988468D01*
X69113836Y-59827527D01*
X68701359Y-59745480D01*
X68280801Y-59745480D01*
X67868324Y-59827527D01*
X67479778Y-59988468D01*
X67130097Y-60222117D01*
X66832717Y-60519497D01*
X66599068Y-60869178D01*
X66438127Y-61257724D01*
X66356080Y-61670201D01*
X43967834Y-61670201D01*
X43967070Y-58937721D01*
X96765000Y-58937721D01*
X96765000Y-59358279D01*
X96847047Y-59770756D01*
X97007988Y-60159302D01*
X97241637Y-60508983D01*
X97539017Y-60806363D01*
X97888698Y-61040012D01*
X98277244Y-61200953D01*
X98689721Y-61283000D01*
X99110279Y-61283000D01*
X99522756Y-61200953D01*
X99911302Y-61040012D01*
X100260983Y-60806363D01*
X100558363Y-60508983D01*
X100792012Y-60159302D01*
X100831262Y-60064544D01*
X103293000Y-60064544D01*
X103293000Y-60331456D01*
X103345072Y-60593239D01*
X103447215Y-60839833D01*
X103595503Y-61061762D01*
X103784238Y-61250497D01*
X104006167Y-61398785D01*
X104174324Y-61468438D01*
X104059647Y-61510125D01*
X103953932Y-61566632D01*
X103892045Y-61802440D01*
X104648000Y-62558395D01*
X105403955Y-61802440D01*
X105342068Y-61566632D01*
X105126993Y-61466236D01*
X105289833Y-61398785D01*
X105511762Y-61250497D01*
X105700497Y-61061762D01*
X105848785Y-60839833D01*
X105950928Y-60593239D01*
X106003000Y-60331456D01*
X106003000Y-60064544D01*
X105950928Y-59802761D01*
X105848785Y-59556167D01*
X105747900Y-59405181D01*
X114306400Y-59405181D01*
X114306400Y-59609059D01*
X114346174Y-59809018D01*
X114424195Y-59997376D01*
X114537463Y-60166894D01*
X114681626Y-60311057D01*
X114851144Y-60424325D01*
X115039502Y-60502346D01*
X115239461Y-60542120D01*
X115443339Y-60542120D01*
X115643298Y-60502346D01*
X115831656Y-60424325D01*
X115879854Y-60392120D01*
X117429943Y-60392120D01*
X117583881Y-60422740D01*
X117787759Y-60422740D01*
X117987718Y-60382966D01*
X118176076Y-60304945D01*
X118345594Y-60191677D01*
X118489757Y-60047514D01*
X118603025Y-59877996D01*
X118660267Y-59739801D01*
X141695020Y-59739801D01*
X141695020Y-60160359D01*
X141777067Y-60572836D01*
X141938008Y-60961382D01*
X142171657Y-61311063D01*
X142469037Y-61608443D01*
X142818718Y-61842092D01*
X143207264Y-62003033D01*
X143619741Y-62085080D01*
X144040299Y-62085080D01*
X144452776Y-62003033D01*
X144841322Y-61842092D01*
X145191003Y-61608443D01*
X145488383Y-61311063D01*
X145722032Y-60961382D01*
X145882973Y-60572836D01*
X145965020Y-60160359D01*
X145965020Y-59739801D01*
X145882973Y-59327324D01*
X145722032Y-58938778D01*
X145488383Y-58589097D01*
X145191003Y-58291717D01*
X144841322Y-58058068D01*
X144452776Y-57897127D01*
X144040299Y-57815080D01*
X143619741Y-57815080D01*
X143207264Y-57897127D01*
X142818718Y-58058068D01*
X142469037Y-58291717D01*
X142171657Y-58589097D01*
X141938008Y-58938778D01*
X141777067Y-59327324D01*
X141695020Y-59739801D01*
X118660267Y-59739801D01*
X118681046Y-59689638D01*
X118720820Y-59489679D01*
X118720820Y-59285801D01*
X118681046Y-59085842D01*
X118603025Y-58897484D01*
X118489757Y-58727966D01*
X118345594Y-58583803D01*
X118176076Y-58470535D01*
X117987718Y-58392514D01*
X117787759Y-58352740D01*
X117583881Y-58352740D01*
X117383922Y-58392514D01*
X117195564Y-58470535D01*
X117026046Y-58583803D01*
X116987729Y-58622120D01*
X115879854Y-58622120D01*
X115831656Y-58589915D01*
X115643298Y-58511894D01*
X115443339Y-58472120D01*
X115239461Y-58472120D01*
X115039502Y-58511894D01*
X114851144Y-58589915D01*
X114681626Y-58703183D01*
X114537463Y-58847346D01*
X114424195Y-59016864D01*
X114346174Y-59205222D01*
X114306400Y-59405181D01*
X105747900Y-59405181D01*
X105700497Y-59334238D01*
X105511762Y-59145503D01*
X105289833Y-58997215D01*
X105043239Y-58895072D01*
X104781456Y-58843000D01*
X104514544Y-58843000D01*
X104252761Y-58895072D01*
X104006167Y-58997215D01*
X103784238Y-59145503D01*
X103595503Y-59334238D01*
X103447215Y-59556167D01*
X103345072Y-59802761D01*
X103293000Y-60064544D01*
X100831262Y-60064544D01*
X100952953Y-59770756D01*
X101035000Y-59358279D01*
X101035000Y-58937721D01*
X100952953Y-58525244D01*
X100792012Y-58136698D01*
X100558363Y-57787017D01*
X100260983Y-57489637D01*
X99911302Y-57255988D01*
X99522756Y-57095047D01*
X99110279Y-57013000D01*
X98689721Y-57013000D01*
X98277244Y-57095047D01*
X97888698Y-57255988D01*
X97539017Y-57489637D01*
X97241637Y-57787017D01*
X97007988Y-58136698D01*
X96847047Y-58525244D01*
X96765000Y-58937721D01*
X43967070Y-58937721D01*
X43964956Y-51388720D01*
X59417128Y-51388720D01*
X59417128Y-52588720D01*
X59429388Y-52713202D01*
X59465698Y-52832900D01*
X59524663Y-52943214D01*
X59604015Y-53039905D01*
X59700706Y-53119257D01*
X59751147Y-53146219D01*
X59695913Y-53201453D01*
X59560757Y-53403728D01*
X59467660Y-53628484D01*
X59420200Y-53867083D01*
X59420200Y-54110357D01*
X59467660Y-54348956D01*
X59560757Y-54573712D01*
X59695913Y-54775987D01*
X59867933Y-54948007D01*
X60070208Y-55083163D01*
X60294964Y-55176260D01*
X60533563Y-55223720D01*
X60776837Y-55223720D01*
X61015436Y-55176260D01*
X61240192Y-55083163D01*
X61442467Y-54948007D01*
X61614487Y-54775987D01*
X61749643Y-54573712D01*
X61842740Y-54348956D01*
X61890200Y-54110357D01*
X61890200Y-53867083D01*
X61851038Y-53670201D01*
X66356080Y-53670201D01*
X66356080Y-54090759D01*
X66438127Y-54503236D01*
X66599068Y-54891782D01*
X66832717Y-55241463D01*
X67130097Y-55538843D01*
X67479778Y-55772492D01*
X67868324Y-55933433D01*
X68280801Y-56015480D01*
X68701359Y-56015480D01*
X69113836Y-55933433D01*
X69502382Y-55772492D01*
X69852063Y-55538843D01*
X70149443Y-55241463D01*
X70383092Y-54891782D01*
X70544033Y-54503236D01*
X70626080Y-54090759D01*
X70626080Y-53670201D01*
X76356080Y-53670201D01*
X76356080Y-54090759D01*
X76438127Y-54503236D01*
X76599068Y-54891782D01*
X76832717Y-55241463D01*
X77130097Y-55538843D01*
X77479778Y-55772492D01*
X77868324Y-55933433D01*
X78280801Y-56015480D01*
X78701359Y-56015480D01*
X79113836Y-55933433D01*
X79502382Y-55772492D01*
X79852063Y-55538843D01*
X80149443Y-55241463D01*
X80383092Y-54891782D01*
X80544033Y-54503236D01*
X80626080Y-54090759D01*
X80626080Y-53670201D01*
X80619620Y-53637721D01*
X86765000Y-53637721D01*
X86765000Y-54058279D01*
X86847047Y-54470756D01*
X87007988Y-54859302D01*
X87241637Y-55208983D01*
X87539017Y-55506363D01*
X87888698Y-55740012D01*
X88277244Y-55900953D01*
X88689721Y-55983000D01*
X89110279Y-55983000D01*
X89522756Y-55900953D01*
X89911302Y-55740012D01*
X90260983Y-55506363D01*
X90558363Y-55208983D01*
X90792012Y-54859302D01*
X90952953Y-54470756D01*
X91035000Y-54058279D01*
X91035000Y-53637721D01*
X96765000Y-53637721D01*
X96765000Y-54058279D01*
X96847047Y-54470756D01*
X97007988Y-54859302D01*
X97241637Y-55208983D01*
X97539017Y-55506363D01*
X97888698Y-55740012D01*
X98277244Y-55900953D01*
X98689721Y-55983000D01*
X99110279Y-55983000D01*
X99522756Y-55900953D01*
X99911302Y-55740012D01*
X100260983Y-55506363D01*
X100558363Y-55208983D01*
X100792012Y-54859302D01*
X100952953Y-54470756D01*
X101035000Y-54058279D01*
X101035000Y-53637721D01*
X100952953Y-53225244D01*
X100792012Y-52836698D01*
X100558363Y-52487017D01*
X100260983Y-52189637D01*
X99911302Y-51955988D01*
X99522756Y-51795047D01*
X99245017Y-51739801D01*
X141695020Y-51739801D01*
X141695020Y-52160359D01*
X141777067Y-52572836D01*
X141938008Y-52961382D01*
X142171657Y-53311063D01*
X142469037Y-53608443D01*
X142818718Y-53842092D01*
X143207264Y-54003033D01*
X143619741Y-54085080D01*
X144040299Y-54085080D01*
X144452776Y-54003033D01*
X144841322Y-53842092D01*
X145191003Y-53608443D01*
X145488383Y-53311063D01*
X145722032Y-52961382D01*
X145882973Y-52572836D01*
X145965020Y-52160359D01*
X145965020Y-51739801D01*
X151695020Y-51739801D01*
X151695020Y-52160359D01*
X151777067Y-52572836D01*
X151938008Y-52961382D01*
X152171657Y-53311063D01*
X152469037Y-53608443D01*
X152818718Y-53842092D01*
X153207264Y-54003033D01*
X153619741Y-54085080D01*
X154040299Y-54085080D01*
X154452776Y-54003033D01*
X154841322Y-53842092D01*
X155191003Y-53608443D01*
X155488383Y-53311063D01*
X155722032Y-52961382D01*
X155882973Y-52572836D01*
X155965020Y-52160359D01*
X155965020Y-51739801D01*
X155882973Y-51327324D01*
X155722032Y-50938778D01*
X155488383Y-50589097D01*
X155191003Y-50291717D01*
X154841322Y-50058068D01*
X154452776Y-49897127D01*
X154040299Y-49815080D01*
X153619741Y-49815080D01*
X153207264Y-49897127D01*
X152818718Y-50058068D01*
X152469037Y-50291717D01*
X152171657Y-50589097D01*
X151938008Y-50938778D01*
X151777067Y-51327324D01*
X151695020Y-51739801D01*
X145965020Y-51739801D01*
X145882973Y-51327324D01*
X145722032Y-50938778D01*
X145488383Y-50589097D01*
X145191003Y-50291717D01*
X144841322Y-50058068D01*
X144452776Y-49897127D01*
X144040299Y-49815080D01*
X143619741Y-49815080D01*
X143207264Y-49897127D01*
X142818718Y-50058068D01*
X142469037Y-50291717D01*
X142171657Y-50589097D01*
X141938008Y-50938778D01*
X141777067Y-51327324D01*
X141695020Y-51739801D01*
X99245017Y-51739801D01*
X99110279Y-51713000D01*
X98689721Y-51713000D01*
X98277244Y-51795047D01*
X97888698Y-51955988D01*
X97539017Y-52189637D01*
X97241637Y-52487017D01*
X97007988Y-52836698D01*
X96847047Y-53225244D01*
X96765000Y-53637721D01*
X91035000Y-53637721D01*
X90952953Y-53225244D01*
X90792012Y-52836698D01*
X90558363Y-52487017D01*
X90260983Y-52189637D01*
X89911302Y-51955988D01*
X89522756Y-51795047D01*
X89110279Y-51713000D01*
X88689721Y-51713000D01*
X88277244Y-51795047D01*
X87888698Y-51955988D01*
X87539017Y-52189637D01*
X87241637Y-52487017D01*
X87007988Y-52836698D01*
X86847047Y-53225244D01*
X86765000Y-53637721D01*
X80619620Y-53637721D01*
X80544033Y-53257724D01*
X80383092Y-52869178D01*
X80149443Y-52519497D01*
X79852063Y-52222117D01*
X79502382Y-51988468D01*
X79113836Y-51827527D01*
X78701359Y-51745480D01*
X78280801Y-51745480D01*
X77868324Y-51827527D01*
X77479778Y-51988468D01*
X77130097Y-52222117D01*
X76832717Y-52519497D01*
X76599068Y-52869178D01*
X76438127Y-53257724D01*
X76356080Y-53670201D01*
X70626080Y-53670201D01*
X70544033Y-53257724D01*
X70383092Y-52869178D01*
X70149443Y-52519497D01*
X69852063Y-52222117D01*
X69502382Y-51988468D01*
X69113836Y-51827527D01*
X68701359Y-51745480D01*
X68280801Y-51745480D01*
X67868324Y-51827527D01*
X67479778Y-51988468D01*
X67130097Y-52222117D01*
X66832717Y-52519497D01*
X66599068Y-52869178D01*
X66438127Y-53257724D01*
X66356080Y-53670201D01*
X61851038Y-53670201D01*
X61842740Y-53628484D01*
X61749643Y-53403728D01*
X61614487Y-53201453D01*
X61559253Y-53146219D01*
X61609694Y-53119257D01*
X61706385Y-53039905D01*
X61785737Y-52943214D01*
X61844702Y-52832900D01*
X61881012Y-52713202D01*
X61893272Y-52588720D01*
X61893272Y-51388720D01*
X61881012Y-51264238D01*
X61844702Y-51144540D01*
X61785737Y-51034226D01*
X61706385Y-50937535D01*
X61609694Y-50858183D01*
X61499380Y-50799218D01*
X61379682Y-50762908D01*
X61255200Y-50750648D01*
X60055200Y-50750648D01*
X59930718Y-50762908D01*
X59811020Y-50799218D01*
X59700706Y-50858183D01*
X59604015Y-50937535D01*
X59524663Y-51034226D01*
X59465698Y-51144540D01*
X59429388Y-51264238D01*
X59417128Y-51388720D01*
X43964956Y-51388720D01*
X43964522Y-49835051D01*
X72853834Y-49835051D01*
X72964681Y-50112234D01*
X73275600Y-50265609D01*
X73610465Y-50355380D01*
X73956410Y-50378096D01*
X74300140Y-50332886D01*
X74628445Y-50221486D01*
X74832839Y-50112234D01*
X74943686Y-49835051D01*
X77933834Y-49835051D01*
X78044681Y-50112234D01*
X78355600Y-50265609D01*
X78690465Y-50355380D01*
X79036410Y-50378096D01*
X79380140Y-50332886D01*
X79708445Y-50221486D01*
X79912839Y-50112234D01*
X80023686Y-49835051D01*
X78978760Y-48790125D01*
X77933834Y-49835051D01*
X74943686Y-49835051D01*
X73898760Y-48790125D01*
X72853834Y-49835051D01*
X43964522Y-49835051D01*
X43964195Y-48668170D01*
X72131184Y-48668170D01*
X72176394Y-49011900D01*
X72287794Y-49340205D01*
X72397046Y-49544599D01*
X72674229Y-49655446D01*
X73719155Y-48610520D01*
X74078365Y-48610520D01*
X75123291Y-49655446D01*
X75400474Y-49544599D01*
X75553849Y-49233680D01*
X75643620Y-48898815D01*
X75658764Y-48668170D01*
X77211184Y-48668170D01*
X77256394Y-49011900D01*
X77367794Y-49340205D01*
X77477046Y-49544599D01*
X77754229Y-49655446D01*
X78799155Y-48610520D01*
X79158365Y-48610520D01*
X80203291Y-49655446D01*
X80452837Y-49555651D01*
X87093074Y-49555651D01*
X87203921Y-49832834D01*
X87514840Y-49986209D01*
X87849705Y-50075980D01*
X88195650Y-50098696D01*
X88539380Y-50053486D01*
X88867685Y-49942086D01*
X89072079Y-49832834D01*
X89182926Y-49555651D01*
X92173074Y-49555651D01*
X92283921Y-49832834D01*
X92594840Y-49986209D01*
X92929705Y-50075980D01*
X93275650Y-50098696D01*
X93619380Y-50053486D01*
X93947685Y-49942086D01*
X94152079Y-49832834D01*
X94262926Y-49555651D01*
X94217206Y-49509931D01*
X99376514Y-49509931D01*
X99487361Y-49787114D01*
X99798280Y-49940489D01*
X100133145Y-50030260D01*
X100479090Y-50052976D01*
X100822820Y-50007766D01*
X101151125Y-49896366D01*
X101355519Y-49787114D01*
X101466366Y-49509931D01*
X104456514Y-49509931D01*
X104567361Y-49787114D01*
X104878280Y-49940489D01*
X105213145Y-50030260D01*
X105559090Y-50052976D01*
X105902820Y-50007766D01*
X106231125Y-49896366D01*
X106435519Y-49787114D01*
X106546366Y-49509931D01*
X105501440Y-48465005D01*
X104456514Y-49509931D01*
X101466366Y-49509931D01*
X100421440Y-48465005D01*
X99376514Y-49509931D01*
X94217206Y-49509931D01*
X93218000Y-48510725D01*
X92173074Y-49555651D01*
X89182926Y-49555651D01*
X88138000Y-48510725D01*
X87093074Y-49555651D01*
X80452837Y-49555651D01*
X80480474Y-49544599D01*
X80633849Y-49233680D01*
X80723620Y-48898815D01*
X80746336Y-48552870D01*
X80724753Y-48388770D01*
X86370424Y-48388770D01*
X86415634Y-48732500D01*
X86527034Y-49060805D01*
X86636286Y-49265199D01*
X86913469Y-49376046D01*
X87958395Y-48331120D01*
X88317605Y-48331120D01*
X89362531Y-49376046D01*
X89639714Y-49265199D01*
X89793089Y-48954280D01*
X89882860Y-48619415D01*
X89898004Y-48388770D01*
X91450424Y-48388770D01*
X91495634Y-48732500D01*
X91607034Y-49060805D01*
X91716286Y-49265199D01*
X91993469Y-49376046D01*
X93038395Y-48331120D01*
X93397605Y-48331120D01*
X94442531Y-49376046D01*
X94719714Y-49265199D01*
X94873089Y-48954280D01*
X94962860Y-48619415D01*
X94981007Y-48343050D01*
X98653864Y-48343050D01*
X98699074Y-48686780D01*
X98810474Y-49015085D01*
X98919726Y-49219479D01*
X99196909Y-49330326D01*
X100241835Y-48285400D01*
X100601045Y-48285400D01*
X101645971Y-49330326D01*
X101923154Y-49219479D01*
X102076529Y-48908560D01*
X102166300Y-48573695D01*
X102181444Y-48343050D01*
X103733864Y-48343050D01*
X103779074Y-48686780D01*
X103890474Y-49015085D01*
X103999726Y-49219479D01*
X104276909Y-49330326D01*
X105321835Y-48285400D01*
X105681045Y-48285400D01*
X106725971Y-49330326D01*
X107003154Y-49219479D01*
X107092927Y-49037491D01*
X144580894Y-49037491D01*
X144691741Y-49314674D01*
X145002660Y-49468049D01*
X145337525Y-49557820D01*
X145683470Y-49580536D01*
X146027200Y-49535326D01*
X146355505Y-49423926D01*
X146559899Y-49314674D01*
X146670746Y-49037491D01*
X149660894Y-49037491D01*
X149771741Y-49314674D01*
X150082660Y-49468049D01*
X150417525Y-49557820D01*
X150763470Y-49580536D01*
X151107200Y-49535326D01*
X151435505Y-49423926D01*
X151639899Y-49314674D01*
X151750746Y-49037491D01*
X150705820Y-47992565D01*
X149660894Y-49037491D01*
X146670746Y-49037491D01*
X145625820Y-47992565D01*
X144580894Y-49037491D01*
X107092927Y-49037491D01*
X107156529Y-48908560D01*
X107246300Y-48573695D01*
X107269016Y-48227750D01*
X107223806Y-47884020D01*
X107219256Y-47870610D01*
X143858244Y-47870610D01*
X143903454Y-48214340D01*
X144014854Y-48542645D01*
X144124106Y-48747039D01*
X144401289Y-48857886D01*
X145446215Y-47812960D01*
X145805425Y-47812960D01*
X146850351Y-48857886D01*
X147127534Y-48747039D01*
X147280909Y-48436120D01*
X147370680Y-48101255D01*
X147385824Y-47870610D01*
X148938244Y-47870610D01*
X148983454Y-48214340D01*
X149094854Y-48542645D01*
X149204106Y-48747039D01*
X149481289Y-48857886D01*
X150526215Y-47812960D01*
X150885425Y-47812960D01*
X151930351Y-48857886D01*
X152207534Y-48747039D01*
X152360909Y-48436120D01*
X152450680Y-48101255D01*
X152473396Y-47755310D01*
X152428186Y-47411580D01*
X152316786Y-47083275D01*
X152207534Y-46878881D01*
X151930351Y-46768034D01*
X150885425Y-47812960D01*
X150526215Y-47812960D01*
X149481289Y-46768034D01*
X149204106Y-46878881D01*
X149050731Y-47189800D01*
X148960960Y-47524665D01*
X148938244Y-47870610D01*
X147385824Y-47870610D01*
X147393396Y-47755310D01*
X147348186Y-47411580D01*
X147236786Y-47083275D01*
X147127534Y-46878881D01*
X146850351Y-46768034D01*
X145805425Y-47812960D01*
X145446215Y-47812960D01*
X144401289Y-46768034D01*
X144124106Y-46878881D01*
X143970731Y-47189800D01*
X143880960Y-47524665D01*
X143858244Y-47870610D01*
X107219256Y-47870610D01*
X107112406Y-47555715D01*
X107003154Y-47351321D01*
X106725971Y-47240474D01*
X105681045Y-48285400D01*
X105321835Y-48285400D01*
X104276909Y-47240474D01*
X103999726Y-47351321D01*
X103846351Y-47662240D01*
X103756580Y-47997105D01*
X103733864Y-48343050D01*
X102181444Y-48343050D01*
X102189016Y-48227750D01*
X102143806Y-47884020D01*
X102032406Y-47555715D01*
X101923154Y-47351321D01*
X101645971Y-47240474D01*
X100601045Y-48285400D01*
X100241835Y-48285400D01*
X99196909Y-47240474D01*
X98919726Y-47351321D01*
X98766351Y-47662240D01*
X98676580Y-47997105D01*
X98653864Y-48343050D01*
X94981007Y-48343050D01*
X94985576Y-48273470D01*
X94940366Y-47929740D01*
X94828966Y-47601435D01*
X94719714Y-47397041D01*
X94442531Y-47286194D01*
X93397605Y-48331120D01*
X93038395Y-48331120D01*
X91993469Y-47286194D01*
X91716286Y-47397041D01*
X91562911Y-47707960D01*
X91473140Y-48042825D01*
X91450424Y-48388770D01*
X89898004Y-48388770D01*
X89905576Y-48273470D01*
X89860366Y-47929740D01*
X89748966Y-47601435D01*
X89639714Y-47397041D01*
X89362531Y-47286194D01*
X88317605Y-48331120D01*
X87958395Y-48331120D01*
X86913469Y-47286194D01*
X86636286Y-47397041D01*
X86482911Y-47707960D01*
X86393140Y-48042825D01*
X86370424Y-48388770D01*
X80724753Y-48388770D01*
X80701126Y-48209140D01*
X80589726Y-47880835D01*
X80480474Y-47676441D01*
X80203291Y-47565594D01*
X79158365Y-48610520D01*
X78799155Y-48610520D01*
X77754229Y-47565594D01*
X77477046Y-47676441D01*
X77323671Y-47987360D01*
X77233900Y-48322225D01*
X77211184Y-48668170D01*
X75658764Y-48668170D01*
X75666336Y-48552870D01*
X75621126Y-48209140D01*
X75509726Y-47880835D01*
X75400474Y-47676441D01*
X75123291Y-47565594D01*
X74078365Y-48610520D01*
X73719155Y-48610520D01*
X72674229Y-47565594D01*
X72397046Y-47676441D01*
X72243671Y-47987360D01*
X72153900Y-48322225D01*
X72131184Y-48668170D01*
X43964195Y-48668170D01*
X43963836Y-47385989D01*
X72853834Y-47385989D01*
X73898760Y-48430915D01*
X74943686Y-47385989D01*
X74832839Y-47108806D01*
X74521920Y-46955431D01*
X74187055Y-46865660D01*
X73841110Y-46842944D01*
X73497380Y-46888154D01*
X73169075Y-46999554D01*
X72964681Y-47108806D01*
X72853834Y-47385989D01*
X43963836Y-47385989D01*
X43962838Y-43823472D01*
X44605140Y-43823472D01*
X44605140Y-44263728D01*
X44691030Y-44695525D01*
X44859509Y-45102269D01*
X45104102Y-45468329D01*
X45415411Y-45779638D01*
X45781471Y-46024231D01*
X46188215Y-46192710D01*
X46620012Y-46278600D01*
X47060268Y-46278600D01*
X47492065Y-46192710D01*
X47898809Y-46024231D01*
X48074222Y-45907024D01*
X74778760Y-45907024D01*
X74778760Y-46234016D01*
X74842553Y-46554724D01*
X74967687Y-46856825D01*
X75149354Y-47128708D01*
X75380572Y-47359926D01*
X75652455Y-47541593D01*
X75954556Y-47666727D01*
X76275264Y-47730520D01*
X76602256Y-47730520D01*
X76922964Y-47666727D01*
X77225065Y-47541593D01*
X77457942Y-47385989D01*
X77933834Y-47385989D01*
X78978760Y-48430915D01*
X80023686Y-47385989D01*
X79912839Y-47108806D01*
X79908345Y-47106589D01*
X87093074Y-47106589D01*
X88138000Y-48151515D01*
X89182926Y-47106589D01*
X89072079Y-46829406D01*
X88761160Y-46676031D01*
X88426295Y-46586260D01*
X88080350Y-46563544D01*
X87736620Y-46608754D01*
X87408315Y-46720154D01*
X87203921Y-46829406D01*
X87093074Y-47106589D01*
X79908345Y-47106589D01*
X79601920Y-46955431D01*
X79267055Y-46865660D01*
X78921110Y-46842944D01*
X78577380Y-46888154D01*
X78249075Y-46999554D01*
X78044681Y-47108806D01*
X77933834Y-47385989D01*
X77457942Y-47385989D01*
X77496948Y-47359926D01*
X77728166Y-47128708D01*
X77909833Y-46856825D01*
X78034967Y-46554724D01*
X78098760Y-46234016D01*
X78098760Y-45907024D01*
X78043184Y-45627624D01*
X89018000Y-45627624D01*
X89018000Y-45954616D01*
X89081793Y-46275324D01*
X89206927Y-46577425D01*
X89388594Y-46849308D01*
X89619812Y-47080526D01*
X89891695Y-47262193D01*
X90193796Y-47387327D01*
X90514504Y-47451120D01*
X90841496Y-47451120D01*
X91162204Y-47387327D01*
X91464305Y-47262193D01*
X91697182Y-47106589D01*
X92173074Y-47106589D01*
X93218000Y-48151515D01*
X94262926Y-47106589D01*
X94244643Y-47060869D01*
X99376514Y-47060869D01*
X100421440Y-48105795D01*
X101466366Y-47060869D01*
X101355519Y-46783686D01*
X101044600Y-46630311D01*
X100709735Y-46540540D01*
X100363790Y-46517824D01*
X100020060Y-46563034D01*
X99691755Y-46674434D01*
X99487361Y-46783686D01*
X99376514Y-47060869D01*
X94244643Y-47060869D01*
X94152079Y-46829406D01*
X93841160Y-46676031D01*
X93506295Y-46586260D01*
X93160350Y-46563544D01*
X92816620Y-46608754D01*
X92488315Y-46720154D01*
X92283921Y-46829406D01*
X92173074Y-47106589D01*
X91697182Y-47106589D01*
X91736188Y-47080526D01*
X91967406Y-46849308D01*
X92149073Y-46577425D01*
X92274207Y-46275324D01*
X92338000Y-45954616D01*
X92338000Y-45627624D01*
X92328906Y-45581904D01*
X101301440Y-45581904D01*
X101301440Y-45908896D01*
X101365233Y-46229604D01*
X101490367Y-46531705D01*
X101672034Y-46803588D01*
X101903252Y-47034806D01*
X102175135Y-47216473D01*
X102477236Y-47341607D01*
X102797944Y-47405400D01*
X103124936Y-47405400D01*
X103445644Y-47341607D01*
X103747745Y-47216473D01*
X103980622Y-47060869D01*
X104456514Y-47060869D01*
X105501440Y-48105795D01*
X106546366Y-47060869D01*
X106435519Y-46783686D01*
X106124600Y-46630311D01*
X106084199Y-46619480D01*
X110887928Y-46619480D01*
X110900188Y-46743962D01*
X110936498Y-46863660D01*
X110995463Y-46973974D01*
X111074815Y-47070665D01*
X111171506Y-47150017D01*
X111281820Y-47208982D01*
X111401518Y-47245292D01*
X111526000Y-47257552D01*
X112490250Y-47254480D01*
X112649000Y-47095730D01*
X112649000Y-45496480D01*
X112903000Y-45496480D01*
X112903000Y-47095730D01*
X113061750Y-47254480D01*
X114026000Y-47257552D01*
X114150482Y-47245292D01*
X114270180Y-47208982D01*
X114380494Y-47150017D01*
X114477185Y-47070665D01*
X114556537Y-46973974D01*
X114615502Y-46863660D01*
X114651812Y-46743962D01*
X114664072Y-46619480D01*
X114661000Y-45655230D01*
X114502250Y-45496480D01*
X112903000Y-45496480D01*
X112649000Y-45496480D01*
X111049750Y-45496480D01*
X110891000Y-45655230D01*
X110887928Y-46619480D01*
X106084199Y-46619480D01*
X105789735Y-46540540D01*
X105443790Y-46517824D01*
X105100060Y-46563034D01*
X104771755Y-46674434D01*
X104567361Y-46783686D01*
X104456514Y-47060869D01*
X103980622Y-47060869D01*
X104019628Y-47034806D01*
X104250846Y-46803588D01*
X104432513Y-46531705D01*
X104557647Y-46229604D01*
X104621440Y-45908896D01*
X104621440Y-45581904D01*
X104557647Y-45261196D01*
X104432513Y-44959095D01*
X104250846Y-44687212D01*
X104019628Y-44455994D01*
X103980623Y-44429931D01*
X104456514Y-44429931D01*
X104567361Y-44707114D01*
X104878280Y-44860489D01*
X105213145Y-44950260D01*
X105559090Y-44972976D01*
X105902820Y-44927766D01*
X106231125Y-44816366D01*
X106435519Y-44707114D01*
X106546366Y-44429931D01*
X105501440Y-43385005D01*
X104456514Y-44429931D01*
X103980623Y-44429931D01*
X103747745Y-44274327D01*
X103445644Y-44149193D01*
X103124936Y-44085400D01*
X102797944Y-44085400D01*
X102477236Y-44149193D01*
X102175135Y-44274327D01*
X101903252Y-44455994D01*
X101672034Y-44687212D01*
X101490367Y-44959095D01*
X101365233Y-45261196D01*
X101301440Y-45581904D01*
X92328906Y-45581904D01*
X92274207Y-45306916D01*
X92149073Y-45004815D01*
X91967406Y-44732932D01*
X91736188Y-44501714D01*
X91697183Y-44475651D01*
X92173074Y-44475651D01*
X92283921Y-44752834D01*
X92594840Y-44906209D01*
X92929705Y-44995980D01*
X93275650Y-45018696D01*
X93619380Y-44973486D01*
X93947685Y-44862086D01*
X94152079Y-44752834D01*
X94262926Y-44475651D01*
X94217206Y-44429931D01*
X99376514Y-44429931D01*
X99487361Y-44707114D01*
X99798280Y-44860489D01*
X100133145Y-44950260D01*
X100479090Y-44972976D01*
X100822820Y-44927766D01*
X101151125Y-44816366D01*
X101355519Y-44707114D01*
X101466366Y-44429931D01*
X100421440Y-43385005D01*
X99376514Y-44429931D01*
X94217206Y-44429931D01*
X93218000Y-43430725D01*
X92173074Y-44475651D01*
X91697183Y-44475651D01*
X91464305Y-44320047D01*
X91162204Y-44194913D01*
X90841496Y-44131120D01*
X90514504Y-44131120D01*
X90193796Y-44194913D01*
X89891695Y-44320047D01*
X89619812Y-44501714D01*
X89388594Y-44732932D01*
X89206927Y-45004815D01*
X89081793Y-45306916D01*
X89018000Y-45627624D01*
X78043184Y-45627624D01*
X78034967Y-45586316D01*
X77909833Y-45284215D01*
X77728166Y-45012332D01*
X77496948Y-44781114D01*
X77457943Y-44755051D01*
X77933834Y-44755051D01*
X78044681Y-45032234D01*
X78355600Y-45185609D01*
X78690465Y-45275380D01*
X79036410Y-45298096D01*
X79380140Y-45252886D01*
X79708445Y-45141486D01*
X79912839Y-45032234D01*
X80023686Y-44755051D01*
X78978760Y-43710125D01*
X77933834Y-44755051D01*
X77457943Y-44755051D01*
X77225065Y-44599447D01*
X76922964Y-44474313D01*
X76602256Y-44410520D01*
X76275264Y-44410520D01*
X75954556Y-44474313D01*
X75652455Y-44599447D01*
X75380572Y-44781114D01*
X75149354Y-45012332D01*
X74967687Y-45284215D01*
X74842553Y-45586316D01*
X74778760Y-45907024D01*
X48074222Y-45907024D01*
X48264869Y-45779638D01*
X48576178Y-45468329D01*
X48820771Y-45102269D01*
X48964593Y-44755051D01*
X72853834Y-44755051D01*
X72964681Y-45032234D01*
X73275600Y-45185609D01*
X73610465Y-45275380D01*
X73956410Y-45298096D01*
X74300140Y-45252886D01*
X74628445Y-45141486D01*
X74832839Y-45032234D01*
X74943686Y-44755051D01*
X73898760Y-43710125D01*
X72853834Y-44755051D01*
X48964593Y-44755051D01*
X48989250Y-44695525D01*
X49075140Y-44263728D01*
X49075140Y-43823472D01*
X49028336Y-43588170D01*
X72131184Y-43588170D01*
X72176394Y-43931900D01*
X72287794Y-44260205D01*
X72397046Y-44464599D01*
X72674229Y-44575446D01*
X73719155Y-43530520D01*
X74078365Y-43530520D01*
X75123291Y-44575446D01*
X75400474Y-44464599D01*
X75553849Y-44153680D01*
X75643620Y-43818815D01*
X75658764Y-43588170D01*
X77211184Y-43588170D01*
X77256394Y-43931900D01*
X77367794Y-44260205D01*
X77477046Y-44464599D01*
X77754229Y-44575446D01*
X78799155Y-43530520D01*
X79158365Y-43530520D01*
X80203291Y-44575446D01*
X80452837Y-44475651D01*
X87093074Y-44475651D01*
X87203921Y-44752834D01*
X87514840Y-44906209D01*
X87849705Y-44995980D01*
X88195650Y-45018696D01*
X88539380Y-44973486D01*
X88867685Y-44862086D01*
X89072079Y-44752834D01*
X89182926Y-44475651D01*
X88138000Y-43430725D01*
X87093074Y-44475651D01*
X80452837Y-44475651D01*
X80480474Y-44464599D01*
X80633849Y-44153680D01*
X80723620Y-43818815D01*
X80746336Y-43472870D01*
X80724753Y-43308770D01*
X86370424Y-43308770D01*
X86415634Y-43652500D01*
X86527034Y-43980805D01*
X86636286Y-44185199D01*
X86913469Y-44296046D01*
X87958395Y-43251120D01*
X88317605Y-43251120D01*
X89362531Y-44296046D01*
X89639714Y-44185199D01*
X89793089Y-43874280D01*
X89882860Y-43539415D01*
X89898004Y-43308770D01*
X91450424Y-43308770D01*
X91495634Y-43652500D01*
X91607034Y-43980805D01*
X91716286Y-44185199D01*
X91993469Y-44296046D01*
X93038395Y-43251120D01*
X93397605Y-43251120D01*
X94442531Y-44296046D01*
X94719714Y-44185199D01*
X94873089Y-43874280D01*
X94962860Y-43539415D01*
X94981007Y-43263050D01*
X98653864Y-43263050D01*
X98699074Y-43606780D01*
X98810474Y-43935085D01*
X98919726Y-44139479D01*
X99196909Y-44250326D01*
X100241835Y-43205400D01*
X100601045Y-43205400D01*
X101645971Y-44250326D01*
X101923154Y-44139479D01*
X102076529Y-43828560D01*
X102166300Y-43493695D01*
X102181444Y-43263050D01*
X103733864Y-43263050D01*
X103779074Y-43606780D01*
X103890474Y-43935085D01*
X103999726Y-44139479D01*
X104276909Y-44250326D01*
X105321835Y-43205400D01*
X105681045Y-43205400D01*
X106725971Y-44250326D01*
X107003154Y-44139479D01*
X107013019Y-44119480D01*
X110887928Y-44119480D01*
X110891000Y-45083730D01*
X111049750Y-45242480D01*
X112649000Y-45242480D01*
X112649000Y-43643230D01*
X112903000Y-43643230D01*
X112903000Y-45242480D01*
X114502250Y-45242480D01*
X114560906Y-45183824D01*
X115891000Y-45183824D01*
X115891000Y-45555136D01*
X115963439Y-45919314D01*
X116105534Y-46262362D01*
X116311825Y-46571098D01*
X116574382Y-46833655D01*
X116883118Y-47039946D01*
X117226166Y-47182041D01*
X117590344Y-47254480D01*
X117961656Y-47254480D01*
X118325834Y-47182041D01*
X118668882Y-47039946D01*
X118977618Y-46833655D01*
X119222844Y-46588429D01*
X144580894Y-46588429D01*
X145625820Y-47633355D01*
X146670746Y-46588429D01*
X146559899Y-46311246D01*
X146248980Y-46157871D01*
X145914115Y-46068100D01*
X145568170Y-46045384D01*
X145224440Y-46090594D01*
X144896135Y-46201994D01*
X144691741Y-46311246D01*
X144580894Y-46588429D01*
X119222844Y-46588429D01*
X119240175Y-46571098D01*
X119446466Y-46262362D01*
X119588561Y-45919314D01*
X119661000Y-45555136D01*
X119661000Y-45183824D01*
X119646209Y-45109464D01*
X146505820Y-45109464D01*
X146505820Y-45436456D01*
X146569613Y-45757164D01*
X146694747Y-46059265D01*
X146876414Y-46331148D01*
X147107632Y-46562366D01*
X147379515Y-46744033D01*
X147681616Y-46869167D01*
X148002324Y-46932960D01*
X148329316Y-46932960D01*
X148650024Y-46869167D01*
X148952125Y-46744033D01*
X149185002Y-46588429D01*
X149660894Y-46588429D01*
X150705820Y-47633355D01*
X151750746Y-46588429D01*
X151639899Y-46311246D01*
X151328980Y-46157871D01*
X150994115Y-46068100D01*
X150648170Y-46045384D01*
X150304440Y-46090594D01*
X149976135Y-46201994D01*
X149771741Y-46311246D01*
X149660894Y-46588429D01*
X149185002Y-46588429D01*
X149224008Y-46562366D01*
X149455226Y-46331148D01*
X149636893Y-46059265D01*
X149762027Y-45757164D01*
X149825820Y-45436456D01*
X149825820Y-45109464D01*
X149762027Y-44788756D01*
X149636893Y-44486655D01*
X149455226Y-44214772D01*
X149224008Y-43983554D01*
X149185003Y-43957491D01*
X149660894Y-43957491D01*
X149771741Y-44234674D01*
X150082660Y-44388049D01*
X150417525Y-44477820D01*
X150763470Y-44500536D01*
X151107200Y-44455326D01*
X151435505Y-44343926D01*
X151639899Y-44234674D01*
X151750746Y-43957491D01*
X151644667Y-43851412D01*
X155097680Y-43851412D01*
X155097680Y-44291668D01*
X155183570Y-44723465D01*
X155352049Y-45130209D01*
X155596642Y-45496269D01*
X155907951Y-45807578D01*
X156274011Y-46052171D01*
X156680755Y-46220650D01*
X157112552Y-46306540D01*
X157552808Y-46306540D01*
X157984605Y-46220650D01*
X158391349Y-46052171D01*
X158757409Y-45807578D01*
X159068718Y-45496269D01*
X159313311Y-45130209D01*
X159481790Y-44723465D01*
X159567680Y-44291668D01*
X159567680Y-43851412D01*
X159481790Y-43419615D01*
X159313311Y-43012871D01*
X159068718Y-42646811D01*
X158757409Y-42335502D01*
X158391349Y-42090909D01*
X157984605Y-41922430D01*
X157552808Y-41836540D01*
X157112552Y-41836540D01*
X156680755Y-41922430D01*
X156274011Y-42090909D01*
X155907951Y-42335502D01*
X155596642Y-42646811D01*
X155352049Y-43012871D01*
X155183570Y-43419615D01*
X155097680Y-43851412D01*
X151644667Y-43851412D01*
X150705820Y-42912565D01*
X149660894Y-43957491D01*
X149185003Y-43957491D01*
X148952125Y-43801887D01*
X148650024Y-43676753D01*
X148329316Y-43612960D01*
X148002324Y-43612960D01*
X147681616Y-43676753D01*
X147379515Y-43801887D01*
X147107632Y-43983554D01*
X146876414Y-44214772D01*
X146694747Y-44486655D01*
X146569613Y-44788756D01*
X146505820Y-45109464D01*
X119646209Y-45109464D01*
X119588561Y-44819646D01*
X119446466Y-44476598D01*
X119240175Y-44167862D01*
X119029804Y-43957491D01*
X144580894Y-43957491D01*
X144691741Y-44234674D01*
X145002660Y-44388049D01*
X145337525Y-44477820D01*
X145683470Y-44500536D01*
X146027200Y-44455326D01*
X146355505Y-44343926D01*
X146559899Y-44234674D01*
X146670746Y-43957491D01*
X145625820Y-42912565D01*
X144580894Y-43957491D01*
X119029804Y-43957491D01*
X118977618Y-43905305D01*
X118668882Y-43699014D01*
X118325834Y-43556919D01*
X117961656Y-43484480D01*
X117590344Y-43484480D01*
X117226166Y-43556919D01*
X116883118Y-43699014D01*
X116574382Y-43905305D01*
X116311825Y-44167862D01*
X116105534Y-44476598D01*
X115963439Y-44819646D01*
X115891000Y-45183824D01*
X114560906Y-45183824D01*
X114661000Y-45083730D01*
X114664072Y-44119480D01*
X114651812Y-43994998D01*
X114615502Y-43875300D01*
X114556537Y-43764986D01*
X114477185Y-43668295D01*
X114380494Y-43588943D01*
X114270180Y-43529978D01*
X114150482Y-43493668D01*
X114026000Y-43481408D01*
X113061750Y-43484480D01*
X112903000Y-43643230D01*
X112649000Y-43643230D01*
X112490250Y-43484480D01*
X111526000Y-43481408D01*
X111401518Y-43493668D01*
X111281820Y-43529978D01*
X111171506Y-43588943D01*
X111074815Y-43668295D01*
X110995463Y-43764986D01*
X110936498Y-43875300D01*
X110900188Y-43994998D01*
X110887928Y-44119480D01*
X107013019Y-44119480D01*
X107156529Y-43828560D01*
X107246300Y-43493695D01*
X107269016Y-43147750D01*
X107223806Y-42804020D01*
X107219256Y-42790610D01*
X143858244Y-42790610D01*
X143903454Y-43134340D01*
X144014854Y-43462645D01*
X144124106Y-43667039D01*
X144401289Y-43777886D01*
X145446215Y-42732960D01*
X145805425Y-42732960D01*
X146850351Y-43777886D01*
X147127534Y-43667039D01*
X147280909Y-43356120D01*
X147370680Y-43021255D01*
X147385824Y-42790610D01*
X148938244Y-42790610D01*
X148983454Y-43134340D01*
X149094854Y-43462645D01*
X149204106Y-43667039D01*
X149481289Y-43777886D01*
X150526215Y-42732960D01*
X150885425Y-42732960D01*
X151930351Y-43777886D01*
X152207534Y-43667039D01*
X152360909Y-43356120D01*
X152450680Y-43021255D01*
X152473396Y-42675310D01*
X152428186Y-42331580D01*
X152316786Y-42003275D01*
X152207534Y-41798881D01*
X151930351Y-41688034D01*
X150885425Y-42732960D01*
X150526215Y-42732960D01*
X149481289Y-41688034D01*
X149204106Y-41798881D01*
X149050731Y-42109800D01*
X148960960Y-42444665D01*
X148938244Y-42790610D01*
X147385824Y-42790610D01*
X147393396Y-42675310D01*
X147348186Y-42331580D01*
X147236786Y-42003275D01*
X147127534Y-41798881D01*
X146850351Y-41688034D01*
X145805425Y-42732960D01*
X145446215Y-42732960D01*
X144401289Y-41688034D01*
X144124106Y-41798881D01*
X143970731Y-42109800D01*
X143880960Y-42444665D01*
X143858244Y-42790610D01*
X107219256Y-42790610D01*
X107112406Y-42475715D01*
X107003154Y-42271321D01*
X106725971Y-42160474D01*
X105681045Y-43205400D01*
X105321835Y-43205400D01*
X104276909Y-42160474D01*
X103999726Y-42271321D01*
X103846351Y-42582240D01*
X103756580Y-42917105D01*
X103733864Y-43263050D01*
X102181444Y-43263050D01*
X102189016Y-43147750D01*
X102143806Y-42804020D01*
X102032406Y-42475715D01*
X101923154Y-42271321D01*
X101645971Y-42160474D01*
X100601045Y-43205400D01*
X100241835Y-43205400D01*
X99196909Y-42160474D01*
X98919726Y-42271321D01*
X98766351Y-42582240D01*
X98676580Y-42917105D01*
X98653864Y-43263050D01*
X94981007Y-43263050D01*
X94985576Y-43193470D01*
X94940366Y-42849740D01*
X94828966Y-42521435D01*
X94719714Y-42317041D01*
X94442531Y-42206194D01*
X93397605Y-43251120D01*
X93038395Y-43251120D01*
X91993469Y-42206194D01*
X91716286Y-42317041D01*
X91562911Y-42627960D01*
X91473140Y-42962825D01*
X91450424Y-43308770D01*
X89898004Y-43308770D01*
X89905576Y-43193470D01*
X89860366Y-42849740D01*
X89748966Y-42521435D01*
X89639714Y-42317041D01*
X89362531Y-42206194D01*
X88317605Y-43251120D01*
X87958395Y-43251120D01*
X86913469Y-42206194D01*
X86636286Y-42317041D01*
X86482911Y-42627960D01*
X86393140Y-42962825D01*
X86370424Y-43308770D01*
X80724753Y-43308770D01*
X80701126Y-43129140D01*
X80589726Y-42800835D01*
X80480474Y-42596441D01*
X80203291Y-42485594D01*
X79158365Y-43530520D01*
X78799155Y-43530520D01*
X77754229Y-42485594D01*
X77477046Y-42596441D01*
X77323671Y-42907360D01*
X77233900Y-43242225D01*
X77211184Y-43588170D01*
X75658764Y-43588170D01*
X75666336Y-43472870D01*
X75621126Y-43129140D01*
X75509726Y-42800835D01*
X75400474Y-42596441D01*
X75123291Y-42485594D01*
X74078365Y-43530520D01*
X73719155Y-43530520D01*
X72674229Y-42485594D01*
X72397046Y-42596441D01*
X72243671Y-42907360D01*
X72153900Y-43242225D01*
X72131184Y-43588170D01*
X49028336Y-43588170D01*
X48989250Y-43391675D01*
X48820771Y-42984931D01*
X48576178Y-42618871D01*
X48264869Y-42307562D01*
X48262515Y-42305989D01*
X72853834Y-42305989D01*
X73898760Y-43350915D01*
X74943686Y-42305989D01*
X77933834Y-42305989D01*
X78978760Y-43350915D01*
X80023686Y-42305989D01*
X79912839Y-42028806D01*
X79908345Y-42026589D01*
X87093074Y-42026589D01*
X88138000Y-43071515D01*
X89182926Y-42026589D01*
X92173074Y-42026589D01*
X93218000Y-43071515D01*
X94262926Y-42026589D01*
X94244643Y-41980869D01*
X99376514Y-41980869D01*
X100421440Y-43025795D01*
X101466366Y-41980869D01*
X104456514Y-41980869D01*
X105501440Y-43025795D01*
X106546366Y-41980869D01*
X106435519Y-41703686D01*
X106124600Y-41550311D01*
X105789735Y-41460540D01*
X105443790Y-41437824D01*
X105100060Y-41483034D01*
X104771755Y-41594434D01*
X104567361Y-41703686D01*
X104456514Y-41980869D01*
X101466366Y-41980869D01*
X101355519Y-41703686D01*
X101044600Y-41550311D01*
X100709735Y-41460540D01*
X100363790Y-41437824D01*
X100020060Y-41483034D01*
X99691755Y-41594434D01*
X99487361Y-41703686D01*
X99376514Y-41980869D01*
X94244643Y-41980869D01*
X94152079Y-41749406D01*
X93841160Y-41596031D01*
X93506295Y-41506260D01*
X93160350Y-41483544D01*
X92816620Y-41528754D01*
X92488315Y-41640154D01*
X92283921Y-41749406D01*
X92173074Y-42026589D01*
X89182926Y-42026589D01*
X89072079Y-41749406D01*
X88761160Y-41596031D01*
X88426295Y-41506260D01*
X88080350Y-41483544D01*
X87736620Y-41528754D01*
X87408315Y-41640154D01*
X87203921Y-41749406D01*
X87093074Y-42026589D01*
X79908345Y-42026589D01*
X79601920Y-41875431D01*
X79267055Y-41785660D01*
X78921110Y-41762944D01*
X78577380Y-41808154D01*
X78249075Y-41919554D01*
X78044681Y-42028806D01*
X77933834Y-42305989D01*
X74943686Y-42305989D01*
X74832839Y-42028806D01*
X74521920Y-41875431D01*
X74187055Y-41785660D01*
X73841110Y-41762944D01*
X73497380Y-41808154D01*
X73169075Y-41919554D01*
X72964681Y-42028806D01*
X72853834Y-42305989D01*
X48262515Y-42305989D01*
X47898809Y-42062969D01*
X47492065Y-41894490D01*
X47060268Y-41808600D01*
X46620012Y-41808600D01*
X46188215Y-41894490D01*
X45781471Y-42062969D01*
X45415411Y-42307562D01*
X45104102Y-42618871D01*
X44859509Y-42984931D01*
X44691030Y-43391675D01*
X44605140Y-43823472D01*
X43962838Y-43823472D01*
X43962104Y-41203719D01*
X144688172Y-41240171D01*
G37*
X144688172Y-41240171D02*
X144580894Y-41508429D01*
X145625820Y-42553355D01*
X146670746Y-41508429D01*
X146563739Y-41240849D01*
X149767437Y-41242009D01*
X149660894Y-41508429D01*
X150705820Y-42553355D01*
X151750746Y-41508429D01*
X151644475Y-41242688D01*
X161958789Y-41246421D01*
X161988531Y-94401731D01*
X43976975Y-94346469D01*
X43976131Y-91329092D01*
X44528940Y-91329092D01*
X44528940Y-91769348D01*
X44614830Y-92201145D01*
X44783309Y-92607889D01*
X45027902Y-92973949D01*
X45339211Y-93285258D01*
X45705271Y-93529851D01*
X46112015Y-93698330D01*
X46543812Y-93784220D01*
X46984068Y-93784220D01*
X47415865Y-93698330D01*
X47822609Y-93529851D01*
X48188669Y-93285258D01*
X48499978Y-92973949D01*
X48621865Y-92791531D01*
X52041074Y-92791531D01*
X52151921Y-93068714D01*
X52462840Y-93222089D01*
X52797705Y-93311860D01*
X53143650Y-93334576D01*
X53487380Y-93289366D01*
X53815685Y-93177966D01*
X54020079Y-93068714D01*
X54130926Y-92791531D01*
X57121074Y-92791531D01*
X57231921Y-93068714D01*
X57542840Y-93222089D01*
X57877705Y-93311860D01*
X58223650Y-93334576D01*
X58567380Y-93289366D01*
X58895685Y-93177966D01*
X59100079Y-93068714D01*
X59210926Y-92791531D01*
X58166000Y-91746605D01*
X57121074Y-92791531D01*
X54130926Y-92791531D01*
X53086000Y-91746605D01*
X52041074Y-92791531D01*
X48621865Y-92791531D01*
X48744571Y-92607889D01*
X48913050Y-92201145D01*
X48998940Y-91769348D01*
X48998940Y-91624650D01*
X51318424Y-91624650D01*
X51363634Y-91968380D01*
X51475034Y-92296685D01*
X51584286Y-92501079D01*
X51861469Y-92611926D01*
X52906395Y-91567000D01*
X53265605Y-91567000D01*
X54310531Y-92611926D01*
X54587714Y-92501079D01*
X54741089Y-92190160D01*
X54830860Y-91855295D01*
X54846004Y-91624650D01*
X56398424Y-91624650D01*
X56443634Y-91968380D01*
X56555034Y-92296685D01*
X56664286Y-92501079D01*
X56941469Y-92611926D01*
X57986395Y-91567000D01*
X58345605Y-91567000D01*
X59390531Y-92611926D01*
X59667714Y-92501079D01*
X59767037Y-92299733D01*
X67171432Y-92299733D01*
X67327442Y-92615294D01*
X67702225Y-92806100D01*
X68107031Y-92920124D01*
X68526304Y-92952982D01*
X68943931Y-92903414D01*
X69343863Y-92773323D01*
X69639518Y-92615294D01*
X69795528Y-92299733D01*
X68483480Y-90987685D01*
X67171432Y-92299733D01*
X59767037Y-92299733D01*
X59821089Y-92190160D01*
X59910860Y-91855295D01*
X59933576Y-91509350D01*
X59888366Y-91165620D01*
X59781578Y-90850904D01*
X66338578Y-90850904D01*
X66388146Y-91268531D01*
X66518237Y-91668463D01*
X66676266Y-91964118D01*
X66991827Y-92120128D01*
X68303875Y-90808080D01*
X68663085Y-90808080D01*
X69975133Y-92120128D01*
X70290694Y-91964118D01*
X70481500Y-91589335D01*
X70595524Y-91184529D01*
X70628382Y-90765256D01*
X70608507Y-90597801D01*
X76348480Y-90597801D01*
X76348480Y-91018359D01*
X76430527Y-91430836D01*
X76591468Y-91819382D01*
X76825117Y-92169063D01*
X77122497Y-92466443D01*
X77472178Y-92700092D01*
X77860724Y-92861033D01*
X78273201Y-92943080D01*
X78693759Y-92943080D01*
X79106236Y-92861033D01*
X79494782Y-92700092D01*
X79844463Y-92466443D01*
X80141843Y-92169063D01*
X80375492Y-91819382D01*
X80536433Y-91430836D01*
X80618480Y-91018359D01*
X80618480Y-90721721D01*
X88449000Y-90721721D01*
X88449000Y-91142279D01*
X88531047Y-91554756D01*
X88691988Y-91943302D01*
X88925637Y-92292983D01*
X89223017Y-92590363D01*
X89572698Y-92824012D01*
X89961244Y-92984953D01*
X90373721Y-93067000D01*
X90794279Y-93067000D01*
X91206756Y-92984953D01*
X91595302Y-92824012D01*
X91944983Y-92590363D01*
X92242363Y-92292983D01*
X92476012Y-91943302D01*
X92636953Y-91554756D01*
X92719000Y-91142279D01*
X92719000Y-90721721D01*
X98449000Y-90721721D01*
X98449000Y-91142279D01*
X98531047Y-91554756D01*
X98691988Y-91943302D01*
X98925637Y-92292983D01*
X99223017Y-92590363D01*
X99572698Y-92824012D01*
X99961244Y-92984953D01*
X100373721Y-93067000D01*
X100794279Y-93067000D01*
X101206756Y-92984953D01*
X101595302Y-92824012D01*
X101944983Y-92590363D01*
X102242363Y-92292983D01*
X102476012Y-91943302D01*
X102636953Y-91554756D01*
X102663146Y-91423072D01*
X156573420Y-91423072D01*
X156573420Y-91863328D01*
X156659310Y-92295125D01*
X156827789Y-92701869D01*
X157072382Y-93067929D01*
X157383691Y-93379238D01*
X157749751Y-93623831D01*
X158156495Y-93792310D01*
X158588292Y-93878200D01*
X159028548Y-93878200D01*
X159460345Y-93792310D01*
X159867089Y-93623831D01*
X160233149Y-93379238D01*
X160544458Y-93067929D01*
X160789051Y-92701869D01*
X160957530Y-92295125D01*
X161043420Y-91863328D01*
X161043420Y-91423072D01*
X160957530Y-90991275D01*
X160789051Y-90584531D01*
X160544458Y-90218471D01*
X160233149Y-89907162D01*
X159867089Y-89662569D01*
X159460345Y-89494090D01*
X159028548Y-89408200D01*
X158588292Y-89408200D01*
X158156495Y-89494090D01*
X157749751Y-89662569D01*
X157383691Y-89907162D01*
X157072382Y-90218471D01*
X156827789Y-90584531D01*
X156659310Y-90991275D01*
X156573420Y-91423072D01*
X102663146Y-91423072D01*
X102719000Y-91142279D01*
X102719000Y-90721721D01*
X102636953Y-90309244D01*
X102476012Y-89920698D01*
X102242363Y-89571017D01*
X101944983Y-89273637D01*
X101595302Y-89039988D01*
X101206756Y-88879047D01*
X100794279Y-88797000D01*
X100373721Y-88797000D01*
X99961244Y-88879047D01*
X99572698Y-89039988D01*
X99223017Y-89273637D01*
X98925637Y-89571017D01*
X98691988Y-89920698D01*
X98531047Y-90309244D01*
X98449000Y-90721721D01*
X92719000Y-90721721D01*
X92636953Y-90309244D01*
X92476012Y-89920698D01*
X92242363Y-89571017D01*
X91944983Y-89273637D01*
X91595302Y-89039988D01*
X91206756Y-88879047D01*
X90794279Y-88797000D01*
X90373721Y-88797000D01*
X89961244Y-88879047D01*
X89572698Y-89039988D01*
X89223017Y-89273637D01*
X88925637Y-89571017D01*
X88691988Y-89920698D01*
X88531047Y-90309244D01*
X88449000Y-90721721D01*
X80618480Y-90721721D01*
X80618480Y-90597801D01*
X80536433Y-90185324D01*
X80375492Y-89796778D01*
X80141843Y-89447097D01*
X79844463Y-89149717D01*
X79494782Y-88916068D01*
X79106236Y-88755127D01*
X78693759Y-88673080D01*
X78273201Y-88673080D01*
X77860724Y-88755127D01*
X77472178Y-88916068D01*
X77122497Y-89149717D01*
X76825117Y-89447097D01*
X76591468Y-89796778D01*
X76430527Y-90185324D01*
X76348480Y-90597801D01*
X70608507Y-90597801D01*
X70578814Y-90347629D01*
X70448723Y-89947697D01*
X70290694Y-89652042D01*
X69975133Y-89496032D01*
X68663085Y-90808080D01*
X68303875Y-90808080D01*
X66991827Y-89496032D01*
X66676266Y-89652042D01*
X66485460Y-90026825D01*
X66371436Y-90431631D01*
X66338578Y-90850904D01*
X59781578Y-90850904D01*
X59776966Y-90837315D01*
X59667714Y-90632921D01*
X59390531Y-90522074D01*
X58345605Y-91567000D01*
X57986395Y-91567000D01*
X56941469Y-90522074D01*
X56664286Y-90632921D01*
X56510911Y-90943840D01*
X56421140Y-91278705D01*
X56398424Y-91624650D01*
X54846004Y-91624650D01*
X54853576Y-91509350D01*
X54808366Y-91165620D01*
X54696966Y-90837315D01*
X54587714Y-90632921D01*
X54310531Y-90522074D01*
X53265605Y-91567000D01*
X52906395Y-91567000D01*
X51861469Y-90522074D01*
X51584286Y-90632921D01*
X51430911Y-90943840D01*
X51341140Y-91278705D01*
X51318424Y-91624650D01*
X48998940Y-91624650D01*
X48998940Y-91329092D01*
X48913050Y-90897295D01*
X48744571Y-90490551D01*
X48645626Y-90342469D01*
X52041074Y-90342469D01*
X53086000Y-91387395D01*
X54130926Y-90342469D01*
X54020079Y-90065286D01*
X53709160Y-89911911D01*
X53374295Y-89822140D01*
X53028350Y-89799424D01*
X52684620Y-89844634D01*
X52356315Y-89956034D01*
X52151921Y-90065286D01*
X52041074Y-90342469D01*
X48645626Y-90342469D01*
X48499978Y-90124491D01*
X48188669Y-89813182D01*
X47822609Y-89568589D01*
X47415865Y-89400110D01*
X46984068Y-89314220D01*
X46543812Y-89314220D01*
X46112015Y-89400110D01*
X45705271Y-89568589D01*
X45339211Y-89813182D01*
X45027902Y-90124491D01*
X44783309Y-90490551D01*
X44614830Y-90897295D01*
X44528940Y-91329092D01*
X43976131Y-91329092D01*
X43975442Y-88863504D01*
X53966000Y-88863504D01*
X53966000Y-89190496D01*
X54029793Y-89511204D01*
X54154927Y-89813305D01*
X54336594Y-90085188D01*
X54567812Y-90316406D01*
X54839695Y-90498073D01*
X55141796Y-90623207D01*
X55462504Y-90687000D01*
X55789496Y-90687000D01*
X56110204Y-90623207D01*
X56412305Y-90498073D01*
X56645182Y-90342469D01*
X57121074Y-90342469D01*
X58166000Y-91387395D01*
X59210926Y-90342469D01*
X59100079Y-90065286D01*
X58789160Y-89911911D01*
X58454295Y-89822140D01*
X58108350Y-89799424D01*
X57764620Y-89844634D01*
X57436315Y-89956034D01*
X57231921Y-90065286D01*
X57121074Y-90342469D01*
X56645182Y-90342469D01*
X56684188Y-90316406D01*
X56915406Y-90085188D01*
X57097073Y-89813305D01*
X57222207Y-89511204D01*
X57260950Y-89316427D01*
X67171432Y-89316427D01*
X68483480Y-90628475D01*
X69795528Y-89316427D01*
X69639518Y-89000866D01*
X69264735Y-88810060D01*
X68859929Y-88696036D01*
X68440656Y-88663178D01*
X68023029Y-88712746D01*
X67623097Y-88842837D01*
X67327442Y-89000866D01*
X67171432Y-89316427D01*
X57260950Y-89316427D01*
X57286000Y-89190496D01*
X57286000Y-88863504D01*
X57222207Y-88542796D01*
X57097073Y-88240695D01*
X56915406Y-87968812D01*
X56684188Y-87737594D01*
X56645183Y-87711531D01*
X57121074Y-87711531D01*
X57231921Y-87988714D01*
X57542840Y-88142089D01*
X57877705Y-88231860D01*
X58223650Y-88254576D01*
X58567380Y-88209366D01*
X58895685Y-88097966D01*
X59100079Y-87988714D01*
X59210926Y-87711531D01*
X58166000Y-86666605D01*
X57121074Y-87711531D01*
X56645183Y-87711531D01*
X56412305Y-87555927D01*
X56110204Y-87430793D01*
X55789496Y-87367000D01*
X55462504Y-87367000D01*
X55141796Y-87430793D01*
X54839695Y-87555927D01*
X54567812Y-87737594D01*
X54336594Y-87968812D01*
X54154927Y-88240695D01*
X54029793Y-88542796D01*
X53966000Y-88863504D01*
X43975442Y-88863504D01*
X43975120Y-87711531D01*
X52041074Y-87711531D01*
X52151921Y-87988714D01*
X52462840Y-88142089D01*
X52797705Y-88231860D01*
X53143650Y-88254576D01*
X53487380Y-88209366D01*
X53815685Y-88097966D01*
X54020079Y-87988714D01*
X54130926Y-87711531D01*
X53086000Y-86666605D01*
X52041074Y-87711531D01*
X43975120Y-87711531D01*
X43974793Y-86544650D01*
X51318424Y-86544650D01*
X51363634Y-86888380D01*
X51475034Y-87216685D01*
X51584286Y-87421079D01*
X51861469Y-87531926D01*
X52906395Y-86487000D01*
X53265605Y-86487000D01*
X54310531Y-87531926D01*
X54587714Y-87421079D01*
X54741089Y-87110160D01*
X54830860Y-86775295D01*
X54846004Y-86544650D01*
X56398424Y-86544650D01*
X56443634Y-86888380D01*
X56555034Y-87216685D01*
X56664286Y-87421079D01*
X56941469Y-87531926D01*
X57986395Y-86487000D01*
X58345605Y-86487000D01*
X59390531Y-87531926D01*
X59667714Y-87421079D01*
X59821089Y-87110160D01*
X59910860Y-86775295D01*
X59933576Y-86429350D01*
X59888366Y-86085620D01*
X59776966Y-85757315D01*
X59667714Y-85552921D01*
X59390531Y-85442074D01*
X58345605Y-86487000D01*
X57986395Y-86487000D01*
X56941469Y-85442074D01*
X56664286Y-85552921D01*
X56510911Y-85863840D01*
X56421140Y-86198705D01*
X56398424Y-86544650D01*
X54846004Y-86544650D01*
X54853576Y-86429350D01*
X54808366Y-86085620D01*
X54696966Y-85757315D01*
X54587714Y-85552921D01*
X54310531Y-85442074D01*
X53265605Y-86487000D01*
X52906395Y-86487000D01*
X51861469Y-85442074D01*
X51584286Y-85552921D01*
X51430911Y-85863840D01*
X51341140Y-86198705D01*
X51318424Y-86544650D01*
X43974793Y-86544650D01*
X43974435Y-85262469D01*
X52041074Y-85262469D01*
X53086000Y-86307395D01*
X54130926Y-85262469D01*
X57121074Y-85262469D01*
X58166000Y-86307395D01*
X59210926Y-85262469D01*
X59100079Y-84985286D01*
X58789160Y-84831911D01*
X58454295Y-84742140D01*
X58108350Y-84719424D01*
X57764620Y-84764634D01*
X57436315Y-84876034D01*
X57231921Y-84985286D01*
X57121074Y-85262469D01*
X54130926Y-85262469D01*
X54020079Y-84985286D01*
X53709160Y-84831911D01*
X53374295Y-84742140D01*
X53028350Y-84719424D01*
X52684620Y-84764634D01*
X52356315Y-84876034D01*
X52151921Y-84985286D01*
X52041074Y-85262469D01*
X43974435Y-85262469D01*
X43974166Y-84299733D01*
X77171432Y-84299733D01*
X77327442Y-84615294D01*
X77702225Y-84806100D01*
X78107031Y-84920124D01*
X78526304Y-84952982D01*
X78943931Y-84903414D01*
X79343863Y-84773323D01*
X79639518Y-84615294D01*
X79795528Y-84299733D01*
X78483480Y-82987685D01*
X77171432Y-84299733D01*
X43974166Y-84299733D01*
X43973705Y-82657000D01*
X44776808Y-82657000D01*
X44789068Y-82781482D01*
X44825378Y-82901180D01*
X44884343Y-83011494D01*
X44963695Y-83108185D01*
X45060386Y-83187537D01*
X45170700Y-83246502D01*
X45290398Y-83282812D01*
X45414880Y-83295072D01*
X46379130Y-83292000D01*
X46537880Y-83133250D01*
X46537880Y-81534000D01*
X46791880Y-81534000D01*
X46791880Y-83133250D01*
X46950630Y-83292000D01*
X47914880Y-83295072D01*
X48039362Y-83282812D01*
X48159060Y-83246502D01*
X48269374Y-83187537D01*
X48366065Y-83108185D01*
X48445417Y-83011494D01*
X48504382Y-82901180D01*
X48519633Y-82850904D01*
X76338578Y-82850904D01*
X76388146Y-83268531D01*
X76518237Y-83668463D01*
X76676266Y-83964118D01*
X76991827Y-84120128D01*
X78303875Y-82808080D01*
X78663085Y-82808080D01*
X79975133Y-84120128D01*
X80290694Y-83964118D01*
X80481500Y-83589335D01*
X80595524Y-83184529D01*
X80628382Y-82765256D01*
X80623215Y-82721721D01*
X88449000Y-82721721D01*
X88449000Y-83142279D01*
X88531047Y-83554756D01*
X88691988Y-83943302D01*
X88925637Y-84292983D01*
X89223017Y-84590363D01*
X89572698Y-84824012D01*
X89961244Y-84984953D01*
X90373721Y-85067000D01*
X90794279Y-85067000D01*
X91206756Y-84984953D01*
X91595302Y-84824012D01*
X91944983Y-84590363D01*
X92242363Y-84292983D01*
X92476012Y-83943302D01*
X92636953Y-83554756D01*
X92719000Y-83142279D01*
X92719000Y-82721721D01*
X92636953Y-82309244D01*
X92476012Y-81920698D01*
X92242363Y-81571017D01*
X91944983Y-81273637D01*
X91595302Y-81039988D01*
X91206756Y-80879047D01*
X90794279Y-80797000D01*
X90373721Y-80797000D01*
X89961244Y-80879047D01*
X89572698Y-81039988D01*
X89223017Y-81273637D01*
X88925637Y-81571017D01*
X88691988Y-81920698D01*
X88531047Y-82309244D01*
X88449000Y-82721721D01*
X80623215Y-82721721D01*
X80578814Y-82347629D01*
X80448723Y-81947697D01*
X80290694Y-81652042D01*
X79975133Y-81496032D01*
X78663085Y-82808080D01*
X78303875Y-82808080D01*
X76991827Y-81496032D01*
X76676266Y-81652042D01*
X76485460Y-82026825D01*
X76371436Y-82431631D01*
X76338578Y-82850904D01*
X48519633Y-82850904D01*
X48540692Y-82781482D01*
X48552952Y-82657000D01*
X48549880Y-81692750D01*
X48391130Y-81534000D01*
X46791880Y-81534000D01*
X46537880Y-81534000D01*
X44938630Y-81534000D01*
X44779880Y-81692750D01*
X44776808Y-82657000D01*
X43973705Y-82657000D01*
X43973331Y-81316427D01*
X77171432Y-81316427D01*
X78483480Y-82628475D01*
X79795528Y-81316427D01*
X79639518Y-81000866D01*
X79264735Y-80810060D01*
X78859929Y-80696036D01*
X78440656Y-80663178D01*
X78023029Y-80712746D01*
X77623097Y-80842837D01*
X77327442Y-81000866D01*
X77171432Y-81316427D01*
X43973331Y-81316427D01*
X43973006Y-80157000D01*
X44776808Y-80157000D01*
X44779880Y-81121250D01*
X44938630Y-81280000D01*
X46537880Y-81280000D01*
X46537880Y-79680750D01*
X46791880Y-79680750D01*
X46791880Y-81280000D01*
X48391130Y-81280000D01*
X48549880Y-81121250D01*
X48552952Y-80157000D01*
X48540692Y-80032518D01*
X48504382Y-79912820D01*
X48445417Y-79802506D01*
X48366065Y-79705815D01*
X48269374Y-79626463D01*
X48159060Y-79567498D01*
X48039362Y-79531188D01*
X47914880Y-79518928D01*
X46950630Y-79522000D01*
X46791880Y-79680750D01*
X46537880Y-79680750D01*
X46379130Y-79522000D01*
X45414880Y-79518928D01*
X45290398Y-79531188D01*
X45170700Y-79567498D01*
X45060386Y-79626463D01*
X44963695Y-79705815D01*
X44884343Y-79802506D01*
X44825378Y-79912820D01*
X44789068Y-80032518D01*
X44776808Y-80157000D01*
X43973006Y-80157000D01*
X43972747Y-79228363D01*
X52840000Y-79228363D01*
X52840000Y-79471637D01*
X52887460Y-79710236D01*
X52980557Y-79934992D01*
X53115713Y-80137267D01*
X53287733Y-80309287D01*
X53490008Y-80444443D01*
X53714764Y-80537540D01*
X53953363Y-80585000D01*
X54196637Y-80585000D01*
X54435236Y-80537540D01*
X54659992Y-80444443D01*
X54862267Y-80309287D01*
X54917501Y-80254053D01*
X54944463Y-80304494D01*
X55023815Y-80401185D01*
X55120506Y-80480537D01*
X55230820Y-80539502D01*
X55350518Y-80575812D01*
X55475000Y-80588072D01*
X56675000Y-80588072D01*
X56799482Y-80575812D01*
X56919180Y-80539502D01*
X57029494Y-80480537D01*
X57126185Y-80401185D01*
X57205537Y-80304494D01*
X57264502Y-80194180D01*
X57300812Y-80074482D01*
X57313072Y-79950000D01*
X57313072Y-78992042D01*
X59303883Y-78992042D01*
X59420155Y-79273829D01*
X59738740Y-79431697D01*
X60082002Y-79524378D01*
X60436749Y-79548313D01*
X60789350Y-79502579D01*
X61126253Y-79388935D01*
X61341605Y-79273829D01*
X61457877Y-78992042D01*
X60380880Y-77915045D01*
X59303883Y-78992042D01*
X57313072Y-78992042D01*
X57313072Y-78750000D01*
X57300812Y-78625518D01*
X57264502Y-78505820D01*
X57205537Y-78395506D01*
X57126185Y-78298815D01*
X57029494Y-78219463D01*
X56919180Y-78160498D01*
X56799482Y-78124188D01*
X56675000Y-78111928D01*
X55475000Y-78111928D01*
X55350518Y-78124188D01*
X55230820Y-78160498D01*
X55120506Y-78219463D01*
X55023815Y-78298815D01*
X54944463Y-78395506D01*
X54917501Y-78445947D01*
X54862267Y-78390713D01*
X54659992Y-78255557D01*
X54435236Y-78162460D01*
X54196637Y-78115000D01*
X53953363Y-78115000D01*
X53714764Y-78162460D01*
X53490008Y-78255557D01*
X53287733Y-78390713D01*
X53115713Y-78562733D01*
X52980557Y-78765008D01*
X52887460Y-78989764D01*
X52840000Y-79228363D01*
X43972747Y-79228363D01*
X43971905Y-76221344D01*
X44779880Y-76221344D01*
X44779880Y-76592656D01*
X44852319Y-76956834D01*
X44994414Y-77299882D01*
X45200705Y-77608618D01*
X45463262Y-77871175D01*
X45771998Y-78077466D01*
X46115046Y-78219561D01*
X46479224Y-78292000D01*
X46850536Y-78292000D01*
X47214714Y-78219561D01*
X47557762Y-78077466D01*
X47866498Y-77871175D01*
X47946364Y-77791309D01*
X58568007Y-77791309D01*
X58613741Y-78143910D01*
X58727385Y-78480813D01*
X58842491Y-78696165D01*
X59124278Y-78812437D01*
X60201275Y-77735440D01*
X59124278Y-76658443D01*
X58842491Y-76774715D01*
X58684623Y-77093300D01*
X58591942Y-77436562D01*
X58568007Y-77791309D01*
X47946364Y-77791309D01*
X48129055Y-77608618D01*
X48335346Y-77299882D01*
X48477441Y-76956834D01*
X48549880Y-76592656D01*
X48549880Y-76221344D01*
X48477441Y-75857166D01*
X48335346Y-75514118D01*
X48129055Y-75205382D01*
X47866498Y-74942825D01*
X47557762Y-74736534D01*
X47214714Y-74594439D01*
X46850536Y-74522000D01*
X46479224Y-74522000D01*
X46115046Y-74594439D01*
X45771998Y-74736534D01*
X45463262Y-74942825D01*
X45200705Y-75205382D01*
X44994414Y-75514118D01*
X44852319Y-75857166D01*
X44779880Y-76221344D01*
X43971905Y-76221344D01*
X43970506Y-71221344D01*
X44779880Y-71221344D01*
X44779880Y-71592656D01*
X44852319Y-71956834D01*
X44994414Y-72299882D01*
X45200705Y-72608618D01*
X45463262Y-72871175D01*
X45771998Y-73077466D01*
X46115046Y-73219561D01*
X46479224Y-73292000D01*
X46850536Y-73292000D01*
X47214714Y-73219561D01*
X47557762Y-73077466D01*
X47866498Y-72871175D01*
X48129055Y-72608618D01*
X48163102Y-72557663D01*
X58575880Y-72557663D01*
X58575880Y-72913217D01*
X58645245Y-73261939D01*
X58781309Y-73590428D01*
X58978845Y-73886061D01*
X59230259Y-74137475D01*
X59525892Y-74335011D01*
X59854381Y-74471075D01*
X60203103Y-74540440D01*
X60558657Y-74540440D01*
X60907379Y-74471075D01*
X61235868Y-74335011D01*
X61372813Y-74243507D01*
X61281309Y-74380452D01*
X61145245Y-74708941D01*
X61075880Y-75057663D01*
X61075880Y-75413217D01*
X61145245Y-75761939D01*
X61281309Y-76090428D01*
X61478845Y-76386061D01*
X61514748Y-76421964D01*
X61457876Y-76478836D01*
X61341605Y-76197051D01*
X61023020Y-76039183D01*
X60679758Y-75946502D01*
X60325011Y-75922567D01*
X59972410Y-75968301D01*
X59635507Y-76081945D01*
X59420155Y-76197051D01*
X59303883Y-76478838D01*
X60380880Y-77555835D01*
X60395023Y-77541693D01*
X60574628Y-77721298D01*
X60560485Y-77735440D01*
X61637482Y-78812437D01*
X61919269Y-78696165D01*
X62077137Y-78377580D01*
X62169818Y-78034318D01*
X62193753Y-77679571D01*
X62148019Y-77326970D01*
X62034375Y-76990067D01*
X61919269Y-76774715D01*
X61637484Y-76658444D01*
X61694356Y-76601572D01*
X61730259Y-76637475D01*
X62025892Y-76835011D01*
X62354381Y-76971075D01*
X62703103Y-77040440D01*
X63058657Y-77040440D01*
X63407379Y-76971075D01*
X63735868Y-76835011D01*
X64031501Y-76637475D01*
X64282915Y-76386061D01*
X64480451Y-76090428D01*
X64616515Y-75761939D01*
X64685880Y-75413217D01*
X64685880Y-75057663D01*
X64616515Y-74708941D01*
X64570480Y-74597801D01*
X66348480Y-74597801D01*
X66348480Y-75018359D01*
X66430527Y-75430836D01*
X66591468Y-75819382D01*
X66825117Y-76169063D01*
X67122497Y-76466443D01*
X67472178Y-76700092D01*
X67860724Y-76861033D01*
X68273201Y-76943080D01*
X68693759Y-76943080D01*
X69106236Y-76861033D01*
X69494782Y-76700092D01*
X69844463Y-76466443D01*
X70141843Y-76169063D01*
X70375492Y-75819382D01*
X70536433Y-75430836D01*
X70618480Y-75018359D01*
X70618480Y-74597801D01*
X76348480Y-74597801D01*
X76348480Y-75018359D01*
X76430527Y-75430836D01*
X76591468Y-75819382D01*
X76825117Y-76169063D01*
X77122497Y-76466443D01*
X77472178Y-76700092D01*
X77860724Y-76861033D01*
X78273201Y-76943080D01*
X78693759Y-76943080D01*
X79106236Y-76861033D01*
X79494782Y-76700092D01*
X79844463Y-76466443D01*
X80141843Y-76169063D01*
X80375492Y-75819382D01*
X80536433Y-75430836D01*
X80618480Y-75018359D01*
X80618480Y-74721721D01*
X88449000Y-74721721D01*
X88449000Y-75142279D01*
X88531047Y-75554756D01*
X88691988Y-75943302D01*
X88925637Y-76292983D01*
X89223017Y-76590363D01*
X89572698Y-76824012D01*
X89961244Y-76984953D01*
X90373721Y-77067000D01*
X90794279Y-77067000D01*
X91206756Y-76984953D01*
X91595302Y-76824012D01*
X91944983Y-76590363D01*
X92111693Y-76423653D01*
X99271952Y-76423653D01*
X99427962Y-76739214D01*
X99802745Y-76930020D01*
X100207551Y-77044044D01*
X100626824Y-77076902D01*
X101044451Y-77027334D01*
X101444383Y-76897243D01*
X101740038Y-76739214D01*
X101896048Y-76423653D01*
X100584000Y-75111605D01*
X99271952Y-76423653D01*
X92111693Y-76423653D01*
X92242363Y-76292983D01*
X92476012Y-75943302D01*
X92636953Y-75554756D01*
X92719000Y-75142279D01*
X92719000Y-74974824D01*
X98439098Y-74974824D01*
X98488666Y-75392451D01*
X98618757Y-75792383D01*
X98776786Y-76088038D01*
X99092347Y-76244048D01*
X100404395Y-74932000D01*
X100763605Y-74932000D01*
X102075653Y-76244048D01*
X102391214Y-76088038D01*
X102582020Y-75713255D01*
X102696044Y-75308449D01*
X102728902Y-74889176D01*
X102679334Y-74471549D01*
X102549243Y-74071617D01*
X102391214Y-73775962D01*
X102075653Y-73619952D01*
X100763605Y-74932000D01*
X100404395Y-74932000D01*
X99092347Y-73619952D01*
X98776786Y-73775962D01*
X98585980Y-74150745D01*
X98471956Y-74555551D01*
X98439098Y-74974824D01*
X92719000Y-74974824D01*
X92719000Y-74721721D01*
X92636953Y-74309244D01*
X92476012Y-73920698D01*
X92242363Y-73571017D01*
X92111693Y-73440347D01*
X99271952Y-73440347D01*
X100584000Y-74752395D01*
X101896048Y-73440347D01*
X101740038Y-73124786D01*
X101365255Y-72933980D01*
X100960449Y-72819956D01*
X100541176Y-72787098D01*
X100123549Y-72836666D01*
X99723617Y-72966757D01*
X99427962Y-73124786D01*
X99271952Y-73440347D01*
X92111693Y-73440347D01*
X91944983Y-73273637D01*
X91595302Y-73039988D01*
X91206756Y-72879047D01*
X90794279Y-72797000D01*
X90373721Y-72797000D01*
X89961244Y-72879047D01*
X89572698Y-73039988D01*
X89223017Y-73273637D01*
X88925637Y-73571017D01*
X88691988Y-73920698D01*
X88531047Y-74309244D01*
X88449000Y-74721721D01*
X80618480Y-74721721D01*
X80618480Y-74597801D01*
X80536433Y-74185324D01*
X80375492Y-73796778D01*
X80141843Y-73447097D01*
X79844463Y-73149717D01*
X79494782Y-72916068D01*
X79106236Y-72755127D01*
X78693759Y-72673080D01*
X78273201Y-72673080D01*
X77860724Y-72755127D01*
X77472178Y-72916068D01*
X77122497Y-73149717D01*
X76825117Y-73447097D01*
X76591468Y-73796778D01*
X76430527Y-74185324D01*
X76348480Y-74597801D01*
X70618480Y-74597801D01*
X70536433Y-74185324D01*
X70375492Y-73796778D01*
X70141843Y-73447097D01*
X69844463Y-73149717D01*
X69494782Y-72916068D01*
X69106236Y-72755127D01*
X68693759Y-72673080D01*
X68273201Y-72673080D01*
X67860724Y-72755127D01*
X67472178Y-72916068D01*
X67122497Y-73149717D01*
X66825117Y-73447097D01*
X66591468Y-73796778D01*
X66430527Y-74185324D01*
X66348480Y-74597801D01*
X64570480Y-74597801D01*
X64480451Y-74380452D01*
X64282915Y-74084819D01*
X64031501Y-73833405D01*
X63735868Y-73635869D01*
X63407379Y-73499805D01*
X63058657Y-73430440D01*
X62703103Y-73430440D01*
X62354381Y-73499805D01*
X62025892Y-73635869D01*
X61888947Y-73727373D01*
X61980451Y-73590428D01*
X62116515Y-73261939D01*
X62185880Y-72913217D01*
X62185880Y-72557663D01*
X62116515Y-72208941D01*
X61980451Y-71880452D01*
X61782915Y-71584819D01*
X61531501Y-71333405D01*
X61235868Y-71135869D01*
X60907379Y-70999805D01*
X60558657Y-70930440D01*
X60203103Y-70930440D01*
X59854381Y-70999805D01*
X59525892Y-71135869D01*
X59230259Y-71333405D01*
X58978845Y-71584819D01*
X58781309Y-71880452D01*
X58645245Y-72208941D01*
X58575880Y-72557663D01*
X48163102Y-72557663D01*
X48335346Y-72299882D01*
X48477441Y-71956834D01*
X48549880Y-71592656D01*
X48549880Y-71221344D01*
X48477441Y-70857166D01*
X48335346Y-70514118D01*
X48129055Y-70205382D01*
X47866498Y-69942825D01*
X47557762Y-69736534D01*
X47214714Y-69594439D01*
X46850536Y-69522000D01*
X46479224Y-69522000D01*
X46115046Y-69594439D01*
X45771998Y-69736534D01*
X45463262Y-69942825D01*
X45200705Y-70205382D01*
X44994414Y-70514118D01*
X44852319Y-70857166D01*
X44779880Y-71221344D01*
X43970506Y-71221344D01*
X43969987Y-69366840D01*
X52228928Y-69366840D01*
X52228928Y-70566840D01*
X52241188Y-70691322D01*
X52277498Y-70811020D01*
X52336463Y-70921334D01*
X52415815Y-71018025D01*
X52512506Y-71097377D01*
X52622820Y-71156342D01*
X52742518Y-71192652D01*
X52867000Y-71204912D01*
X54067000Y-71204912D01*
X54191482Y-71192652D01*
X54311180Y-71156342D01*
X54421494Y-71097377D01*
X54518185Y-71018025D01*
X54597537Y-70921334D01*
X54624499Y-70870893D01*
X54679733Y-70926127D01*
X54882008Y-71061283D01*
X55106764Y-71154380D01*
X55345363Y-71201840D01*
X55588637Y-71201840D01*
X55827236Y-71154380D01*
X56051992Y-71061283D01*
X56254267Y-70926127D01*
X56426287Y-70754107D01*
X56561443Y-70551832D01*
X56654540Y-70327076D01*
X56702000Y-70088477D01*
X56702000Y-69845203D01*
X56667191Y-69670201D01*
X66356080Y-69670201D01*
X66356080Y-70090759D01*
X66438127Y-70503236D01*
X66599068Y-70891782D01*
X66832717Y-71241463D01*
X67130097Y-71538843D01*
X67479778Y-71772492D01*
X67868324Y-71933433D01*
X68280801Y-72015480D01*
X68701359Y-72015480D01*
X69113836Y-71933433D01*
X69502382Y-71772492D01*
X69852063Y-71538843D01*
X70018773Y-71372133D01*
X77179032Y-71372133D01*
X77335042Y-71687694D01*
X77709825Y-71878500D01*
X78114631Y-71992524D01*
X78533904Y-72025382D01*
X78951531Y-71975814D01*
X79351463Y-71845723D01*
X79647118Y-71687694D01*
X79803128Y-71372133D01*
X79770648Y-71339653D01*
X87587952Y-71339653D01*
X87743962Y-71655214D01*
X88118745Y-71846020D01*
X88523551Y-71960044D01*
X88942824Y-71992902D01*
X89360451Y-71943334D01*
X89760383Y-71813243D01*
X90056038Y-71655214D01*
X90212048Y-71339653D01*
X88900000Y-70027605D01*
X87587952Y-71339653D01*
X79770648Y-71339653D01*
X78491080Y-70060085D01*
X77179032Y-71372133D01*
X70018773Y-71372133D01*
X70149443Y-71241463D01*
X70383092Y-70891782D01*
X70544033Y-70503236D01*
X70626080Y-70090759D01*
X70626080Y-69923304D01*
X76346178Y-69923304D01*
X76395746Y-70340931D01*
X76525837Y-70740863D01*
X76683866Y-71036518D01*
X76999427Y-71192528D01*
X78311475Y-69880480D01*
X78670685Y-69880480D01*
X79982733Y-71192528D01*
X80298294Y-71036518D01*
X80489100Y-70661735D01*
X80603124Y-70256929D01*
X80631815Y-69890824D01*
X86755098Y-69890824D01*
X86804666Y-70308451D01*
X86934757Y-70708383D01*
X87092786Y-71004038D01*
X87408347Y-71160048D01*
X88720395Y-69848000D01*
X89079605Y-69848000D01*
X90391653Y-71160048D01*
X90707214Y-71004038D01*
X90898020Y-70629255D01*
X91012044Y-70224449D01*
X91044902Y-69805176D01*
X91025027Y-69637721D01*
X96765000Y-69637721D01*
X96765000Y-70058279D01*
X96847047Y-70470756D01*
X97007988Y-70859302D01*
X97241637Y-71208983D01*
X97539017Y-71506363D01*
X97888698Y-71740012D01*
X98277244Y-71900953D01*
X98689721Y-71983000D01*
X99110279Y-71983000D01*
X99522756Y-71900953D01*
X99911302Y-71740012D01*
X100260983Y-71506363D01*
X100558363Y-71208983D01*
X100792012Y-70859302D01*
X100952953Y-70470756D01*
X101035000Y-70058279D01*
X101035000Y-69637721D01*
X100952953Y-69225244D01*
X100792012Y-68836698D01*
X100558363Y-68487017D01*
X100260983Y-68189637D01*
X99911302Y-67955988D01*
X99522756Y-67795047D01*
X99245017Y-67739801D01*
X141695020Y-67739801D01*
X141695020Y-68160359D01*
X141777067Y-68572836D01*
X141938008Y-68961382D01*
X142171657Y-69311063D01*
X142469037Y-69608443D01*
X142818718Y-69842092D01*
X143207264Y-70003033D01*
X143619741Y-70085080D01*
X144040299Y-70085080D01*
X144452776Y-70003033D01*
X144841322Y-69842092D01*
X145191003Y-69608443D01*
X145488383Y-69311063D01*
X145722032Y-68961382D01*
X145882973Y-68572836D01*
X145965020Y-68160359D01*
X145965020Y-67739801D01*
X151695020Y-67739801D01*
X151695020Y-68160359D01*
X151777067Y-68572836D01*
X151938008Y-68961382D01*
X152171657Y-69311063D01*
X152469037Y-69608443D01*
X152818718Y-69842092D01*
X153207264Y-70003033D01*
X153619741Y-70085080D01*
X154040299Y-70085080D01*
X154452776Y-70003033D01*
X154841322Y-69842092D01*
X155191003Y-69608443D01*
X155488383Y-69311063D01*
X155722032Y-68961382D01*
X155882973Y-68572836D01*
X155965020Y-68160359D01*
X155965020Y-67739801D01*
X155882973Y-67327324D01*
X155722032Y-66938778D01*
X155488383Y-66589097D01*
X155191003Y-66291717D01*
X154841322Y-66058068D01*
X154452776Y-65897127D01*
X154040299Y-65815080D01*
X153619741Y-65815080D01*
X153207264Y-65897127D01*
X152818718Y-66058068D01*
X152469037Y-66291717D01*
X152171657Y-66589097D01*
X151938008Y-66938778D01*
X151777067Y-67327324D01*
X151695020Y-67739801D01*
X145965020Y-67739801D01*
X145882973Y-67327324D01*
X145722032Y-66938778D01*
X145488383Y-66589097D01*
X145191003Y-66291717D01*
X144841322Y-66058068D01*
X144452776Y-65897127D01*
X144040299Y-65815080D01*
X143619741Y-65815080D01*
X143207264Y-65897127D01*
X142818718Y-66058068D01*
X142469037Y-66291717D01*
X142171657Y-66589097D01*
X141938008Y-66938778D01*
X141777067Y-67327324D01*
X141695020Y-67739801D01*
X99245017Y-67739801D01*
X99110279Y-67713000D01*
X98689721Y-67713000D01*
X98277244Y-67795047D01*
X97888698Y-67955988D01*
X97539017Y-68189637D01*
X97241637Y-68487017D01*
X97007988Y-68836698D01*
X96847047Y-69225244D01*
X96765000Y-69637721D01*
X91025027Y-69637721D01*
X90995334Y-69387549D01*
X90865243Y-68987617D01*
X90707214Y-68691962D01*
X90391653Y-68535952D01*
X89079605Y-69848000D01*
X88720395Y-69848000D01*
X87408347Y-68535952D01*
X87092786Y-68691962D01*
X86901980Y-69066745D01*
X86787956Y-69471551D01*
X86755098Y-69890824D01*
X80631815Y-69890824D01*
X80635982Y-69837656D01*
X80586414Y-69420029D01*
X80456323Y-69020097D01*
X80298294Y-68724442D01*
X79982733Y-68568432D01*
X78670685Y-69880480D01*
X78311475Y-69880480D01*
X76999427Y-68568432D01*
X76683866Y-68724442D01*
X76493060Y-69099225D01*
X76379036Y-69504031D01*
X76346178Y-69923304D01*
X70626080Y-69923304D01*
X70626080Y-69670201D01*
X70544033Y-69257724D01*
X70383092Y-68869178D01*
X70149443Y-68519497D01*
X70018773Y-68388827D01*
X77179032Y-68388827D01*
X78491080Y-69700875D01*
X79803128Y-68388827D01*
X79787071Y-68356347D01*
X87587952Y-68356347D01*
X88900000Y-69668395D01*
X90212048Y-68356347D01*
X90056038Y-68040786D01*
X89681255Y-67849980D01*
X89276449Y-67735956D01*
X88857176Y-67703098D01*
X88439549Y-67752666D01*
X88039617Y-67882757D01*
X87743962Y-68040786D01*
X87587952Y-68356347D01*
X79787071Y-68356347D01*
X79647118Y-68073266D01*
X79272335Y-67882460D01*
X78867529Y-67768436D01*
X78448256Y-67735578D01*
X78030629Y-67785146D01*
X77630697Y-67915237D01*
X77335042Y-68073266D01*
X77179032Y-68388827D01*
X70018773Y-68388827D01*
X69852063Y-68222117D01*
X69502382Y-67988468D01*
X69113836Y-67827527D01*
X68701359Y-67745480D01*
X68280801Y-67745480D01*
X67868324Y-67827527D01*
X67479778Y-67988468D01*
X67130097Y-68222117D01*
X66832717Y-68519497D01*
X66599068Y-68869178D01*
X66438127Y-69257724D01*
X66356080Y-69670201D01*
X56667191Y-69670201D01*
X56654540Y-69606604D01*
X56561443Y-69381848D01*
X56426287Y-69179573D01*
X56254267Y-69007553D01*
X56051992Y-68872397D01*
X55827236Y-68779300D01*
X55588637Y-68731840D01*
X55345363Y-68731840D01*
X55106764Y-68779300D01*
X54882008Y-68872397D01*
X54679733Y-69007553D01*
X54624499Y-69062787D01*
X54597537Y-69012346D01*
X54518185Y-68915655D01*
X54421494Y-68836303D01*
X54311180Y-68777338D01*
X54191482Y-68741028D01*
X54067000Y-68728768D01*
X52867000Y-68728768D01*
X52742518Y-68741028D01*
X52622820Y-68777338D01*
X52512506Y-68836303D01*
X52415815Y-68915655D01*
X52336463Y-69012346D01*
X52277498Y-69122660D01*
X52241188Y-69242358D01*
X52228928Y-69366840D01*
X43969987Y-69366840D01*
X43969502Y-67632782D01*
X60116423Y-67632782D01*
X60188006Y-67876751D01*
X60443516Y-67997651D01*
X60717704Y-68066380D01*
X61000032Y-68080297D01*
X61279650Y-68038867D01*
X61545812Y-67943683D01*
X61671034Y-67876751D01*
X61742617Y-67632782D01*
X60929520Y-66819685D01*
X60116423Y-67632782D01*
X43969502Y-67632782D01*
X43969244Y-66710592D01*
X59489303Y-66710592D01*
X59530733Y-66990210D01*
X59625917Y-67256372D01*
X59692849Y-67381594D01*
X59936818Y-67453177D01*
X60749915Y-66640080D01*
X61109125Y-66640080D01*
X61922222Y-67453177D01*
X62166191Y-67381594D01*
X62287091Y-67126084D01*
X62355820Y-66851896D01*
X62369737Y-66569568D01*
X62328307Y-66289950D01*
X62233123Y-66023788D01*
X62166191Y-65898566D01*
X61922222Y-65826983D01*
X61109125Y-66640080D01*
X60749915Y-66640080D01*
X59936818Y-65826983D01*
X59692849Y-65898566D01*
X59571949Y-66154076D01*
X59503220Y-66428264D01*
X59489303Y-66710592D01*
X43969244Y-66710592D01*
X43968301Y-63340080D01*
X59491448Y-63340080D01*
X59491448Y-64940080D01*
X59503708Y-65064562D01*
X59540018Y-65184260D01*
X59598983Y-65294574D01*
X59678335Y-65391265D01*
X59775026Y-65470617D01*
X59885340Y-65529582D01*
X60005038Y-65565892D01*
X60129520Y-65578152D01*
X60136735Y-65578152D01*
X60116423Y-65647378D01*
X60929520Y-66460475D01*
X61742617Y-65647378D01*
X61722305Y-65578152D01*
X61729520Y-65578152D01*
X61854002Y-65565892D01*
X61973700Y-65529582D01*
X62084014Y-65470617D01*
X62180705Y-65391265D01*
X62260057Y-65294574D01*
X62319022Y-65184260D01*
X62355332Y-65064562D01*
X62367592Y-64940080D01*
X62367592Y-64937721D01*
X96765000Y-64937721D01*
X96765000Y-65358279D01*
X96847047Y-65770756D01*
X97007988Y-66159302D01*
X97241637Y-66508983D01*
X97539017Y-66806363D01*
X97888698Y-67040012D01*
X98277244Y-67200953D01*
X98689721Y-67283000D01*
X99110279Y-67283000D01*
X99522756Y-67200953D01*
X99911302Y-67040012D01*
X100260983Y-66806363D01*
X100558363Y-66508983D01*
X100792012Y-66159302D01*
X100952953Y-65770756D01*
X101035000Y-65358279D01*
X101035000Y-65144544D01*
X103293000Y-65144544D01*
X103293000Y-65411456D01*
X103345072Y-65673239D01*
X103447215Y-65919833D01*
X103595503Y-66141762D01*
X103784238Y-66330497D01*
X104006167Y-66478785D01*
X104252761Y-66580928D01*
X104514544Y-66633000D01*
X104781456Y-66633000D01*
X105043239Y-66580928D01*
X105289833Y-66478785D01*
X105511762Y-66330497D01*
X105700497Y-66141762D01*
X105848785Y-65919833D01*
X105950928Y-65673239D01*
X106003000Y-65411456D01*
X106003000Y-65144544D01*
X105950928Y-64882761D01*
X105848785Y-64636167D01*
X105700497Y-64414238D01*
X105511762Y-64225503D01*
X105289833Y-64077215D01*
X105121676Y-64007562D01*
X105236353Y-63965875D01*
X105342068Y-63909368D01*
X105403955Y-63673560D01*
X105240216Y-63509821D01*
X122988120Y-63509821D01*
X122988120Y-63713699D01*
X123027894Y-63913658D01*
X123105915Y-64102016D01*
X123219183Y-64271534D01*
X123363346Y-64415697D01*
X123532864Y-64528965D01*
X123721222Y-64606986D01*
X123921181Y-64646760D01*
X124125059Y-64646760D01*
X124325018Y-64606986D01*
X124513376Y-64528965D01*
X124561574Y-64496760D01*
X125422772Y-64496760D01*
X125508984Y-64554365D01*
X125697342Y-64632386D01*
X125897301Y-64672160D01*
X126101179Y-64672160D01*
X126301138Y-64632386D01*
X126489496Y-64554365D01*
X126659014Y-64441097D01*
X126803177Y-64296934D01*
X126916445Y-64127416D01*
X126994466Y-63939058D01*
X127034240Y-63739099D01*
X127034240Y-63535221D01*
X126994466Y-63335262D01*
X126916445Y-63146904D01*
X126803177Y-62977386D01*
X126659014Y-62833223D01*
X126489496Y-62719955D01*
X126301138Y-62641934D01*
X126101179Y-62602160D01*
X125897301Y-62602160D01*
X125697342Y-62641934D01*
X125508984Y-62719955D01*
X125498800Y-62726760D01*
X124561574Y-62726760D01*
X124513376Y-62694555D01*
X124325018Y-62616534D01*
X124125059Y-62576760D01*
X123921181Y-62576760D01*
X123721222Y-62616534D01*
X123532864Y-62694555D01*
X123363346Y-62807823D01*
X123219183Y-62951986D01*
X123105915Y-63121504D01*
X123027894Y-63309862D01*
X122988120Y-63509821D01*
X105240216Y-63509821D01*
X104648000Y-62917605D01*
X103892045Y-63673560D01*
X103953932Y-63909368D01*
X104169007Y-64009764D01*
X104006167Y-64077215D01*
X103784238Y-64225503D01*
X103595503Y-64414238D01*
X103447215Y-64636167D01*
X103345072Y-64882761D01*
X103293000Y-65144544D01*
X101035000Y-65144544D01*
X101035000Y-64937721D01*
X100952953Y-64525244D01*
X100792012Y-64136698D01*
X100558363Y-63787017D01*
X100260983Y-63489637D01*
X99911302Y-63255988D01*
X99522756Y-63095047D01*
X99110279Y-63013000D01*
X98689721Y-63013000D01*
X98277244Y-63095047D01*
X97888698Y-63255988D01*
X97539017Y-63489637D01*
X97241637Y-63787017D01*
X97007988Y-64136698D01*
X96847047Y-64525244D01*
X96765000Y-64937721D01*
X62367592Y-64937721D01*
X62367592Y-63340080D01*
X62355332Y-63215598D01*
X62319022Y-63095900D01*
X62260057Y-62985586D01*
X62180705Y-62888895D01*
X62084014Y-62809543D01*
X61973700Y-62750578D01*
X61854002Y-62714268D01*
X61729520Y-62702008D01*
X60129520Y-62702008D01*
X60005038Y-62714268D01*
X59885340Y-62750578D01*
X59775026Y-62809543D01*
X59678335Y-62888895D01*
X59598983Y-62985586D01*
X59540018Y-63095900D01*
X59503708Y-63215598D01*
X59491448Y-63340080D01*
X43968301Y-63340080D01*
X43967834Y-61670201D01*
X66356080Y-61670201D01*
X66356080Y-62090759D01*
X66438127Y-62503236D01*
X66599068Y-62891782D01*
X66832717Y-63241463D01*
X67130097Y-63538843D01*
X67479778Y-63772492D01*
X67868324Y-63933433D01*
X68280801Y-64015480D01*
X68701359Y-64015480D01*
X69113836Y-63933433D01*
X69502382Y-63772492D01*
X69852063Y-63538843D01*
X70149443Y-63241463D01*
X70383092Y-62891782D01*
X70416271Y-62811680D01*
X103288439Y-62811680D01*
X103328937Y-63075501D01*
X103420125Y-63326353D01*
X103476632Y-63432068D01*
X103712440Y-63493955D01*
X104468395Y-62738000D01*
X104827605Y-62738000D01*
X105583560Y-63493955D01*
X105819368Y-63432068D01*
X105932266Y-63190210D01*
X105995811Y-62930973D01*
X106007561Y-62664320D01*
X105967063Y-62400499D01*
X105875875Y-62149647D01*
X105819368Y-62043932D01*
X105583560Y-61982045D01*
X104827605Y-62738000D01*
X104468395Y-62738000D01*
X103712440Y-61982045D01*
X103476632Y-62043932D01*
X103363734Y-62285790D01*
X103300189Y-62545027D01*
X103288439Y-62811680D01*
X70416271Y-62811680D01*
X70544033Y-62503236D01*
X70626080Y-62090759D01*
X70626080Y-61670201D01*
X70544033Y-61257724D01*
X70383092Y-60869178D01*
X70149443Y-60519497D01*
X69852063Y-60222117D01*
X69502382Y-59988468D01*
X69113836Y-59827527D01*
X68701359Y-59745480D01*
X68280801Y-59745480D01*
X67868324Y-59827527D01*
X67479778Y-59988468D01*
X67130097Y-60222117D01*
X66832717Y-60519497D01*
X66599068Y-60869178D01*
X66438127Y-61257724D01*
X66356080Y-61670201D01*
X43967834Y-61670201D01*
X43967070Y-58937721D01*
X96765000Y-58937721D01*
X96765000Y-59358279D01*
X96847047Y-59770756D01*
X97007988Y-60159302D01*
X97241637Y-60508983D01*
X97539017Y-60806363D01*
X97888698Y-61040012D01*
X98277244Y-61200953D01*
X98689721Y-61283000D01*
X99110279Y-61283000D01*
X99522756Y-61200953D01*
X99911302Y-61040012D01*
X100260983Y-60806363D01*
X100558363Y-60508983D01*
X100792012Y-60159302D01*
X100831262Y-60064544D01*
X103293000Y-60064544D01*
X103293000Y-60331456D01*
X103345072Y-60593239D01*
X103447215Y-60839833D01*
X103595503Y-61061762D01*
X103784238Y-61250497D01*
X104006167Y-61398785D01*
X104174324Y-61468438D01*
X104059647Y-61510125D01*
X103953932Y-61566632D01*
X103892045Y-61802440D01*
X104648000Y-62558395D01*
X105403955Y-61802440D01*
X105342068Y-61566632D01*
X105126993Y-61466236D01*
X105289833Y-61398785D01*
X105511762Y-61250497D01*
X105700497Y-61061762D01*
X105848785Y-60839833D01*
X105950928Y-60593239D01*
X106003000Y-60331456D01*
X106003000Y-60064544D01*
X105950928Y-59802761D01*
X105848785Y-59556167D01*
X105747900Y-59405181D01*
X114306400Y-59405181D01*
X114306400Y-59609059D01*
X114346174Y-59809018D01*
X114424195Y-59997376D01*
X114537463Y-60166894D01*
X114681626Y-60311057D01*
X114851144Y-60424325D01*
X115039502Y-60502346D01*
X115239461Y-60542120D01*
X115443339Y-60542120D01*
X115643298Y-60502346D01*
X115831656Y-60424325D01*
X115879854Y-60392120D01*
X117429943Y-60392120D01*
X117583881Y-60422740D01*
X117787759Y-60422740D01*
X117987718Y-60382966D01*
X118176076Y-60304945D01*
X118345594Y-60191677D01*
X118489757Y-60047514D01*
X118603025Y-59877996D01*
X118660267Y-59739801D01*
X141695020Y-59739801D01*
X141695020Y-60160359D01*
X141777067Y-60572836D01*
X141938008Y-60961382D01*
X142171657Y-61311063D01*
X142469037Y-61608443D01*
X142818718Y-61842092D01*
X143207264Y-62003033D01*
X143619741Y-62085080D01*
X144040299Y-62085080D01*
X144452776Y-62003033D01*
X144841322Y-61842092D01*
X145191003Y-61608443D01*
X145488383Y-61311063D01*
X145722032Y-60961382D01*
X145882973Y-60572836D01*
X145965020Y-60160359D01*
X145965020Y-59739801D01*
X145882973Y-59327324D01*
X145722032Y-58938778D01*
X145488383Y-58589097D01*
X145191003Y-58291717D01*
X144841322Y-58058068D01*
X144452776Y-57897127D01*
X144040299Y-57815080D01*
X143619741Y-57815080D01*
X143207264Y-57897127D01*
X142818718Y-58058068D01*
X142469037Y-58291717D01*
X142171657Y-58589097D01*
X141938008Y-58938778D01*
X141777067Y-59327324D01*
X141695020Y-59739801D01*
X118660267Y-59739801D01*
X118681046Y-59689638D01*
X118720820Y-59489679D01*
X118720820Y-59285801D01*
X118681046Y-59085842D01*
X118603025Y-58897484D01*
X118489757Y-58727966D01*
X118345594Y-58583803D01*
X118176076Y-58470535D01*
X117987718Y-58392514D01*
X117787759Y-58352740D01*
X117583881Y-58352740D01*
X117383922Y-58392514D01*
X117195564Y-58470535D01*
X117026046Y-58583803D01*
X116987729Y-58622120D01*
X115879854Y-58622120D01*
X115831656Y-58589915D01*
X115643298Y-58511894D01*
X115443339Y-58472120D01*
X115239461Y-58472120D01*
X115039502Y-58511894D01*
X114851144Y-58589915D01*
X114681626Y-58703183D01*
X114537463Y-58847346D01*
X114424195Y-59016864D01*
X114346174Y-59205222D01*
X114306400Y-59405181D01*
X105747900Y-59405181D01*
X105700497Y-59334238D01*
X105511762Y-59145503D01*
X105289833Y-58997215D01*
X105043239Y-58895072D01*
X104781456Y-58843000D01*
X104514544Y-58843000D01*
X104252761Y-58895072D01*
X104006167Y-58997215D01*
X103784238Y-59145503D01*
X103595503Y-59334238D01*
X103447215Y-59556167D01*
X103345072Y-59802761D01*
X103293000Y-60064544D01*
X100831262Y-60064544D01*
X100952953Y-59770756D01*
X101035000Y-59358279D01*
X101035000Y-58937721D01*
X100952953Y-58525244D01*
X100792012Y-58136698D01*
X100558363Y-57787017D01*
X100260983Y-57489637D01*
X99911302Y-57255988D01*
X99522756Y-57095047D01*
X99110279Y-57013000D01*
X98689721Y-57013000D01*
X98277244Y-57095047D01*
X97888698Y-57255988D01*
X97539017Y-57489637D01*
X97241637Y-57787017D01*
X97007988Y-58136698D01*
X96847047Y-58525244D01*
X96765000Y-58937721D01*
X43967070Y-58937721D01*
X43964956Y-51388720D01*
X59417128Y-51388720D01*
X59417128Y-52588720D01*
X59429388Y-52713202D01*
X59465698Y-52832900D01*
X59524663Y-52943214D01*
X59604015Y-53039905D01*
X59700706Y-53119257D01*
X59751147Y-53146219D01*
X59695913Y-53201453D01*
X59560757Y-53403728D01*
X59467660Y-53628484D01*
X59420200Y-53867083D01*
X59420200Y-54110357D01*
X59467660Y-54348956D01*
X59560757Y-54573712D01*
X59695913Y-54775987D01*
X59867933Y-54948007D01*
X60070208Y-55083163D01*
X60294964Y-55176260D01*
X60533563Y-55223720D01*
X60776837Y-55223720D01*
X61015436Y-55176260D01*
X61240192Y-55083163D01*
X61442467Y-54948007D01*
X61614487Y-54775987D01*
X61749643Y-54573712D01*
X61842740Y-54348956D01*
X61890200Y-54110357D01*
X61890200Y-53867083D01*
X61851038Y-53670201D01*
X66356080Y-53670201D01*
X66356080Y-54090759D01*
X66438127Y-54503236D01*
X66599068Y-54891782D01*
X66832717Y-55241463D01*
X67130097Y-55538843D01*
X67479778Y-55772492D01*
X67868324Y-55933433D01*
X68280801Y-56015480D01*
X68701359Y-56015480D01*
X69113836Y-55933433D01*
X69502382Y-55772492D01*
X69852063Y-55538843D01*
X70149443Y-55241463D01*
X70383092Y-54891782D01*
X70544033Y-54503236D01*
X70626080Y-54090759D01*
X70626080Y-53670201D01*
X76356080Y-53670201D01*
X76356080Y-54090759D01*
X76438127Y-54503236D01*
X76599068Y-54891782D01*
X76832717Y-55241463D01*
X77130097Y-55538843D01*
X77479778Y-55772492D01*
X77868324Y-55933433D01*
X78280801Y-56015480D01*
X78701359Y-56015480D01*
X79113836Y-55933433D01*
X79502382Y-55772492D01*
X79852063Y-55538843D01*
X80149443Y-55241463D01*
X80383092Y-54891782D01*
X80544033Y-54503236D01*
X80626080Y-54090759D01*
X80626080Y-53670201D01*
X80619620Y-53637721D01*
X86765000Y-53637721D01*
X86765000Y-54058279D01*
X86847047Y-54470756D01*
X87007988Y-54859302D01*
X87241637Y-55208983D01*
X87539017Y-55506363D01*
X87888698Y-55740012D01*
X88277244Y-55900953D01*
X88689721Y-55983000D01*
X89110279Y-55983000D01*
X89522756Y-55900953D01*
X89911302Y-55740012D01*
X90260983Y-55506363D01*
X90558363Y-55208983D01*
X90792012Y-54859302D01*
X90952953Y-54470756D01*
X91035000Y-54058279D01*
X91035000Y-53637721D01*
X96765000Y-53637721D01*
X96765000Y-54058279D01*
X96847047Y-54470756D01*
X97007988Y-54859302D01*
X97241637Y-55208983D01*
X97539017Y-55506363D01*
X97888698Y-55740012D01*
X98277244Y-55900953D01*
X98689721Y-55983000D01*
X99110279Y-55983000D01*
X99522756Y-55900953D01*
X99911302Y-55740012D01*
X100260983Y-55506363D01*
X100558363Y-55208983D01*
X100792012Y-54859302D01*
X100952953Y-54470756D01*
X101035000Y-54058279D01*
X101035000Y-53637721D01*
X100952953Y-53225244D01*
X100792012Y-52836698D01*
X100558363Y-52487017D01*
X100260983Y-52189637D01*
X99911302Y-51955988D01*
X99522756Y-51795047D01*
X99245017Y-51739801D01*
X141695020Y-51739801D01*
X141695020Y-52160359D01*
X141777067Y-52572836D01*
X141938008Y-52961382D01*
X142171657Y-53311063D01*
X142469037Y-53608443D01*
X142818718Y-53842092D01*
X143207264Y-54003033D01*
X143619741Y-54085080D01*
X144040299Y-54085080D01*
X144452776Y-54003033D01*
X144841322Y-53842092D01*
X145191003Y-53608443D01*
X145488383Y-53311063D01*
X145722032Y-52961382D01*
X145882973Y-52572836D01*
X145965020Y-52160359D01*
X145965020Y-51739801D01*
X151695020Y-51739801D01*
X151695020Y-52160359D01*
X151777067Y-52572836D01*
X151938008Y-52961382D01*
X152171657Y-53311063D01*
X152469037Y-53608443D01*
X152818718Y-53842092D01*
X153207264Y-54003033D01*
X153619741Y-54085080D01*
X154040299Y-54085080D01*
X154452776Y-54003033D01*
X154841322Y-53842092D01*
X155191003Y-53608443D01*
X155488383Y-53311063D01*
X155722032Y-52961382D01*
X155882973Y-52572836D01*
X155965020Y-52160359D01*
X155965020Y-51739801D01*
X155882973Y-51327324D01*
X155722032Y-50938778D01*
X155488383Y-50589097D01*
X155191003Y-50291717D01*
X154841322Y-50058068D01*
X154452776Y-49897127D01*
X154040299Y-49815080D01*
X153619741Y-49815080D01*
X153207264Y-49897127D01*
X152818718Y-50058068D01*
X152469037Y-50291717D01*
X152171657Y-50589097D01*
X151938008Y-50938778D01*
X151777067Y-51327324D01*
X151695020Y-51739801D01*
X145965020Y-51739801D01*
X145882973Y-51327324D01*
X145722032Y-50938778D01*
X145488383Y-50589097D01*
X145191003Y-50291717D01*
X144841322Y-50058068D01*
X144452776Y-49897127D01*
X144040299Y-49815080D01*
X143619741Y-49815080D01*
X143207264Y-49897127D01*
X142818718Y-50058068D01*
X142469037Y-50291717D01*
X142171657Y-50589097D01*
X141938008Y-50938778D01*
X141777067Y-51327324D01*
X141695020Y-51739801D01*
X99245017Y-51739801D01*
X99110279Y-51713000D01*
X98689721Y-51713000D01*
X98277244Y-51795047D01*
X97888698Y-51955988D01*
X97539017Y-52189637D01*
X97241637Y-52487017D01*
X97007988Y-52836698D01*
X96847047Y-53225244D01*
X96765000Y-53637721D01*
X91035000Y-53637721D01*
X90952953Y-53225244D01*
X90792012Y-52836698D01*
X90558363Y-52487017D01*
X90260983Y-52189637D01*
X89911302Y-51955988D01*
X89522756Y-51795047D01*
X89110279Y-51713000D01*
X88689721Y-51713000D01*
X88277244Y-51795047D01*
X87888698Y-51955988D01*
X87539017Y-52189637D01*
X87241637Y-52487017D01*
X87007988Y-52836698D01*
X86847047Y-53225244D01*
X86765000Y-53637721D01*
X80619620Y-53637721D01*
X80544033Y-53257724D01*
X80383092Y-52869178D01*
X80149443Y-52519497D01*
X79852063Y-52222117D01*
X79502382Y-51988468D01*
X79113836Y-51827527D01*
X78701359Y-51745480D01*
X78280801Y-51745480D01*
X77868324Y-51827527D01*
X77479778Y-51988468D01*
X77130097Y-52222117D01*
X76832717Y-52519497D01*
X76599068Y-52869178D01*
X76438127Y-53257724D01*
X76356080Y-53670201D01*
X70626080Y-53670201D01*
X70544033Y-53257724D01*
X70383092Y-52869178D01*
X70149443Y-52519497D01*
X69852063Y-52222117D01*
X69502382Y-51988468D01*
X69113836Y-51827527D01*
X68701359Y-51745480D01*
X68280801Y-51745480D01*
X67868324Y-51827527D01*
X67479778Y-51988468D01*
X67130097Y-52222117D01*
X66832717Y-52519497D01*
X66599068Y-52869178D01*
X66438127Y-53257724D01*
X66356080Y-53670201D01*
X61851038Y-53670201D01*
X61842740Y-53628484D01*
X61749643Y-53403728D01*
X61614487Y-53201453D01*
X61559253Y-53146219D01*
X61609694Y-53119257D01*
X61706385Y-53039905D01*
X61785737Y-52943214D01*
X61844702Y-52832900D01*
X61881012Y-52713202D01*
X61893272Y-52588720D01*
X61893272Y-51388720D01*
X61881012Y-51264238D01*
X61844702Y-51144540D01*
X61785737Y-51034226D01*
X61706385Y-50937535D01*
X61609694Y-50858183D01*
X61499380Y-50799218D01*
X61379682Y-50762908D01*
X61255200Y-50750648D01*
X60055200Y-50750648D01*
X59930718Y-50762908D01*
X59811020Y-50799218D01*
X59700706Y-50858183D01*
X59604015Y-50937535D01*
X59524663Y-51034226D01*
X59465698Y-51144540D01*
X59429388Y-51264238D01*
X59417128Y-51388720D01*
X43964956Y-51388720D01*
X43964522Y-49835051D01*
X72853834Y-49835051D01*
X72964681Y-50112234D01*
X73275600Y-50265609D01*
X73610465Y-50355380D01*
X73956410Y-50378096D01*
X74300140Y-50332886D01*
X74628445Y-50221486D01*
X74832839Y-50112234D01*
X74943686Y-49835051D01*
X77933834Y-49835051D01*
X78044681Y-50112234D01*
X78355600Y-50265609D01*
X78690465Y-50355380D01*
X79036410Y-50378096D01*
X79380140Y-50332886D01*
X79708445Y-50221486D01*
X79912839Y-50112234D01*
X80023686Y-49835051D01*
X78978760Y-48790125D01*
X77933834Y-49835051D01*
X74943686Y-49835051D01*
X73898760Y-48790125D01*
X72853834Y-49835051D01*
X43964522Y-49835051D01*
X43964195Y-48668170D01*
X72131184Y-48668170D01*
X72176394Y-49011900D01*
X72287794Y-49340205D01*
X72397046Y-49544599D01*
X72674229Y-49655446D01*
X73719155Y-48610520D01*
X74078365Y-48610520D01*
X75123291Y-49655446D01*
X75400474Y-49544599D01*
X75553849Y-49233680D01*
X75643620Y-48898815D01*
X75658764Y-48668170D01*
X77211184Y-48668170D01*
X77256394Y-49011900D01*
X77367794Y-49340205D01*
X77477046Y-49544599D01*
X77754229Y-49655446D01*
X78799155Y-48610520D01*
X79158365Y-48610520D01*
X80203291Y-49655446D01*
X80452837Y-49555651D01*
X87093074Y-49555651D01*
X87203921Y-49832834D01*
X87514840Y-49986209D01*
X87849705Y-50075980D01*
X88195650Y-50098696D01*
X88539380Y-50053486D01*
X88867685Y-49942086D01*
X89072079Y-49832834D01*
X89182926Y-49555651D01*
X92173074Y-49555651D01*
X92283921Y-49832834D01*
X92594840Y-49986209D01*
X92929705Y-50075980D01*
X93275650Y-50098696D01*
X93619380Y-50053486D01*
X93947685Y-49942086D01*
X94152079Y-49832834D01*
X94262926Y-49555651D01*
X94217206Y-49509931D01*
X99376514Y-49509931D01*
X99487361Y-49787114D01*
X99798280Y-49940489D01*
X100133145Y-50030260D01*
X100479090Y-50052976D01*
X100822820Y-50007766D01*
X101151125Y-49896366D01*
X101355519Y-49787114D01*
X101466366Y-49509931D01*
X104456514Y-49509931D01*
X104567361Y-49787114D01*
X104878280Y-49940489D01*
X105213145Y-50030260D01*
X105559090Y-50052976D01*
X105902820Y-50007766D01*
X106231125Y-49896366D01*
X106435519Y-49787114D01*
X106546366Y-49509931D01*
X105501440Y-48465005D01*
X104456514Y-49509931D01*
X101466366Y-49509931D01*
X100421440Y-48465005D01*
X99376514Y-49509931D01*
X94217206Y-49509931D01*
X93218000Y-48510725D01*
X92173074Y-49555651D01*
X89182926Y-49555651D01*
X88138000Y-48510725D01*
X87093074Y-49555651D01*
X80452837Y-49555651D01*
X80480474Y-49544599D01*
X80633849Y-49233680D01*
X80723620Y-48898815D01*
X80746336Y-48552870D01*
X80724753Y-48388770D01*
X86370424Y-48388770D01*
X86415634Y-48732500D01*
X86527034Y-49060805D01*
X86636286Y-49265199D01*
X86913469Y-49376046D01*
X87958395Y-48331120D01*
X88317605Y-48331120D01*
X89362531Y-49376046D01*
X89639714Y-49265199D01*
X89793089Y-48954280D01*
X89882860Y-48619415D01*
X89898004Y-48388770D01*
X91450424Y-48388770D01*
X91495634Y-48732500D01*
X91607034Y-49060805D01*
X91716286Y-49265199D01*
X91993469Y-49376046D01*
X93038395Y-48331120D01*
X93397605Y-48331120D01*
X94442531Y-49376046D01*
X94719714Y-49265199D01*
X94873089Y-48954280D01*
X94962860Y-48619415D01*
X94981007Y-48343050D01*
X98653864Y-48343050D01*
X98699074Y-48686780D01*
X98810474Y-49015085D01*
X98919726Y-49219479D01*
X99196909Y-49330326D01*
X100241835Y-48285400D01*
X100601045Y-48285400D01*
X101645971Y-49330326D01*
X101923154Y-49219479D01*
X102076529Y-48908560D01*
X102166300Y-48573695D01*
X102181444Y-48343050D01*
X103733864Y-48343050D01*
X103779074Y-48686780D01*
X103890474Y-49015085D01*
X103999726Y-49219479D01*
X104276909Y-49330326D01*
X105321835Y-48285400D01*
X105681045Y-48285400D01*
X106725971Y-49330326D01*
X107003154Y-49219479D01*
X107092927Y-49037491D01*
X144580894Y-49037491D01*
X144691741Y-49314674D01*
X145002660Y-49468049D01*
X145337525Y-49557820D01*
X145683470Y-49580536D01*
X146027200Y-49535326D01*
X146355505Y-49423926D01*
X146559899Y-49314674D01*
X146670746Y-49037491D01*
X149660894Y-49037491D01*
X149771741Y-49314674D01*
X150082660Y-49468049D01*
X150417525Y-49557820D01*
X150763470Y-49580536D01*
X151107200Y-49535326D01*
X151435505Y-49423926D01*
X151639899Y-49314674D01*
X151750746Y-49037491D01*
X150705820Y-47992565D01*
X149660894Y-49037491D01*
X146670746Y-49037491D01*
X145625820Y-47992565D01*
X144580894Y-49037491D01*
X107092927Y-49037491D01*
X107156529Y-48908560D01*
X107246300Y-48573695D01*
X107269016Y-48227750D01*
X107223806Y-47884020D01*
X107219256Y-47870610D01*
X143858244Y-47870610D01*
X143903454Y-48214340D01*
X144014854Y-48542645D01*
X144124106Y-48747039D01*
X144401289Y-48857886D01*
X145446215Y-47812960D01*
X145805425Y-47812960D01*
X146850351Y-48857886D01*
X147127534Y-48747039D01*
X147280909Y-48436120D01*
X147370680Y-48101255D01*
X147385824Y-47870610D01*
X148938244Y-47870610D01*
X148983454Y-48214340D01*
X149094854Y-48542645D01*
X149204106Y-48747039D01*
X149481289Y-48857886D01*
X150526215Y-47812960D01*
X150885425Y-47812960D01*
X151930351Y-48857886D01*
X152207534Y-48747039D01*
X152360909Y-48436120D01*
X152450680Y-48101255D01*
X152473396Y-47755310D01*
X152428186Y-47411580D01*
X152316786Y-47083275D01*
X152207534Y-46878881D01*
X151930351Y-46768034D01*
X150885425Y-47812960D01*
X150526215Y-47812960D01*
X149481289Y-46768034D01*
X149204106Y-46878881D01*
X149050731Y-47189800D01*
X148960960Y-47524665D01*
X148938244Y-47870610D01*
X147385824Y-47870610D01*
X147393396Y-47755310D01*
X147348186Y-47411580D01*
X147236786Y-47083275D01*
X147127534Y-46878881D01*
X146850351Y-46768034D01*
X145805425Y-47812960D01*
X145446215Y-47812960D01*
X144401289Y-46768034D01*
X144124106Y-46878881D01*
X143970731Y-47189800D01*
X143880960Y-47524665D01*
X143858244Y-47870610D01*
X107219256Y-47870610D01*
X107112406Y-47555715D01*
X107003154Y-47351321D01*
X106725971Y-47240474D01*
X105681045Y-48285400D01*
X105321835Y-48285400D01*
X104276909Y-47240474D01*
X103999726Y-47351321D01*
X103846351Y-47662240D01*
X103756580Y-47997105D01*
X103733864Y-48343050D01*
X102181444Y-48343050D01*
X102189016Y-48227750D01*
X102143806Y-47884020D01*
X102032406Y-47555715D01*
X101923154Y-47351321D01*
X101645971Y-47240474D01*
X100601045Y-48285400D01*
X100241835Y-48285400D01*
X99196909Y-47240474D01*
X98919726Y-47351321D01*
X98766351Y-47662240D01*
X98676580Y-47997105D01*
X98653864Y-48343050D01*
X94981007Y-48343050D01*
X94985576Y-48273470D01*
X94940366Y-47929740D01*
X94828966Y-47601435D01*
X94719714Y-47397041D01*
X94442531Y-47286194D01*
X93397605Y-48331120D01*
X93038395Y-48331120D01*
X91993469Y-47286194D01*
X91716286Y-47397041D01*
X91562911Y-47707960D01*
X91473140Y-48042825D01*
X91450424Y-48388770D01*
X89898004Y-48388770D01*
X89905576Y-48273470D01*
X89860366Y-47929740D01*
X89748966Y-47601435D01*
X89639714Y-47397041D01*
X89362531Y-47286194D01*
X88317605Y-48331120D01*
X87958395Y-48331120D01*
X86913469Y-47286194D01*
X86636286Y-47397041D01*
X86482911Y-47707960D01*
X86393140Y-48042825D01*
X86370424Y-48388770D01*
X80724753Y-48388770D01*
X80701126Y-48209140D01*
X80589726Y-47880835D01*
X80480474Y-47676441D01*
X80203291Y-47565594D01*
X79158365Y-48610520D01*
X78799155Y-48610520D01*
X77754229Y-47565594D01*
X77477046Y-47676441D01*
X77323671Y-47987360D01*
X77233900Y-48322225D01*
X77211184Y-48668170D01*
X75658764Y-48668170D01*
X75666336Y-48552870D01*
X75621126Y-48209140D01*
X75509726Y-47880835D01*
X75400474Y-47676441D01*
X75123291Y-47565594D01*
X74078365Y-48610520D01*
X73719155Y-48610520D01*
X72674229Y-47565594D01*
X72397046Y-47676441D01*
X72243671Y-47987360D01*
X72153900Y-48322225D01*
X72131184Y-48668170D01*
X43964195Y-48668170D01*
X43963836Y-47385989D01*
X72853834Y-47385989D01*
X73898760Y-48430915D01*
X74943686Y-47385989D01*
X74832839Y-47108806D01*
X74521920Y-46955431D01*
X74187055Y-46865660D01*
X73841110Y-46842944D01*
X73497380Y-46888154D01*
X73169075Y-46999554D01*
X72964681Y-47108806D01*
X72853834Y-47385989D01*
X43963836Y-47385989D01*
X43962838Y-43823472D01*
X44605140Y-43823472D01*
X44605140Y-44263728D01*
X44691030Y-44695525D01*
X44859509Y-45102269D01*
X45104102Y-45468329D01*
X45415411Y-45779638D01*
X45781471Y-46024231D01*
X46188215Y-46192710D01*
X46620012Y-46278600D01*
X47060268Y-46278600D01*
X47492065Y-46192710D01*
X47898809Y-46024231D01*
X48074222Y-45907024D01*
X74778760Y-45907024D01*
X74778760Y-46234016D01*
X74842553Y-46554724D01*
X74967687Y-46856825D01*
X75149354Y-47128708D01*
X75380572Y-47359926D01*
X75652455Y-47541593D01*
X75954556Y-47666727D01*
X76275264Y-47730520D01*
X76602256Y-47730520D01*
X76922964Y-47666727D01*
X77225065Y-47541593D01*
X77457942Y-47385989D01*
X77933834Y-47385989D01*
X78978760Y-48430915D01*
X80023686Y-47385989D01*
X79912839Y-47108806D01*
X79908345Y-47106589D01*
X87093074Y-47106589D01*
X88138000Y-48151515D01*
X89182926Y-47106589D01*
X89072079Y-46829406D01*
X88761160Y-46676031D01*
X88426295Y-46586260D01*
X88080350Y-46563544D01*
X87736620Y-46608754D01*
X87408315Y-46720154D01*
X87203921Y-46829406D01*
X87093074Y-47106589D01*
X79908345Y-47106589D01*
X79601920Y-46955431D01*
X79267055Y-46865660D01*
X78921110Y-46842944D01*
X78577380Y-46888154D01*
X78249075Y-46999554D01*
X78044681Y-47108806D01*
X77933834Y-47385989D01*
X77457942Y-47385989D01*
X77496948Y-47359926D01*
X77728166Y-47128708D01*
X77909833Y-46856825D01*
X78034967Y-46554724D01*
X78098760Y-46234016D01*
X78098760Y-45907024D01*
X78043184Y-45627624D01*
X89018000Y-45627624D01*
X89018000Y-45954616D01*
X89081793Y-46275324D01*
X89206927Y-46577425D01*
X89388594Y-46849308D01*
X89619812Y-47080526D01*
X89891695Y-47262193D01*
X90193796Y-47387327D01*
X90514504Y-47451120D01*
X90841496Y-47451120D01*
X91162204Y-47387327D01*
X91464305Y-47262193D01*
X91697182Y-47106589D01*
X92173074Y-47106589D01*
X93218000Y-48151515D01*
X94262926Y-47106589D01*
X94244643Y-47060869D01*
X99376514Y-47060869D01*
X100421440Y-48105795D01*
X101466366Y-47060869D01*
X101355519Y-46783686D01*
X101044600Y-46630311D01*
X100709735Y-46540540D01*
X100363790Y-46517824D01*
X100020060Y-46563034D01*
X99691755Y-46674434D01*
X99487361Y-46783686D01*
X99376514Y-47060869D01*
X94244643Y-47060869D01*
X94152079Y-46829406D01*
X93841160Y-46676031D01*
X93506295Y-46586260D01*
X93160350Y-46563544D01*
X92816620Y-46608754D01*
X92488315Y-46720154D01*
X92283921Y-46829406D01*
X92173074Y-47106589D01*
X91697182Y-47106589D01*
X91736188Y-47080526D01*
X91967406Y-46849308D01*
X92149073Y-46577425D01*
X92274207Y-46275324D01*
X92338000Y-45954616D01*
X92338000Y-45627624D01*
X92328906Y-45581904D01*
X101301440Y-45581904D01*
X101301440Y-45908896D01*
X101365233Y-46229604D01*
X101490367Y-46531705D01*
X101672034Y-46803588D01*
X101903252Y-47034806D01*
X102175135Y-47216473D01*
X102477236Y-47341607D01*
X102797944Y-47405400D01*
X103124936Y-47405400D01*
X103445644Y-47341607D01*
X103747745Y-47216473D01*
X103980622Y-47060869D01*
X104456514Y-47060869D01*
X105501440Y-48105795D01*
X106546366Y-47060869D01*
X106435519Y-46783686D01*
X106124600Y-46630311D01*
X106084199Y-46619480D01*
X110887928Y-46619480D01*
X110900188Y-46743962D01*
X110936498Y-46863660D01*
X110995463Y-46973974D01*
X111074815Y-47070665D01*
X111171506Y-47150017D01*
X111281820Y-47208982D01*
X111401518Y-47245292D01*
X111526000Y-47257552D01*
X112490250Y-47254480D01*
X112649000Y-47095730D01*
X112649000Y-45496480D01*
X112903000Y-45496480D01*
X112903000Y-47095730D01*
X113061750Y-47254480D01*
X114026000Y-47257552D01*
X114150482Y-47245292D01*
X114270180Y-47208982D01*
X114380494Y-47150017D01*
X114477185Y-47070665D01*
X114556537Y-46973974D01*
X114615502Y-46863660D01*
X114651812Y-46743962D01*
X114664072Y-46619480D01*
X114661000Y-45655230D01*
X114502250Y-45496480D01*
X112903000Y-45496480D01*
X112649000Y-45496480D01*
X111049750Y-45496480D01*
X110891000Y-45655230D01*
X110887928Y-46619480D01*
X106084199Y-46619480D01*
X105789735Y-46540540D01*
X105443790Y-46517824D01*
X105100060Y-46563034D01*
X104771755Y-46674434D01*
X104567361Y-46783686D01*
X104456514Y-47060869D01*
X103980622Y-47060869D01*
X104019628Y-47034806D01*
X104250846Y-46803588D01*
X104432513Y-46531705D01*
X104557647Y-46229604D01*
X104621440Y-45908896D01*
X104621440Y-45581904D01*
X104557647Y-45261196D01*
X104432513Y-44959095D01*
X104250846Y-44687212D01*
X104019628Y-44455994D01*
X103980623Y-44429931D01*
X104456514Y-44429931D01*
X104567361Y-44707114D01*
X104878280Y-44860489D01*
X105213145Y-44950260D01*
X105559090Y-44972976D01*
X105902820Y-44927766D01*
X106231125Y-44816366D01*
X106435519Y-44707114D01*
X106546366Y-44429931D01*
X105501440Y-43385005D01*
X104456514Y-44429931D01*
X103980623Y-44429931D01*
X103747745Y-44274327D01*
X103445644Y-44149193D01*
X103124936Y-44085400D01*
X102797944Y-44085400D01*
X102477236Y-44149193D01*
X102175135Y-44274327D01*
X101903252Y-44455994D01*
X101672034Y-44687212D01*
X101490367Y-44959095D01*
X101365233Y-45261196D01*
X101301440Y-45581904D01*
X92328906Y-45581904D01*
X92274207Y-45306916D01*
X92149073Y-45004815D01*
X91967406Y-44732932D01*
X91736188Y-44501714D01*
X91697183Y-44475651D01*
X92173074Y-44475651D01*
X92283921Y-44752834D01*
X92594840Y-44906209D01*
X92929705Y-44995980D01*
X93275650Y-45018696D01*
X93619380Y-44973486D01*
X93947685Y-44862086D01*
X94152079Y-44752834D01*
X94262926Y-44475651D01*
X94217206Y-44429931D01*
X99376514Y-44429931D01*
X99487361Y-44707114D01*
X99798280Y-44860489D01*
X100133145Y-44950260D01*
X100479090Y-44972976D01*
X100822820Y-44927766D01*
X101151125Y-44816366D01*
X101355519Y-44707114D01*
X101466366Y-44429931D01*
X100421440Y-43385005D01*
X99376514Y-44429931D01*
X94217206Y-44429931D01*
X93218000Y-43430725D01*
X92173074Y-44475651D01*
X91697183Y-44475651D01*
X91464305Y-44320047D01*
X91162204Y-44194913D01*
X90841496Y-44131120D01*
X90514504Y-44131120D01*
X90193796Y-44194913D01*
X89891695Y-44320047D01*
X89619812Y-44501714D01*
X89388594Y-44732932D01*
X89206927Y-45004815D01*
X89081793Y-45306916D01*
X89018000Y-45627624D01*
X78043184Y-45627624D01*
X78034967Y-45586316D01*
X77909833Y-45284215D01*
X77728166Y-45012332D01*
X77496948Y-44781114D01*
X77457943Y-44755051D01*
X77933834Y-44755051D01*
X78044681Y-45032234D01*
X78355600Y-45185609D01*
X78690465Y-45275380D01*
X79036410Y-45298096D01*
X79380140Y-45252886D01*
X79708445Y-45141486D01*
X79912839Y-45032234D01*
X80023686Y-44755051D01*
X78978760Y-43710125D01*
X77933834Y-44755051D01*
X77457943Y-44755051D01*
X77225065Y-44599447D01*
X76922964Y-44474313D01*
X76602256Y-44410520D01*
X76275264Y-44410520D01*
X75954556Y-44474313D01*
X75652455Y-44599447D01*
X75380572Y-44781114D01*
X75149354Y-45012332D01*
X74967687Y-45284215D01*
X74842553Y-45586316D01*
X74778760Y-45907024D01*
X48074222Y-45907024D01*
X48264869Y-45779638D01*
X48576178Y-45468329D01*
X48820771Y-45102269D01*
X48964593Y-44755051D01*
X72853834Y-44755051D01*
X72964681Y-45032234D01*
X73275600Y-45185609D01*
X73610465Y-45275380D01*
X73956410Y-45298096D01*
X74300140Y-45252886D01*
X74628445Y-45141486D01*
X74832839Y-45032234D01*
X74943686Y-44755051D01*
X73898760Y-43710125D01*
X72853834Y-44755051D01*
X48964593Y-44755051D01*
X48989250Y-44695525D01*
X49075140Y-44263728D01*
X49075140Y-43823472D01*
X49028336Y-43588170D01*
X72131184Y-43588170D01*
X72176394Y-43931900D01*
X72287794Y-44260205D01*
X72397046Y-44464599D01*
X72674229Y-44575446D01*
X73719155Y-43530520D01*
X74078365Y-43530520D01*
X75123291Y-44575446D01*
X75400474Y-44464599D01*
X75553849Y-44153680D01*
X75643620Y-43818815D01*
X75658764Y-43588170D01*
X77211184Y-43588170D01*
X77256394Y-43931900D01*
X77367794Y-44260205D01*
X77477046Y-44464599D01*
X77754229Y-44575446D01*
X78799155Y-43530520D01*
X79158365Y-43530520D01*
X80203291Y-44575446D01*
X80452837Y-44475651D01*
X87093074Y-44475651D01*
X87203921Y-44752834D01*
X87514840Y-44906209D01*
X87849705Y-44995980D01*
X88195650Y-45018696D01*
X88539380Y-44973486D01*
X88867685Y-44862086D01*
X89072079Y-44752834D01*
X89182926Y-44475651D01*
X88138000Y-43430725D01*
X87093074Y-44475651D01*
X80452837Y-44475651D01*
X80480474Y-44464599D01*
X80633849Y-44153680D01*
X80723620Y-43818815D01*
X80746336Y-43472870D01*
X80724753Y-43308770D01*
X86370424Y-43308770D01*
X86415634Y-43652500D01*
X86527034Y-43980805D01*
X86636286Y-44185199D01*
X86913469Y-44296046D01*
X87958395Y-43251120D01*
X88317605Y-43251120D01*
X89362531Y-44296046D01*
X89639714Y-44185199D01*
X89793089Y-43874280D01*
X89882860Y-43539415D01*
X89898004Y-43308770D01*
X91450424Y-43308770D01*
X91495634Y-43652500D01*
X91607034Y-43980805D01*
X91716286Y-44185199D01*
X91993469Y-44296046D01*
X93038395Y-43251120D01*
X93397605Y-43251120D01*
X94442531Y-44296046D01*
X94719714Y-44185199D01*
X94873089Y-43874280D01*
X94962860Y-43539415D01*
X94981007Y-43263050D01*
X98653864Y-43263050D01*
X98699074Y-43606780D01*
X98810474Y-43935085D01*
X98919726Y-44139479D01*
X99196909Y-44250326D01*
X100241835Y-43205400D01*
X100601045Y-43205400D01*
X101645971Y-44250326D01*
X101923154Y-44139479D01*
X102076529Y-43828560D01*
X102166300Y-43493695D01*
X102181444Y-43263050D01*
X103733864Y-43263050D01*
X103779074Y-43606780D01*
X103890474Y-43935085D01*
X103999726Y-44139479D01*
X104276909Y-44250326D01*
X105321835Y-43205400D01*
X105681045Y-43205400D01*
X106725971Y-44250326D01*
X107003154Y-44139479D01*
X107013019Y-44119480D01*
X110887928Y-44119480D01*
X110891000Y-45083730D01*
X111049750Y-45242480D01*
X112649000Y-45242480D01*
X112649000Y-43643230D01*
X112903000Y-43643230D01*
X112903000Y-45242480D01*
X114502250Y-45242480D01*
X114560906Y-45183824D01*
X115891000Y-45183824D01*
X115891000Y-45555136D01*
X115963439Y-45919314D01*
X116105534Y-46262362D01*
X116311825Y-46571098D01*
X116574382Y-46833655D01*
X116883118Y-47039946D01*
X117226166Y-47182041D01*
X117590344Y-47254480D01*
X117961656Y-47254480D01*
X118325834Y-47182041D01*
X118668882Y-47039946D01*
X118977618Y-46833655D01*
X119222844Y-46588429D01*
X144580894Y-46588429D01*
X145625820Y-47633355D01*
X146670746Y-46588429D01*
X146559899Y-46311246D01*
X146248980Y-46157871D01*
X145914115Y-46068100D01*
X145568170Y-46045384D01*
X145224440Y-46090594D01*
X144896135Y-46201994D01*
X144691741Y-46311246D01*
X144580894Y-46588429D01*
X119222844Y-46588429D01*
X119240175Y-46571098D01*
X119446466Y-46262362D01*
X119588561Y-45919314D01*
X119661000Y-45555136D01*
X119661000Y-45183824D01*
X119646209Y-45109464D01*
X146505820Y-45109464D01*
X146505820Y-45436456D01*
X146569613Y-45757164D01*
X146694747Y-46059265D01*
X146876414Y-46331148D01*
X147107632Y-46562366D01*
X147379515Y-46744033D01*
X147681616Y-46869167D01*
X148002324Y-46932960D01*
X148329316Y-46932960D01*
X148650024Y-46869167D01*
X148952125Y-46744033D01*
X149185002Y-46588429D01*
X149660894Y-46588429D01*
X150705820Y-47633355D01*
X151750746Y-46588429D01*
X151639899Y-46311246D01*
X151328980Y-46157871D01*
X150994115Y-46068100D01*
X150648170Y-46045384D01*
X150304440Y-46090594D01*
X149976135Y-46201994D01*
X149771741Y-46311246D01*
X149660894Y-46588429D01*
X149185002Y-46588429D01*
X149224008Y-46562366D01*
X149455226Y-46331148D01*
X149636893Y-46059265D01*
X149762027Y-45757164D01*
X149825820Y-45436456D01*
X149825820Y-45109464D01*
X149762027Y-44788756D01*
X149636893Y-44486655D01*
X149455226Y-44214772D01*
X149224008Y-43983554D01*
X149185003Y-43957491D01*
X149660894Y-43957491D01*
X149771741Y-44234674D01*
X150082660Y-44388049D01*
X150417525Y-44477820D01*
X150763470Y-44500536D01*
X151107200Y-44455326D01*
X151435505Y-44343926D01*
X151639899Y-44234674D01*
X151750746Y-43957491D01*
X151644667Y-43851412D01*
X155097680Y-43851412D01*
X155097680Y-44291668D01*
X155183570Y-44723465D01*
X155352049Y-45130209D01*
X155596642Y-45496269D01*
X155907951Y-45807578D01*
X156274011Y-46052171D01*
X156680755Y-46220650D01*
X157112552Y-46306540D01*
X157552808Y-46306540D01*
X157984605Y-46220650D01*
X158391349Y-46052171D01*
X158757409Y-45807578D01*
X159068718Y-45496269D01*
X159313311Y-45130209D01*
X159481790Y-44723465D01*
X159567680Y-44291668D01*
X159567680Y-43851412D01*
X159481790Y-43419615D01*
X159313311Y-43012871D01*
X159068718Y-42646811D01*
X158757409Y-42335502D01*
X158391349Y-42090909D01*
X157984605Y-41922430D01*
X157552808Y-41836540D01*
X157112552Y-41836540D01*
X156680755Y-41922430D01*
X156274011Y-42090909D01*
X155907951Y-42335502D01*
X155596642Y-42646811D01*
X155352049Y-43012871D01*
X155183570Y-43419615D01*
X155097680Y-43851412D01*
X151644667Y-43851412D01*
X150705820Y-42912565D01*
X149660894Y-43957491D01*
X149185003Y-43957491D01*
X148952125Y-43801887D01*
X148650024Y-43676753D01*
X148329316Y-43612960D01*
X148002324Y-43612960D01*
X147681616Y-43676753D01*
X147379515Y-43801887D01*
X147107632Y-43983554D01*
X146876414Y-44214772D01*
X146694747Y-44486655D01*
X146569613Y-44788756D01*
X146505820Y-45109464D01*
X119646209Y-45109464D01*
X119588561Y-44819646D01*
X119446466Y-44476598D01*
X119240175Y-44167862D01*
X119029804Y-43957491D01*
X144580894Y-43957491D01*
X144691741Y-44234674D01*
X145002660Y-44388049D01*
X145337525Y-44477820D01*
X145683470Y-44500536D01*
X146027200Y-44455326D01*
X146355505Y-44343926D01*
X146559899Y-44234674D01*
X146670746Y-43957491D01*
X145625820Y-42912565D01*
X144580894Y-43957491D01*
X119029804Y-43957491D01*
X118977618Y-43905305D01*
X118668882Y-43699014D01*
X118325834Y-43556919D01*
X117961656Y-43484480D01*
X117590344Y-43484480D01*
X117226166Y-43556919D01*
X116883118Y-43699014D01*
X116574382Y-43905305D01*
X116311825Y-44167862D01*
X116105534Y-44476598D01*
X115963439Y-44819646D01*
X115891000Y-45183824D01*
X114560906Y-45183824D01*
X114661000Y-45083730D01*
X114664072Y-44119480D01*
X114651812Y-43994998D01*
X114615502Y-43875300D01*
X114556537Y-43764986D01*
X114477185Y-43668295D01*
X114380494Y-43588943D01*
X114270180Y-43529978D01*
X114150482Y-43493668D01*
X114026000Y-43481408D01*
X113061750Y-43484480D01*
X112903000Y-43643230D01*
X112649000Y-43643230D01*
X112490250Y-43484480D01*
X111526000Y-43481408D01*
X111401518Y-43493668D01*
X111281820Y-43529978D01*
X111171506Y-43588943D01*
X111074815Y-43668295D01*
X110995463Y-43764986D01*
X110936498Y-43875300D01*
X110900188Y-43994998D01*
X110887928Y-44119480D01*
X107013019Y-44119480D01*
X107156529Y-43828560D01*
X107246300Y-43493695D01*
X107269016Y-43147750D01*
X107223806Y-42804020D01*
X107219256Y-42790610D01*
X143858244Y-42790610D01*
X143903454Y-43134340D01*
X144014854Y-43462645D01*
X144124106Y-43667039D01*
X144401289Y-43777886D01*
X145446215Y-42732960D01*
X145805425Y-42732960D01*
X146850351Y-43777886D01*
X147127534Y-43667039D01*
X147280909Y-43356120D01*
X147370680Y-43021255D01*
X147385824Y-42790610D01*
X148938244Y-42790610D01*
X148983454Y-43134340D01*
X149094854Y-43462645D01*
X149204106Y-43667039D01*
X149481289Y-43777886D01*
X150526215Y-42732960D01*
X150885425Y-42732960D01*
X151930351Y-43777886D01*
X152207534Y-43667039D01*
X152360909Y-43356120D01*
X152450680Y-43021255D01*
X152473396Y-42675310D01*
X152428186Y-42331580D01*
X152316786Y-42003275D01*
X152207534Y-41798881D01*
X151930351Y-41688034D01*
X150885425Y-42732960D01*
X150526215Y-42732960D01*
X149481289Y-41688034D01*
X149204106Y-41798881D01*
X149050731Y-42109800D01*
X148960960Y-42444665D01*
X148938244Y-42790610D01*
X147385824Y-42790610D01*
X147393396Y-42675310D01*
X147348186Y-42331580D01*
X147236786Y-42003275D01*
X147127534Y-41798881D01*
X146850351Y-41688034D01*
X145805425Y-42732960D01*
X145446215Y-42732960D01*
X144401289Y-41688034D01*
X144124106Y-41798881D01*
X143970731Y-42109800D01*
X143880960Y-42444665D01*
X143858244Y-42790610D01*
X107219256Y-42790610D01*
X107112406Y-42475715D01*
X107003154Y-42271321D01*
X106725971Y-42160474D01*
X105681045Y-43205400D01*
X105321835Y-43205400D01*
X104276909Y-42160474D01*
X103999726Y-42271321D01*
X103846351Y-42582240D01*
X103756580Y-42917105D01*
X103733864Y-43263050D01*
X102181444Y-43263050D01*
X102189016Y-43147750D01*
X102143806Y-42804020D01*
X102032406Y-42475715D01*
X101923154Y-42271321D01*
X101645971Y-42160474D01*
X100601045Y-43205400D01*
X100241835Y-43205400D01*
X99196909Y-42160474D01*
X98919726Y-42271321D01*
X98766351Y-42582240D01*
X98676580Y-42917105D01*
X98653864Y-43263050D01*
X94981007Y-43263050D01*
X94985576Y-43193470D01*
X94940366Y-42849740D01*
X94828966Y-42521435D01*
X94719714Y-42317041D01*
X94442531Y-42206194D01*
X93397605Y-43251120D01*
X93038395Y-43251120D01*
X91993469Y-42206194D01*
X91716286Y-42317041D01*
X91562911Y-42627960D01*
X91473140Y-42962825D01*
X91450424Y-43308770D01*
X89898004Y-43308770D01*
X89905576Y-43193470D01*
X89860366Y-42849740D01*
X89748966Y-42521435D01*
X89639714Y-42317041D01*
X89362531Y-42206194D01*
X88317605Y-43251120D01*
X87958395Y-43251120D01*
X86913469Y-42206194D01*
X86636286Y-42317041D01*
X86482911Y-42627960D01*
X86393140Y-42962825D01*
X86370424Y-43308770D01*
X80724753Y-43308770D01*
X80701126Y-43129140D01*
X80589726Y-42800835D01*
X80480474Y-42596441D01*
X80203291Y-42485594D01*
X79158365Y-43530520D01*
X78799155Y-43530520D01*
X77754229Y-42485594D01*
X77477046Y-42596441D01*
X77323671Y-42907360D01*
X77233900Y-43242225D01*
X77211184Y-43588170D01*
X75658764Y-43588170D01*
X75666336Y-43472870D01*
X75621126Y-43129140D01*
X75509726Y-42800835D01*
X75400474Y-42596441D01*
X75123291Y-42485594D01*
X74078365Y-43530520D01*
X73719155Y-43530520D01*
X72674229Y-42485594D01*
X72397046Y-42596441D01*
X72243671Y-42907360D01*
X72153900Y-43242225D01*
X72131184Y-43588170D01*
X49028336Y-43588170D01*
X48989250Y-43391675D01*
X48820771Y-42984931D01*
X48576178Y-42618871D01*
X48264869Y-42307562D01*
X48262515Y-42305989D01*
X72853834Y-42305989D01*
X73898760Y-43350915D01*
X74943686Y-42305989D01*
X77933834Y-42305989D01*
X78978760Y-43350915D01*
X80023686Y-42305989D01*
X79912839Y-42028806D01*
X79908345Y-42026589D01*
X87093074Y-42026589D01*
X88138000Y-43071515D01*
X89182926Y-42026589D01*
X92173074Y-42026589D01*
X93218000Y-43071515D01*
X94262926Y-42026589D01*
X94244643Y-41980869D01*
X99376514Y-41980869D01*
X100421440Y-43025795D01*
X101466366Y-41980869D01*
X104456514Y-41980869D01*
X105501440Y-43025795D01*
X106546366Y-41980869D01*
X106435519Y-41703686D01*
X106124600Y-41550311D01*
X105789735Y-41460540D01*
X105443790Y-41437824D01*
X105100060Y-41483034D01*
X104771755Y-41594434D01*
X104567361Y-41703686D01*
X104456514Y-41980869D01*
X101466366Y-41980869D01*
X101355519Y-41703686D01*
X101044600Y-41550311D01*
X100709735Y-41460540D01*
X100363790Y-41437824D01*
X100020060Y-41483034D01*
X99691755Y-41594434D01*
X99487361Y-41703686D01*
X99376514Y-41980869D01*
X94244643Y-41980869D01*
X94152079Y-41749406D01*
X93841160Y-41596031D01*
X93506295Y-41506260D01*
X93160350Y-41483544D01*
X92816620Y-41528754D01*
X92488315Y-41640154D01*
X92283921Y-41749406D01*
X92173074Y-42026589D01*
X89182926Y-42026589D01*
X89072079Y-41749406D01*
X88761160Y-41596031D01*
X88426295Y-41506260D01*
X88080350Y-41483544D01*
X87736620Y-41528754D01*
X87408315Y-41640154D01*
X87203921Y-41749406D01*
X87093074Y-42026589D01*
X79908345Y-42026589D01*
X79601920Y-41875431D01*
X79267055Y-41785660D01*
X78921110Y-41762944D01*
X78577380Y-41808154D01*
X78249075Y-41919554D01*
X78044681Y-42028806D01*
X77933834Y-42305989D01*
X74943686Y-42305989D01*
X74832839Y-42028806D01*
X74521920Y-41875431D01*
X74187055Y-41785660D01*
X73841110Y-41762944D01*
X73497380Y-41808154D01*
X73169075Y-41919554D01*
X72964681Y-42028806D01*
X72853834Y-42305989D01*
X48262515Y-42305989D01*
X47898809Y-42062969D01*
X47492065Y-41894490D01*
X47060268Y-41808600D01*
X46620012Y-41808600D01*
X46188215Y-41894490D01*
X45781471Y-42062969D01*
X45415411Y-42307562D01*
X45104102Y-42618871D01*
X44859509Y-42984931D01*
X44691030Y-43391675D01*
X44605140Y-43823472D01*
X43962838Y-43823472D01*
X43962104Y-41203719D01*
X144688172Y-41240171D01*
M02*
