G04 #@! TF.GenerationSoftware,KiCad,Pcbnew,(5.1.5)-3*
G04 #@! TF.CreationDate,2020-10-28T17:30:45+01:00*
G04 #@! TF.ProjectId,exciter,65786369-7465-4722-9e6b-696361645f70,rev?*
G04 #@! TF.SameCoordinates,Original*
G04 #@! TF.FileFunction,Soldermask,Bot*
G04 #@! TF.FilePolarity,Negative*
%FSLAX46Y46*%
G04 Gerber Fmt 4.6, Leading zero omitted, Abs format (unit mm)*
G04 Created by KiCad (PCBNEW (5.1.5)-3) date 2020-10-28 17:30:45*
%MOMM*%
%LPD*%
G04 APERTURE LIST*
%ADD10C,0.100000*%
G04 APERTURE END LIST*
D10*
G36*
X159183676Y-90034498D02*
G01*
X159289999Y-90055647D01*
X159590462Y-90180103D01*
X159860871Y-90360785D01*
X160090835Y-90590749D01*
X160271517Y-90861158D01*
X160395973Y-91161621D01*
X160408376Y-91223975D01*
X160453569Y-91451173D01*
X160459420Y-91480591D01*
X160459420Y-91805809D01*
X160395973Y-92124779D01*
X160271517Y-92425242D01*
X160090835Y-92695651D01*
X159860871Y-92925615D01*
X159590462Y-93106297D01*
X159289999Y-93230753D01*
X159183676Y-93251902D01*
X158971031Y-93294200D01*
X158645809Y-93294200D01*
X158433164Y-93251902D01*
X158326841Y-93230753D01*
X158026378Y-93106297D01*
X157755969Y-92925615D01*
X157526005Y-92695651D01*
X157345323Y-92425242D01*
X157220867Y-92124779D01*
X157157420Y-91805809D01*
X157157420Y-91480591D01*
X157163272Y-91451173D01*
X157208464Y-91223975D01*
X157220867Y-91161621D01*
X157345323Y-90861158D01*
X157526005Y-90590749D01*
X157755969Y-90360785D01*
X158026378Y-90180103D01*
X158326841Y-90055647D01*
X158433164Y-90034498D01*
X158645809Y-89992200D01*
X158971031Y-89992200D01*
X159183676Y-90034498D01*
G37*
G36*
X47139196Y-89940518D02*
G01*
X47245519Y-89961667D01*
X47457977Y-90049670D01*
X47515286Y-90073408D01*
X47545982Y-90086123D01*
X47816391Y-90266805D01*
X48046355Y-90496769D01*
X48227037Y-90767178D01*
X48227038Y-90767180D01*
X48247817Y-90817346D01*
X48327599Y-91009955D01*
X48351493Y-91067642D01*
X48414940Y-91386609D01*
X48414940Y-91711831D01*
X48398041Y-91796785D01*
X48351493Y-92030799D01*
X48312565Y-92124779D01*
X48237303Y-92306479D01*
X48227037Y-92331262D01*
X48046355Y-92601671D01*
X47816391Y-92831635D01*
X47545982Y-93012317D01*
X47245519Y-93136773D01*
X47139196Y-93157922D01*
X46926551Y-93200220D01*
X46601329Y-93200220D01*
X46388684Y-93157922D01*
X46282361Y-93136773D01*
X45981898Y-93012317D01*
X45711489Y-92831635D01*
X45481525Y-92601671D01*
X45300843Y-92331262D01*
X45290578Y-92306479D01*
X45215315Y-92124779D01*
X45176387Y-92030799D01*
X45129839Y-91796785D01*
X45112940Y-91711831D01*
X45112940Y-91386609D01*
X45176387Y-91067642D01*
X45200282Y-91009955D01*
X45280063Y-90817346D01*
X45300842Y-90767180D01*
X45300843Y-90767178D01*
X45481525Y-90496769D01*
X45711489Y-90266805D01*
X45981898Y-90086123D01*
X46012595Y-90073408D01*
X46069903Y-90049670D01*
X46282361Y-89961667D01*
X46388684Y-89940518D01*
X46601329Y-89898220D01*
X46926551Y-89898220D01*
X47139196Y-89940518D01*
G37*
G36*
X53277560Y-90406064D02*
G01*
X53429027Y-90436193D01*
X53643045Y-90524842D01*
X53643046Y-90524843D01*
X53835654Y-90653539D01*
X53999461Y-90817346D01*
X54028735Y-90861158D01*
X54128158Y-91009955D01*
X54216807Y-91223973D01*
X54262000Y-91451174D01*
X54262000Y-91682826D01*
X54216807Y-91910027D01*
X54128158Y-92124045D01*
X54119675Y-92136740D01*
X53999461Y-92316654D01*
X53835654Y-92480461D01*
X53707249Y-92566258D01*
X53643045Y-92609158D01*
X53429027Y-92697807D01*
X53277560Y-92727936D01*
X53201827Y-92743000D01*
X52970173Y-92743000D01*
X52894440Y-92727936D01*
X52742973Y-92697807D01*
X52528955Y-92609158D01*
X52464751Y-92566258D01*
X52336346Y-92480461D01*
X52172539Y-92316654D01*
X52052325Y-92136740D01*
X52043842Y-92124045D01*
X51955193Y-91910027D01*
X51910000Y-91682826D01*
X51910000Y-91451174D01*
X51955193Y-91223973D01*
X52043842Y-91009955D01*
X52143265Y-90861158D01*
X52172539Y-90817346D01*
X52336346Y-90653539D01*
X52528954Y-90524843D01*
X52528955Y-90524842D01*
X52742973Y-90436193D01*
X52894440Y-90406064D01*
X52970173Y-90391000D01*
X53201827Y-90391000D01*
X53277560Y-90406064D01*
G37*
G36*
X58357560Y-90406064D02*
G01*
X58509027Y-90436193D01*
X58723045Y-90524842D01*
X58723046Y-90524843D01*
X58915654Y-90653539D01*
X59079461Y-90817346D01*
X59108735Y-90861158D01*
X59208158Y-91009955D01*
X59296807Y-91223973D01*
X59342000Y-91451174D01*
X59342000Y-91682826D01*
X59296807Y-91910027D01*
X59208158Y-92124045D01*
X59199675Y-92136740D01*
X59079461Y-92316654D01*
X58915654Y-92480461D01*
X58787249Y-92566258D01*
X58723045Y-92609158D01*
X58509027Y-92697807D01*
X58357560Y-92727936D01*
X58281827Y-92743000D01*
X58050173Y-92743000D01*
X57974440Y-92727936D01*
X57822973Y-92697807D01*
X57608955Y-92609158D01*
X57544751Y-92566258D01*
X57416346Y-92480461D01*
X57252539Y-92316654D01*
X57132325Y-92136740D01*
X57123842Y-92124045D01*
X57035193Y-91910027D01*
X56990000Y-91682826D01*
X56990000Y-91451174D01*
X57035193Y-91223973D01*
X57123842Y-91009955D01*
X57223265Y-90861158D01*
X57252539Y-90817346D01*
X57416346Y-90653539D01*
X57608954Y-90524843D01*
X57608955Y-90524842D01*
X57822973Y-90436193D01*
X57974440Y-90406064D01*
X58050173Y-90391000D01*
X58281827Y-90391000D01*
X58357560Y-90406064D01*
G37*
G36*
X100886585Y-89410802D02*
G01*
X101036410Y-89440604D01*
X101318674Y-89557521D01*
X101572705Y-89727259D01*
X101788741Y-89943295D01*
X101958479Y-90197326D01*
X102075396Y-90479590D01*
X102084397Y-90524842D01*
X102135000Y-90779239D01*
X102135000Y-91084761D01*
X102119711Y-91161622D01*
X102075396Y-91384410D01*
X101958479Y-91666674D01*
X101788741Y-91920705D01*
X101572705Y-92136741D01*
X101318674Y-92306479D01*
X101036410Y-92423396D01*
X100886585Y-92453198D01*
X100736761Y-92483000D01*
X100431239Y-92483000D01*
X100281415Y-92453198D01*
X100131590Y-92423396D01*
X99849326Y-92306479D01*
X99595295Y-92136741D01*
X99379259Y-91920705D01*
X99209521Y-91666674D01*
X99092604Y-91384410D01*
X99048289Y-91161622D01*
X99033000Y-91084761D01*
X99033000Y-90779239D01*
X99083603Y-90524842D01*
X99092604Y-90479590D01*
X99209521Y-90197326D01*
X99379259Y-89943295D01*
X99595295Y-89727259D01*
X99849326Y-89557521D01*
X100131590Y-89440604D01*
X100281415Y-89410802D01*
X100431239Y-89381000D01*
X100736761Y-89381000D01*
X100886585Y-89410802D01*
G37*
G36*
X90886585Y-89410802D02*
G01*
X91036410Y-89440604D01*
X91318674Y-89557521D01*
X91572705Y-89727259D01*
X91788741Y-89943295D01*
X91958479Y-90197326D01*
X92075396Y-90479590D01*
X92084397Y-90524842D01*
X92135000Y-90779239D01*
X92135000Y-91084761D01*
X92119711Y-91161622D01*
X92075396Y-91384410D01*
X91958479Y-91666674D01*
X91788741Y-91920705D01*
X91572705Y-92136741D01*
X91318674Y-92306479D01*
X91036410Y-92423396D01*
X90886585Y-92453198D01*
X90736761Y-92483000D01*
X90431239Y-92483000D01*
X90281415Y-92453198D01*
X90131590Y-92423396D01*
X89849326Y-92306479D01*
X89595295Y-92136741D01*
X89379259Y-91920705D01*
X89209521Y-91666674D01*
X89092604Y-91384410D01*
X89048289Y-91161622D01*
X89033000Y-91084761D01*
X89033000Y-90779239D01*
X89083603Y-90524842D01*
X89092604Y-90479590D01*
X89209521Y-90197326D01*
X89379259Y-89943295D01*
X89595295Y-89727259D01*
X89849326Y-89557521D01*
X90131590Y-89440604D01*
X90281415Y-89410802D01*
X90431239Y-89381000D01*
X90736761Y-89381000D01*
X90886585Y-89410802D01*
G37*
G36*
X68786065Y-89286882D02*
G01*
X68935890Y-89316684D01*
X69218154Y-89433601D01*
X69472185Y-89603339D01*
X69688221Y-89819375D01*
X69857959Y-90073406D01*
X69974876Y-90355670D01*
X69990893Y-90436193D01*
X70034480Y-90655319D01*
X70034480Y-90960841D01*
X70013236Y-91067641D01*
X69974876Y-91260490D01*
X69857959Y-91542754D01*
X69688221Y-91796785D01*
X69472185Y-92012821D01*
X69218154Y-92182559D01*
X68935890Y-92299476D01*
X68900683Y-92306479D01*
X68636241Y-92359080D01*
X68330719Y-92359080D01*
X68066277Y-92306479D01*
X68031070Y-92299476D01*
X67748806Y-92182559D01*
X67494775Y-92012821D01*
X67278739Y-91796785D01*
X67109001Y-91542754D01*
X66992084Y-91260490D01*
X66953724Y-91067641D01*
X66932480Y-90960841D01*
X66932480Y-90655319D01*
X66976067Y-90436193D01*
X66992084Y-90355670D01*
X67109001Y-90073406D01*
X67278739Y-89819375D01*
X67494775Y-89603339D01*
X67748806Y-89433601D01*
X68031070Y-89316684D01*
X68180895Y-89286882D01*
X68330719Y-89257080D01*
X68636241Y-89257080D01*
X68786065Y-89286882D01*
G37*
G36*
X78786065Y-89286882D02*
G01*
X78935890Y-89316684D01*
X79218154Y-89433601D01*
X79472185Y-89603339D01*
X79688221Y-89819375D01*
X79857959Y-90073406D01*
X79974876Y-90355670D01*
X79990893Y-90436193D01*
X80034480Y-90655319D01*
X80034480Y-90960841D01*
X80013236Y-91067641D01*
X79974876Y-91260490D01*
X79857959Y-91542754D01*
X79688221Y-91796785D01*
X79472185Y-92012821D01*
X79218154Y-92182559D01*
X78935890Y-92299476D01*
X78900683Y-92306479D01*
X78636241Y-92359080D01*
X78330719Y-92359080D01*
X78066277Y-92306479D01*
X78031070Y-92299476D01*
X77748806Y-92182559D01*
X77494775Y-92012821D01*
X77278739Y-91796785D01*
X77109001Y-91542754D01*
X76992084Y-91260490D01*
X76953724Y-91067641D01*
X76932480Y-90960841D01*
X76932480Y-90655319D01*
X76976067Y-90436193D01*
X76992084Y-90355670D01*
X77109001Y-90073406D01*
X77278739Y-89819375D01*
X77494775Y-89603339D01*
X77748806Y-89433601D01*
X78031070Y-89316684D01*
X78180895Y-89286882D01*
X78330719Y-89257080D01*
X78636241Y-89257080D01*
X78786065Y-89286882D01*
G37*
G36*
X55801271Y-87964783D02*
G01*
X55939858Y-87992350D01*
X56135677Y-88073461D01*
X56311910Y-88191216D01*
X56461784Y-88341090D01*
X56579539Y-88517323D01*
X56660650Y-88713142D01*
X56702000Y-88921023D01*
X56702000Y-89132977D01*
X56660650Y-89340858D01*
X56579539Y-89536677D01*
X56461784Y-89712910D01*
X56311910Y-89862784D01*
X56135677Y-89980539D01*
X55939858Y-90061650D01*
X55801271Y-90089217D01*
X55731978Y-90103000D01*
X55520022Y-90103000D01*
X55450729Y-90089217D01*
X55312142Y-90061650D01*
X55116323Y-89980539D01*
X54940090Y-89862784D01*
X54790216Y-89712910D01*
X54672461Y-89536677D01*
X54591350Y-89340858D01*
X54550000Y-89132977D01*
X54550000Y-88921023D01*
X54591350Y-88713142D01*
X54672461Y-88517323D01*
X54790216Y-88341090D01*
X54940090Y-88191216D01*
X55116323Y-88073461D01*
X55312142Y-87992350D01*
X55450729Y-87964783D01*
X55520022Y-87951000D01*
X55731978Y-87951000D01*
X55801271Y-87964783D01*
G37*
G36*
X58357560Y-85326064D02*
G01*
X58509027Y-85356193D01*
X58723045Y-85444842D01*
X58723046Y-85444843D01*
X58915654Y-85573539D01*
X59079461Y-85737346D01*
X59165258Y-85865751D01*
X59208158Y-85929955D01*
X59296807Y-86143973D01*
X59342000Y-86371174D01*
X59342000Y-86602826D01*
X59296807Y-86830027D01*
X59208158Y-87044045D01*
X59208157Y-87044046D01*
X59079461Y-87236654D01*
X58915654Y-87400461D01*
X58787249Y-87486258D01*
X58723045Y-87529158D01*
X58509027Y-87617807D01*
X58357560Y-87647936D01*
X58281827Y-87663000D01*
X58050173Y-87663000D01*
X57974440Y-87647936D01*
X57822973Y-87617807D01*
X57608955Y-87529158D01*
X57544751Y-87486258D01*
X57416346Y-87400461D01*
X57252539Y-87236654D01*
X57123843Y-87044046D01*
X57123842Y-87044045D01*
X57035193Y-86830027D01*
X56990000Y-86602826D01*
X56990000Y-86371174D01*
X57035193Y-86143973D01*
X57123842Y-85929955D01*
X57166742Y-85865751D01*
X57252539Y-85737346D01*
X57416346Y-85573539D01*
X57608954Y-85444843D01*
X57608955Y-85444842D01*
X57822973Y-85356193D01*
X57974440Y-85326064D01*
X58050173Y-85311000D01*
X58281827Y-85311000D01*
X58357560Y-85326064D01*
G37*
G36*
X53277560Y-85326064D02*
G01*
X53429027Y-85356193D01*
X53643045Y-85444842D01*
X53643046Y-85444843D01*
X53835654Y-85573539D01*
X53999461Y-85737346D01*
X54085258Y-85865751D01*
X54128158Y-85929955D01*
X54216807Y-86143973D01*
X54262000Y-86371174D01*
X54262000Y-86602826D01*
X54216807Y-86830027D01*
X54128158Y-87044045D01*
X54128157Y-87044046D01*
X53999461Y-87236654D01*
X53835654Y-87400461D01*
X53707249Y-87486258D01*
X53643045Y-87529158D01*
X53429027Y-87617807D01*
X53277560Y-87647936D01*
X53201827Y-87663000D01*
X52970173Y-87663000D01*
X52894440Y-87647936D01*
X52742973Y-87617807D01*
X52528955Y-87529158D01*
X52464751Y-87486258D01*
X52336346Y-87400461D01*
X52172539Y-87236654D01*
X52043843Y-87044046D01*
X52043842Y-87044045D01*
X51955193Y-86830027D01*
X51910000Y-86602826D01*
X51910000Y-86371174D01*
X51955193Y-86143973D01*
X52043842Y-85929955D01*
X52086742Y-85865751D01*
X52172539Y-85737346D01*
X52336346Y-85573539D01*
X52528954Y-85444843D01*
X52528955Y-85444842D01*
X52742973Y-85356193D01*
X52894440Y-85326064D01*
X52970173Y-85311000D01*
X53201827Y-85311000D01*
X53277560Y-85326064D01*
G37*
G36*
X90886585Y-81410802D02*
G01*
X91036410Y-81440604D01*
X91318674Y-81557521D01*
X91572705Y-81727259D01*
X91788741Y-81943295D01*
X91958479Y-82197326D01*
X92075396Y-82479590D01*
X92135000Y-82779240D01*
X92135000Y-83084760D01*
X92075396Y-83384410D01*
X91958479Y-83666674D01*
X91788741Y-83920705D01*
X91572705Y-84136741D01*
X91318674Y-84306479D01*
X91036410Y-84423396D01*
X90886585Y-84453198D01*
X90736761Y-84483000D01*
X90431239Y-84483000D01*
X90281415Y-84453198D01*
X90131590Y-84423396D01*
X89849326Y-84306479D01*
X89595295Y-84136741D01*
X89379259Y-83920705D01*
X89209521Y-83666674D01*
X89092604Y-83384410D01*
X89033000Y-83084760D01*
X89033000Y-82779240D01*
X89092604Y-82479590D01*
X89209521Y-82197326D01*
X89379259Y-81943295D01*
X89595295Y-81727259D01*
X89849326Y-81557521D01*
X90131590Y-81440604D01*
X90281415Y-81410802D01*
X90431239Y-81381000D01*
X90736761Y-81381000D01*
X90886585Y-81410802D01*
G37*
G36*
X78786065Y-81286882D02*
G01*
X78935890Y-81316684D01*
X79218154Y-81433601D01*
X79472185Y-81603339D01*
X79688221Y-81819375D01*
X79857959Y-82073406D01*
X79974876Y-82355670D01*
X80034480Y-82655320D01*
X80034480Y-82960840D01*
X79974876Y-83260490D01*
X79857959Y-83542754D01*
X79688221Y-83796785D01*
X79472185Y-84012821D01*
X79218154Y-84182559D01*
X78935890Y-84299476D01*
X78900683Y-84306479D01*
X78636241Y-84359080D01*
X78330719Y-84359080D01*
X78066277Y-84306479D01*
X78031070Y-84299476D01*
X77748806Y-84182559D01*
X77494775Y-84012821D01*
X77278739Y-83796785D01*
X77109001Y-83542754D01*
X76992084Y-83260490D01*
X76932480Y-82960840D01*
X76932480Y-82655320D01*
X76992084Y-82355670D01*
X77109001Y-82073406D01*
X77278739Y-81819375D01*
X77494775Y-81603339D01*
X77748806Y-81433601D01*
X78031070Y-81316684D01*
X78180895Y-81286882D01*
X78330719Y-81257080D01*
X78636241Y-81257080D01*
X78786065Y-81286882D01*
G37*
G36*
X47965880Y-82708000D02*
G01*
X45363880Y-82708000D01*
X45363880Y-80106000D01*
X47965880Y-80106000D01*
X47965880Y-82708000D01*
G37*
G36*
X56726000Y-80001000D02*
G01*
X55424000Y-80001000D01*
X55424000Y-78699000D01*
X56726000Y-78699000D01*
X56726000Y-80001000D01*
G37*
G36*
X54264890Y-78724017D02*
G01*
X54383364Y-78773091D01*
X54489988Y-78844335D01*
X54580665Y-78935012D01*
X54651909Y-79041636D01*
X54700983Y-79160110D01*
X54726000Y-79285882D01*
X54726000Y-79414118D01*
X54700983Y-79539890D01*
X54651909Y-79658364D01*
X54580665Y-79764988D01*
X54489988Y-79855665D01*
X54383364Y-79926909D01*
X54383363Y-79926910D01*
X54383362Y-79926910D01*
X54264890Y-79975983D01*
X54139119Y-80001000D01*
X54010881Y-80001000D01*
X53885110Y-79975983D01*
X53766638Y-79926910D01*
X53766637Y-79926910D01*
X53766636Y-79926909D01*
X53660012Y-79855665D01*
X53569335Y-79764988D01*
X53498091Y-79658364D01*
X53449017Y-79539890D01*
X53424000Y-79414118D01*
X53424000Y-79285882D01*
X53449017Y-79160110D01*
X53498091Y-79041636D01*
X53569335Y-78935012D01*
X53660012Y-78844335D01*
X53766636Y-78773091D01*
X53885110Y-78724017D01*
X54010881Y-78699000D01*
X54139119Y-78699000D01*
X54264890Y-78724017D01*
G37*
G36*
X60605190Y-76535137D02*
G01*
X60737033Y-76561362D01*
X60829074Y-76599487D01*
X60959239Y-76653403D01*
X61159222Y-76787027D01*
X61329293Y-76957098D01*
X61462917Y-77157081D01*
X61516833Y-77287246D01*
X61554958Y-77379287D01*
X61578419Y-77497235D01*
X61601880Y-77615181D01*
X61601880Y-77855699D01*
X61554958Y-78091592D01*
X61462917Y-78313799D01*
X61329293Y-78513782D01*
X61159222Y-78683853D01*
X60959239Y-78817477D01*
X60829074Y-78871393D01*
X60737033Y-78909518D01*
X60619085Y-78932979D01*
X60501139Y-78956440D01*
X60260621Y-78956440D01*
X60142675Y-78932979D01*
X60024727Y-78909518D01*
X59932686Y-78871393D01*
X59802521Y-78817477D01*
X59602538Y-78683853D01*
X59432467Y-78513782D01*
X59298843Y-78313799D01*
X59206802Y-78091592D01*
X59159880Y-77855699D01*
X59159880Y-77615181D01*
X59183341Y-77497235D01*
X59206802Y-77379287D01*
X59244927Y-77287246D01*
X59298843Y-77157081D01*
X59432467Y-76957098D01*
X59602538Y-76787027D01*
X59802521Y-76653403D01*
X59932686Y-76599487D01*
X60024727Y-76561362D01*
X60156570Y-76535137D01*
X60260621Y-76514440D01*
X60501139Y-76514440D01*
X60605190Y-76535137D01*
G37*
G36*
X47044367Y-75155996D02*
G01*
X47281133Y-75254068D01*
X47281135Y-75254069D01*
X47494219Y-75396447D01*
X47675433Y-75577661D01*
X47734910Y-75666674D01*
X47817812Y-75790747D01*
X47915884Y-76027513D01*
X47965880Y-76278861D01*
X47965880Y-76535139D01*
X47915884Y-76786487D01*
X47915660Y-76787027D01*
X47817811Y-77023255D01*
X47675433Y-77236339D01*
X47494219Y-77417553D01*
X47281135Y-77559931D01*
X47281134Y-77559932D01*
X47281133Y-77559932D01*
X47044367Y-77658004D01*
X46793019Y-77708000D01*
X46536741Y-77708000D01*
X46285393Y-77658004D01*
X46048627Y-77559932D01*
X46048626Y-77559932D01*
X46048625Y-77559931D01*
X45835541Y-77417553D01*
X45654327Y-77236339D01*
X45511949Y-77023255D01*
X45414100Y-76787027D01*
X45413876Y-76786487D01*
X45363880Y-76535139D01*
X45363880Y-76278861D01*
X45413876Y-76027513D01*
X45511948Y-75790747D01*
X45594851Y-75666674D01*
X45654327Y-75577661D01*
X45835541Y-75396447D01*
X46048625Y-75254069D01*
X46048627Y-75254068D01*
X46285393Y-75155996D01*
X46536741Y-75106000D01*
X46793019Y-75106000D01*
X47044367Y-75155996D01*
G37*
G36*
X90886585Y-73410802D02*
G01*
X91036410Y-73440604D01*
X91318674Y-73557521D01*
X91572705Y-73727259D01*
X91788741Y-73943295D01*
X91958479Y-74197326D01*
X92075396Y-74479590D01*
X92135000Y-74779240D01*
X92135000Y-75084760D01*
X92075396Y-75384410D01*
X91958479Y-75666674D01*
X91788741Y-75920705D01*
X91572705Y-76136741D01*
X91318674Y-76306479D01*
X91036410Y-76423396D01*
X90886585Y-76453198D01*
X90736761Y-76483000D01*
X90431239Y-76483000D01*
X90281415Y-76453198D01*
X90131590Y-76423396D01*
X89849326Y-76306479D01*
X89595295Y-76136741D01*
X89379259Y-75920705D01*
X89209521Y-75666674D01*
X89092604Y-75384410D01*
X89033000Y-75084760D01*
X89033000Y-74779240D01*
X89092604Y-74479590D01*
X89209521Y-74197326D01*
X89379259Y-73943295D01*
X89595295Y-73727259D01*
X89849326Y-73557521D01*
X90131590Y-73440604D01*
X90281415Y-73410802D01*
X90431239Y-73381000D01*
X90736761Y-73381000D01*
X90886585Y-73410802D01*
G37*
G36*
X100886585Y-73410802D02*
G01*
X101036410Y-73440604D01*
X101318674Y-73557521D01*
X101572705Y-73727259D01*
X101788741Y-73943295D01*
X101958479Y-74197326D01*
X102075396Y-74479590D01*
X102135000Y-74779240D01*
X102135000Y-75084760D01*
X102075396Y-75384410D01*
X101958479Y-75666674D01*
X101788741Y-75920705D01*
X101572705Y-76136741D01*
X101318674Y-76306479D01*
X101036410Y-76423396D01*
X100886585Y-76453198D01*
X100736761Y-76483000D01*
X100431239Y-76483000D01*
X100281415Y-76453198D01*
X100131590Y-76423396D01*
X99849326Y-76306479D01*
X99595295Y-76136741D01*
X99379259Y-75920705D01*
X99209521Y-75666674D01*
X99092604Y-75384410D01*
X99033000Y-75084760D01*
X99033000Y-74779240D01*
X99092604Y-74479590D01*
X99209521Y-74197326D01*
X99379259Y-73943295D01*
X99595295Y-73727259D01*
X99849326Y-73557521D01*
X100131590Y-73440604D01*
X100281415Y-73410802D01*
X100431239Y-73381000D01*
X100736761Y-73381000D01*
X100886585Y-73410802D01*
G37*
G36*
X63237033Y-74061362D02*
G01*
X63266114Y-74073408D01*
X63459239Y-74153403D01*
X63659222Y-74287027D01*
X63829293Y-74457098D01*
X63962917Y-74657081D01*
X64013516Y-74779239D01*
X64054958Y-74879287D01*
X64101880Y-75115182D01*
X64101880Y-75355698D01*
X64064673Y-75542754D01*
X64054958Y-75591592D01*
X63962917Y-75813799D01*
X63829293Y-76013782D01*
X63659222Y-76183853D01*
X63459239Y-76317477D01*
X63358800Y-76359080D01*
X63237033Y-76409518D01*
X63167263Y-76423396D01*
X63001139Y-76456440D01*
X62760621Y-76456440D01*
X62594497Y-76423396D01*
X62524727Y-76409518D01*
X62402960Y-76359080D01*
X62302521Y-76317477D01*
X62102538Y-76183853D01*
X61932467Y-76013782D01*
X61798843Y-75813799D01*
X61706802Y-75591592D01*
X61697088Y-75542754D01*
X61659880Y-75355698D01*
X61659880Y-75115182D01*
X61706802Y-74879287D01*
X61748244Y-74779239D01*
X61798843Y-74657081D01*
X61932467Y-74457098D01*
X62102538Y-74287027D01*
X62302521Y-74153403D01*
X62495646Y-74073408D01*
X62524727Y-74061362D01*
X62760621Y-74014440D01*
X63001139Y-74014440D01*
X63237033Y-74061362D01*
G37*
G36*
X78786065Y-73286882D02*
G01*
X78935890Y-73316684D01*
X79218154Y-73433601D01*
X79472185Y-73603339D01*
X79688221Y-73819375D01*
X79857959Y-74073406D01*
X79974876Y-74355670D01*
X80034480Y-74655320D01*
X80034480Y-74960840D01*
X79974876Y-75260490D01*
X79857959Y-75542754D01*
X79688221Y-75796785D01*
X79472185Y-76012821D01*
X79218154Y-76182559D01*
X78935890Y-76299476D01*
X78786065Y-76329278D01*
X78636241Y-76359080D01*
X78330719Y-76359080D01*
X78180895Y-76329278D01*
X78031070Y-76299476D01*
X77748806Y-76182559D01*
X77494775Y-76012821D01*
X77278739Y-75796785D01*
X77109001Y-75542754D01*
X76992084Y-75260490D01*
X76932480Y-74960840D01*
X76932480Y-74655320D01*
X76992084Y-74355670D01*
X77109001Y-74073406D01*
X77278739Y-73819375D01*
X77494775Y-73603339D01*
X77748806Y-73433601D01*
X78031070Y-73316684D01*
X78180895Y-73286882D01*
X78330719Y-73257080D01*
X78636241Y-73257080D01*
X78786065Y-73286882D01*
G37*
G36*
X68786065Y-73286882D02*
G01*
X68935890Y-73316684D01*
X69218154Y-73433601D01*
X69472185Y-73603339D01*
X69688221Y-73819375D01*
X69857959Y-74073406D01*
X69974876Y-74355670D01*
X70034480Y-74655320D01*
X70034480Y-74960840D01*
X69974876Y-75260490D01*
X69857959Y-75542754D01*
X69688221Y-75796785D01*
X69472185Y-76012821D01*
X69218154Y-76182559D01*
X68935890Y-76299476D01*
X68786065Y-76329278D01*
X68636241Y-76359080D01*
X68330719Y-76359080D01*
X68180895Y-76329278D01*
X68031070Y-76299476D01*
X67748806Y-76182559D01*
X67494775Y-76012821D01*
X67278739Y-75796785D01*
X67109001Y-75542754D01*
X66992084Y-75260490D01*
X66932480Y-74960840D01*
X66932480Y-74655320D01*
X66992084Y-74355670D01*
X67109001Y-74073406D01*
X67278739Y-73819375D01*
X67494775Y-73603339D01*
X67748806Y-73433601D01*
X68031070Y-73316684D01*
X68180895Y-73286882D01*
X68330719Y-73257080D01*
X68636241Y-73257080D01*
X68786065Y-73286882D01*
G37*
G36*
X60605190Y-71535137D02*
G01*
X60737033Y-71561362D01*
X60829074Y-71599487D01*
X60959239Y-71653403D01*
X61159222Y-71787027D01*
X61329293Y-71957098D01*
X61462917Y-72157081D01*
X61516833Y-72287246D01*
X61554958Y-72379287D01*
X61601880Y-72615181D01*
X61601880Y-72855699D01*
X61554958Y-73091592D01*
X61462917Y-73313799D01*
X61329293Y-73513782D01*
X61159222Y-73683853D01*
X60959239Y-73817477D01*
X60829074Y-73871393D01*
X60737033Y-73909518D01*
X60619085Y-73932979D01*
X60501139Y-73956440D01*
X60260621Y-73956440D01*
X60142675Y-73932979D01*
X60024727Y-73909518D01*
X59932686Y-73871393D01*
X59802521Y-73817477D01*
X59602538Y-73683853D01*
X59432467Y-73513782D01*
X59298843Y-73313799D01*
X59206802Y-73091592D01*
X59159880Y-72855699D01*
X59159880Y-72615181D01*
X59206802Y-72379287D01*
X59244927Y-72287246D01*
X59298843Y-72157081D01*
X59432467Y-71957098D01*
X59602538Y-71787027D01*
X59802521Y-71653403D01*
X59932686Y-71599487D01*
X60024727Y-71561362D01*
X60156570Y-71535137D01*
X60260621Y-71514440D01*
X60501139Y-71514440D01*
X60605190Y-71535137D01*
G37*
G36*
X47044367Y-70155996D02*
G01*
X47281133Y-70254068D01*
X47281135Y-70254069D01*
X47399099Y-70332890D01*
X47494219Y-70396447D01*
X47675433Y-70577661D01*
X47817812Y-70790747D01*
X47915884Y-71027513D01*
X47965880Y-71278861D01*
X47965880Y-71535139D01*
X47915884Y-71786487D01*
X47915660Y-71787027D01*
X47817811Y-72023255D01*
X47675433Y-72236339D01*
X47494219Y-72417553D01*
X47281135Y-72559931D01*
X47281134Y-72559932D01*
X47281133Y-72559932D01*
X47044367Y-72658004D01*
X46793019Y-72708000D01*
X46536741Y-72708000D01*
X46285393Y-72658004D01*
X46048627Y-72559932D01*
X46048626Y-72559932D01*
X46048625Y-72559931D01*
X45835541Y-72417553D01*
X45654327Y-72236339D01*
X45511949Y-72023255D01*
X45414100Y-71787027D01*
X45413876Y-71786487D01*
X45363880Y-71535139D01*
X45363880Y-71278861D01*
X45413876Y-71027513D01*
X45511948Y-70790747D01*
X45654327Y-70577661D01*
X45835541Y-70396447D01*
X45930661Y-70332890D01*
X46048625Y-70254069D01*
X46048627Y-70254068D01*
X46285393Y-70155996D01*
X46536741Y-70106000D01*
X46793019Y-70106000D01*
X47044367Y-70155996D01*
G37*
G36*
X78780202Y-68356604D02*
G01*
X78943490Y-68389084D01*
X79225754Y-68506001D01*
X79479785Y-68675739D01*
X79695821Y-68891775D01*
X79865559Y-69145806D01*
X79982476Y-69428070D01*
X80042080Y-69727720D01*
X80042080Y-70033240D01*
X79982476Y-70332890D01*
X79865559Y-70615154D01*
X79695821Y-70869185D01*
X79479785Y-71085221D01*
X79225754Y-71254959D01*
X78943490Y-71371876D01*
X78807128Y-71399000D01*
X78643841Y-71431480D01*
X78338319Y-71431480D01*
X78175032Y-71399000D01*
X78038670Y-71371876D01*
X77756406Y-71254959D01*
X77502375Y-71085221D01*
X77286339Y-70869185D01*
X77116601Y-70615154D01*
X76999684Y-70332890D01*
X76940080Y-70033240D01*
X76940080Y-69727720D01*
X76999684Y-69428070D01*
X77116601Y-69145806D01*
X77286339Y-68891775D01*
X77502375Y-68675739D01*
X77756406Y-68506001D01*
X78038670Y-68389084D01*
X78201958Y-68356604D01*
X78338319Y-68329480D01*
X78643841Y-68329480D01*
X78780202Y-68356604D01*
G37*
G36*
X68780202Y-68356604D02*
G01*
X68943490Y-68389084D01*
X69225754Y-68506001D01*
X69479785Y-68675739D01*
X69695821Y-68891775D01*
X69865559Y-69145806D01*
X69982476Y-69428070D01*
X70042080Y-69727720D01*
X70042080Y-70033240D01*
X69982476Y-70332890D01*
X69865559Y-70615154D01*
X69695821Y-70869185D01*
X69479785Y-71085221D01*
X69225754Y-71254959D01*
X68943490Y-71371876D01*
X68807128Y-71399000D01*
X68643841Y-71431480D01*
X68338319Y-71431480D01*
X68175032Y-71399000D01*
X68038670Y-71371876D01*
X67756406Y-71254959D01*
X67502375Y-71085221D01*
X67286339Y-70869185D01*
X67116601Y-70615154D01*
X66999684Y-70332890D01*
X66940080Y-70033240D01*
X66940080Y-69727720D01*
X66999684Y-69428070D01*
X67116601Y-69145806D01*
X67286339Y-68891775D01*
X67502375Y-68675739D01*
X67756406Y-68506001D01*
X68038670Y-68389084D01*
X68201958Y-68356604D01*
X68338319Y-68329480D01*
X68643841Y-68329480D01*
X68780202Y-68356604D01*
G37*
G36*
X99202585Y-68326802D02*
G01*
X99352410Y-68356604D01*
X99634674Y-68473521D01*
X99888705Y-68643259D01*
X100104741Y-68859295D01*
X100274479Y-69113326D01*
X100389052Y-69389931D01*
X100391396Y-69395591D01*
X100451000Y-69695239D01*
X100451000Y-70000761D01*
X100421198Y-70150585D01*
X100391396Y-70300410D01*
X100274479Y-70582674D01*
X100104741Y-70836705D01*
X99888705Y-71052741D01*
X99634674Y-71222479D01*
X99352410Y-71339396D01*
X99202585Y-71369198D01*
X99052761Y-71399000D01*
X98747239Y-71399000D01*
X98597415Y-71369198D01*
X98447590Y-71339396D01*
X98165326Y-71222479D01*
X97911295Y-71052741D01*
X97695259Y-70836705D01*
X97525521Y-70582674D01*
X97408604Y-70300410D01*
X97378802Y-70150585D01*
X97349000Y-70000761D01*
X97349000Y-69695239D01*
X97408604Y-69395591D01*
X97410948Y-69389931D01*
X97525521Y-69113326D01*
X97695259Y-68859295D01*
X97911295Y-68643259D01*
X98165326Y-68473521D01*
X98447590Y-68356604D01*
X98597415Y-68326802D01*
X98747239Y-68297000D01*
X99052761Y-68297000D01*
X99202585Y-68326802D01*
G37*
G36*
X89202585Y-68326802D02*
G01*
X89352410Y-68356604D01*
X89634674Y-68473521D01*
X89888705Y-68643259D01*
X90104741Y-68859295D01*
X90274479Y-69113326D01*
X90389052Y-69389931D01*
X90391396Y-69395591D01*
X90451000Y-69695239D01*
X90451000Y-70000761D01*
X90421198Y-70150585D01*
X90391396Y-70300410D01*
X90274479Y-70582674D01*
X90104741Y-70836705D01*
X89888705Y-71052741D01*
X89634674Y-71222479D01*
X89352410Y-71339396D01*
X89202585Y-71369198D01*
X89052761Y-71399000D01*
X88747239Y-71399000D01*
X88597415Y-71369198D01*
X88447590Y-71339396D01*
X88165326Y-71222479D01*
X87911295Y-71052741D01*
X87695259Y-70836705D01*
X87525521Y-70582674D01*
X87408604Y-70300410D01*
X87378802Y-70150585D01*
X87349000Y-70000761D01*
X87349000Y-69695239D01*
X87408604Y-69395591D01*
X87410948Y-69389931D01*
X87525521Y-69113326D01*
X87695259Y-68859295D01*
X87911295Y-68643259D01*
X88165326Y-68473521D01*
X88447590Y-68356604D01*
X88597415Y-68326802D01*
X88747239Y-68297000D01*
X89052761Y-68297000D01*
X89202585Y-68326802D01*
G37*
G36*
X55656890Y-69340857D02*
G01*
X55775364Y-69389931D01*
X55832443Y-69428070D01*
X55881988Y-69461175D01*
X55972665Y-69551852D01*
X56043910Y-69658478D01*
X56092983Y-69776950D01*
X56118000Y-69902721D01*
X56118000Y-70030959D01*
X56092983Y-70156730D01*
X56052664Y-70254069D01*
X56043909Y-70275204D01*
X55972665Y-70381828D01*
X55881988Y-70472505D01*
X55775364Y-70543749D01*
X55775363Y-70543750D01*
X55775362Y-70543750D01*
X55656890Y-70592823D01*
X55531119Y-70617840D01*
X55402881Y-70617840D01*
X55277110Y-70592823D01*
X55158638Y-70543750D01*
X55158637Y-70543750D01*
X55158636Y-70543749D01*
X55052012Y-70472505D01*
X54961335Y-70381828D01*
X54890091Y-70275204D01*
X54881337Y-70254069D01*
X54841017Y-70156730D01*
X54816000Y-70030959D01*
X54816000Y-69902721D01*
X54841017Y-69776950D01*
X54890090Y-69658478D01*
X54961335Y-69551852D01*
X55052012Y-69461175D01*
X55101557Y-69428070D01*
X55158636Y-69389931D01*
X55277110Y-69340857D01*
X55402881Y-69315840D01*
X55531119Y-69315840D01*
X55656890Y-69340857D01*
G37*
G36*
X54118000Y-70617840D02*
G01*
X52816000Y-70617840D01*
X52816000Y-69315840D01*
X54118000Y-69315840D01*
X54118000Y-70617840D01*
G37*
G36*
X154132605Y-66428882D02*
G01*
X154282430Y-66458684D01*
X154564694Y-66575601D01*
X154818725Y-66745339D01*
X155034761Y-66961375D01*
X155204499Y-67215406D01*
X155321416Y-67497670D01*
X155381020Y-67797320D01*
X155381020Y-68102840D01*
X155321416Y-68402490D01*
X155204499Y-68684754D01*
X155034761Y-68938785D01*
X154818725Y-69154821D01*
X154564694Y-69324559D01*
X154282430Y-69441476D01*
X154183396Y-69461175D01*
X153982781Y-69501080D01*
X153677259Y-69501080D01*
X153476644Y-69461175D01*
X153377610Y-69441476D01*
X153095346Y-69324559D01*
X152841315Y-69154821D01*
X152625279Y-68938785D01*
X152455541Y-68684754D01*
X152338624Y-68402490D01*
X152279020Y-68102840D01*
X152279020Y-67797320D01*
X152338624Y-67497670D01*
X152455541Y-67215406D01*
X152625279Y-66961375D01*
X152841315Y-66745339D01*
X153095346Y-66575601D01*
X153377610Y-66458684D01*
X153527435Y-66428882D01*
X153677259Y-66399080D01*
X153982781Y-66399080D01*
X154132605Y-66428882D01*
G37*
G36*
X144132605Y-66428882D02*
G01*
X144282430Y-66458684D01*
X144564694Y-66575601D01*
X144818725Y-66745339D01*
X145034761Y-66961375D01*
X145204499Y-67215406D01*
X145321416Y-67497670D01*
X145381020Y-67797320D01*
X145381020Y-68102840D01*
X145321416Y-68402490D01*
X145204499Y-68684754D01*
X145034761Y-68938785D01*
X144818725Y-69154821D01*
X144564694Y-69324559D01*
X144282430Y-69441476D01*
X144183396Y-69461175D01*
X143982781Y-69501080D01*
X143677259Y-69501080D01*
X143476644Y-69461175D01*
X143377610Y-69441476D01*
X143095346Y-69324559D01*
X142841315Y-69154821D01*
X142625279Y-68938785D01*
X142455541Y-68684754D01*
X142338624Y-68402490D01*
X142279020Y-68102840D01*
X142279020Y-67797320D01*
X142338624Y-67497670D01*
X142455541Y-67215406D01*
X142625279Y-66961375D01*
X142841315Y-66745339D01*
X143095346Y-66575601D01*
X143377610Y-66458684D01*
X143527435Y-66428882D01*
X143677259Y-66399080D01*
X143982781Y-66399080D01*
X144132605Y-66428882D01*
G37*
G36*
X61177748Y-65821783D02*
G01*
X61332620Y-65885933D01*
X61472001Y-65979065D01*
X61590535Y-66097599D01*
X61683667Y-66236980D01*
X61747817Y-66391852D01*
X61780520Y-66556264D01*
X61780520Y-66723896D01*
X61747817Y-66888308D01*
X61683667Y-67043180D01*
X61590535Y-67182561D01*
X61472001Y-67301095D01*
X61332620Y-67394227D01*
X61177748Y-67458377D01*
X61013336Y-67491080D01*
X60845704Y-67491080D01*
X60681292Y-67458377D01*
X60526420Y-67394227D01*
X60387039Y-67301095D01*
X60268505Y-67182561D01*
X60175373Y-67043180D01*
X60111223Y-66888308D01*
X60078520Y-66723896D01*
X60078520Y-66556264D01*
X60111223Y-66391852D01*
X60175373Y-66236980D01*
X60268505Y-66097599D01*
X60387039Y-65979065D01*
X60526420Y-65885933D01*
X60681292Y-65821783D01*
X60845704Y-65789080D01*
X61013336Y-65789080D01*
X61177748Y-65821783D01*
G37*
G36*
X99202585Y-63626802D02*
G01*
X99352410Y-63656604D01*
X99634674Y-63773521D01*
X99888705Y-63943259D01*
X100104741Y-64159295D01*
X100274479Y-64413326D01*
X100349626Y-64594748D01*
X100391396Y-64695591D01*
X100451000Y-64995239D01*
X100451000Y-65300761D01*
X100440422Y-65353938D01*
X100391396Y-65600410D01*
X100274479Y-65882674D01*
X100104741Y-66136705D01*
X99888705Y-66352741D01*
X99634674Y-66522479D01*
X99352410Y-66639396D01*
X99202585Y-66669198D01*
X99052761Y-66699000D01*
X98747239Y-66699000D01*
X98597415Y-66669198D01*
X98447590Y-66639396D01*
X98165326Y-66522479D01*
X97911295Y-66352741D01*
X97695259Y-66136705D01*
X97525521Y-65882674D01*
X97408604Y-65600410D01*
X97359578Y-65353938D01*
X97349000Y-65300761D01*
X97349000Y-64995239D01*
X97408604Y-64695591D01*
X97450374Y-64594748D01*
X97525521Y-64413326D01*
X97695259Y-64159295D01*
X97911295Y-63943259D01*
X98165326Y-63773521D01*
X98447590Y-63656604D01*
X98597415Y-63626802D01*
X98747239Y-63597000D01*
X99052761Y-63597000D01*
X99202585Y-63626802D01*
G37*
G36*
X104773589Y-64516876D02*
G01*
X104872893Y-64536629D01*
X105013206Y-64594748D01*
X105139484Y-64679125D01*
X105246875Y-64786516D01*
X105331252Y-64912794D01*
X105389371Y-65053107D01*
X105419000Y-65202063D01*
X105419000Y-65353937D01*
X105389371Y-65502893D01*
X105331252Y-65643206D01*
X105246875Y-65769484D01*
X105139484Y-65876875D01*
X105013206Y-65961252D01*
X104872893Y-66019371D01*
X104773589Y-66039124D01*
X104723938Y-66049000D01*
X104572062Y-66049000D01*
X104522411Y-66039124D01*
X104423107Y-66019371D01*
X104282794Y-65961252D01*
X104156516Y-65876875D01*
X104049125Y-65769484D01*
X103964748Y-65643206D01*
X103906629Y-65502893D01*
X103877000Y-65353937D01*
X103877000Y-65202063D01*
X103906629Y-65053107D01*
X103964748Y-64912794D01*
X104049125Y-64786516D01*
X104156516Y-64679125D01*
X104282794Y-64594748D01*
X104423107Y-64536629D01*
X104522411Y-64516876D01*
X104572062Y-64507000D01*
X104723938Y-64507000D01*
X104773589Y-64516876D01*
G37*
G36*
X61780520Y-64991080D02*
G01*
X60078520Y-64991080D01*
X60078520Y-63289080D01*
X61780520Y-63289080D01*
X61780520Y-64991080D01*
G37*
G36*
X104773589Y-61976876D02*
G01*
X104872893Y-61996629D01*
X105013206Y-62054748D01*
X105139484Y-62139125D01*
X105246875Y-62246516D01*
X105331252Y-62372794D01*
X105389371Y-62513107D01*
X105419000Y-62662063D01*
X105419000Y-62813937D01*
X105389371Y-62962893D01*
X105331252Y-63103206D01*
X105246875Y-63229484D01*
X105139484Y-63336875D01*
X105013206Y-63421252D01*
X104872893Y-63479371D01*
X104773589Y-63499124D01*
X104723938Y-63509000D01*
X104572062Y-63509000D01*
X104522411Y-63499124D01*
X104423107Y-63479371D01*
X104282794Y-63421252D01*
X104156516Y-63336875D01*
X104049125Y-63229484D01*
X103964748Y-63103206D01*
X103906629Y-62962893D01*
X103877000Y-62813937D01*
X103877000Y-62662063D01*
X103906629Y-62513107D01*
X103964748Y-62372794D01*
X104049125Y-62246516D01*
X104156516Y-62139125D01*
X104282794Y-62054748D01*
X104423107Y-61996629D01*
X104522411Y-61976876D01*
X104572062Y-61967000D01*
X104723938Y-61967000D01*
X104773589Y-61976876D01*
G37*
G36*
X68760776Y-60352740D02*
G01*
X68943490Y-60389084D01*
X69225754Y-60506001D01*
X69479785Y-60675739D01*
X69695821Y-60891775D01*
X69865559Y-61145806D01*
X69982476Y-61428070D01*
X70042080Y-61727720D01*
X70042080Y-62033240D01*
X69982476Y-62332890D01*
X69865559Y-62615154D01*
X69695821Y-62869185D01*
X69479785Y-63085221D01*
X69225754Y-63254959D01*
X68943490Y-63371876D01*
X68793665Y-63401678D01*
X68643841Y-63431480D01*
X68338319Y-63431480D01*
X68188495Y-63401678D01*
X68038670Y-63371876D01*
X67756406Y-63254959D01*
X67502375Y-63085221D01*
X67286339Y-62869185D01*
X67116601Y-62615154D01*
X66999684Y-62332890D01*
X66940080Y-62033240D01*
X66940080Y-61727720D01*
X66999684Y-61428070D01*
X67116601Y-61145806D01*
X67286339Y-60891775D01*
X67502375Y-60675739D01*
X67756406Y-60506001D01*
X68038670Y-60389084D01*
X68221384Y-60352740D01*
X68338319Y-60329480D01*
X68643841Y-60329480D01*
X68760776Y-60352740D01*
G37*
G36*
X144054400Y-58413326D02*
G01*
X144282430Y-58458684D01*
X144564694Y-58575601D01*
X144818725Y-58745339D01*
X145034761Y-58961375D01*
X145204499Y-59215406D01*
X145321416Y-59497670D01*
X145381020Y-59797320D01*
X145381020Y-60102840D01*
X145321416Y-60402490D01*
X145204499Y-60684754D01*
X145034761Y-60938785D01*
X144818725Y-61154821D01*
X144564694Y-61324559D01*
X144282430Y-61441476D01*
X144132605Y-61471278D01*
X143982781Y-61501080D01*
X143677259Y-61501080D01*
X143527435Y-61471278D01*
X143377610Y-61441476D01*
X143095346Y-61324559D01*
X142841315Y-61154821D01*
X142625279Y-60938785D01*
X142455541Y-60684754D01*
X142338624Y-60402490D01*
X142279020Y-60102840D01*
X142279020Y-59797320D01*
X142338624Y-59497670D01*
X142455541Y-59215406D01*
X142625279Y-58961375D01*
X142841315Y-58745339D01*
X143095346Y-58575601D01*
X143377610Y-58458684D01*
X143605640Y-58413326D01*
X143677259Y-58399080D01*
X143982781Y-58399080D01*
X144054400Y-58413326D01*
G37*
G36*
X104773589Y-59436876D02*
G01*
X104872893Y-59456629D01*
X105013206Y-59514748D01*
X105139484Y-59599125D01*
X105246875Y-59706516D01*
X105331252Y-59832794D01*
X105389371Y-59973107D01*
X105419000Y-60122063D01*
X105419000Y-60273937D01*
X105389371Y-60422893D01*
X105331252Y-60563206D01*
X105246875Y-60689484D01*
X105139484Y-60796875D01*
X105013206Y-60881252D01*
X104872893Y-60939371D01*
X104773589Y-60959124D01*
X104723938Y-60969000D01*
X104572062Y-60969000D01*
X104522411Y-60959124D01*
X104423107Y-60939371D01*
X104282794Y-60881252D01*
X104156516Y-60796875D01*
X104049125Y-60689484D01*
X103964748Y-60563206D01*
X103906629Y-60422893D01*
X103877000Y-60273937D01*
X103877000Y-60122063D01*
X103906629Y-59973107D01*
X103964748Y-59832794D01*
X104049125Y-59706516D01*
X104156516Y-59599125D01*
X104282794Y-59514748D01*
X104423107Y-59456629D01*
X104522411Y-59436876D01*
X104572062Y-59427000D01*
X104723938Y-59427000D01*
X104773589Y-59436876D01*
G37*
G36*
X99202585Y-57626802D02*
G01*
X99352410Y-57656604D01*
X99634674Y-57773521D01*
X99888705Y-57943259D01*
X100104741Y-58159295D01*
X100274479Y-58413326D01*
X100391396Y-58695590D01*
X100451000Y-58995240D01*
X100451000Y-59300760D01*
X100391396Y-59600410D01*
X100274479Y-59882674D01*
X100104741Y-60136705D01*
X99888705Y-60352741D01*
X99634674Y-60522479D01*
X99352410Y-60639396D01*
X99202585Y-60669198D01*
X99052761Y-60699000D01*
X98747239Y-60699000D01*
X98597415Y-60669198D01*
X98447590Y-60639396D01*
X98165326Y-60522479D01*
X97911295Y-60352741D01*
X97695259Y-60136705D01*
X97525521Y-59882674D01*
X97408604Y-59600410D01*
X97349000Y-59300760D01*
X97349000Y-58995240D01*
X97408604Y-58695590D01*
X97525521Y-58413326D01*
X97695259Y-58159295D01*
X97911295Y-57943259D01*
X98165326Y-57773521D01*
X98447590Y-57656604D01*
X98597415Y-57626802D01*
X98747239Y-57597000D01*
X99052761Y-57597000D01*
X99202585Y-57626802D01*
G37*
G36*
X78780202Y-52356604D02*
G01*
X78943490Y-52389084D01*
X79225754Y-52506001D01*
X79479785Y-52675739D01*
X79695821Y-52891775D01*
X79865559Y-53145806D01*
X79982476Y-53428070D01*
X80042080Y-53727720D01*
X80042080Y-54033240D01*
X79982476Y-54332890D01*
X79865559Y-54615154D01*
X79695821Y-54869185D01*
X79479785Y-55085221D01*
X79225754Y-55254959D01*
X78943490Y-55371876D01*
X78807128Y-55399000D01*
X78643841Y-55431480D01*
X78338319Y-55431480D01*
X78175032Y-55399000D01*
X78038670Y-55371876D01*
X77756406Y-55254959D01*
X77502375Y-55085221D01*
X77286339Y-54869185D01*
X77116601Y-54615154D01*
X76999684Y-54332890D01*
X76940080Y-54033240D01*
X76940080Y-53727720D01*
X76999684Y-53428070D01*
X77116601Y-53145806D01*
X77286339Y-52891775D01*
X77502375Y-52675739D01*
X77756406Y-52506001D01*
X78038670Y-52389084D01*
X78201958Y-52356604D01*
X78338319Y-52329480D01*
X78643841Y-52329480D01*
X78780202Y-52356604D01*
G37*
G36*
X68780202Y-52356604D02*
G01*
X68943490Y-52389084D01*
X69225754Y-52506001D01*
X69479785Y-52675739D01*
X69695821Y-52891775D01*
X69865559Y-53145806D01*
X69982476Y-53428070D01*
X70042080Y-53727720D01*
X70042080Y-54033240D01*
X69982476Y-54332890D01*
X69865559Y-54615154D01*
X69695821Y-54869185D01*
X69479785Y-55085221D01*
X69225754Y-55254959D01*
X68943490Y-55371876D01*
X68807128Y-55399000D01*
X68643841Y-55431480D01*
X68338319Y-55431480D01*
X68175032Y-55399000D01*
X68038670Y-55371876D01*
X67756406Y-55254959D01*
X67502375Y-55085221D01*
X67286339Y-54869185D01*
X67116601Y-54615154D01*
X66999684Y-54332890D01*
X66940080Y-54033240D01*
X66940080Y-53727720D01*
X66999684Y-53428070D01*
X67116601Y-53145806D01*
X67286339Y-52891775D01*
X67502375Y-52675739D01*
X67756406Y-52506001D01*
X68038670Y-52389084D01*
X68201958Y-52356604D01*
X68338319Y-52329480D01*
X68643841Y-52329480D01*
X68780202Y-52356604D01*
G37*
G36*
X99202585Y-52326802D02*
G01*
X99352410Y-52356604D01*
X99634674Y-52473521D01*
X99888705Y-52643259D01*
X100104741Y-52859295D01*
X100274479Y-53113326D01*
X100391396Y-53395590D01*
X100397857Y-53428070D01*
X100448040Y-53680356D01*
X100451000Y-53695240D01*
X100451000Y-54000760D01*
X100391396Y-54300410D01*
X100274479Y-54582674D01*
X100104741Y-54836705D01*
X99888705Y-55052741D01*
X99634674Y-55222479D01*
X99352410Y-55339396D01*
X99202585Y-55369198D01*
X99052761Y-55399000D01*
X98747239Y-55399000D01*
X98597415Y-55369198D01*
X98447590Y-55339396D01*
X98165326Y-55222479D01*
X97911295Y-55052741D01*
X97695259Y-54836705D01*
X97525521Y-54582674D01*
X97408604Y-54300410D01*
X97349000Y-54000760D01*
X97349000Y-53695240D01*
X97351961Y-53680356D01*
X97402143Y-53428070D01*
X97408604Y-53395590D01*
X97525521Y-53113326D01*
X97695259Y-52859295D01*
X97911295Y-52643259D01*
X98165326Y-52473521D01*
X98447590Y-52356604D01*
X98597415Y-52326802D01*
X98747239Y-52297000D01*
X99052761Y-52297000D01*
X99202585Y-52326802D01*
G37*
G36*
X89202585Y-52326802D02*
G01*
X89352410Y-52356604D01*
X89634674Y-52473521D01*
X89888705Y-52643259D01*
X90104741Y-52859295D01*
X90274479Y-53113326D01*
X90391396Y-53395590D01*
X90397857Y-53428070D01*
X90448040Y-53680356D01*
X90451000Y-53695240D01*
X90451000Y-54000760D01*
X90391396Y-54300410D01*
X90274479Y-54582674D01*
X90104741Y-54836705D01*
X89888705Y-55052741D01*
X89634674Y-55222479D01*
X89352410Y-55339396D01*
X89202585Y-55369198D01*
X89052761Y-55399000D01*
X88747239Y-55399000D01*
X88597415Y-55369198D01*
X88447590Y-55339396D01*
X88165326Y-55222479D01*
X87911295Y-55052741D01*
X87695259Y-54836705D01*
X87525521Y-54582674D01*
X87408604Y-54300410D01*
X87349000Y-54000760D01*
X87349000Y-53695240D01*
X87351961Y-53680356D01*
X87402143Y-53428070D01*
X87408604Y-53395590D01*
X87525521Y-53113326D01*
X87695259Y-52859295D01*
X87911295Y-52643259D01*
X88165326Y-52473521D01*
X88447590Y-52356604D01*
X88597415Y-52326802D01*
X88747239Y-52297000D01*
X89052761Y-52297000D01*
X89202585Y-52326802D01*
G37*
G36*
X60845090Y-53362737D02*
G01*
X60924404Y-53395590D01*
X60963564Y-53411811D01*
X61070188Y-53483055D01*
X61160865Y-53573732D01*
X61232109Y-53680356D01*
X61281183Y-53798830D01*
X61306200Y-53924602D01*
X61306200Y-54052838D01*
X61281183Y-54178610D01*
X61232109Y-54297084D01*
X61160865Y-54403708D01*
X61070188Y-54494385D01*
X60963564Y-54565629D01*
X60963563Y-54565630D01*
X60963562Y-54565630D01*
X60845090Y-54614703D01*
X60719319Y-54639720D01*
X60591081Y-54639720D01*
X60465310Y-54614703D01*
X60346838Y-54565630D01*
X60346837Y-54565630D01*
X60346836Y-54565629D01*
X60240212Y-54494385D01*
X60149535Y-54403708D01*
X60078291Y-54297084D01*
X60029217Y-54178610D01*
X60004200Y-54052838D01*
X60004200Y-53924602D01*
X60029217Y-53798830D01*
X60078291Y-53680356D01*
X60149535Y-53573732D01*
X60240212Y-53483055D01*
X60346836Y-53411811D01*
X60385997Y-53395590D01*
X60465310Y-53362737D01*
X60591081Y-53337720D01*
X60719319Y-53337720D01*
X60845090Y-53362737D01*
G37*
G36*
X154132605Y-50428882D02*
G01*
X154282430Y-50458684D01*
X154564694Y-50575601D01*
X154818725Y-50745339D01*
X155034761Y-50961375D01*
X155204499Y-51215406D01*
X155321416Y-51497670D01*
X155381020Y-51797320D01*
X155381020Y-52102840D01*
X155321416Y-52402490D01*
X155204499Y-52684754D01*
X155034761Y-52938785D01*
X154818725Y-53154821D01*
X154564694Y-53324559D01*
X154282430Y-53441476D01*
X154132605Y-53471278D01*
X153982781Y-53501080D01*
X153677259Y-53501080D01*
X153527435Y-53471278D01*
X153377610Y-53441476D01*
X153095346Y-53324559D01*
X152841315Y-53154821D01*
X152625279Y-52938785D01*
X152455541Y-52684754D01*
X152338624Y-52402490D01*
X152279020Y-52102840D01*
X152279020Y-51797320D01*
X152338624Y-51497670D01*
X152455541Y-51215406D01*
X152625279Y-50961375D01*
X152841315Y-50745339D01*
X153095346Y-50575601D01*
X153377610Y-50458684D01*
X153527435Y-50428882D01*
X153677259Y-50399080D01*
X153982781Y-50399080D01*
X154132605Y-50428882D01*
G37*
G36*
X144132605Y-50428882D02*
G01*
X144282430Y-50458684D01*
X144564694Y-50575601D01*
X144818725Y-50745339D01*
X145034761Y-50961375D01*
X145204499Y-51215406D01*
X145321416Y-51497670D01*
X145381020Y-51797320D01*
X145381020Y-52102840D01*
X145321416Y-52402490D01*
X145204499Y-52684754D01*
X145034761Y-52938785D01*
X144818725Y-53154821D01*
X144564694Y-53324559D01*
X144282430Y-53441476D01*
X144132605Y-53471278D01*
X143982781Y-53501080D01*
X143677259Y-53501080D01*
X143527435Y-53471278D01*
X143377610Y-53441476D01*
X143095346Y-53324559D01*
X142841315Y-53154821D01*
X142625279Y-52938785D01*
X142455541Y-52684754D01*
X142338624Y-52402490D01*
X142279020Y-52102840D01*
X142279020Y-51797320D01*
X142338624Y-51497670D01*
X142455541Y-51215406D01*
X142625279Y-50961375D01*
X142841315Y-50745339D01*
X143095346Y-50575601D01*
X143377610Y-50458684D01*
X143527435Y-50428882D01*
X143677259Y-50399080D01*
X143982781Y-50399080D01*
X144132605Y-50428882D01*
G37*
G36*
X61306200Y-52639720D02*
G01*
X60004200Y-52639720D01*
X60004200Y-51337720D01*
X61306200Y-51337720D01*
X61306200Y-52639720D01*
G37*
G36*
X74090320Y-47449584D02*
G01*
X74241787Y-47479713D01*
X74455805Y-47568362D01*
X74455806Y-47568363D01*
X74648414Y-47697059D01*
X74812221Y-47860866D01*
X74857603Y-47928786D01*
X74940918Y-48053475D01*
X75029567Y-48267493D01*
X75029567Y-48267495D01*
X75074760Y-48494693D01*
X75074760Y-48726347D01*
X75074745Y-48726421D01*
X75029567Y-48953547D01*
X74940918Y-49167565D01*
X74898018Y-49231769D01*
X74812221Y-49360174D01*
X74648414Y-49523981D01*
X74520009Y-49609778D01*
X74455805Y-49652678D01*
X74241787Y-49741327D01*
X74090320Y-49771456D01*
X74014587Y-49786520D01*
X73782933Y-49786520D01*
X73707200Y-49771456D01*
X73555733Y-49741327D01*
X73341715Y-49652678D01*
X73277511Y-49609778D01*
X73149106Y-49523981D01*
X72985299Y-49360174D01*
X72899502Y-49231769D01*
X72856602Y-49167565D01*
X72767953Y-48953547D01*
X72722775Y-48726421D01*
X72722760Y-48726347D01*
X72722760Y-48494693D01*
X72767953Y-48267495D01*
X72767953Y-48267493D01*
X72856602Y-48053475D01*
X72939917Y-47928786D01*
X72985299Y-47860866D01*
X73149106Y-47697059D01*
X73341714Y-47568363D01*
X73341715Y-47568362D01*
X73555733Y-47479713D01*
X73707200Y-47449584D01*
X73782933Y-47434520D01*
X74014587Y-47434520D01*
X74090320Y-47449584D01*
G37*
G36*
X79170320Y-47449584D02*
G01*
X79321787Y-47479713D01*
X79535805Y-47568362D01*
X79535806Y-47568363D01*
X79728414Y-47697059D01*
X79892221Y-47860866D01*
X79937603Y-47928786D01*
X80020918Y-48053475D01*
X80109567Y-48267493D01*
X80109567Y-48267495D01*
X80154760Y-48494693D01*
X80154760Y-48726347D01*
X80154745Y-48726421D01*
X80109567Y-48953547D01*
X80020918Y-49167565D01*
X79978018Y-49231769D01*
X79892221Y-49360174D01*
X79728414Y-49523981D01*
X79600009Y-49609778D01*
X79535805Y-49652678D01*
X79321787Y-49741327D01*
X79170320Y-49771456D01*
X79094587Y-49786520D01*
X78862933Y-49786520D01*
X78787200Y-49771456D01*
X78635733Y-49741327D01*
X78421715Y-49652678D01*
X78357511Y-49609778D01*
X78229106Y-49523981D01*
X78065299Y-49360174D01*
X77979502Y-49231769D01*
X77936602Y-49167565D01*
X77847953Y-48953547D01*
X77802775Y-48726421D01*
X77802760Y-48726347D01*
X77802760Y-48494693D01*
X77847953Y-48267495D01*
X77847953Y-48267493D01*
X77936602Y-48053475D01*
X78019917Y-47928786D01*
X78065299Y-47860866D01*
X78229106Y-47697059D01*
X78421714Y-47568363D01*
X78421715Y-47568362D01*
X78635733Y-47479713D01*
X78787200Y-47449584D01*
X78862933Y-47434520D01*
X79094587Y-47434520D01*
X79170320Y-47449584D01*
G37*
G36*
X88329560Y-47170184D02*
G01*
X88481027Y-47200313D01*
X88695045Y-47288962D01*
X88695046Y-47288963D01*
X88887654Y-47417659D01*
X89051461Y-47581466D01*
X89137258Y-47709871D01*
X89180158Y-47774075D01*
X89268807Y-47988093D01*
X89314000Y-48215294D01*
X89314000Y-48446946D01*
X89268807Y-48674147D01*
X89180158Y-48888165D01*
X89180157Y-48888166D01*
X89051461Y-49080774D01*
X88887654Y-49244581D01*
X88763471Y-49327557D01*
X88695045Y-49373278D01*
X88481027Y-49461927D01*
X88329560Y-49492056D01*
X88253827Y-49507120D01*
X88022173Y-49507120D01*
X87946440Y-49492056D01*
X87794973Y-49461927D01*
X87580955Y-49373278D01*
X87512529Y-49327557D01*
X87388346Y-49244581D01*
X87224539Y-49080774D01*
X87095843Y-48888166D01*
X87095842Y-48888165D01*
X87007193Y-48674147D01*
X86962000Y-48446946D01*
X86962000Y-48215294D01*
X87007193Y-47988093D01*
X87095842Y-47774075D01*
X87138742Y-47709871D01*
X87224539Y-47581466D01*
X87388346Y-47417659D01*
X87580954Y-47288963D01*
X87580955Y-47288962D01*
X87794973Y-47200313D01*
X87946440Y-47170184D01*
X88022173Y-47155120D01*
X88253827Y-47155120D01*
X88329560Y-47170184D01*
G37*
G36*
X93409560Y-47170184D02*
G01*
X93561027Y-47200313D01*
X93775045Y-47288962D01*
X93775046Y-47288963D01*
X93967654Y-47417659D01*
X94131461Y-47581466D01*
X94217258Y-47709871D01*
X94260158Y-47774075D01*
X94348807Y-47988093D01*
X94394000Y-48215294D01*
X94394000Y-48446946D01*
X94348807Y-48674147D01*
X94260158Y-48888165D01*
X94260157Y-48888166D01*
X94131461Y-49080774D01*
X93967654Y-49244581D01*
X93843471Y-49327557D01*
X93775045Y-49373278D01*
X93561027Y-49461927D01*
X93409560Y-49492056D01*
X93333827Y-49507120D01*
X93102173Y-49507120D01*
X93026440Y-49492056D01*
X92874973Y-49461927D01*
X92660955Y-49373278D01*
X92592529Y-49327557D01*
X92468346Y-49244581D01*
X92304539Y-49080774D01*
X92175843Y-48888166D01*
X92175842Y-48888165D01*
X92087193Y-48674147D01*
X92042000Y-48446946D01*
X92042000Y-48215294D01*
X92087193Y-47988093D01*
X92175842Y-47774075D01*
X92218742Y-47709871D01*
X92304539Y-47581466D01*
X92468346Y-47417659D01*
X92660954Y-47288963D01*
X92660955Y-47288962D01*
X92874973Y-47200313D01*
X93026440Y-47170184D01*
X93102173Y-47155120D01*
X93333827Y-47155120D01*
X93409560Y-47170184D01*
G37*
G36*
X105693000Y-47124464D02*
G01*
X105844467Y-47154593D01*
X106058485Y-47243242D01*
X106058486Y-47243243D01*
X106251094Y-47371939D01*
X106414901Y-47535746D01*
X106445450Y-47581466D01*
X106543598Y-47728355D01*
X106632247Y-47942373D01*
X106662376Y-48093840D01*
X106674738Y-48155987D01*
X106677440Y-48169574D01*
X106677440Y-48401226D01*
X106632247Y-48628427D01*
X106543598Y-48842445D01*
X106543597Y-48842446D01*
X106414901Y-49035054D01*
X106251094Y-49198861D01*
X106122689Y-49284658D01*
X106058485Y-49327558D01*
X105844467Y-49416207D01*
X105693000Y-49446336D01*
X105617267Y-49461400D01*
X105385613Y-49461400D01*
X105309880Y-49446336D01*
X105158413Y-49416207D01*
X104944395Y-49327558D01*
X104880191Y-49284658D01*
X104751786Y-49198861D01*
X104587979Y-49035054D01*
X104459283Y-48842446D01*
X104459282Y-48842445D01*
X104370633Y-48628427D01*
X104325440Y-48401226D01*
X104325440Y-48169574D01*
X104328143Y-48155987D01*
X104340504Y-48093840D01*
X104370633Y-47942373D01*
X104459282Y-47728355D01*
X104557430Y-47581466D01*
X104587979Y-47535746D01*
X104751786Y-47371939D01*
X104944394Y-47243243D01*
X104944395Y-47243242D01*
X105158413Y-47154593D01*
X105309880Y-47124464D01*
X105385613Y-47109400D01*
X105617267Y-47109400D01*
X105693000Y-47124464D01*
G37*
G36*
X100613000Y-47124464D02*
G01*
X100764467Y-47154593D01*
X100978485Y-47243242D01*
X100978486Y-47243243D01*
X101171094Y-47371939D01*
X101334901Y-47535746D01*
X101365450Y-47581466D01*
X101463598Y-47728355D01*
X101552247Y-47942373D01*
X101582376Y-48093840D01*
X101594738Y-48155987D01*
X101597440Y-48169574D01*
X101597440Y-48401226D01*
X101552247Y-48628427D01*
X101463598Y-48842445D01*
X101463597Y-48842446D01*
X101334901Y-49035054D01*
X101171094Y-49198861D01*
X101042689Y-49284658D01*
X100978485Y-49327558D01*
X100764467Y-49416207D01*
X100613000Y-49446336D01*
X100537267Y-49461400D01*
X100305613Y-49461400D01*
X100229880Y-49446336D01*
X100078413Y-49416207D01*
X99864395Y-49327558D01*
X99800191Y-49284658D01*
X99671786Y-49198861D01*
X99507979Y-49035054D01*
X99379283Y-48842446D01*
X99379282Y-48842445D01*
X99290633Y-48628427D01*
X99245440Y-48401226D01*
X99245440Y-48169574D01*
X99248143Y-48155987D01*
X99260504Y-48093840D01*
X99290633Y-47942373D01*
X99379282Y-47728355D01*
X99477430Y-47581466D01*
X99507979Y-47535746D01*
X99671786Y-47371939D01*
X99864394Y-47243243D01*
X99864395Y-47243242D01*
X100078413Y-47154593D01*
X100229880Y-47124464D01*
X100305613Y-47109400D01*
X100537267Y-47109400D01*
X100613000Y-47124464D01*
G37*
G36*
X150897380Y-46652024D02*
G01*
X151048847Y-46682153D01*
X151262865Y-46770802D01*
X151327069Y-46813702D01*
X151455474Y-46899499D01*
X151619281Y-47063306D01*
X151680277Y-47154593D01*
X151747978Y-47255915D01*
X151836627Y-47469933D01*
X151849718Y-47535746D01*
X151881820Y-47697133D01*
X151881820Y-47928787D01*
X151879117Y-47942375D01*
X151836627Y-48155987D01*
X151747978Y-48370005D01*
X151747977Y-48370006D01*
X151619281Y-48562614D01*
X151455474Y-48726421D01*
X151327069Y-48812218D01*
X151262865Y-48855118D01*
X151048847Y-48943767D01*
X150897380Y-48973896D01*
X150821647Y-48988960D01*
X150589993Y-48988960D01*
X150514260Y-48973896D01*
X150362793Y-48943767D01*
X150148775Y-48855118D01*
X150084571Y-48812218D01*
X149956166Y-48726421D01*
X149792359Y-48562614D01*
X149663663Y-48370006D01*
X149663662Y-48370005D01*
X149575013Y-48155987D01*
X149532523Y-47942375D01*
X149529820Y-47928787D01*
X149529820Y-47697133D01*
X149561922Y-47535746D01*
X149575013Y-47469933D01*
X149663662Y-47255915D01*
X149731363Y-47154593D01*
X149792359Y-47063306D01*
X149956166Y-46899499D01*
X150084571Y-46813702D01*
X150148775Y-46770802D01*
X150362793Y-46682153D01*
X150514260Y-46652024D01*
X150589993Y-46636960D01*
X150821647Y-46636960D01*
X150897380Y-46652024D01*
G37*
G36*
X145817380Y-46652024D02*
G01*
X145968847Y-46682153D01*
X146182865Y-46770802D01*
X146247069Y-46813702D01*
X146375474Y-46899499D01*
X146539281Y-47063306D01*
X146600277Y-47154593D01*
X146667978Y-47255915D01*
X146756627Y-47469933D01*
X146769718Y-47535746D01*
X146801820Y-47697133D01*
X146801820Y-47928787D01*
X146799117Y-47942375D01*
X146756627Y-48155987D01*
X146667978Y-48370005D01*
X146667977Y-48370006D01*
X146539281Y-48562614D01*
X146375474Y-48726421D01*
X146247069Y-48812218D01*
X146182865Y-48855118D01*
X145968847Y-48943767D01*
X145817380Y-48973896D01*
X145741647Y-48988960D01*
X145509993Y-48988960D01*
X145434260Y-48973896D01*
X145282793Y-48943767D01*
X145068775Y-48855118D01*
X145004571Y-48812218D01*
X144876166Y-48726421D01*
X144712359Y-48562614D01*
X144583663Y-48370006D01*
X144583662Y-48370005D01*
X144495013Y-48155987D01*
X144452523Y-47942375D01*
X144449820Y-47928787D01*
X144449820Y-47697133D01*
X144481922Y-47535746D01*
X144495013Y-47469933D01*
X144583662Y-47255915D01*
X144651363Y-47154593D01*
X144712359Y-47063306D01*
X144876166Y-46899499D01*
X145004571Y-46813702D01*
X145068775Y-46770802D01*
X145282793Y-46682153D01*
X145434260Y-46652024D01*
X145509993Y-46636960D01*
X145741647Y-46636960D01*
X145817380Y-46652024D01*
G37*
G36*
X76614031Y-45008303D02*
G01*
X76752618Y-45035870D01*
X76948437Y-45116981D01*
X77124670Y-45234736D01*
X77274544Y-45384610D01*
X77392299Y-45560843D01*
X77473410Y-45756662D01*
X77514760Y-45964543D01*
X77514760Y-46176497D01*
X77473410Y-46384378D01*
X77392299Y-46580197D01*
X77274544Y-46756430D01*
X77124670Y-46906304D01*
X76948437Y-47024059D01*
X76752618Y-47105170D01*
X76614031Y-47132737D01*
X76544738Y-47146520D01*
X76332782Y-47146520D01*
X76263489Y-47132737D01*
X76124902Y-47105170D01*
X75929083Y-47024059D01*
X75752850Y-46906304D01*
X75602976Y-46756430D01*
X75485221Y-46580197D01*
X75404110Y-46384378D01*
X75362760Y-46176497D01*
X75362760Y-45964543D01*
X75404110Y-45756662D01*
X75485221Y-45560843D01*
X75602976Y-45384610D01*
X75752850Y-45234736D01*
X75929083Y-45116981D01*
X76124902Y-45035870D01*
X76263489Y-45008303D01*
X76332782Y-44994520D01*
X76544738Y-44994520D01*
X76614031Y-45008303D01*
G37*
G36*
X90853271Y-44728903D02*
G01*
X90991858Y-44756470D01*
X91187677Y-44837581D01*
X91363910Y-44955336D01*
X91513784Y-45105210D01*
X91631539Y-45281443D01*
X91712650Y-45477262D01*
X91754000Y-45685143D01*
X91754000Y-45897097D01*
X91712650Y-46104978D01*
X91631539Y-46300797D01*
X91513784Y-46477030D01*
X91363910Y-46626904D01*
X91187677Y-46744659D01*
X90991858Y-46825770D01*
X90853271Y-46853337D01*
X90783978Y-46867120D01*
X90572022Y-46867120D01*
X90502729Y-46853337D01*
X90364142Y-46825770D01*
X90168323Y-46744659D01*
X89992090Y-46626904D01*
X89842216Y-46477030D01*
X89724461Y-46300797D01*
X89643350Y-46104978D01*
X89602000Y-45897097D01*
X89602000Y-45685143D01*
X89643350Y-45477262D01*
X89724461Y-45281443D01*
X89842216Y-45105210D01*
X89992090Y-44955336D01*
X90168323Y-44837581D01*
X90364142Y-44756470D01*
X90502729Y-44728903D01*
X90572022Y-44715120D01*
X90783978Y-44715120D01*
X90853271Y-44728903D01*
G37*
G36*
X103136711Y-44683183D02*
G01*
X103275298Y-44710750D01*
X103471117Y-44791861D01*
X103647350Y-44909616D01*
X103797224Y-45059490D01*
X103914979Y-45235723D01*
X103996090Y-45431542D01*
X104037440Y-45639423D01*
X104037440Y-45851377D01*
X103996090Y-46059258D01*
X103914979Y-46255077D01*
X103797224Y-46431310D01*
X103647350Y-46581184D01*
X103471117Y-46698939D01*
X103275298Y-46780050D01*
X103136711Y-46807617D01*
X103067418Y-46821400D01*
X102855462Y-46821400D01*
X102786169Y-46807617D01*
X102647582Y-46780050D01*
X102451763Y-46698939D01*
X102275530Y-46581184D01*
X102125656Y-46431310D01*
X102007901Y-46255077D01*
X101926790Y-46059258D01*
X101885440Y-45851377D01*
X101885440Y-45639423D01*
X101926790Y-45431542D01*
X102007901Y-45235723D01*
X102125656Y-45059490D01*
X102275530Y-44909616D01*
X102451763Y-44791861D01*
X102647582Y-44710750D01*
X102786169Y-44683183D01*
X102855462Y-44669400D01*
X103067418Y-44669400D01*
X103136711Y-44683183D01*
G37*
G36*
X118155487Y-44118476D02*
G01*
X118367297Y-44206211D01*
X118392255Y-44216549D01*
X118605339Y-44358927D01*
X118786553Y-44540141D01*
X118897724Y-44706520D01*
X118928932Y-44753227D01*
X119027004Y-44989993D01*
X119077000Y-45241341D01*
X119077000Y-45497619D01*
X119027004Y-45748967D01*
X118937709Y-45964543D01*
X118928931Y-45985735D01*
X118786553Y-46198819D01*
X118605339Y-46380033D01*
X118392255Y-46522411D01*
X118392254Y-46522412D01*
X118392253Y-46522412D01*
X118155487Y-46620484D01*
X117904139Y-46670480D01*
X117647861Y-46670480D01*
X117396513Y-46620484D01*
X117159747Y-46522412D01*
X117159746Y-46522412D01*
X117159745Y-46522411D01*
X116946661Y-46380033D01*
X116765447Y-46198819D01*
X116623069Y-45985735D01*
X116614291Y-45964543D01*
X116524996Y-45748967D01*
X116475000Y-45497619D01*
X116475000Y-45241341D01*
X116524996Y-44989993D01*
X116623068Y-44753227D01*
X116654277Y-44706520D01*
X116765447Y-44540141D01*
X116946661Y-44358927D01*
X117159745Y-44216549D01*
X117184703Y-44206211D01*
X117396513Y-44118476D01*
X117647861Y-44068480D01*
X117904139Y-44068480D01*
X118155487Y-44118476D01*
G37*
G36*
X114077000Y-46670480D02*
G01*
X111475000Y-46670480D01*
X111475000Y-44068480D01*
X114077000Y-44068480D01*
X114077000Y-46670480D01*
G37*
G36*
X148318295Y-44206209D02*
G01*
X148479678Y-44238310D01*
X148675497Y-44319421D01*
X148851730Y-44437176D01*
X149001604Y-44587050D01*
X149119359Y-44763283D01*
X149200470Y-44959102D01*
X149241820Y-45166983D01*
X149241820Y-45378937D01*
X149200470Y-45586818D01*
X149119359Y-45782637D01*
X149001604Y-45958870D01*
X148851730Y-46108744D01*
X148675497Y-46226499D01*
X148479678Y-46307610D01*
X148341091Y-46335177D01*
X148271798Y-46348960D01*
X148059842Y-46348960D01*
X147990549Y-46335177D01*
X147851962Y-46307610D01*
X147656143Y-46226499D01*
X147479910Y-46108744D01*
X147330036Y-45958870D01*
X147212281Y-45782637D01*
X147131170Y-45586818D01*
X147089820Y-45378937D01*
X147089820Y-45166983D01*
X147131170Y-44959102D01*
X147212281Y-44763283D01*
X147330036Y-44587050D01*
X147479910Y-44437176D01*
X147656143Y-44319421D01*
X147851962Y-44238310D01*
X148013345Y-44206209D01*
X148059842Y-44196960D01*
X148271798Y-44196960D01*
X148318295Y-44206209D01*
G37*
G36*
X157672272Y-42455744D02*
G01*
X157814259Y-42483987D01*
X158114722Y-42608443D01*
X158385131Y-42789125D01*
X158615095Y-43019089D01*
X158777108Y-43261558D01*
X158795778Y-43289500D01*
X158808919Y-43321226D01*
X158920233Y-43589961D01*
X158941382Y-43696284D01*
X158983680Y-43908929D01*
X158983680Y-44234151D01*
X158958860Y-44358927D01*
X158920233Y-44553119D01*
X158912131Y-44572678D01*
X158802405Y-44837582D01*
X158795777Y-44853582D01*
X158615095Y-45123991D01*
X158385131Y-45353955D01*
X158114722Y-45534637D01*
X157814259Y-45659093D01*
X157707936Y-45680242D01*
X157495291Y-45722540D01*
X157170069Y-45722540D01*
X156957424Y-45680242D01*
X156851101Y-45659093D01*
X156550638Y-45534637D01*
X156280229Y-45353955D01*
X156050265Y-45123991D01*
X155869583Y-44853582D01*
X155862956Y-44837582D01*
X155753229Y-44572678D01*
X155745127Y-44553119D01*
X155706500Y-44358927D01*
X155681680Y-44234151D01*
X155681680Y-43908929D01*
X155723978Y-43696284D01*
X155745127Y-43589961D01*
X155856441Y-43321226D01*
X155869582Y-43289500D01*
X155888252Y-43261558D01*
X156050265Y-43019089D01*
X156280229Y-42789125D01*
X156550638Y-42608443D01*
X156851101Y-42483987D01*
X156993088Y-42455744D01*
X157170069Y-42420540D01*
X157495291Y-42420540D01*
X157672272Y-42455744D01*
G37*
G36*
X47215396Y-42434898D02*
G01*
X47321719Y-42456047D01*
X47622182Y-42580503D01*
X47892591Y-42761185D01*
X48122555Y-42991149D01*
X48303237Y-43261558D01*
X48427693Y-43562021D01*
X48433251Y-43589962D01*
X48491140Y-43880989D01*
X48491140Y-44206211D01*
X48476427Y-44280176D01*
X48427693Y-44525179D01*
X48303237Y-44825642D01*
X48122555Y-45096051D01*
X47892591Y-45326015D01*
X47622182Y-45506697D01*
X47321719Y-45631153D01*
X47215396Y-45652302D01*
X47002751Y-45694600D01*
X46677529Y-45694600D01*
X46464884Y-45652302D01*
X46358561Y-45631153D01*
X46058098Y-45506697D01*
X45787689Y-45326015D01*
X45557725Y-45096051D01*
X45377043Y-44825642D01*
X45252587Y-44525179D01*
X45203853Y-44280176D01*
X45189140Y-44206211D01*
X45189140Y-43880989D01*
X45247029Y-43589962D01*
X45252587Y-43562021D01*
X45377043Y-43261558D01*
X45557725Y-42991149D01*
X45787689Y-42761185D01*
X46058098Y-42580503D01*
X46358561Y-42456047D01*
X46464884Y-42434898D01*
X46677529Y-42392600D01*
X47002751Y-42392600D01*
X47215396Y-42434898D01*
G37*
G36*
X74090320Y-42369584D02*
G01*
X74241787Y-42399713D01*
X74455805Y-42488362D01*
X74455806Y-42488363D01*
X74648414Y-42617059D01*
X74812221Y-42780866D01*
X74817739Y-42789125D01*
X74940918Y-42973475D01*
X75029567Y-43187493D01*
X75029567Y-43187495D01*
X75074760Y-43414693D01*
X75074760Y-43646347D01*
X75074745Y-43646421D01*
X75029567Y-43873547D01*
X74940918Y-44087565D01*
X74898018Y-44151769D01*
X74812221Y-44280174D01*
X74648414Y-44443981D01*
X74526894Y-44525178D01*
X74455805Y-44572678D01*
X74241787Y-44661327D01*
X74090320Y-44691456D01*
X74014587Y-44706520D01*
X73782933Y-44706520D01*
X73707200Y-44691456D01*
X73555733Y-44661327D01*
X73341715Y-44572678D01*
X73270626Y-44525178D01*
X73149106Y-44443981D01*
X72985299Y-44280174D01*
X72899502Y-44151769D01*
X72856602Y-44087565D01*
X72767953Y-43873547D01*
X72722775Y-43646421D01*
X72722760Y-43646347D01*
X72722760Y-43414693D01*
X72767953Y-43187495D01*
X72767953Y-43187493D01*
X72856602Y-42973475D01*
X72979781Y-42789125D01*
X72985299Y-42780866D01*
X73149106Y-42617059D01*
X73341714Y-42488363D01*
X73341715Y-42488362D01*
X73555733Y-42399713D01*
X73707200Y-42369584D01*
X73782933Y-42354520D01*
X74014587Y-42354520D01*
X74090320Y-42369584D01*
G37*
G36*
X79170320Y-42369584D02*
G01*
X79321787Y-42399713D01*
X79535805Y-42488362D01*
X79535806Y-42488363D01*
X79728414Y-42617059D01*
X79892221Y-42780866D01*
X79897739Y-42789125D01*
X80020918Y-42973475D01*
X80109567Y-43187493D01*
X80109567Y-43187495D01*
X80154760Y-43414693D01*
X80154760Y-43646347D01*
X80154745Y-43646421D01*
X80109567Y-43873547D01*
X80020918Y-44087565D01*
X79978018Y-44151769D01*
X79892221Y-44280174D01*
X79728414Y-44443981D01*
X79606894Y-44525178D01*
X79535805Y-44572678D01*
X79321787Y-44661327D01*
X79170320Y-44691456D01*
X79094587Y-44706520D01*
X78862933Y-44706520D01*
X78787200Y-44691456D01*
X78635733Y-44661327D01*
X78421715Y-44572678D01*
X78350626Y-44525178D01*
X78229106Y-44443981D01*
X78065299Y-44280174D01*
X77979502Y-44151769D01*
X77936602Y-44087565D01*
X77847953Y-43873547D01*
X77802775Y-43646421D01*
X77802760Y-43646347D01*
X77802760Y-43414693D01*
X77847953Y-43187495D01*
X77847953Y-43187493D01*
X77936602Y-42973475D01*
X78059781Y-42789125D01*
X78065299Y-42780866D01*
X78229106Y-42617059D01*
X78421714Y-42488363D01*
X78421715Y-42488362D01*
X78635733Y-42399713D01*
X78787200Y-42369584D01*
X78862933Y-42354520D01*
X79094587Y-42354520D01*
X79170320Y-42369584D01*
G37*
G36*
X88329560Y-42090184D02*
G01*
X88481027Y-42120313D01*
X88695045Y-42208962D01*
X88695046Y-42208963D01*
X88887654Y-42337659D01*
X89051461Y-42501466D01*
X89137258Y-42629871D01*
X89180158Y-42694075D01*
X89268807Y-42908093D01*
X89314000Y-43135294D01*
X89314000Y-43366946D01*
X89268807Y-43594147D01*
X89180158Y-43808165D01*
X89180157Y-43808166D01*
X89051461Y-44000774D01*
X88887654Y-44164581D01*
X88783535Y-44234151D01*
X88695045Y-44293278D01*
X88481027Y-44381927D01*
X88329560Y-44412056D01*
X88253827Y-44427120D01*
X88022173Y-44427120D01*
X87946440Y-44412056D01*
X87794973Y-44381927D01*
X87580955Y-44293278D01*
X87492465Y-44234151D01*
X87388346Y-44164581D01*
X87224539Y-44000774D01*
X87095843Y-43808166D01*
X87095842Y-43808165D01*
X87007193Y-43594147D01*
X86962000Y-43366946D01*
X86962000Y-43135294D01*
X87007193Y-42908093D01*
X87095842Y-42694075D01*
X87138742Y-42629871D01*
X87224539Y-42501466D01*
X87388346Y-42337659D01*
X87580954Y-42208963D01*
X87580955Y-42208962D01*
X87794973Y-42120313D01*
X87946440Y-42090184D01*
X88022173Y-42075120D01*
X88253827Y-42075120D01*
X88329560Y-42090184D01*
G37*
G36*
X93409560Y-42090184D02*
G01*
X93561027Y-42120313D01*
X93775045Y-42208962D01*
X93775046Y-42208963D01*
X93967654Y-42337659D01*
X94131461Y-42501466D01*
X94217258Y-42629871D01*
X94260158Y-42694075D01*
X94348807Y-42908093D01*
X94394000Y-43135294D01*
X94394000Y-43366946D01*
X94348807Y-43594147D01*
X94260158Y-43808165D01*
X94260157Y-43808166D01*
X94131461Y-44000774D01*
X93967654Y-44164581D01*
X93863535Y-44234151D01*
X93775045Y-44293278D01*
X93561027Y-44381927D01*
X93409560Y-44412056D01*
X93333827Y-44427120D01*
X93102173Y-44427120D01*
X93026440Y-44412056D01*
X92874973Y-44381927D01*
X92660955Y-44293278D01*
X92572465Y-44234151D01*
X92468346Y-44164581D01*
X92304539Y-44000774D01*
X92175843Y-43808166D01*
X92175842Y-43808165D01*
X92087193Y-43594147D01*
X92042000Y-43366946D01*
X92042000Y-43135294D01*
X92087193Y-42908093D01*
X92175842Y-42694075D01*
X92218742Y-42629871D01*
X92304539Y-42501466D01*
X92468346Y-42337659D01*
X92660954Y-42208963D01*
X92660955Y-42208962D01*
X92874973Y-42120313D01*
X93026440Y-42090184D01*
X93102173Y-42075120D01*
X93333827Y-42075120D01*
X93409560Y-42090184D01*
G37*
G36*
X105693000Y-42044464D02*
G01*
X105844467Y-42074593D01*
X106058485Y-42163242D01*
X106058486Y-42163243D01*
X106251094Y-42291939D01*
X106414901Y-42455746D01*
X106445450Y-42501466D01*
X106543598Y-42648355D01*
X106632247Y-42862373D01*
X106657862Y-42991149D01*
X106674738Y-43075987D01*
X106677440Y-43089574D01*
X106677440Y-43321226D01*
X106632247Y-43548427D01*
X106543598Y-43762445D01*
X106543597Y-43762446D01*
X106414901Y-43955054D01*
X106251094Y-44118861D01*
X106134210Y-44196960D01*
X106058485Y-44247558D01*
X105844467Y-44336207D01*
X105693000Y-44366336D01*
X105617267Y-44381400D01*
X105385613Y-44381400D01*
X105309880Y-44366336D01*
X105158413Y-44336207D01*
X104944395Y-44247558D01*
X104868670Y-44196960D01*
X104751786Y-44118861D01*
X104587979Y-43955054D01*
X104459283Y-43762446D01*
X104459282Y-43762445D01*
X104370633Y-43548427D01*
X104325440Y-43321226D01*
X104325440Y-43089574D01*
X104328143Y-43075987D01*
X104345018Y-42991149D01*
X104370633Y-42862373D01*
X104459282Y-42648355D01*
X104557430Y-42501466D01*
X104587979Y-42455746D01*
X104751786Y-42291939D01*
X104944394Y-42163243D01*
X104944395Y-42163242D01*
X105158413Y-42074593D01*
X105309880Y-42044464D01*
X105385613Y-42029400D01*
X105617267Y-42029400D01*
X105693000Y-42044464D01*
G37*
G36*
X100613000Y-42044464D02*
G01*
X100764467Y-42074593D01*
X100978485Y-42163242D01*
X100978486Y-42163243D01*
X101171094Y-42291939D01*
X101334901Y-42455746D01*
X101365450Y-42501466D01*
X101463598Y-42648355D01*
X101552247Y-42862373D01*
X101577862Y-42991149D01*
X101594738Y-43075987D01*
X101597440Y-43089574D01*
X101597440Y-43321226D01*
X101552247Y-43548427D01*
X101463598Y-43762445D01*
X101463597Y-43762446D01*
X101334901Y-43955054D01*
X101171094Y-44118861D01*
X101054210Y-44196960D01*
X100978485Y-44247558D01*
X100764467Y-44336207D01*
X100613000Y-44366336D01*
X100537267Y-44381400D01*
X100305613Y-44381400D01*
X100229880Y-44366336D01*
X100078413Y-44336207D01*
X99864395Y-44247558D01*
X99788670Y-44196960D01*
X99671786Y-44118861D01*
X99507979Y-43955054D01*
X99379283Y-43762446D01*
X99379282Y-43762445D01*
X99290633Y-43548427D01*
X99245440Y-43321226D01*
X99245440Y-43089574D01*
X99248143Y-43075987D01*
X99265018Y-42991149D01*
X99290633Y-42862373D01*
X99379282Y-42648355D01*
X99477430Y-42501466D01*
X99507979Y-42455746D01*
X99671786Y-42291939D01*
X99864394Y-42163243D01*
X99864395Y-42163242D01*
X100078413Y-42074593D01*
X100229880Y-42044464D01*
X100305613Y-42029400D01*
X100537267Y-42029400D01*
X100613000Y-42044464D01*
G37*
G36*
X145817380Y-41572024D02*
G01*
X145968847Y-41602153D01*
X146182865Y-41690802D01*
X146182866Y-41690803D01*
X146375474Y-41819499D01*
X146539281Y-41983306D01*
X146600277Y-42074593D01*
X146667978Y-42175915D01*
X146756627Y-42389933D01*
X146769718Y-42455746D01*
X146801820Y-42617133D01*
X146801820Y-42848787D01*
X146799117Y-42862375D01*
X146756627Y-43075987D01*
X146667978Y-43290005D01*
X146667977Y-43290006D01*
X146539281Y-43482614D01*
X146375474Y-43646421D01*
X146247069Y-43732218D01*
X146182865Y-43775118D01*
X145968847Y-43863767D01*
X145817380Y-43893896D01*
X145741647Y-43908960D01*
X145509993Y-43908960D01*
X145434260Y-43893896D01*
X145282793Y-43863767D01*
X145068775Y-43775118D01*
X145004571Y-43732218D01*
X144876166Y-43646421D01*
X144712359Y-43482614D01*
X144583663Y-43290006D01*
X144583662Y-43290005D01*
X144495013Y-43075987D01*
X144452523Y-42862375D01*
X144449820Y-42848787D01*
X144449820Y-42617133D01*
X144481922Y-42455746D01*
X144495013Y-42389933D01*
X144583662Y-42175915D01*
X144651363Y-42074593D01*
X144712359Y-41983306D01*
X144876166Y-41819499D01*
X145068774Y-41690803D01*
X145068775Y-41690802D01*
X145282793Y-41602153D01*
X145434260Y-41572024D01*
X145509993Y-41556960D01*
X145741647Y-41556960D01*
X145817380Y-41572024D01*
G37*
G36*
X150897380Y-41572024D02*
G01*
X151048847Y-41602153D01*
X151262865Y-41690802D01*
X151262866Y-41690803D01*
X151455474Y-41819499D01*
X151619281Y-41983306D01*
X151680277Y-42074593D01*
X151747978Y-42175915D01*
X151836627Y-42389933D01*
X151849718Y-42455746D01*
X151881820Y-42617133D01*
X151881820Y-42848787D01*
X151879117Y-42862375D01*
X151836627Y-43075987D01*
X151747978Y-43290005D01*
X151747977Y-43290006D01*
X151619281Y-43482614D01*
X151455474Y-43646421D01*
X151327069Y-43732218D01*
X151262865Y-43775118D01*
X151048847Y-43863767D01*
X150897380Y-43893896D01*
X150821647Y-43908960D01*
X150589993Y-43908960D01*
X150514260Y-43893896D01*
X150362793Y-43863767D01*
X150148775Y-43775118D01*
X150084571Y-43732218D01*
X149956166Y-43646421D01*
X149792359Y-43482614D01*
X149663663Y-43290006D01*
X149663662Y-43290005D01*
X149575013Y-43075987D01*
X149532523Y-42862375D01*
X149529820Y-42848787D01*
X149529820Y-42617133D01*
X149561922Y-42455746D01*
X149575013Y-42389933D01*
X149663662Y-42175915D01*
X149731363Y-42074593D01*
X149792359Y-41983306D01*
X149956166Y-41819499D01*
X150148774Y-41690803D01*
X150148775Y-41690802D01*
X150362793Y-41602153D01*
X150514260Y-41572024D01*
X150589993Y-41556960D01*
X150821647Y-41556960D01*
X150897380Y-41572024D01*
G37*
M02*
