G04 #@! TF.GenerationSoftware,KiCad,Pcbnew,(5.1.5)-3*
G04 #@! TF.CreationDate,2020-10-28T17:30:45+01:00*
G04 #@! TF.ProjectId,exciter,65786369-7465-4722-9e6b-696361645f70,rev?*
G04 #@! TF.SameCoordinates,Original*
G04 #@! TF.FileFunction,Legend,Top*
G04 #@! TF.FilePolarity,Positive*
%FSLAX46Y46*%
G04 Gerber Fmt 4.6, Leading zero omitted, Abs format (unit mm)*
G04 Created by KiCad (PCBNEW (5.1.5)-3) date 2020-10-28 17:30:45*
%MOMM*%
%LPD*%
G04 APERTURE LIST*
%ADD10C,0.120000*%
%ADD11C,0.150000*%
G04 APERTURE END LIST*
D10*
X142346000Y-86011936D02*
X142346000Y-87216064D01*
X144166000Y-86011936D02*
X144166000Y-87216064D01*
X125889936Y-48916000D02*
X127094064Y-48916000D01*
X125889936Y-47096000D02*
X127094064Y-47096000D01*
X152809000Y-85422000D02*
X153834000Y-85422000D01*
X157579000Y-85422000D02*
X156554000Y-85422000D01*
X152809000Y-85422000D02*
X152809000Y-84397000D01*
X157579000Y-85422000D02*
X157579000Y-84397000D01*
X157579000Y-81202000D02*
X157579000Y-82227000D01*
X157579000Y-81202000D02*
X156554000Y-81202000D01*
X152809000Y-81202000D02*
X153834000Y-81202000D01*
X152809000Y-81202000D02*
X152809000Y-82227000D01*
X131974000Y-47338064D02*
X131974000Y-46133936D01*
X130154000Y-47338064D02*
X130154000Y-46133936D01*
X102118000Y-57853000D02*
X107188000Y-57853000D01*
X102118000Y-67623000D02*
X107188000Y-67623000D01*
X107188000Y-67623000D02*
X107188000Y-57853000D01*
X102118000Y-67623000D02*
X102118000Y-57853000D01*
X97200000Y-61848000D02*
G75*
G03X97200000Y-61848000I-3300000J0D01*
G01*
X101500000Y-61848000D02*
G75*
G03X101500000Y-61848000I-7600000J0D01*
G01*
X104996064Y-68432000D02*
X103791936Y-68432000D01*
X104996064Y-70252000D02*
X103791936Y-70252000D01*
X104996064Y-54970000D02*
X103791936Y-54970000D01*
X104996064Y-56790000D02*
X103791936Y-56790000D01*
X131932000Y-88297936D02*
X131932000Y-89502064D01*
X133752000Y-88297936D02*
X133752000Y-89502064D01*
X133752000Y-83914064D02*
X133752000Y-82709936D01*
X131932000Y-83914064D02*
X131932000Y-82709936D01*
X62516936Y-83968000D02*
X63721064Y-83968000D01*
X62516936Y-82148000D02*
X63721064Y-82148000D01*
X62516936Y-86889000D02*
X63721064Y-86889000D01*
X62516936Y-85069000D02*
X63721064Y-85069000D01*
X63721064Y-88117000D02*
X62516936Y-88117000D01*
X63721064Y-89937000D02*
X62516936Y-89937000D01*
X83217936Y-50313000D02*
X84422064Y-50313000D01*
X83217936Y-48493000D02*
X84422064Y-48493000D01*
X83217936Y-47519000D02*
X84422064Y-47519000D01*
X83217936Y-45699000D02*
X84422064Y-45699000D01*
X84422064Y-43032000D02*
X83217936Y-43032000D01*
X84422064Y-44852000D02*
X83217936Y-44852000D01*
X47585000Y-65752064D02*
X47585000Y-64547936D01*
X45765000Y-65752064D02*
X45765000Y-64547936D01*
X50964880Y-84207000D02*
X50964880Y-82207000D01*
X48724880Y-84207000D02*
X50964880Y-84207000D01*
X47640880Y-72587000D02*
X47733880Y-72681000D01*
X45389880Y-70337000D02*
X45448880Y-70396000D01*
X47880880Y-72417000D02*
X47938880Y-72476000D01*
X45595880Y-70132000D02*
X45688880Y-70226000D01*
X47640880Y-77587000D02*
X47733880Y-77681000D01*
X45389880Y-75337000D02*
X45448880Y-75396000D01*
X47880880Y-77417000D02*
X47938880Y-77476000D01*
X45595880Y-75132000D02*
X45688880Y-75226000D01*
X42604880Y-68847000D02*
X50724880Y-68847000D01*
X42604880Y-83967000D02*
X50724880Y-83967000D01*
X50724880Y-83967000D02*
X50724880Y-68847000D01*
X42604880Y-83967000D02*
X42604880Y-68847000D01*
X44664880Y-83967000D02*
X44664880Y-68847000D01*
X48664880Y-83967000D02*
X48664880Y-68847000D01*
X48344880Y-71407000D02*
G75*
G03X48344880Y-71407000I-1680000J0D01*
G01*
X48344880Y-76407000D02*
G75*
G03X48344880Y-76407000I-1680000J0D01*
G01*
X48345330Y-81377617D02*
G75*
G02X48148880Y-82196000I-1680450J-29383D01*
G01*
X47453968Y-82890953D02*
G75*
G02X45875880Y-82891000I-789088J1483953D01*
G01*
X45180927Y-82196088D02*
G75*
G02X45180880Y-80618000I1483953J789088D01*
G01*
X45875792Y-79923047D02*
G75*
G02X47453880Y-79923000I789088J-1483953D01*
G01*
X48148232Y-80618288D02*
G75*
G02X48344880Y-81407000I-1483352J-788712D01*
G01*
X157205000Y-52102936D02*
X157205000Y-53307064D01*
X159025000Y-52102936D02*
X159025000Y-53307064D01*
X156430020Y-59950080D02*
G75*
G03X156430020Y-59950080I-7600000J0D01*
G01*
X152130020Y-59950080D02*
G75*
G03X152130020Y-59950080I-3300000J0D01*
G01*
X151526156Y-75715540D02*
X152730284Y-75715540D01*
X151526156Y-73895540D02*
X152730284Y-73895540D01*
X149628944Y-81297100D02*
X148424816Y-81297100D01*
X149628944Y-83117100D02*
X148424816Y-83117100D01*
X151526156Y-79578880D02*
X152730284Y-79578880D01*
X151526156Y-77758880D02*
X152730284Y-77758880D01*
X141316660Y-79395760D02*
X141316660Y-73385760D01*
X148136660Y-77145760D02*
X148136660Y-73385760D01*
X141316660Y-73385760D02*
X142576660Y-73385760D01*
X148136660Y-73385760D02*
X146876660Y-73385760D01*
X146365820Y-41592960D02*
X149965820Y-41592960D01*
X146365820Y-48952960D02*
X149965820Y-48952960D01*
X151845820Y-43472960D02*
X151845820Y-47072960D01*
X144485820Y-43472960D02*
X144485820Y-47072960D01*
X152783624Y-70522420D02*
X151579496Y-70522420D01*
X152783624Y-72342420D02*
X151579496Y-72342420D01*
X142600596Y-83170440D02*
X143804724Y-83170440D01*
X142600596Y-81350440D02*
X143804724Y-81350440D01*
X116293816Y-82997720D02*
X117497944Y-82997720D01*
X116293816Y-81177720D02*
X117497944Y-81177720D01*
X116392280Y-56832584D02*
X116392280Y-55628456D01*
X118212280Y-56832584D02*
X118212280Y-55628456D01*
X114336240Y-63441664D02*
X114336240Y-62237536D01*
X112516240Y-63441664D02*
X112516240Y-62237536D01*
X111074880Y-68003336D02*
X111074880Y-69207464D01*
X109254880Y-68003336D02*
X109254880Y-69207464D01*
X81083480Y-82808080D02*
G75*
G03X81083480Y-82808080I-7600000J0D01*
G01*
X76783480Y-82808080D02*
G75*
G03X76783480Y-82808080I-3300000J0D01*
G01*
X111615900Y-89857664D02*
X111615900Y-88653536D01*
X109795900Y-89857664D02*
X109795900Y-88653536D01*
X98884000Y-82932000D02*
G75*
G03X98884000Y-82932000I-3300000J0D01*
G01*
X103184000Y-82932000D02*
G75*
G03X103184000Y-82932000I-7600000J0D01*
G01*
X81091080Y-61880480D02*
G75*
G03X81091080Y-61880480I-7600000J0D01*
G01*
X76791080Y-61880480D02*
G75*
G03X76791080Y-61880480I-3300000J0D01*
G01*
X54372936Y-73490000D02*
X55577064Y-73490000D01*
X54372936Y-75310000D02*
X55577064Y-75310000D01*
X47997524Y-53969240D02*
X46793396Y-53969240D01*
X47997524Y-55789240D02*
X46793396Y-55789240D01*
X46809576Y-48604760D02*
X48013704Y-48604760D01*
X46809576Y-50424760D02*
X48013704Y-50424760D01*
X111130760Y-56807184D02*
X111130760Y-55603056D01*
X109310760Y-56807184D02*
X109310760Y-55603056D01*
X113156320Y-69273504D02*
X113156320Y-68069376D01*
X114976320Y-69273504D02*
X114976320Y-68069376D01*
X116239880Y-69618944D02*
X116239880Y-68414816D01*
X118059880Y-69618944D02*
X118059880Y-68414816D01*
X115276040Y-89842424D02*
X115276040Y-88638296D01*
X113456040Y-89842424D02*
X113456040Y-88638296D01*
X74638760Y-42390520D02*
X78238760Y-42390520D01*
X74638760Y-49750520D02*
X78238760Y-49750520D01*
X80118760Y-44270520D02*
X80118760Y-47870520D01*
X72758760Y-44270520D02*
X72758760Y-47870520D01*
X51946000Y-87227000D02*
X51946000Y-90827000D01*
X59306000Y-87227000D02*
X59306000Y-90827000D01*
X53826000Y-92707000D02*
X57426000Y-92707000D01*
X53826000Y-85347000D02*
X57426000Y-85347000D01*
X86998000Y-43991120D02*
X86998000Y-47591120D01*
X94358000Y-43991120D02*
X94358000Y-47591120D01*
X88878000Y-49471120D02*
X92478000Y-49471120D01*
X88878000Y-42111120D02*
X92478000Y-42111120D01*
X101161440Y-42065400D02*
X104761440Y-42065400D01*
X101161440Y-49425400D02*
X104761440Y-49425400D01*
X106641440Y-43945400D02*
X106641440Y-47545400D01*
X99281440Y-43945400D02*
X99281440Y-47545400D01*
X54737680Y-45549904D02*
X54737680Y-44345776D01*
X52917680Y-45549904D02*
X52917680Y-44345776D01*
X57083280Y-44345776D02*
X57083280Y-45549904D01*
X58903280Y-44345776D02*
X58903280Y-45549904D01*
X47978144Y-60498400D02*
X46774016Y-60498400D01*
X47978144Y-58678400D02*
X46774016Y-58678400D01*
X64694480Y-44345776D02*
X64694480Y-45549904D01*
X62874480Y-44345776D02*
X62874480Y-45549904D01*
X58742496Y-60589840D02*
X59946624Y-60589840D01*
X58742496Y-58769840D02*
X59946624Y-58769840D01*
X54389104Y-63164040D02*
X53184976Y-63164040D01*
X54389104Y-64984040D02*
X53184976Y-64984040D01*
X111201880Y-62196896D02*
X111201880Y-63401024D01*
X109381880Y-62196896D02*
X109381880Y-63401024D01*
X119461960Y-74465096D02*
X119461960Y-75669224D01*
X117641960Y-74465096D02*
X117641960Y-75669224D01*
X112988680Y-55603056D02*
X112988680Y-56807184D01*
X114808680Y-55603056D02*
X114808680Y-56807184D01*
X114400920Y-75669224D02*
X114400920Y-74465096D01*
X116220920Y-75669224D02*
X116220920Y-74465096D01*
X117474320Y-88653536D02*
X117474320Y-89857664D01*
X119294320Y-88653536D02*
X119294320Y-89857664D01*
X60259880Y-70214440D02*
X65300880Y-70214440D01*
X60259880Y-80255440D02*
X65300880Y-80255440D01*
X65300880Y-70214440D02*
X65300880Y-80255440D01*
X60259880Y-79160440D02*
X60259880Y-80255440D01*
X60259880Y-70214440D02*
X60259880Y-71309440D01*
X60259880Y-74161440D02*
X60259880Y-76310440D01*
X61617880Y-73615440D02*
X65300880Y-73615440D01*
X61617880Y-76855440D02*
X65300880Y-76855440D01*
X60259880Y-74161440D02*
X60259880Y-76310440D01*
X65300880Y-73615440D02*
X65300880Y-76855440D01*
X57195000Y-79350000D02*
G75*
G03X57195000Y-79350000I-2120000J0D01*
G01*
X55075000Y-81430000D02*
X55075000Y-77270000D01*
X55035000Y-81430000D02*
X55035000Y-77270000D01*
X54995000Y-81429000D02*
X54995000Y-77271000D01*
X54955000Y-81427000D02*
X54955000Y-77273000D01*
X54915000Y-81424000D02*
X54915000Y-77276000D01*
X54875000Y-81421000D02*
X54875000Y-80190000D01*
X54875000Y-78510000D02*
X54875000Y-77279000D01*
X54835000Y-81417000D02*
X54835000Y-80190000D01*
X54835000Y-78510000D02*
X54835000Y-77283000D01*
X54795000Y-81412000D02*
X54795000Y-80190000D01*
X54795000Y-78510000D02*
X54795000Y-77288000D01*
X54755000Y-81406000D02*
X54755000Y-80190000D01*
X54755000Y-78510000D02*
X54755000Y-77294000D01*
X54715000Y-81400000D02*
X54715000Y-80190000D01*
X54715000Y-78510000D02*
X54715000Y-77300000D01*
X54675000Y-81392000D02*
X54675000Y-80190000D01*
X54675000Y-78510000D02*
X54675000Y-77308000D01*
X54635000Y-81384000D02*
X54635000Y-80190000D01*
X54635000Y-78510000D02*
X54635000Y-77316000D01*
X54595000Y-81375000D02*
X54595000Y-80190000D01*
X54595000Y-78510000D02*
X54595000Y-77325000D01*
X54555000Y-81366000D02*
X54555000Y-80190000D01*
X54555000Y-78510000D02*
X54555000Y-77334000D01*
X54515000Y-81355000D02*
X54515000Y-80190000D01*
X54515000Y-78510000D02*
X54515000Y-77345000D01*
X54475000Y-81344000D02*
X54475000Y-80190000D01*
X54475000Y-78510000D02*
X54475000Y-77356000D01*
X54435000Y-81332000D02*
X54435000Y-80190000D01*
X54435000Y-78510000D02*
X54435000Y-77368000D01*
X54395000Y-81318000D02*
X54395000Y-80190000D01*
X54395000Y-78510000D02*
X54395000Y-77382000D01*
X54354000Y-81304000D02*
X54354000Y-80190000D01*
X54354000Y-78510000D02*
X54354000Y-77396000D01*
X54314000Y-81290000D02*
X54314000Y-80190000D01*
X54314000Y-78510000D02*
X54314000Y-77410000D01*
X54274000Y-81274000D02*
X54274000Y-80190000D01*
X54274000Y-78510000D02*
X54274000Y-77426000D01*
X54234000Y-81257000D02*
X54234000Y-80190000D01*
X54234000Y-78510000D02*
X54234000Y-77443000D01*
X54194000Y-81239000D02*
X54194000Y-80190000D01*
X54194000Y-78510000D02*
X54194000Y-77461000D01*
X54154000Y-81220000D02*
X54154000Y-80190000D01*
X54154000Y-78510000D02*
X54154000Y-77480000D01*
X54114000Y-81201000D02*
X54114000Y-80190000D01*
X54114000Y-78510000D02*
X54114000Y-77499000D01*
X54074000Y-81180000D02*
X54074000Y-80190000D01*
X54074000Y-78510000D02*
X54074000Y-77520000D01*
X54034000Y-81158000D02*
X54034000Y-80190000D01*
X54034000Y-78510000D02*
X54034000Y-77542000D01*
X53994000Y-81135000D02*
X53994000Y-80190000D01*
X53994000Y-78510000D02*
X53994000Y-77565000D01*
X53954000Y-81110000D02*
X53954000Y-80190000D01*
X53954000Y-78510000D02*
X53954000Y-77590000D01*
X53914000Y-81085000D02*
X53914000Y-80190000D01*
X53914000Y-78510000D02*
X53914000Y-77615000D01*
X53874000Y-81058000D02*
X53874000Y-80190000D01*
X53874000Y-78510000D02*
X53874000Y-77642000D01*
X53834000Y-81030000D02*
X53834000Y-80190000D01*
X53834000Y-78510000D02*
X53834000Y-77670000D01*
X53794000Y-81000000D02*
X53794000Y-80190000D01*
X53794000Y-78510000D02*
X53794000Y-77700000D01*
X53754000Y-80969000D02*
X53754000Y-80190000D01*
X53754000Y-78510000D02*
X53754000Y-77731000D01*
X53714000Y-80937000D02*
X53714000Y-80190000D01*
X53714000Y-78510000D02*
X53714000Y-77763000D01*
X53674000Y-80902000D02*
X53674000Y-80190000D01*
X53674000Y-78510000D02*
X53674000Y-77798000D01*
X53634000Y-80866000D02*
X53634000Y-80190000D01*
X53634000Y-78510000D02*
X53634000Y-77834000D01*
X53594000Y-80828000D02*
X53594000Y-80190000D01*
X53594000Y-78510000D02*
X53594000Y-77872000D01*
X53554000Y-80788000D02*
X53554000Y-80190000D01*
X53554000Y-78510000D02*
X53554000Y-77912000D01*
X53514000Y-80746000D02*
X53514000Y-80190000D01*
X53514000Y-78510000D02*
X53514000Y-77954000D01*
X53474000Y-80701000D02*
X53474000Y-80190000D01*
X53474000Y-78510000D02*
X53474000Y-77999000D01*
X53434000Y-80654000D02*
X53434000Y-80190000D01*
X53434000Y-78510000D02*
X53434000Y-78046000D01*
X53394000Y-80604000D02*
X53394000Y-80190000D01*
X53394000Y-78510000D02*
X53394000Y-78096000D01*
X53354000Y-80550000D02*
X53354000Y-80190000D01*
X53354000Y-78510000D02*
X53354000Y-78150000D01*
X53314000Y-80492000D02*
X53314000Y-80190000D01*
X53314000Y-78510000D02*
X53314000Y-78208000D01*
X53274000Y-80430000D02*
X53274000Y-80190000D01*
X53274000Y-78510000D02*
X53274000Y-78270000D01*
X53234000Y-80363000D02*
X53234000Y-78337000D01*
X53194000Y-80290000D02*
X53194000Y-78410000D01*
X53154000Y-80209000D02*
X53154000Y-78491000D01*
X53114000Y-80118000D02*
X53114000Y-78582000D01*
X53074000Y-80014000D02*
X53074000Y-78686000D01*
X53034000Y-79887000D02*
X53034000Y-78813000D01*
X52994000Y-79720000D02*
X52994000Y-78980000D01*
X57344801Y-80545000D02*
X56944801Y-80545000D01*
X57144801Y-80745000D02*
X57144801Y-80345000D01*
X62050200Y-50918919D02*
X61650200Y-50918919D01*
X61850200Y-50718919D02*
X61850200Y-51118919D01*
X61025200Y-55069720D02*
X60285200Y-55069720D01*
X61192200Y-55029720D02*
X60118200Y-55029720D01*
X61319200Y-54989720D02*
X59991200Y-54989720D01*
X61423200Y-54949720D02*
X59887200Y-54949720D01*
X61514200Y-54909720D02*
X59796200Y-54909720D01*
X61595200Y-54869720D02*
X59715200Y-54869720D01*
X61668200Y-54829720D02*
X59642200Y-54829720D01*
X59815200Y-54789720D02*
X59575200Y-54789720D01*
X61735200Y-54789720D02*
X61495200Y-54789720D01*
X59815200Y-54749720D02*
X59513200Y-54749720D01*
X61797200Y-54749720D02*
X61495200Y-54749720D01*
X59815200Y-54709720D02*
X59455200Y-54709720D01*
X61855200Y-54709720D02*
X61495200Y-54709720D01*
X59815200Y-54669720D02*
X59401200Y-54669720D01*
X61909200Y-54669720D02*
X61495200Y-54669720D01*
X59815200Y-54629720D02*
X59351200Y-54629720D01*
X61959200Y-54629720D02*
X61495200Y-54629720D01*
X59815200Y-54589720D02*
X59304200Y-54589720D01*
X62006200Y-54589720D02*
X61495200Y-54589720D01*
X59815200Y-54549720D02*
X59259200Y-54549720D01*
X62051200Y-54549720D02*
X61495200Y-54549720D01*
X59815200Y-54509720D02*
X59217200Y-54509720D01*
X62093200Y-54509720D02*
X61495200Y-54509720D01*
X59815200Y-54469720D02*
X59177200Y-54469720D01*
X62133200Y-54469720D02*
X61495200Y-54469720D01*
X59815200Y-54429720D02*
X59139200Y-54429720D01*
X62171200Y-54429720D02*
X61495200Y-54429720D01*
X59815200Y-54389720D02*
X59103200Y-54389720D01*
X62207200Y-54389720D02*
X61495200Y-54389720D01*
X59815200Y-54349720D02*
X59068200Y-54349720D01*
X62242200Y-54349720D02*
X61495200Y-54349720D01*
X59815200Y-54309720D02*
X59036200Y-54309720D01*
X62274200Y-54309720D02*
X61495200Y-54309720D01*
X59815200Y-54269720D02*
X59005200Y-54269720D01*
X62305200Y-54269720D02*
X61495200Y-54269720D01*
X59815200Y-54229720D02*
X58975200Y-54229720D01*
X62335200Y-54229720D02*
X61495200Y-54229720D01*
X59815200Y-54189720D02*
X58947200Y-54189720D01*
X62363200Y-54189720D02*
X61495200Y-54189720D01*
X59815200Y-54149720D02*
X58920200Y-54149720D01*
X62390200Y-54149720D02*
X61495200Y-54149720D01*
X59815200Y-54109720D02*
X58895200Y-54109720D01*
X62415200Y-54109720D02*
X61495200Y-54109720D01*
X59815200Y-54069720D02*
X58870200Y-54069720D01*
X62440200Y-54069720D02*
X61495200Y-54069720D01*
X59815200Y-54029720D02*
X58847200Y-54029720D01*
X62463200Y-54029720D02*
X61495200Y-54029720D01*
X59815200Y-53989720D02*
X58825200Y-53989720D01*
X62485200Y-53989720D02*
X61495200Y-53989720D01*
X59815200Y-53949720D02*
X58804200Y-53949720D01*
X62506200Y-53949720D02*
X61495200Y-53949720D01*
X59815200Y-53909720D02*
X58785200Y-53909720D01*
X62525200Y-53909720D02*
X61495200Y-53909720D01*
X59815200Y-53869720D02*
X58766200Y-53869720D01*
X62544200Y-53869720D02*
X61495200Y-53869720D01*
X59815200Y-53829720D02*
X58748200Y-53829720D01*
X62562200Y-53829720D02*
X61495200Y-53829720D01*
X59815200Y-53789720D02*
X58731200Y-53789720D01*
X62579200Y-53789720D02*
X61495200Y-53789720D01*
X59815200Y-53749720D02*
X58715200Y-53749720D01*
X62595200Y-53749720D02*
X61495200Y-53749720D01*
X59815200Y-53709720D02*
X58701200Y-53709720D01*
X62609200Y-53709720D02*
X61495200Y-53709720D01*
X59815200Y-53668720D02*
X58687200Y-53668720D01*
X62623200Y-53668720D02*
X61495200Y-53668720D01*
X59815200Y-53628720D02*
X58673200Y-53628720D01*
X62637200Y-53628720D02*
X61495200Y-53628720D01*
X59815200Y-53588720D02*
X58661200Y-53588720D01*
X62649200Y-53588720D02*
X61495200Y-53588720D01*
X59815200Y-53548720D02*
X58650200Y-53548720D01*
X62660200Y-53548720D02*
X61495200Y-53548720D01*
X59815200Y-53508720D02*
X58639200Y-53508720D01*
X62671200Y-53508720D02*
X61495200Y-53508720D01*
X59815200Y-53468720D02*
X58630200Y-53468720D01*
X62680200Y-53468720D02*
X61495200Y-53468720D01*
X59815200Y-53428720D02*
X58621200Y-53428720D01*
X62689200Y-53428720D02*
X61495200Y-53428720D01*
X59815200Y-53388720D02*
X58613200Y-53388720D01*
X62697200Y-53388720D02*
X61495200Y-53388720D01*
X59815200Y-53348720D02*
X58605200Y-53348720D01*
X62705200Y-53348720D02*
X61495200Y-53348720D01*
X59815200Y-53308720D02*
X58599200Y-53308720D01*
X62711200Y-53308720D02*
X61495200Y-53308720D01*
X59815200Y-53268720D02*
X58593200Y-53268720D01*
X62717200Y-53268720D02*
X61495200Y-53268720D01*
X59815200Y-53228720D02*
X58588200Y-53228720D01*
X62722200Y-53228720D02*
X61495200Y-53228720D01*
X59815200Y-53188720D02*
X58584200Y-53188720D01*
X62726200Y-53188720D02*
X61495200Y-53188720D01*
X62729200Y-53148720D02*
X58581200Y-53148720D01*
X62732200Y-53108720D02*
X58578200Y-53108720D01*
X62734200Y-53068720D02*
X58576200Y-53068720D01*
X62735200Y-53028720D02*
X58575200Y-53028720D01*
X62735200Y-52988720D02*
X58575200Y-52988720D01*
X62775200Y-52988720D02*
G75*
G03X62775200Y-52988720I-2120000J0D01*
G01*
X64199520Y-65390080D02*
G75*
G03X64199520Y-65390080I-3270000J0D01*
G01*
X64159520Y-65390080D02*
X57699520Y-65390080D01*
X64159520Y-65430080D02*
X57699520Y-65430080D01*
X64159520Y-65470080D02*
X57699520Y-65470080D01*
X64157520Y-65510080D02*
X57701520Y-65510080D01*
X64156520Y-65550080D02*
X57702520Y-65550080D01*
X64153520Y-65590080D02*
X57705520Y-65590080D01*
X64151520Y-65630080D02*
X61969520Y-65630080D01*
X59889520Y-65630080D02*
X57707520Y-65630080D01*
X64147520Y-65670080D02*
X61969520Y-65670080D01*
X59889520Y-65670080D02*
X57711520Y-65670080D01*
X64144520Y-65710080D02*
X61969520Y-65710080D01*
X59889520Y-65710080D02*
X57714520Y-65710080D01*
X64140520Y-65750080D02*
X61969520Y-65750080D01*
X59889520Y-65750080D02*
X57718520Y-65750080D01*
X64135520Y-65790080D02*
X61969520Y-65790080D01*
X59889520Y-65790080D02*
X57723520Y-65790080D01*
X64130520Y-65830080D02*
X61969520Y-65830080D01*
X59889520Y-65830080D02*
X57728520Y-65830080D01*
X64124520Y-65870080D02*
X61969520Y-65870080D01*
X59889520Y-65870080D02*
X57734520Y-65870080D01*
X64118520Y-65910080D02*
X61969520Y-65910080D01*
X59889520Y-65910080D02*
X57740520Y-65910080D01*
X64111520Y-65950080D02*
X61969520Y-65950080D01*
X59889520Y-65950080D02*
X57747520Y-65950080D01*
X64104520Y-65990080D02*
X61969520Y-65990080D01*
X59889520Y-65990080D02*
X57754520Y-65990080D01*
X64096520Y-66030080D02*
X61969520Y-66030080D01*
X59889520Y-66030080D02*
X57762520Y-66030080D01*
X64088520Y-66070080D02*
X61969520Y-66070080D01*
X59889520Y-66070080D02*
X57770520Y-66070080D01*
X64079520Y-66111080D02*
X61969520Y-66111080D01*
X59889520Y-66111080D02*
X57779520Y-66111080D01*
X64070520Y-66151080D02*
X61969520Y-66151080D01*
X59889520Y-66151080D02*
X57788520Y-66151080D01*
X64060520Y-66191080D02*
X61969520Y-66191080D01*
X59889520Y-66191080D02*
X57798520Y-66191080D01*
X64050520Y-66231080D02*
X61969520Y-66231080D01*
X59889520Y-66231080D02*
X57808520Y-66231080D01*
X64039520Y-66271080D02*
X61969520Y-66271080D01*
X59889520Y-66271080D02*
X57819520Y-66271080D01*
X64027520Y-66311080D02*
X61969520Y-66311080D01*
X59889520Y-66311080D02*
X57831520Y-66311080D01*
X64015520Y-66351080D02*
X61969520Y-66351080D01*
X59889520Y-66351080D02*
X57843520Y-66351080D01*
X64003520Y-66391080D02*
X61969520Y-66391080D01*
X59889520Y-66391080D02*
X57855520Y-66391080D01*
X63990520Y-66431080D02*
X61969520Y-66431080D01*
X59889520Y-66431080D02*
X57868520Y-66431080D01*
X63976520Y-66471080D02*
X61969520Y-66471080D01*
X59889520Y-66471080D02*
X57882520Y-66471080D01*
X63962520Y-66511080D02*
X61969520Y-66511080D01*
X59889520Y-66511080D02*
X57896520Y-66511080D01*
X63947520Y-66551080D02*
X61969520Y-66551080D01*
X59889520Y-66551080D02*
X57911520Y-66551080D01*
X63931520Y-66591080D02*
X61969520Y-66591080D01*
X59889520Y-66591080D02*
X57927520Y-66591080D01*
X63915520Y-66631080D02*
X61969520Y-66631080D01*
X59889520Y-66631080D02*
X57943520Y-66631080D01*
X63899520Y-66671080D02*
X61969520Y-66671080D01*
X59889520Y-66671080D02*
X57959520Y-66671080D01*
X63881520Y-66711080D02*
X61969520Y-66711080D01*
X59889520Y-66711080D02*
X57977520Y-66711080D01*
X63863520Y-66751080D02*
X61969520Y-66751080D01*
X59889520Y-66751080D02*
X57995520Y-66751080D01*
X63845520Y-66791080D02*
X61969520Y-66791080D01*
X59889520Y-66791080D02*
X58013520Y-66791080D01*
X63825520Y-66831080D02*
X61969520Y-66831080D01*
X59889520Y-66831080D02*
X58033520Y-66831080D01*
X63805520Y-66871080D02*
X61969520Y-66871080D01*
X59889520Y-66871080D02*
X58053520Y-66871080D01*
X63785520Y-66911080D02*
X61969520Y-66911080D01*
X59889520Y-66911080D02*
X58073520Y-66911080D01*
X63763520Y-66951080D02*
X61969520Y-66951080D01*
X59889520Y-66951080D02*
X58095520Y-66951080D01*
X63741520Y-66991080D02*
X61969520Y-66991080D01*
X59889520Y-66991080D02*
X58117520Y-66991080D01*
X63719520Y-67031080D02*
X61969520Y-67031080D01*
X59889520Y-67031080D02*
X58139520Y-67031080D01*
X63695520Y-67071080D02*
X61969520Y-67071080D01*
X59889520Y-67071080D02*
X58163520Y-67071080D01*
X63671520Y-67111080D02*
X61969520Y-67111080D01*
X59889520Y-67111080D02*
X58187520Y-67111080D01*
X63645520Y-67151080D02*
X61969520Y-67151080D01*
X59889520Y-67151080D02*
X58213520Y-67151080D01*
X63619520Y-67191080D02*
X61969520Y-67191080D01*
X59889520Y-67191080D02*
X58239520Y-67191080D01*
X63593520Y-67231080D02*
X61969520Y-67231080D01*
X59889520Y-67231080D02*
X58265520Y-67231080D01*
X63565520Y-67271080D02*
X61969520Y-67271080D01*
X59889520Y-67271080D02*
X58293520Y-67271080D01*
X63536520Y-67311080D02*
X61969520Y-67311080D01*
X59889520Y-67311080D02*
X58322520Y-67311080D01*
X63507520Y-67351080D02*
X61969520Y-67351080D01*
X59889520Y-67351080D02*
X58351520Y-67351080D01*
X63477520Y-67391080D02*
X61969520Y-67391080D01*
X59889520Y-67391080D02*
X58381520Y-67391080D01*
X63445520Y-67431080D02*
X61969520Y-67431080D01*
X59889520Y-67431080D02*
X58413520Y-67431080D01*
X63413520Y-67471080D02*
X61969520Y-67471080D01*
X59889520Y-67471080D02*
X58445520Y-67471080D01*
X63379520Y-67511080D02*
X61969520Y-67511080D01*
X59889520Y-67511080D02*
X58479520Y-67511080D01*
X63345520Y-67551080D02*
X61969520Y-67551080D01*
X59889520Y-67551080D02*
X58513520Y-67551080D01*
X63309520Y-67591080D02*
X61969520Y-67591080D01*
X59889520Y-67591080D02*
X58549520Y-67591080D01*
X63272520Y-67631080D02*
X61969520Y-67631080D01*
X59889520Y-67631080D02*
X58586520Y-67631080D01*
X63234520Y-67671080D02*
X61969520Y-67671080D01*
X59889520Y-67671080D02*
X58624520Y-67671080D01*
X63194520Y-67711080D02*
X58664520Y-67711080D01*
X63153520Y-67751080D02*
X58705520Y-67751080D01*
X63111520Y-67791080D02*
X58747520Y-67791080D01*
X63066520Y-67831080D02*
X58792520Y-67831080D01*
X63021520Y-67871080D02*
X58837520Y-67871080D01*
X62973520Y-67911080D02*
X58885520Y-67911080D01*
X62924520Y-67951080D02*
X58934520Y-67951080D01*
X62873520Y-67991080D02*
X58985520Y-67991080D01*
X62819520Y-68031080D02*
X59039520Y-68031080D01*
X62763520Y-68071080D02*
X59095520Y-68071080D01*
X62705520Y-68111080D02*
X59153520Y-68111080D01*
X62643520Y-68151080D02*
X59215520Y-68151080D01*
X62579520Y-68191080D02*
X59279520Y-68191080D01*
X62510520Y-68231080D02*
X59348520Y-68231080D01*
X62438520Y-68271080D02*
X59420520Y-68271080D01*
X62361520Y-68311080D02*
X59497520Y-68311080D01*
X62279520Y-68351080D02*
X59579520Y-68351080D01*
X62191520Y-68391080D02*
X59667520Y-68391080D01*
X62094520Y-68431080D02*
X59764520Y-68431080D01*
X61988520Y-68471080D02*
X59870520Y-68471080D01*
X61869520Y-68511080D02*
X59989520Y-68511080D01*
X61731520Y-68551080D02*
X60127520Y-68551080D01*
X61562520Y-68591080D02*
X60296520Y-68591080D01*
X61331520Y-68631080D02*
X60527520Y-68631080D01*
X62768520Y-61889839D02*
X62768520Y-62519839D01*
X63083520Y-62204839D02*
X62453520Y-62204839D01*
X56587000Y-69966840D02*
G75*
G03X56587000Y-69966840I-2120000J0D01*
G01*
X54467000Y-67886840D02*
X54467000Y-72046840D01*
X54507000Y-67886840D02*
X54507000Y-72046840D01*
X54547000Y-67887840D02*
X54547000Y-72045840D01*
X54587000Y-67889840D02*
X54587000Y-72043840D01*
X54627000Y-67892840D02*
X54627000Y-72040840D01*
X54667000Y-67895840D02*
X54667000Y-69126840D01*
X54667000Y-70806840D02*
X54667000Y-72037840D01*
X54707000Y-67899840D02*
X54707000Y-69126840D01*
X54707000Y-70806840D02*
X54707000Y-72033840D01*
X54747000Y-67904840D02*
X54747000Y-69126840D01*
X54747000Y-70806840D02*
X54747000Y-72028840D01*
X54787000Y-67910840D02*
X54787000Y-69126840D01*
X54787000Y-70806840D02*
X54787000Y-72022840D01*
X54827000Y-67916840D02*
X54827000Y-69126840D01*
X54827000Y-70806840D02*
X54827000Y-72016840D01*
X54867000Y-67924840D02*
X54867000Y-69126840D01*
X54867000Y-70806840D02*
X54867000Y-72008840D01*
X54907000Y-67932840D02*
X54907000Y-69126840D01*
X54907000Y-70806840D02*
X54907000Y-72000840D01*
X54947000Y-67941840D02*
X54947000Y-69126840D01*
X54947000Y-70806840D02*
X54947000Y-71991840D01*
X54987000Y-67950840D02*
X54987000Y-69126840D01*
X54987000Y-70806840D02*
X54987000Y-71982840D01*
X55027000Y-67961840D02*
X55027000Y-69126840D01*
X55027000Y-70806840D02*
X55027000Y-71971840D01*
X55067000Y-67972840D02*
X55067000Y-69126840D01*
X55067000Y-70806840D02*
X55067000Y-71960840D01*
X55107000Y-67984840D02*
X55107000Y-69126840D01*
X55107000Y-70806840D02*
X55107000Y-71948840D01*
X55147000Y-67998840D02*
X55147000Y-69126840D01*
X55147000Y-70806840D02*
X55147000Y-71934840D01*
X55188000Y-68012840D02*
X55188000Y-69126840D01*
X55188000Y-70806840D02*
X55188000Y-71920840D01*
X55228000Y-68026840D02*
X55228000Y-69126840D01*
X55228000Y-70806840D02*
X55228000Y-71906840D01*
X55268000Y-68042840D02*
X55268000Y-69126840D01*
X55268000Y-70806840D02*
X55268000Y-71890840D01*
X55308000Y-68059840D02*
X55308000Y-69126840D01*
X55308000Y-70806840D02*
X55308000Y-71873840D01*
X55348000Y-68077840D02*
X55348000Y-69126840D01*
X55348000Y-70806840D02*
X55348000Y-71855840D01*
X55388000Y-68096840D02*
X55388000Y-69126840D01*
X55388000Y-70806840D02*
X55388000Y-71836840D01*
X55428000Y-68115840D02*
X55428000Y-69126840D01*
X55428000Y-70806840D02*
X55428000Y-71817840D01*
X55468000Y-68136840D02*
X55468000Y-69126840D01*
X55468000Y-70806840D02*
X55468000Y-71796840D01*
X55508000Y-68158840D02*
X55508000Y-69126840D01*
X55508000Y-70806840D02*
X55508000Y-71774840D01*
X55548000Y-68181840D02*
X55548000Y-69126840D01*
X55548000Y-70806840D02*
X55548000Y-71751840D01*
X55588000Y-68206840D02*
X55588000Y-69126840D01*
X55588000Y-70806840D02*
X55588000Y-71726840D01*
X55628000Y-68231840D02*
X55628000Y-69126840D01*
X55628000Y-70806840D02*
X55628000Y-71701840D01*
X55668000Y-68258840D02*
X55668000Y-69126840D01*
X55668000Y-70806840D02*
X55668000Y-71674840D01*
X55708000Y-68286840D02*
X55708000Y-69126840D01*
X55708000Y-70806840D02*
X55708000Y-71646840D01*
X55748000Y-68316840D02*
X55748000Y-69126840D01*
X55748000Y-70806840D02*
X55748000Y-71616840D01*
X55788000Y-68347840D02*
X55788000Y-69126840D01*
X55788000Y-70806840D02*
X55788000Y-71585840D01*
X55828000Y-68379840D02*
X55828000Y-69126840D01*
X55828000Y-70806840D02*
X55828000Y-71553840D01*
X55868000Y-68414840D02*
X55868000Y-69126840D01*
X55868000Y-70806840D02*
X55868000Y-71518840D01*
X55908000Y-68450840D02*
X55908000Y-69126840D01*
X55908000Y-70806840D02*
X55908000Y-71482840D01*
X55948000Y-68488840D02*
X55948000Y-69126840D01*
X55948000Y-70806840D02*
X55948000Y-71444840D01*
X55988000Y-68528840D02*
X55988000Y-69126840D01*
X55988000Y-70806840D02*
X55988000Y-71404840D01*
X56028000Y-68570840D02*
X56028000Y-69126840D01*
X56028000Y-70806840D02*
X56028000Y-71362840D01*
X56068000Y-68615840D02*
X56068000Y-69126840D01*
X56068000Y-70806840D02*
X56068000Y-71317840D01*
X56108000Y-68662840D02*
X56108000Y-69126840D01*
X56108000Y-70806840D02*
X56108000Y-71270840D01*
X56148000Y-68712840D02*
X56148000Y-69126840D01*
X56148000Y-70806840D02*
X56148000Y-71220840D01*
X56188000Y-68766840D02*
X56188000Y-69126840D01*
X56188000Y-70806840D02*
X56188000Y-71166840D01*
X56228000Y-68824840D02*
X56228000Y-69126840D01*
X56228000Y-70806840D02*
X56228000Y-71108840D01*
X56268000Y-68886840D02*
X56268000Y-69126840D01*
X56268000Y-70806840D02*
X56268000Y-71046840D01*
X56308000Y-68953840D02*
X56308000Y-70979840D01*
X56348000Y-69026840D02*
X56348000Y-70906840D01*
X56388000Y-69107840D02*
X56388000Y-70825840D01*
X56428000Y-69198840D02*
X56428000Y-70734840D01*
X56468000Y-69302840D02*
X56468000Y-70630840D01*
X56508000Y-69429840D02*
X56508000Y-70503840D01*
X56548000Y-69596840D02*
X56548000Y-70336840D01*
X52197199Y-68771840D02*
X52597199Y-68771840D01*
X52397199Y-68571840D02*
X52397199Y-68971840D01*
X84892000Y-58930000D02*
X84892000Y-60390000D01*
X81732000Y-58930000D02*
X81732000Y-61090000D01*
X81732000Y-58930000D02*
X82662000Y-58930000D01*
X84892000Y-58930000D02*
X83962000Y-58930000D01*
X81732000Y-66546000D02*
X82662000Y-66546000D01*
X84892000Y-66546000D02*
X83962000Y-66546000D01*
X84892000Y-66546000D02*
X84892000Y-64386000D01*
X81732000Y-66546000D02*
X81732000Y-65086000D01*
X83002000Y-86612000D02*
X83002000Y-85152000D01*
X86162000Y-86612000D02*
X86162000Y-84452000D01*
X86162000Y-86612000D02*
X85232000Y-86612000D01*
X83002000Y-86612000D02*
X83932000Y-86612000D01*
X86162000Y-77980000D02*
X85232000Y-77980000D01*
X83002000Y-77980000D02*
X83932000Y-77980000D01*
X83002000Y-77980000D02*
X83002000Y-80140000D01*
X86162000Y-77980000D02*
X86162000Y-79440000D01*
X66831800Y-44264496D02*
X66831800Y-45468624D01*
X68651800Y-44264496D02*
X68651800Y-45468624D01*
X124220560Y-88648456D02*
X124220560Y-89852584D01*
X126040560Y-88648456D02*
X126040560Y-89852584D01*
X130439840Y-53362776D02*
X130439840Y-54566904D01*
X128619840Y-53362776D02*
X128619840Y-54566904D01*
X134163480Y-54622784D02*
X134163480Y-53418656D01*
X132343480Y-54622784D02*
X132343480Y-53418656D01*
X133471240Y-61231864D02*
X133471240Y-60027736D01*
X135291240Y-61231864D02*
X135291240Y-60027736D01*
X124235800Y-83939464D02*
X124235800Y-82735336D01*
X126055800Y-83939464D02*
X126055800Y-82735336D01*
X125974520Y-76746016D02*
X125974520Y-77950144D01*
X124154520Y-76746016D02*
X124154520Y-77950144D01*
X129034624Y-66680760D02*
X127830496Y-66680760D01*
X129034624Y-64860760D02*
X127830496Y-64860760D01*
X130521120Y-82694696D02*
X130521120Y-83898824D01*
X128701120Y-82694696D02*
X128701120Y-83898824D01*
X125852600Y-70456976D02*
X125852600Y-71661104D01*
X124032600Y-70456976D02*
X124032600Y-71661104D01*
X130937680Y-61130264D02*
X130937680Y-59926136D01*
X129117680Y-61130264D02*
X129117680Y-59926136D01*
X124891120Y-53418656D02*
X124891120Y-54622784D01*
X126711120Y-53418656D02*
X126711120Y-54622784D01*
X109976000Y-49669480D02*
X111976000Y-49669480D01*
X109976000Y-47429480D02*
X109976000Y-49669480D01*
X116596000Y-46345480D02*
X116502000Y-46438480D01*
X118846000Y-44094480D02*
X118787000Y-44153480D01*
X116766000Y-46585480D02*
X116707000Y-46643480D01*
X119051000Y-44300480D02*
X118957000Y-44393480D01*
X120336000Y-41309480D02*
X120336000Y-49429480D01*
X110216000Y-41309480D02*
X110216000Y-49429480D01*
X110216000Y-49429480D02*
X120336000Y-49429480D01*
X110216000Y-41309480D02*
X120336000Y-41309480D01*
X110216000Y-43369480D02*
X120336000Y-43369480D01*
X110216000Y-47369480D02*
X120336000Y-47369480D01*
X119456000Y-45369480D02*
G75*
G03X119456000Y-45369480I-1680000J0D01*
G01*
X112805383Y-47049930D02*
G75*
G02X111987000Y-46853480I-29383J1680450D01*
G01*
X111292047Y-46158568D02*
G75*
G02X111292000Y-44580480I1483953J789088D01*
G01*
X111986912Y-43885527D02*
G75*
G02X113565000Y-43885480I789088J-1483953D01*
G01*
X114259953Y-44580392D02*
G75*
G02X114260000Y-46158480I-1483953J-789088D01*
G01*
X113564712Y-46852832D02*
G75*
G02X112776000Y-47049480I-788712J1483352D01*
G01*
X52918240Y-53144960D02*
X53848240Y-53144960D01*
X56078240Y-53144960D02*
X55148240Y-53144960D01*
X56078240Y-53144960D02*
X56078240Y-50984960D01*
X52918240Y-53144960D02*
X52918240Y-51684960D01*
X119212480Y-61947520D02*
X119212480Y-63407520D01*
X116052480Y-61947520D02*
X116052480Y-64107520D01*
X116052480Y-61947520D02*
X116982480Y-61947520D01*
X119212480Y-61947520D02*
X118282480Y-61947520D01*
X112420520Y-74398600D02*
X111490520Y-74398600D01*
X109260520Y-74398600D02*
X110190520Y-74398600D01*
X109260520Y-74398600D02*
X109260520Y-76558600D01*
X112420520Y-74398600D02*
X112420520Y-75858600D01*
X112659280Y-82181160D02*
X112659280Y-83641160D01*
X109499280Y-82181160D02*
X109499280Y-84341160D01*
X109499280Y-82181160D02*
X110429280Y-82181160D01*
X112659280Y-82181160D02*
X111729280Y-82181160D01*
X131399400Y-76379800D02*
X130469400Y-76379800D01*
X128239400Y-76379800D02*
X129169400Y-76379800D01*
X128239400Y-76379800D02*
X128239400Y-78539800D01*
X131399400Y-76379800D02*
X131399400Y-77839800D01*
X129832640Y-71694160D02*
X128372640Y-71694160D01*
X129832640Y-68534160D02*
X127672640Y-68534160D01*
X129832640Y-68534160D02*
X129832640Y-69464160D01*
X129832640Y-71694160D02*
X129832640Y-70764160D01*
X124939520Y-59192040D02*
X126399520Y-59192040D01*
X124939520Y-62352040D02*
X127099520Y-62352040D01*
X124939520Y-62352040D02*
X124939520Y-61422040D01*
X124939520Y-59192040D02*
X124939520Y-60122040D01*
D11*
X145528380Y-87256857D02*
X145052190Y-87590190D01*
X145528380Y-87828285D02*
X144528380Y-87828285D01*
X144528380Y-87447333D01*
X144576000Y-87352095D01*
X144623619Y-87304476D01*
X144718857Y-87256857D01*
X144861714Y-87256857D01*
X144956952Y-87304476D01*
X145004571Y-87352095D01*
X145052190Y-87447333D01*
X145052190Y-87828285D01*
X144528380Y-86923523D02*
X144528380Y-86304476D01*
X144909333Y-86637809D01*
X144909333Y-86494952D01*
X144956952Y-86399714D01*
X145004571Y-86352095D01*
X145099809Y-86304476D01*
X145337904Y-86304476D01*
X145433142Y-86352095D01*
X145480761Y-86399714D01*
X145528380Y-86494952D01*
X145528380Y-86780666D01*
X145480761Y-86875904D01*
X145433142Y-86923523D01*
X144528380Y-85971142D02*
X144528380Y-85304476D01*
X145528380Y-85733047D01*
X125849142Y-46638380D02*
X125515809Y-46162190D01*
X125277714Y-46638380D02*
X125277714Y-45638380D01*
X125658666Y-45638380D01*
X125753904Y-45686000D01*
X125801523Y-45733619D01*
X125849142Y-45828857D01*
X125849142Y-45971714D01*
X125801523Y-46066952D01*
X125753904Y-46114571D01*
X125658666Y-46162190D01*
X125277714Y-46162190D01*
X126182476Y-45638380D02*
X126801523Y-45638380D01*
X126468190Y-46019333D01*
X126611047Y-46019333D01*
X126706285Y-46066952D01*
X126753904Y-46114571D01*
X126801523Y-46209809D01*
X126801523Y-46447904D01*
X126753904Y-46543142D01*
X126706285Y-46590761D01*
X126611047Y-46638380D01*
X126325333Y-46638380D01*
X126230095Y-46590761D01*
X126182476Y-46543142D01*
X127706285Y-45638380D02*
X127230095Y-45638380D01*
X127182476Y-46114571D01*
X127230095Y-46066952D01*
X127325333Y-46019333D01*
X127563428Y-46019333D01*
X127658666Y-46066952D01*
X127706285Y-46114571D01*
X127753904Y-46209809D01*
X127753904Y-46447904D01*
X127706285Y-46543142D01*
X127658666Y-46590761D01*
X127563428Y-46638380D01*
X127325333Y-46638380D01*
X127230095Y-46590761D01*
X127182476Y-46543142D01*
X155027333Y-86864380D02*
X154551142Y-86864380D01*
X154551142Y-85864380D01*
X155884476Y-86864380D02*
X155313047Y-86864380D01*
X155598761Y-86864380D02*
X155598761Y-85864380D01*
X155503523Y-86007238D01*
X155408285Y-86102476D01*
X155313047Y-86150095D01*
X129601142Y-47378857D02*
X129648761Y-47426476D01*
X129696380Y-47569333D01*
X129696380Y-47664571D01*
X129648761Y-47807428D01*
X129553523Y-47902666D01*
X129458285Y-47950285D01*
X129267809Y-47997904D01*
X129124952Y-47997904D01*
X128934476Y-47950285D01*
X128839238Y-47902666D01*
X128744000Y-47807428D01*
X128696380Y-47664571D01*
X128696380Y-47569333D01*
X128744000Y-47426476D01*
X128791619Y-47378857D01*
X128791619Y-46997904D02*
X128744000Y-46950285D01*
X128696380Y-46855047D01*
X128696380Y-46616952D01*
X128744000Y-46521714D01*
X128791619Y-46474095D01*
X128886857Y-46426476D01*
X128982095Y-46426476D01*
X129124952Y-46474095D01*
X129696380Y-47045523D01*
X129696380Y-46426476D01*
X128791619Y-46045523D02*
X128744000Y-45997904D01*
X128696380Y-45902666D01*
X128696380Y-45664571D01*
X128744000Y-45569333D01*
X128791619Y-45521714D01*
X128886857Y-45474095D01*
X128982095Y-45474095D01*
X129124952Y-45521714D01*
X129696380Y-46093142D01*
X129696380Y-45474095D01*
X101440380Y-63333238D02*
X100964190Y-63666571D01*
X101440380Y-63904666D02*
X100440380Y-63904666D01*
X100440380Y-63523714D01*
X100488000Y-63428476D01*
X100535619Y-63380857D01*
X100630857Y-63333238D01*
X100773714Y-63333238D01*
X100868952Y-63380857D01*
X100916571Y-63428476D01*
X100964190Y-63523714D01*
X100964190Y-63904666D01*
X100440380Y-63047523D02*
X101440380Y-62714190D01*
X100440380Y-62380857D01*
X100535619Y-62095142D02*
X100488000Y-62047523D01*
X100440380Y-61952285D01*
X100440380Y-61714190D01*
X100488000Y-61618952D01*
X100535619Y-61571333D01*
X100630857Y-61523714D01*
X100726095Y-61523714D01*
X100868952Y-61571333D01*
X101440380Y-62142761D01*
X101440380Y-61523714D01*
X102052380Y-62609904D02*
X102052380Y-62038476D01*
X103052380Y-62324190D02*
X102052380Y-62324190D01*
X102147619Y-61752761D02*
X102100000Y-61705142D01*
X102052380Y-61609904D01*
X102052380Y-61371809D01*
X102100000Y-61276571D01*
X102147619Y-61228952D01*
X102242857Y-61181333D01*
X102338095Y-61181333D01*
X102480952Y-61228952D01*
X103052380Y-61800380D01*
X103052380Y-61181333D01*
X103751142Y-71614380D02*
X103417809Y-71138190D01*
X103179714Y-71614380D02*
X103179714Y-70614380D01*
X103560666Y-70614380D01*
X103655904Y-70662000D01*
X103703523Y-70709619D01*
X103751142Y-70804857D01*
X103751142Y-70947714D01*
X103703523Y-71042952D01*
X103655904Y-71090571D01*
X103560666Y-71138190D01*
X103179714Y-71138190D01*
X104084476Y-70614380D02*
X104703523Y-70614380D01*
X104370190Y-70995333D01*
X104513047Y-70995333D01*
X104608285Y-71042952D01*
X104655904Y-71090571D01*
X104703523Y-71185809D01*
X104703523Y-71423904D01*
X104655904Y-71519142D01*
X104608285Y-71566761D01*
X104513047Y-71614380D01*
X104227333Y-71614380D01*
X104132095Y-71566761D01*
X104084476Y-71519142D01*
X105179714Y-71614380D02*
X105370190Y-71614380D01*
X105465428Y-71566761D01*
X105513047Y-71519142D01*
X105608285Y-71376285D01*
X105655904Y-71185809D01*
X105655904Y-70804857D01*
X105608285Y-70709619D01*
X105560666Y-70662000D01*
X105465428Y-70614380D01*
X105274952Y-70614380D01*
X105179714Y-70662000D01*
X105132095Y-70709619D01*
X105084476Y-70804857D01*
X105084476Y-71042952D01*
X105132095Y-71138190D01*
X105179714Y-71185809D01*
X105274952Y-71233428D01*
X105465428Y-71233428D01*
X105560666Y-71185809D01*
X105608285Y-71138190D01*
X105655904Y-71042952D01*
X103751142Y-58152380D02*
X103417809Y-57676190D01*
X103179714Y-58152380D02*
X103179714Y-57152380D01*
X103560666Y-57152380D01*
X103655904Y-57200000D01*
X103703523Y-57247619D01*
X103751142Y-57342857D01*
X103751142Y-57485714D01*
X103703523Y-57580952D01*
X103655904Y-57628571D01*
X103560666Y-57676190D01*
X103179714Y-57676190D01*
X104084476Y-57152380D02*
X104703523Y-57152380D01*
X104370190Y-57533333D01*
X104513047Y-57533333D01*
X104608285Y-57580952D01*
X104655904Y-57628571D01*
X104703523Y-57723809D01*
X104703523Y-57961904D01*
X104655904Y-58057142D01*
X104608285Y-58104761D01*
X104513047Y-58152380D01*
X104227333Y-58152380D01*
X104132095Y-58104761D01*
X104084476Y-58057142D01*
X105274952Y-57580952D02*
X105179714Y-57533333D01*
X105132095Y-57485714D01*
X105084476Y-57390476D01*
X105084476Y-57342857D01*
X105132095Y-57247619D01*
X105179714Y-57200000D01*
X105274952Y-57152380D01*
X105465428Y-57152380D01*
X105560666Y-57200000D01*
X105608285Y-57247619D01*
X105655904Y-57342857D01*
X105655904Y-57390476D01*
X105608285Y-57485714D01*
X105560666Y-57533333D01*
X105465428Y-57580952D01*
X105274952Y-57580952D01*
X105179714Y-57628571D01*
X105132095Y-57676190D01*
X105084476Y-57771428D01*
X105084476Y-57961904D01*
X105132095Y-58057142D01*
X105179714Y-58104761D01*
X105274952Y-58152380D01*
X105465428Y-58152380D01*
X105560666Y-58104761D01*
X105608285Y-58057142D01*
X105655904Y-57961904D01*
X105655904Y-57771428D01*
X105608285Y-57676190D01*
X105560666Y-57628571D01*
X105465428Y-57580952D01*
X135114380Y-89542857D02*
X134638190Y-89876190D01*
X135114380Y-90114285D02*
X134114380Y-90114285D01*
X134114380Y-89733333D01*
X134162000Y-89638095D01*
X134209619Y-89590476D01*
X134304857Y-89542857D01*
X134447714Y-89542857D01*
X134542952Y-89590476D01*
X134590571Y-89638095D01*
X134638190Y-89733333D01*
X134638190Y-90114285D01*
X134209619Y-89161904D02*
X134162000Y-89114285D01*
X134114380Y-89019047D01*
X134114380Y-88780952D01*
X134162000Y-88685714D01*
X134209619Y-88638095D01*
X134304857Y-88590476D01*
X134400095Y-88590476D01*
X134542952Y-88638095D01*
X135114380Y-89209523D01*
X135114380Y-88590476D01*
X134542952Y-88019047D02*
X134495333Y-88114285D01*
X134447714Y-88161904D01*
X134352476Y-88209523D01*
X134304857Y-88209523D01*
X134209619Y-88161904D01*
X134162000Y-88114285D01*
X134114380Y-88019047D01*
X134114380Y-87828571D01*
X134162000Y-87733333D01*
X134209619Y-87685714D01*
X134304857Y-87638095D01*
X134352476Y-87638095D01*
X134447714Y-87685714D01*
X134495333Y-87733333D01*
X134542952Y-87828571D01*
X134542952Y-88019047D01*
X134590571Y-88114285D01*
X134638190Y-88161904D01*
X134733428Y-88209523D01*
X134923904Y-88209523D01*
X135019142Y-88161904D01*
X135066761Y-88114285D01*
X135114380Y-88019047D01*
X135114380Y-87828571D01*
X135066761Y-87733333D01*
X135019142Y-87685714D01*
X134923904Y-87638095D01*
X134733428Y-87638095D01*
X134638190Y-87685714D01*
X134590571Y-87733333D01*
X134542952Y-87828571D01*
X131379142Y-83954857D02*
X131426761Y-84002476D01*
X131474380Y-84145333D01*
X131474380Y-84240571D01*
X131426761Y-84383428D01*
X131331523Y-84478666D01*
X131236285Y-84526285D01*
X131045809Y-84573904D01*
X130902952Y-84573904D01*
X130712476Y-84526285D01*
X130617238Y-84478666D01*
X130522000Y-84383428D01*
X130474380Y-84240571D01*
X130474380Y-84145333D01*
X130522000Y-84002476D01*
X130569619Y-83954857D01*
X131474380Y-83002476D02*
X131474380Y-83573904D01*
X131474380Y-83288190D02*
X130474380Y-83288190D01*
X130617238Y-83383428D01*
X130712476Y-83478666D01*
X130760095Y-83573904D01*
X130902952Y-82431047D02*
X130855333Y-82526285D01*
X130807714Y-82573904D01*
X130712476Y-82621523D01*
X130664857Y-82621523D01*
X130569619Y-82573904D01*
X130522000Y-82526285D01*
X130474380Y-82431047D01*
X130474380Y-82240571D01*
X130522000Y-82145333D01*
X130569619Y-82097714D01*
X130664857Y-82050095D01*
X130712476Y-82050095D01*
X130807714Y-82097714D01*
X130855333Y-82145333D01*
X130902952Y-82240571D01*
X130902952Y-82431047D01*
X130950571Y-82526285D01*
X130998190Y-82573904D01*
X131093428Y-82621523D01*
X131283904Y-82621523D01*
X131379142Y-82573904D01*
X131426761Y-82526285D01*
X131474380Y-82431047D01*
X131474380Y-82240571D01*
X131426761Y-82145333D01*
X131379142Y-82097714D01*
X131283904Y-82050095D01*
X131093428Y-82050095D01*
X130998190Y-82097714D01*
X130950571Y-82145333D01*
X130902952Y-82240571D01*
X62476142Y-81690380D02*
X62142809Y-81214190D01*
X61904714Y-81690380D02*
X61904714Y-80690380D01*
X62285666Y-80690380D01*
X62380904Y-80738000D01*
X62428523Y-80785619D01*
X62476142Y-80880857D01*
X62476142Y-81023714D01*
X62428523Y-81118952D01*
X62380904Y-81166571D01*
X62285666Y-81214190D01*
X61904714Y-81214190D01*
X62857095Y-80785619D02*
X62904714Y-80738000D01*
X62999952Y-80690380D01*
X63238047Y-80690380D01*
X63333285Y-80738000D01*
X63380904Y-80785619D01*
X63428523Y-80880857D01*
X63428523Y-80976095D01*
X63380904Y-81118952D01*
X62809476Y-81690380D01*
X63428523Y-81690380D01*
X63761857Y-80690380D02*
X64380904Y-80690380D01*
X64047571Y-81071333D01*
X64190428Y-81071333D01*
X64285666Y-81118952D01*
X64333285Y-81166571D01*
X64380904Y-81261809D01*
X64380904Y-81499904D01*
X64333285Y-81595142D01*
X64285666Y-81642761D01*
X64190428Y-81690380D01*
X63904714Y-81690380D01*
X63809476Y-81642761D01*
X63761857Y-81595142D01*
X62476142Y-84611380D02*
X62142809Y-84135190D01*
X61904714Y-84611380D02*
X61904714Y-83611380D01*
X62285666Y-83611380D01*
X62380904Y-83659000D01*
X62428523Y-83706619D01*
X62476142Y-83801857D01*
X62476142Y-83944714D01*
X62428523Y-84039952D01*
X62380904Y-84087571D01*
X62285666Y-84135190D01*
X61904714Y-84135190D01*
X62857095Y-83706619D02*
X62904714Y-83659000D01*
X62999952Y-83611380D01*
X63238047Y-83611380D01*
X63333285Y-83659000D01*
X63380904Y-83706619D01*
X63428523Y-83801857D01*
X63428523Y-83897095D01*
X63380904Y-84039952D01*
X62809476Y-84611380D01*
X63428523Y-84611380D01*
X64380904Y-84611380D02*
X63809476Y-84611380D01*
X64095190Y-84611380D02*
X64095190Y-83611380D01*
X63999952Y-83754238D01*
X63904714Y-83849476D01*
X63809476Y-83897095D01*
X62476142Y-91299380D02*
X62142809Y-90823190D01*
X61904714Y-91299380D02*
X61904714Y-90299380D01*
X62285666Y-90299380D01*
X62380904Y-90347000D01*
X62428523Y-90394619D01*
X62476142Y-90489857D01*
X62476142Y-90632714D01*
X62428523Y-90727952D01*
X62380904Y-90775571D01*
X62285666Y-90823190D01*
X61904714Y-90823190D01*
X62857095Y-90394619D02*
X62904714Y-90347000D01*
X62999952Y-90299380D01*
X63238047Y-90299380D01*
X63333285Y-90347000D01*
X63380904Y-90394619D01*
X63428523Y-90489857D01*
X63428523Y-90585095D01*
X63380904Y-90727952D01*
X62809476Y-91299380D01*
X63428523Y-91299380D01*
X63809476Y-90394619D02*
X63857095Y-90347000D01*
X63952333Y-90299380D01*
X64190428Y-90299380D01*
X64285666Y-90347000D01*
X64333285Y-90394619D01*
X64380904Y-90489857D01*
X64380904Y-90585095D01*
X64333285Y-90727952D01*
X63761857Y-91299380D01*
X64380904Y-91299380D01*
X83177142Y-48035380D02*
X82843809Y-47559190D01*
X82605714Y-48035380D02*
X82605714Y-47035380D01*
X82986666Y-47035380D01*
X83081904Y-47083000D01*
X83129523Y-47130619D01*
X83177142Y-47225857D01*
X83177142Y-47368714D01*
X83129523Y-47463952D01*
X83081904Y-47511571D01*
X82986666Y-47559190D01*
X82605714Y-47559190D01*
X84129523Y-48035380D02*
X83558095Y-48035380D01*
X83843809Y-48035380D02*
X83843809Y-47035380D01*
X83748571Y-47178238D01*
X83653333Y-47273476D01*
X83558095Y-47321095D01*
X84462857Y-47035380D02*
X85081904Y-47035380D01*
X84748571Y-47416333D01*
X84891428Y-47416333D01*
X84986666Y-47463952D01*
X85034285Y-47511571D01*
X85081904Y-47606809D01*
X85081904Y-47844904D01*
X85034285Y-47940142D01*
X84986666Y-47987761D01*
X84891428Y-48035380D01*
X84605714Y-48035380D01*
X84510476Y-47987761D01*
X84462857Y-47940142D01*
X83177142Y-45241380D02*
X82843809Y-44765190D01*
X82605714Y-45241380D02*
X82605714Y-44241380D01*
X82986666Y-44241380D01*
X83081904Y-44289000D01*
X83129523Y-44336619D01*
X83177142Y-44431857D01*
X83177142Y-44574714D01*
X83129523Y-44669952D01*
X83081904Y-44717571D01*
X82986666Y-44765190D01*
X82605714Y-44765190D01*
X84129523Y-45241380D02*
X83558095Y-45241380D01*
X83843809Y-45241380D02*
X83843809Y-44241380D01*
X83748571Y-44384238D01*
X83653333Y-44479476D01*
X83558095Y-44527095D01*
X85081904Y-45241380D02*
X84510476Y-45241380D01*
X84796190Y-45241380D02*
X84796190Y-44241380D01*
X84700952Y-44384238D01*
X84605714Y-44479476D01*
X84510476Y-44527095D01*
X83177142Y-46214380D02*
X82843809Y-45738190D01*
X82605714Y-46214380D02*
X82605714Y-45214380D01*
X82986666Y-45214380D01*
X83081904Y-45262000D01*
X83129523Y-45309619D01*
X83177142Y-45404857D01*
X83177142Y-45547714D01*
X83129523Y-45642952D01*
X83081904Y-45690571D01*
X82986666Y-45738190D01*
X82605714Y-45738190D01*
X84129523Y-46214380D02*
X83558095Y-46214380D01*
X83843809Y-46214380D02*
X83843809Y-45214380D01*
X83748571Y-45357238D01*
X83653333Y-45452476D01*
X83558095Y-45500095D01*
X84510476Y-45309619D02*
X84558095Y-45262000D01*
X84653333Y-45214380D01*
X84891428Y-45214380D01*
X84986666Y-45262000D01*
X85034285Y-45309619D01*
X85081904Y-45404857D01*
X85081904Y-45500095D01*
X85034285Y-45642952D01*
X84462857Y-46214380D01*
X85081904Y-46214380D01*
X45212142Y-65316666D02*
X45259761Y-65364285D01*
X45307380Y-65507142D01*
X45307380Y-65602380D01*
X45259761Y-65745238D01*
X45164523Y-65840476D01*
X45069285Y-65888095D01*
X44878809Y-65935714D01*
X44735952Y-65935714D01*
X44545476Y-65888095D01*
X44450238Y-65840476D01*
X44355000Y-65745238D01*
X44307380Y-65602380D01*
X44307380Y-65507142D01*
X44355000Y-65364285D01*
X44402619Y-65316666D01*
X44307380Y-64983333D02*
X44307380Y-64364285D01*
X44688333Y-64697619D01*
X44688333Y-64554761D01*
X44735952Y-64459523D01*
X44783571Y-64411904D01*
X44878809Y-64364285D01*
X45116904Y-64364285D01*
X45212142Y-64411904D01*
X45259761Y-64459523D01*
X45307380Y-64554761D01*
X45307380Y-64840476D01*
X45259761Y-64935714D01*
X45212142Y-64983333D01*
X45172380Y-85423333D02*
X45886666Y-85423333D01*
X46029523Y-85470952D01*
X46124761Y-85566190D01*
X46172380Y-85709047D01*
X46172380Y-85804285D01*
X45172380Y-85042380D02*
X45172380Y-84423333D01*
X45553333Y-84756666D01*
X45553333Y-84613809D01*
X45600952Y-84518571D01*
X45648571Y-84470952D01*
X45743809Y-84423333D01*
X45981904Y-84423333D01*
X46077142Y-84470952D01*
X46124761Y-84518571D01*
X46172380Y-84613809D01*
X46172380Y-84899523D01*
X46124761Y-84994761D01*
X46077142Y-85042380D01*
X160292142Y-53347857D02*
X160339761Y-53395476D01*
X160387380Y-53538333D01*
X160387380Y-53633571D01*
X160339761Y-53776428D01*
X160244523Y-53871666D01*
X160149285Y-53919285D01*
X159958809Y-53966904D01*
X159815952Y-53966904D01*
X159625476Y-53919285D01*
X159530238Y-53871666D01*
X159435000Y-53776428D01*
X159387380Y-53633571D01*
X159387380Y-53538333D01*
X159435000Y-53395476D01*
X159482619Y-53347857D01*
X160387380Y-52395476D02*
X160387380Y-52966904D01*
X160387380Y-52681190D02*
X159387380Y-52681190D01*
X159530238Y-52776428D01*
X159625476Y-52871666D01*
X159673095Y-52966904D01*
X160387380Y-51919285D02*
X160387380Y-51728809D01*
X160339761Y-51633571D01*
X160292142Y-51585952D01*
X160149285Y-51490714D01*
X159958809Y-51443095D01*
X159577857Y-51443095D01*
X159482619Y-51490714D01*
X159435000Y-51538333D01*
X159387380Y-51633571D01*
X159387380Y-51824047D01*
X159435000Y-51919285D01*
X159482619Y-51966904D01*
X159577857Y-52014523D01*
X159815952Y-52014523D01*
X159911190Y-51966904D01*
X159958809Y-51919285D01*
X160006428Y-51824047D01*
X160006428Y-51633571D01*
X159958809Y-51538333D01*
X159911190Y-51490714D01*
X159815952Y-51443095D01*
X139582400Y-60711984D02*
X139582400Y-60140556D01*
X140582400Y-60426270D02*
X139582400Y-60426270D01*
X139582400Y-59331032D02*
X139582400Y-59807222D01*
X140058591Y-59854841D01*
X140010972Y-59807222D01*
X139963353Y-59711984D01*
X139963353Y-59473889D01*
X140010972Y-59378651D01*
X140058591Y-59331032D01*
X140153829Y-59283413D01*
X140391924Y-59283413D01*
X140487162Y-59331032D01*
X140534781Y-59378651D01*
X140582400Y-59473889D01*
X140582400Y-59711984D01*
X140534781Y-59807222D01*
X140487162Y-59854841D01*
X151485362Y-73437920D02*
X151152029Y-72961730D01*
X150913934Y-73437920D02*
X150913934Y-72437920D01*
X151294886Y-72437920D01*
X151390124Y-72485540D01*
X151437743Y-72533159D01*
X151485362Y-72628397D01*
X151485362Y-72771254D01*
X151437743Y-72866492D01*
X151390124Y-72914111D01*
X151294886Y-72961730D01*
X150913934Y-72961730D01*
X151818696Y-72437920D02*
X152437743Y-72437920D01*
X152104410Y-72818873D01*
X152247267Y-72818873D01*
X152342505Y-72866492D01*
X152390124Y-72914111D01*
X152437743Y-73009349D01*
X152437743Y-73247444D01*
X152390124Y-73342682D01*
X152342505Y-73390301D01*
X152247267Y-73437920D01*
X151961553Y-73437920D01*
X151866315Y-73390301D01*
X151818696Y-73342682D01*
X152818696Y-72533159D02*
X152866315Y-72485540D01*
X152961553Y-72437920D01*
X153199648Y-72437920D01*
X153294886Y-72485540D01*
X153342505Y-72533159D01*
X153390124Y-72628397D01*
X153390124Y-72723635D01*
X153342505Y-72866492D01*
X152771077Y-73437920D01*
X153390124Y-73437920D01*
X148297662Y-80805280D02*
X147964329Y-80329090D01*
X147726234Y-80805280D02*
X147726234Y-79805280D01*
X148107186Y-79805280D01*
X148202424Y-79852900D01*
X148250043Y-79900519D01*
X148297662Y-79995757D01*
X148297662Y-80138614D01*
X148250043Y-80233852D01*
X148202424Y-80281471D01*
X148107186Y-80329090D01*
X147726234Y-80329090D01*
X148630996Y-79805280D02*
X149250043Y-79805280D01*
X148916710Y-80186233D01*
X149059567Y-80186233D01*
X149154805Y-80233852D01*
X149202424Y-80281471D01*
X149250043Y-80376709D01*
X149250043Y-80614804D01*
X149202424Y-80710042D01*
X149154805Y-80757661D01*
X149059567Y-80805280D01*
X148773853Y-80805280D01*
X148678615Y-80757661D01*
X148630996Y-80710042D01*
X150107186Y-80138614D02*
X150107186Y-80805280D01*
X149869091Y-79757661D02*
X149630996Y-80471947D01*
X150250043Y-80471947D01*
X151485362Y-77301260D02*
X151152029Y-76825070D01*
X150913934Y-77301260D02*
X150913934Y-76301260D01*
X151294886Y-76301260D01*
X151390124Y-76348880D01*
X151437743Y-76396499D01*
X151485362Y-76491737D01*
X151485362Y-76634594D01*
X151437743Y-76729832D01*
X151390124Y-76777451D01*
X151294886Y-76825070D01*
X150913934Y-76825070D01*
X151818696Y-76301260D02*
X152437743Y-76301260D01*
X152104410Y-76682213D01*
X152247267Y-76682213D01*
X152342505Y-76729832D01*
X152390124Y-76777451D01*
X152437743Y-76872689D01*
X152437743Y-77110784D01*
X152390124Y-77206022D01*
X152342505Y-77253641D01*
X152247267Y-77301260D01*
X151961553Y-77301260D01*
X151866315Y-77253641D01*
X151818696Y-77206022D01*
X152771077Y-76301260D02*
X153390124Y-76301260D01*
X153056791Y-76682213D01*
X153199648Y-76682213D01*
X153294886Y-76729832D01*
X153342505Y-76777451D01*
X153390124Y-76872689D01*
X153390124Y-77110784D01*
X153342505Y-77206022D01*
X153294886Y-77253641D01*
X153199648Y-77301260D01*
X152913934Y-77301260D01*
X152818696Y-77253641D01*
X152771077Y-77206022D01*
X140774279Y-75390998D02*
X140726660Y-75486236D01*
X140631421Y-75581474D01*
X140488564Y-75724331D01*
X140440945Y-75819569D01*
X140440945Y-75914807D01*
X140679040Y-75867188D02*
X140631421Y-75962426D01*
X140536183Y-76057664D01*
X140345707Y-76105283D01*
X140012374Y-76105283D01*
X139821898Y-76057664D01*
X139726660Y-75962426D01*
X139679040Y-75867188D01*
X139679040Y-75676712D01*
X139726660Y-75581474D01*
X139821898Y-75486236D01*
X140012374Y-75438617D01*
X140345707Y-75438617D01*
X140536183Y-75486236D01*
X140631421Y-75581474D01*
X140679040Y-75676712D01*
X140679040Y-75867188D01*
X140107612Y-74867188D02*
X140059993Y-74962426D01*
X140012374Y-75010045D01*
X139917136Y-75057664D01*
X139869517Y-75057664D01*
X139774279Y-75010045D01*
X139726660Y-74962426D01*
X139679040Y-74867188D01*
X139679040Y-74676712D01*
X139726660Y-74581474D01*
X139774279Y-74533855D01*
X139869517Y-74486236D01*
X139917136Y-74486236D01*
X140012374Y-74533855D01*
X140059993Y-74581474D01*
X140107612Y-74676712D01*
X140107612Y-74867188D01*
X140155231Y-74962426D01*
X140202850Y-75010045D01*
X140298088Y-75057664D01*
X140488564Y-75057664D01*
X140583802Y-75010045D01*
X140631421Y-74962426D01*
X140679040Y-74867188D01*
X140679040Y-74676712D01*
X140631421Y-74581474D01*
X140583802Y-74533855D01*
X140488564Y-74486236D01*
X140298088Y-74486236D01*
X140202850Y-74533855D01*
X140155231Y-74581474D01*
X140107612Y-74676712D01*
X153336666Y-47712380D02*
X153336666Y-48426666D01*
X153289047Y-48569523D01*
X153193809Y-48664761D01*
X153050952Y-48712380D01*
X152955714Y-48712380D01*
X153717619Y-47712380D02*
X154384285Y-47712380D01*
X153955714Y-48712380D01*
X151459962Y-70120782D02*
X151412343Y-70168401D01*
X151269486Y-70216020D01*
X151174248Y-70216020D01*
X151031391Y-70168401D01*
X150936153Y-70073163D01*
X150888534Y-69977925D01*
X150840915Y-69787449D01*
X150840915Y-69644592D01*
X150888534Y-69454116D01*
X150936153Y-69358878D01*
X151031391Y-69263640D01*
X151174248Y-69216020D01*
X151269486Y-69216020D01*
X151412343Y-69263640D01*
X151459962Y-69311259D01*
X151840915Y-69311259D02*
X151888534Y-69263640D01*
X151983772Y-69216020D01*
X152221867Y-69216020D01*
X152317105Y-69263640D01*
X152364724Y-69311259D01*
X152412343Y-69406497D01*
X152412343Y-69501735D01*
X152364724Y-69644592D01*
X151793296Y-70216020D01*
X152412343Y-70216020D01*
X153031391Y-69216020D02*
X153126629Y-69216020D01*
X153221867Y-69263640D01*
X153269486Y-69311259D01*
X153317105Y-69406497D01*
X153364724Y-69596973D01*
X153364724Y-69835068D01*
X153317105Y-70025544D01*
X153269486Y-70120782D01*
X153221867Y-70168401D01*
X153126629Y-70216020D01*
X153031391Y-70216020D01*
X152936153Y-70168401D01*
X152888534Y-70120782D01*
X152840915Y-70025544D01*
X152793296Y-69835068D01*
X152793296Y-69596973D01*
X152840915Y-69406497D01*
X152888534Y-69311259D01*
X152936153Y-69263640D01*
X153031391Y-69216020D01*
X142559802Y-80797582D02*
X142512183Y-80845201D01*
X142369326Y-80892820D01*
X142274088Y-80892820D01*
X142131231Y-80845201D01*
X142035993Y-80749963D01*
X141988374Y-80654725D01*
X141940755Y-80464249D01*
X141940755Y-80321392D01*
X141988374Y-80130916D01*
X142035993Y-80035678D01*
X142131231Y-79940440D01*
X142274088Y-79892820D01*
X142369326Y-79892820D01*
X142512183Y-79940440D01*
X142559802Y-79988059D01*
X142940755Y-79988059D02*
X142988374Y-79940440D01*
X143083612Y-79892820D01*
X143321707Y-79892820D01*
X143416945Y-79940440D01*
X143464564Y-79988059D01*
X143512183Y-80083297D01*
X143512183Y-80178535D01*
X143464564Y-80321392D01*
X142893136Y-80892820D01*
X143512183Y-80892820D01*
X144464564Y-80892820D02*
X143893136Y-80892820D01*
X144178850Y-80892820D02*
X144178850Y-79892820D01*
X144083612Y-80035678D01*
X143988374Y-80130916D01*
X143893136Y-80178535D01*
X116729213Y-80624862D02*
X116681594Y-80672481D01*
X116538737Y-80720100D01*
X116443499Y-80720100D01*
X116300641Y-80672481D01*
X116205403Y-80577243D01*
X116157784Y-80482005D01*
X116110165Y-80291529D01*
X116110165Y-80148672D01*
X116157784Y-79958196D01*
X116205403Y-79862958D01*
X116300641Y-79767720D01*
X116443499Y-79720100D01*
X116538737Y-79720100D01*
X116681594Y-79767720D01*
X116729213Y-79815339D01*
X117110165Y-79815339D02*
X117157784Y-79767720D01*
X117253022Y-79720100D01*
X117491118Y-79720100D01*
X117586356Y-79767720D01*
X117633975Y-79815339D01*
X117681594Y-79910577D01*
X117681594Y-80005815D01*
X117633975Y-80148672D01*
X117062546Y-80720100D01*
X117681594Y-80720100D01*
X119685060Y-56254946D02*
X119208870Y-56588280D01*
X119685060Y-56826375D02*
X118685060Y-56826375D01*
X118685060Y-56445422D01*
X118732680Y-56350184D01*
X118780299Y-56302565D01*
X118875537Y-56254946D01*
X119018394Y-56254946D01*
X119113632Y-56302565D01*
X119161251Y-56350184D01*
X119208870Y-56445422D01*
X119208870Y-56826375D01*
X118685060Y-55921613D02*
X118685060Y-55302565D01*
X119066013Y-55635899D01*
X119066013Y-55493041D01*
X119113632Y-55397803D01*
X119161251Y-55350184D01*
X119256489Y-55302565D01*
X119494584Y-55302565D01*
X119589822Y-55350184D01*
X119637441Y-55397803D01*
X119685060Y-55493041D01*
X119685060Y-55778756D01*
X119637441Y-55873994D01*
X119589822Y-55921613D01*
X112058620Y-63482457D02*
X111582430Y-63815790D01*
X112058620Y-64053885D02*
X111058620Y-64053885D01*
X111058620Y-63672933D01*
X111106240Y-63577695D01*
X111153859Y-63530076D01*
X111249097Y-63482457D01*
X111391954Y-63482457D01*
X111487192Y-63530076D01*
X111534811Y-63577695D01*
X111582430Y-63672933D01*
X111582430Y-64053885D01*
X112058620Y-62530076D02*
X112058620Y-63101504D01*
X112058620Y-62815790D02*
X111058620Y-62815790D01*
X111201478Y-62911028D01*
X111296716Y-63006266D01*
X111344335Y-63101504D01*
X111058620Y-61672933D02*
X111058620Y-61863409D01*
X111106240Y-61958647D01*
X111153859Y-62006266D01*
X111296716Y-62101504D01*
X111487192Y-62149123D01*
X111868144Y-62149123D01*
X111963382Y-62101504D01*
X112011001Y-62053885D01*
X112058620Y-61958647D01*
X112058620Y-61768171D01*
X112011001Y-61672933D01*
X111963382Y-61625314D01*
X111868144Y-61577695D01*
X111630049Y-61577695D01*
X111534811Y-61625314D01*
X111487192Y-61672933D01*
X111439573Y-61768171D01*
X111439573Y-61958647D01*
X111487192Y-62053885D01*
X111534811Y-62101504D01*
X111630049Y-62149123D01*
X108732580Y-68807626D02*
X108256390Y-69140960D01*
X108732580Y-69379055D02*
X107732580Y-69379055D01*
X107732580Y-68998102D01*
X107780200Y-68902864D01*
X107827819Y-68855245D01*
X107923057Y-68807626D01*
X108065914Y-68807626D01*
X108161152Y-68855245D01*
X108208771Y-68902864D01*
X108256390Y-68998102D01*
X108256390Y-69379055D01*
X108732580Y-67855245D02*
X108732580Y-68426674D01*
X108732580Y-68140960D02*
X107732580Y-68140960D01*
X107875438Y-68236198D01*
X107970676Y-68331436D01*
X108018295Y-68426674D01*
X81635860Y-83569984D02*
X81635860Y-82998556D01*
X82635860Y-83284270D02*
X81635860Y-83284270D01*
X81635860Y-82760460D02*
X81635860Y-82141413D01*
X82016813Y-82474746D01*
X82016813Y-82331889D01*
X82064432Y-82236651D01*
X82112051Y-82189032D01*
X82207289Y-82141413D01*
X82445384Y-82141413D01*
X82540622Y-82189032D01*
X82588241Y-82236651D01*
X82635860Y-82331889D01*
X82635860Y-82617603D01*
X82588241Y-82712841D01*
X82540622Y-82760460D01*
X109338280Y-89422266D02*
X108862090Y-89755600D01*
X109338280Y-89993695D02*
X108338280Y-89993695D01*
X108338280Y-89612742D01*
X108385900Y-89517504D01*
X108433519Y-89469885D01*
X108528757Y-89422266D01*
X108671614Y-89422266D01*
X108766852Y-89469885D01*
X108814471Y-89517504D01*
X108862090Y-89612742D01*
X108862090Y-89993695D01*
X108766852Y-88850838D02*
X108719233Y-88946076D01*
X108671614Y-88993695D01*
X108576376Y-89041314D01*
X108528757Y-89041314D01*
X108433519Y-88993695D01*
X108385900Y-88946076D01*
X108338280Y-88850838D01*
X108338280Y-88660361D01*
X108385900Y-88565123D01*
X108433519Y-88517504D01*
X108528757Y-88469885D01*
X108576376Y-88469885D01*
X108671614Y-88517504D01*
X108719233Y-88565123D01*
X108766852Y-88660361D01*
X108766852Y-88850838D01*
X108814471Y-88946076D01*
X108862090Y-88993695D01*
X108957328Y-89041314D01*
X109147804Y-89041314D01*
X109243042Y-88993695D01*
X109290661Y-88946076D01*
X109338280Y-88850838D01*
X109338280Y-88660361D01*
X109290661Y-88565123D01*
X109243042Y-88517504D01*
X109147804Y-88469885D01*
X108957328Y-88469885D01*
X108862090Y-88517504D01*
X108814471Y-88565123D01*
X108766852Y-88660361D01*
X95276420Y-92521944D02*
X95276420Y-91950516D01*
X96276420Y-92236230D02*
X95276420Y-92236230D01*
X95609754Y-91188611D02*
X96276420Y-91188611D01*
X95228801Y-91426706D02*
X95943087Y-91664801D01*
X95943087Y-91045754D01*
X64243460Y-62642384D02*
X64243460Y-62070956D01*
X65243460Y-62356670D02*
X64243460Y-62356670D01*
X65243460Y-61213813D02*
X65243460Y-61785241D01*
X65243460Y-61499527D02*
X64243460Y-61499527D01*
X64386318Y-61594765D01*
X64481556Y-61690003D01*
X64529175Y-61785241D01*
X54808333Y-73032380D02*
X54475000Y-72556190D01*
X54236904Y-73032380D02*
X54236904Y-72032380D01*
X54617857Y-72032380D01*
X54713095Y-72080000D01*
X54760714Y-72127619D01*
X54808333Y-72222857D01*
X54808333Y-72365714D01*
X54760714Y-72460952D01*
X54713095Y-72508571D01*
X54617857Y-72556190D01*
X54236904Y-72556190D01*
X55665476Y-72032380D02*
X55475000Y-72032380D01*
X55379761Y-72080000D01*
X55332142Y-72127619D01*
X55236904Y-72270476D01*
X55189285Y-72460952D01*
X55189285Y-72841904D01*
X55236904Y-72937142D01*
X55284523Y-72984761D01*
X55379761Y-73032380D01*
X55570238Y-73032380D01*
X55665476Y-72984761D01*
X55713095Y-72937142D01*
X55760714Y-72841904D01*
X55760714Y-72603809D01*
X55713095Y-72508571D01*
X55665476Y-72460952D01*
X55570238Y-72413333D01*
X55379761Y-72413333D01*
X55284523Y-72460952D01*
X55236904Y-72508571D01*
X55189285Y-72603809D01*
X46752602Y-57056382D02*
X46704983Y-57104001D01*
X46562126Y-57151620D01*
X46466888Y-57151620D01*
X46324031Y-57104001D01*
X46228793Y-57008763D01*
X46181174Y-56913525D01*
X46133555Y-56723049D01*
X46133555Y-56580192D01*
X46181174Y-56389716D01*
X46228793Y-56294478D01*
X46324031Y-56199240D01*
X46466888Y-56151620D01*
X46562126Y-56151620D01*
X46704983Y-56199240D01*
X46752602Y-56246859D01*
X47704983Y-57151620D02*
X47133555Y-57151620D01*
X47419269Y-57151620D02*
X47419269Y-56151620D01*
X47324031Y-56294478D01*
X47228793Y-56389716D01*
X47133555Y-56437335D01*
X48657364Y-57151620D02*
X48085936Y-57151620D01*
X48371650Y-57151620D02*
X48371650Y-56151620D01*
X48276412Y-56294478D01*
X48181174Y-56389716D01*
X48085936Y-56437335D01*
X47244973Y-48051902D02*
X47197354Y-48099521D01*
X47054497Y-48147140D01*
X46959259Y-48147140D01*
X46816401Y-48099521D01*
X46721163Y-48004283D01*
X46673544Y-47909045D01*
X46625925Y-47718569D01*
X46625925Y-47575712D01*
X46673544Y-47385236D01*
X46721163Y-47289998D01*
X46816401Y-47194760D01*
X46959259Y-47147140D01*
X47054497Y-47147140D01*
X47197354Y-47194760D01*
X47244973Y-47242379D01*
X48102116Y-47480474D02*
X48102116Y-48147140D01*
X47864020Y-47099521D02*
X47625925Y-47813807D01*
X48244973Y-47813807D01*
X108757902Y-56371786D02*
X108805521Y-56419405D01*
X108853140Y-56562262D01*
X108853140Y-56657500D01*
X108805521Y-56800358D01*
X108710283Y-56895596D01*
X108615045Y-56943215D01*
X108424569Y-56990834D01*
X108281712Y-56990834D01*
X108091236Y-56943215D01*
X107995998Y-56895596D01*
X107900760Y-56800358D01*
X107853140Y-56657500D01*
X107853140Y-56562262D01*
X107900760Y-56419405D01*
X107948379Y-56371786D01*
X107853140Y-56038453D02*
X107853140Y-55371786D01*
X108853140Y-55800358D01*
X112603462Y-68838106D02*
X112651081Y-68885725D01*
X112698700Y-69028582D01*
X112698700Y-69123820D01*
X112651081Y-69266678D01*
X112555843Y-69361916D01*
X112460605Y-69409535D01*
X112270129Y-69457154D01*
X112127272Y-69457154D01*
X111936796Y-69409535D01*
X111841558Y-69361916D01*
X111746320Y-69266678D01*
X111698700Y-69123820D01*
X111698700Y-69028582D01*
X111746320Y-68885725D01*
X111793939Y-68838106D01*
X112698700Y-67885725D02*
X112698700Y-68457154D01*
X112698700Y-68171440D02*
X111698700Y-68171440D01*
X111841558Y-68266678D01*
X111936796Y-68361916D01*
X111984415Y-68457154D01*
X115687022Y-69659737D02*
X115734641Y-69707356D01*
X115782260Y-69850213D01*
X115782260Y-69945451D01*
X115734641Y-70088308D01*
X115639403Y-70183546D01*
X115544165Y-70231165D01*
X115353689Y-70278784D01*
X115210832Y-70278784D01*
X115020356Y-70231165D01*
X114925118Y-70183546D01*
X114829880Y-70088308D01*
X114782260Y-69945451D01*
X114782260Y-69850213D01*
X114829880Y-69707356D01*
X114877499Y-69659737D01*
X115782260Y-68707356D02*
X115782260Y-69278784D01*
X115782260Y-68993070D02*
X114782260Y-68993070D01*
X114925118Y-69088308D01*
X115020356Y-69183546D01*
X115067975Y-69278784D01*
X114877499Y-68326403D02*
X114829880Y-68278784D01*
X114782260Y-68183546D01*
X114782260Y-67945451D01*
X114829880Y-67850213D01*
X114877499Y-67802594D01*
X114972737Y-67754975D01*
X115067975Y-67754975D01*
X115210832Y-67802594D01*
X115782260Y-68374022D01*
X115782260Y-67754975D01*
X112903182Y-89883217D02*
X112950801Y-89930836D01*
X112998420Y-90073693D01*
X112998420Y-90168931D01*
X112950801Y-90311788D01*
X112855563Y-90407026D01*
X112760325Y-90454645D01*
X112569849Y-90502264D01*
X112426992Y-90502264D01*
X112236516Y-90454645D01*
X112141278Y-90407026D01*
X112046040Y-90311788D01*
X111998420Y-90168931D01*
X111998420Y-90073693D01*
X112046040Y-89930836D01*
X112093659Y-89883217D01*
X112998420Y-88930836D02*
X112998420Y-89502264D01*
X112998420Y-89216550D02*
X111998420Y-89216550D01*
X112141278Y-89311788D01*
X112236516Y-89407026D01*
X112284135Y-89502264D01*
X111998420Y-88311788D02*
X111998420Y-88216550D01*
X112046040Y-88121312D01*
X112093659Y-88073693D01*
X112188897Y-88026074D01*
X112379373Y-87978455D01*
X112617468Y-87978455D01*
X112807944Y-88026074D01*
X112903182Y-88073693D01*
X112950801Y-88121312D01*
X112998420Y-88216550D01*
X112998420Y-88311788D01*
X112950801Y-88407026D01*
X112903182Y-88454645D01*
X112807944Y-88502264D01*
X112617468Y-88549883D01*
X112379373Y-88549883D01*
X112188897Y-88502264D01*
X112093659Y-88454645D01*
X112046040Y-88407026D01*
X111998420Y-88311788D01*
X76105426Y-40772900D02*
X76105426Y-41487186D01*
X76057807Y-41630043D01*
X75962569Y-41725281D01*
X75819712Y-41772900D01*
X75724474Y-41772900D01*
X77057807Y-40772900D02*
X76581617Y-40772900D01*
X76533998Y-41249091D01*
X76581617Y-41201472D01*
X76676855Y-41153853D01*
X76914950Y-41153853D01*
X77010188Y-41201472D01*
X77057807Y-41249091D01*
X77105426Y-41344329D01*
X77105426Y-41582424D01*
X77057807Y-41677662D01*
X77010188Y-41725281D01*
X76914950Y-41772900D01*
X76676855Y-41772900D01*
X76581617Y-41725281D01*
X76533998Y-41677662D01*
X55292666Y-83729380D02*
X55292666Y-84443666D01*
X55245047Y-84586523D01*
X55149809Y-84681761D01*
X55006952Y-84729380D01*
X54911714Y-84729380D01*
X56197428Y-83729380D02*
X56006952Y-83729380D01*
X55911714Y-83777000D01*
X55864095Y-83824619D01*
X55768857Y-83967476D01*
X55721238Y-84157952D01*
X55721238Y-84538904D01*
X55768857Y-84634142D01*
X55816476Y-84681761D01*
X55911714Y-84729380D01*
X56102190Y-84729380D01*
X56197428Y-84681761D01*
X56245047Y-84634142D01*
X56292666Y-84538904D01*
X56292666Y-84300809D01*
X56245047Y-84205571D01*
X56197428Y-84157952D01*
X56102190Y-84110333D01*
X55911714Y-84110333D01*
X55816476Y-84157952D01*
X55768857Y-84205571D01*
X55721238Y-84300809D01*
X87296666Y-50252380D02*
X87296666Y-50966666D01*
X87249047Y-51109523D01*
X87153809Y-51204761D01*
X87010952Y-51252380D01*
X86915714Y-51252380D01*
X88201428Y-50585714D02*
X88201428Y-51252380D01*
X87963333Y-50204761D02*
X87725238Y-50919047D01*
X88344285Y-50919047D01*
X97456666Y-50252380D02*
X97456666Y-50966666D01*
X97409047Y-51109523D01*
X97313809Y-51204761D01*
X97170952Y-51252380D01*
X97075714Y-51252380D01*
X97885238Y-50347619D02*
X97932857Y-50300000D01*
X98028095Y-50252380D01*
X98266190Y-50252380D01*
X98361428Y-50300000D01*
X98409047Y-50347619D01*
X98456666Y-50442857D01*
X98456666Y-50538095D01*
X98409047Y-50680952D01*
X97837619Y-51252380D01*
X98456666Y-51252380D01*
X52460060Y-45114506D02*
X51983870Y-45447840D01*
X52460060Y-45685935D02*
X51460060Y-45685935D01*
X51460060Y-45304982D01*
X51507680Y-45209744D01*
X51555299Y-45162125D01*
X51650537Y-45114506D01*
X51793394Y-45114506D01*
X51888632Y-45162125D01*
X51936251Y-45209744D01*
X51983870Y-45304982D01*
X51983870Y-45685935D01*
X51555299Y-44733554D02*
X51507680Y-44685935D01*
X51460060Y-44590697D01*
X51460060Y-44352601D01*
X51507680Y-44257363D01*
X51555299Y-44209744D01*
X51650537Y-44162125D01*
X51745775Y-44162125D01*
X51888632Y-44209744D01*
X52460060Y-44781173D01*
X52460060Y-44162125D01*
X60265660Y-45114506D02*
X59789470Y-45447840D01*
X60265660Y-45685935D02*
X59265660Y-45685935D01*
X59265660Y-45304982D01*
X59313280Y-45209744D01*
X59360899Y-45162125D01*
X59456137Y-45114506D01*
X59598994Y-45114506D01*
X59694232Y-45162125D01*
X59741851Y-45209744D01*
X59789470Y-45304982D01*
X59789470Y-45685935D01*
X59598994Y-44257363D02*
X60265660Y-44257363D01*
X59218041Y-44495459D02*
X59932327Y-44733554D01*
X59932327Y-44114506D01*
X47209413Y-61860780D02*
X46876080Y-61384590D01*
X46637984Y-61860780D02*
X46637984Y-60860780D01*
X47018937Y-60860780D01*
X47114175Y-60908400D01*
X47161794Y-60956019D01*
X47209413Y-61051257D01*
X47209413Y-61194114D01*
X47161794Y-61289352D01*
X47114175Y-61336971D01*
X47018937Y-61384590D01*
X46637984Y-61384590D01*
X47685603Y-61860780D02*
X47876080Y-61860780D01*
X47971318Y-61813161D01*
X48018937Y-61765542D01*
X48114175Y-61622685D01*
X48161794Y-61432209D01*
X48161794Y-61051257D01*
X48114175Y-60956019D01*
X48066556Y-60908400D01*
X47971318Y-60860780D01*
X47780841Y-60860780D01*
X47685603Y-60908400D01*
X47637984Y-60956019D01*
X47590365Y-61051257D01*
X47590365Y-61289352D01*
X47637984Y-61384590D01*
X47685603Y-61432209D01*
X47780841Y-61479828D01*
X47971318Y-61479828D01*
X48066556Y-61432209D01*
X48114175Y-61384590D01*
X48161794Y-61289352D01*
X66056860Y-45114506D02*
X65580670Y-45447840D01*
X66056860Y-45685935D02*
X65056860Y-45685935D01*
X65056860Y-45304982D01*
X65104480Y-45209744D01*
X65152099Y-45162125D01*
X65247337Y-45114506D01*
X65390194Y-45114506D01*
X65485432Y-45162125D01*
X65533051Y-45209744D01*
X65580670Y-45304982D01*
X65580670Y-45685935D01*
X65056860Y-44209744D02*
X65056860Y-44685935D01*
X65533051Y-44733554D01*
X65485432Y-44685935D01*
X65437813Y-44590697D01*
X65437813Y-44352601D01*
X65485432Y-44257363D01*
X65533051Y-44209744D01*
X65628289Y-44162125D01*
X65866384Y-44162125D01*
X65961622Y-44209744D01*
X66009241Y-44257363D01*
X66056860Y-44352601D01*
X66056860Y-44590697D01*
X66009241Y-44685935D01*
X65961622Y-44733554D01*
X58701702Y-58312220D02*
X58368369Y-57836030D01*
X58130274Y-58312220D02*
X58130274Y-57312220D01*
X58511226Y-57312220D01*
X58606464Y-57359840D01*
X58654083Y-57407459D01*
X58701702Y-57502697D01*
X58701702Y-57645554D01*
X58654083Y-57740792D01*
X58606464Y-57788411D01*
X58511226Y-57836030D01*
X58130274Y-57836030D01*
X59654083Y-58312220D02*
X59082655Y-58312220D01*
X59368369Y-58312220D02*
X59368369Y-57312220D01*
X59273131Y-57455078D01*
X59177893Y-57550316D01*
X59082655Y-57597935D01*
X60273131Y-57312220D02*
X60368369Y-57312220D01*
X60463607Y-57359840D01*
X60511226Y-57407459D01*
X60558845Y-57502697D01*
X60606464Y-57693173D01*
X60606464Y-57931268D01*
X60558845Y-58121744D01*
X60511226Y-58216982D01*
X60463607Y-58264601D01*
X60368369Y-58312220D01*
X60273131Y-58312220D01*
X60177893Y-58264601D01*
X60130274Y-58216982D01*
X60082655Y-58121744D01*
X60035036Y-57931268D01*
X60035036Y-57693173D01*
X60082655Y-57502697D01*
X60130274Y-57407459D01*
X60177893Y-57359840D01*
X60273131Y-57312220D01*
X53144182Y-66346420D02*
X52810849Y-65870230D01*
X52572754Y-66346420D02*
X52572754Y-65346420D01*
X52953706Y-65346420D01*
X53048944Y-65394040D01*
X53096563Y-65441659D01*
X53144182Y-65536897D01*
X53144182Y-65679754D01*
X53096563Y-65774992D01*
X53048944Y-65822611D01*
X52953706Y-65870230D01*
X52572754Y-65870230D01*
X54096563Y-66346420D02*
X53525135Y-66346420D01*
X53810849Y-66346420D02*
X53810849Y-65346420D01*
X53715611Y-65489278D01*
X53620373Y-65584516D01*
X53525135Y-65632135D01*
X54572754Y-66346420D02*
X54763230Y-66346420D01*
X54858468Y-66298801D01*
X54906087Y-66251182D01*
X55001325Y-66108325D01*
X55048944Y-65917849D01*
X55048944Y-65536897D01*
X55001325Y-65441659D01*
X54953706Y-65394040D01*
X54858468Y-65346420D01*
X54667992Y-65346420D01*
X54572754Y-65394040D01*
X54525135Y-65441659D01*
X54477516Y-65536897D01*
X54477516Y-65774992D01*
X54525135Y-65870230D01*
X54572754Y-65917849D01*
X54667992Y-65965468D01*
X54858468Y-65965468D01*
X54953706Y-65917849D01*
X55001325Y-65870230D01*
X55048944Y-65774992D01*
X109103420Y-63396097D02*
X108627230Y-63729430D01*
X109103420Y-63967525D02*
X108103420Y-63967525D01*
X108103420Y-63586573D01*
X108151040Y-63491335D01*
X108198659Y-63443716D01*
X108293897Y-63396097D01*
X108436754Y-63396097D01*
X108531992Y-63443716D01*
X108579611Y-63491335D01*
X108627230Y-63586573D01*
X108627230Y-63967525D01*
X109103420Y-62443716D02*
X109103420Y-63015144D01*
X109103420Y-62729430D02*
X108103420Y-62729430D01*
X108246278Y-62824668D01*
X108341516Y-62919906D01*
X108389135Y-63015144D01*
X108436754Y-61586573D02*
X109103420Y-61586573D01*
X108055801Y-61824668D02*
X108770087Y-62062763D01*
X108770087Y-61443716D01*
X120824340Y-75710017D02*
X120348150Y-76043350D01*
X120824340Y-76281445D02*
X119824340Y-76281445D01*
X119824340Y-75900493D01*
X119871960Y-75805255D01*
X119919579Y-75757636D01*
X120014817Y-75710017D01*
X120157674Y-75710017D01*
X120252912Y-75757636D01*
X120300531Y-75805255D01*
X120348150Y-75900493D01*
X120348150Y-76281445D01*
X120824340Y-74757636D02*
X120824340Y-75329064D01*
X120824340Y-75043350D02*
X119824340Y-75043350D01*
X119967198Y-75138588D01*
X120062436Y-75233826D01*
X120110055Y-75329064D01*
X119824340Y-73852874D02*
X119824340Y-74329064D01*
X120300531Y-74376683D01*
X120252912Y-74329064D01*
X120205293Y-74233826D01*
X120205293Y-73995731D01*
X120252912Y-73900493D01*
X120300531Y-73852874D01*
X120395769Y-73805255D01*
X120633864Y-73805255D01*
X120729102Y-73852874D01*
X120776721Y-73900493D01*
X120824340Y-73995731D01*
X120824340Y-74233826D01*
X120776721Y-74329064D01*
X120729102Y-74376683D01*
X116171060Y-56371786D02*
X115694870Y-56705120D01*
X116171060Y-56943215D02*
X115171060Y-56943215D01*
X115171060Y-56562262D01*
X115218680Y-56467024D01*
X115266299Y-56419405D01*
X115361537Y-56371786D01*
X115504394Y-56371786D01*
X115599632Y-56419405D01*
X115647251Y-56467024D01*
X115694870Y-56562262D01*
X115694870Y-56943215D01*
X115171060Y-56038453D02*
X115171060Y-55371786D01*
X116171060Y-55800358D01*
X113943300Y-75710017D02*
X113467110Y-76043350D01*
X113943300Y-76281445D02*
X112943300Y-76281445D01*
X112943300Y-75900493D01*
X112990920Y-75805255D01*
X113038539Y-75757636D01*
X113133777Y-75710017D01*
X113276634Y-75710017D01*
X113371872Y-75757636D01*
X113419491Y-75805255D01*
X113467110Y-75900493D01*
X113467110Y-76281445D01*
X113943300Y-74757636D02*
X113943300Y-75329064D01*
X113943300Y-75043350D02*
X112943300Y-75043350D01*
X113086158Y-75138588D01*
X113181396Y-75233826D01*
X113229015Y-75329064D01*
X112943300Y-74424302D02*
X112943300Y-73757636D01*
X113943300Y-74186207D01*
X116992660Y-89873057D02*
X116516470Y-90206390D01*
X116992660Y-90444485D02*
X115992660Y-90444485D01*
X115992660Y-90063533D01*
X116040280Y-89968295D01*
X116087899Y-89920676D01*
X116183137Y-89873057D01*
X116325994Y-89873057D01*
X116421232Y-89920676D01*
X116468851Y-89968295D01*
X116516470Y-90063533D01*
X116516470Y-90444485D01*
X116992660Y-88920676D02*
X116992660Y-89492104D01*
X116992660Y-89206390D02*
X115992660Y-89206390D01*
X116135518Y-89301628D01*
X116230756Y-89396866D01*
X116278375Y-89492104D01*
X116421232Y-88349247D02*
X116373613Y-88444485D01*
X116325994Y-88492104D01*
X116230756Y-88539723D01*
X116183137Y-88539723D01*
X116087899Y-88492104D01*
X116040280Y-88444485D01*
X115992660Y-88349247D01*
X115992660Y-88158771D01*
X116040280Y-88063533D01*
X116087899Y-88015914D01*
X116183137Y-87968295D01*
X116230756Y-87968295D01*
X116325994Y-88015914D01*
X116373613Y-88063533D01*
X116421232Y-88158771D01*
X116421232Y-88349247D01*
X116468851Y-88444485D01*
X116516470Y-88492104D01*
X116611708Y-88539723D01*
X116802184Y-88539723D01*
X116897422Y-88492104D01*
X116945041Y-88444485D01*
X116992660Y-88349247D01*
X116992660Y-88158771D01*
X116945041Y-88063533D01*
X116897422Y-88015914D01*
X116802184Y-87968295D01*
X116611708Y-87968295D01*
X116516470Y-88015914D01*
X116468851Y-88063533D01*
X116421232Y-88158771D01*
X59785641Y-69537820D02*
X59452308Y-69061630D01*
X59214213Y-69537820D02*
X59214213Y-68537820D01*
X59595165Y-68537820D01*
X59690403Y-68585440D01*
X59738022Y-68633059D01*
X59785641Y-68728297D01*
X59785641Y-68871154D01*
X59738022Y-68966392D01*
X59690403Y-69014011D01*
X59595165Y-69061630D01*
X59214213Y-69061630D01*
X60071356Y-68537820D02*
X60404689Y-69537820D01*
X60738022Y-68537820D01*
X61595165Y-69537820D02*
X61023737Y-69537820D01*
X61309451Y-69537820D02*
X61309451Y-68537820D01*
X61214213Y-68680678D01*
X61118975Y-68775916D01*
X61023737Y-68823535D01*
X54908333Y-82957142D02*
X54860714Y-83004761D01*
X54717857Y-83052380D01*
X54622619Y-83052380D01*
X54479761Y-83004761D01*
X54384523Y-82909523D01*
X54336904Y-82814285D01*
X54289285Y-82623809D01*
X54289285Y-82480952D01*
X54336904Y-82290476D01*
X54384523Y-82195238D01*
X54479761Y-82100000D01*
X54622619Y-82052380D01*
X54717857Y-82052380D01*
X54860714Y-82100000D01*
X54908333Y-82147619D01*
X55479761Y-82480952D02*
X55384523Y-82433333D01*
X55336904Y-82385714D01*
X55289285Y-82290476D01*
X55289285Y-82242857D01*
X55336904Y-82147619D01*
X55384523Y-82100000D01*
X55479761Y-82052380D01*
X55670238Y-82052380D01*
X55765476Y-82100000D01*
X55813095Y-82147619D01*
X55860714Y-82242857D01*
X55860714Y-82290476D01*
X55813095Y-82385714D01*
X55765476Y-82433333D01*
X55670238Y-82480952D01*
X55479761Y-82480952D01*
X55384523Y-82528571D01*
X55336904Y-82576190D01*
X55289285Y-82671428D01*
X55289285Y-82861904D01*
X55336904Y-82957142D01*
X55384523Y-83004761D01*
X55479761Y-83052380D01*
X55670238Y-83052380D01*
X55765476Y-83004761D01*
X55813095Y-82957142D01*
X55860714Y-82861904D01*
X55860714Y-82671428D01*
X55813095Y-82576190D01*
X55765476Y-82528571D01*
X55670238Y-82480952D01*
X64262342Y-53155386D02*
X64309961Y-53203005D01*
X64357580Y-53345862D01*
X64357580Y-53441100D01*
X64309961Y-53583958D01*
X64214723Y-53679196D01*
X64119485Y-53726815D01*
X63929009Y-53774434D01*
X63786152Y-53774434D01*
X63595676Y-53726815D01*
X63500438Y-53679196D01*
X63405200Y-53583958D01*
X63357580Y-53441100D01*
X63357580Y-53345862D01*
X63405200Y-53203005D01*
X63452819Y-53155386D01*
X63357580Y-52298243D02*
X63357580Y-52488720D01*
X63405200Y-52583958D01*
X63452819Y-52631577D01*
X63595676Y-52726815D01*
X63786152Y-52774434D01*
X64167104Y-52774434D01*
X64262342Y-52726815D01*
X64309961Y-52679196D01*
X64357580Y-52583958D01*
X64357580Y-52393481D01*
X64309961Y-52298243D01*
X64262342Y-52250624D01*
X64167104Y-52203005D01*
X63929009Y-52203005D01*
X63833771Y-52250624D01*
X63786152Y-52298243D01*
X63738533Y-52393481D01*
X63738533Y-52583958D01*
X63786152Y-52679196D01*
X63833771Y-52726815D01*
X63929009Y-52774434D01*
X65686662Y-66032937D02*
X65734281Y-66080556D01*
X65781900Y-66223413D01*
X65781900Y-66318651D01*
X65734281Y-66461508D01*
X65639043Y-66556746D01*
X65543805Y-66604365D01*
X65353329Y-66651984D01*
X65210472Y-66651984D01*
X65019996Y-66604365D01*
X64924758Y-66556746D01*
X64829520Y-66461508D01*
X64781900Y-66318651D01*
X64781900Y-66223413D01*
X64829520Y-66080556D01*
X64877139Y-66032937D01*
X65781900Y-65080556D02*
X65781900Y-65651984D01*
X65781900Y-65366270D02*
X64781900Y-65366270D01*
X64924758Y-65461508D01*
X65019996Y-65556746D01*
X65067615Y-65651984D01*
X64781900Y-64747222D02*
X64781900Y-64128175D01*
X65162853Y-64461508D01*
X65162853Y-64318651D01*
X65210472Y-64223413D01*
X65258091Y-64175794D01*
X65353329Y-64128175D01*
X65591424Y-64128175D01*
X65686662Y-64175794D01*
X65734281Y-64223413D01*
X65781900Y-64318651D01*
X65781900Y-64604365D01*
X65734281Y-64699603D01*
X65686662Y-64747222D01*
X53366373Y-67773822D02*
X53318754Y-67821441D01*
X53175897Y-67869060D01*
X53080659Y-67869060D01*
X52937801Y-67821441D01*
X52842563Y-67726203D01*
X52794944Y-67630965D01*
X52747325Y-67440489D01*
X52747325Y-67297632D01*
X52794944Y-67107156D01*
X52842563Y-67011918D01*
X52937801Y-66916680D01*
X53080659Y-66869060D01*
X53175897Y-66869060D01*
X53318754Y-66916680D01*
X53366373Y-66964299D01*
X53842563Y-67869060D02*
X54033040Y-67869060D01*
X54128278Y-67821441D01*
X54175897Y-67773822D01*
X54271135Y-67630965D01*
X54318754Y-67440489D01*
X54318754Y-67059537D01*
X54271135Y-66964299D01*
X54223516Y-66916680D01*
X54128278Y-66869060D01*
X53937801Y-66869060D01*
X53842563Y-66916680D01*
X53794944Y-66964299D01*
X53747325Y-67059537D01*
X53747325Y-67297632D01*
X53794944Y-67392870D01*
X53842563Y-67440489D01*
X53937801Y-67488108D01*
X54128278Y-67488108D01*
X54223516Y-67440489D01*
X54271135Y-67392870D01*
X54318754Y-67297632D01*
X81264380Y-60428095D02*
X80264380Y-60428095D01*
X80264380Y-60190000D01*
X80312000Y-60047142D01*
X80407238Y-59951904D01*
X80502476Y-59904285D01*
X80692952Y-59856666D01*
X80835809Y-59856666D01*
X81026285Y-59904285D01*
X81121523Y-59951904D01*
X81216761Y-60047142D01*
X81264380Y-60190000D01*
X81264380Y-60428095D01*
X81264380Y-58904285D02*
X81264380Y-59475714D01*
X81264380Y-59190000D02*
X80264380Y-59190000D01*
X80407238Y-59285238D01*
X80502476Y-59380476D01*
X80550095Y-59475714D01*
X86264380Y-66524095D02*
X85264380Y-66524095D01*
X85264380Y-66286000D01*
X85312000Y-66143142D01*
X85407238Y-66047904D01*
X85502476Y-66000285D01*
X85692952Y-65952666D01*
X85835809Y-65952666D01*
X86026285Y-66000285D01*
X86121523Y-66047904D01*
X86216761Y-66143142D01*
X86264380Y-66286000D01*
X86264380Y-66524095D01*
X85359619Y-65571714D02*
X85312000Y-65524095D01*
X85264380Y-65428857D01*
X85264380Y-65190761D01*
X85312000Y-65095523D01*
X85359619Y-65047904D01*
X85454857Y-65000285D01*
X85550095Y-65000285D01*
X85692952Y-65047904D01*
X86264380Y-65619333D01*
X86264380Y-65000285D01*
X87534380Y-86590095D02*
X86534380Y-86590095D01*
X86534380Y-86352000D01*
X86582000Y-86209142D01*
X86677238Y-86113904D01*
X86772476Y-86066285D01*
X86962952Y-86018666D01*
X87105809Y-86018666D01*
X87296285Y-86066285D01*
X87391523Y-86113904D01*
X87486761Y-86209142D01*
X87534380Y-86352000D01*
X87534380Y-86590095D01*
X86534380Y-85685333D02*
X86534380Y-85066285D01*
X86915333Y-85399619D01*
X86915333Y-85256761D01*
X86962952Y-85161523D01*
X87010571Y-85113904D01*
X87105809Y-85066285D01*
X87343904Y-85066285D01*
X87439142Y-85113904D01*
X87486761Y-85161523D01*
X87534380Y-85256761D01*
X87534380Y-85542476D01*
X87486761Y-85637714D01*
X87439142Y-85685333D01*
X82534380Y-79478095D02*
X81534380Y-79478095D01*
X81534380Y-79240000D01*
X81582000Y-79097142D01*
X81677238Y-79001904D01*
X81772476Y-78954285D01*
X81962952Y-78906666D01*
X82105809Y-78906666D01*
X82296285Y-78954285D01*
X82391523Y-79001904D01*
X82486761Y-79097142D01*
X82534380Y-79240000D01*
X82534380Y-79478095D01*
X81867714Y-78049523D02*
X82534380Y-78049523D01*
X81486761Y-78287619D02*
X82201047Y-78525714D01*
X82201047Y-77906666D01*
X69918942Y-45033226D02*
X69966561Y-45080845D01*
X70014180Y-45223702D01*
X70014180Y-45318940D01*
X69966561Y-45461798D01*
X69871323Y-45557036D01*
X69776085Y-45604655D01*
X69585609Y-45652274D01*
X69442752Y-45652274D01*
X69252276Y-45604655D01*
X69157038Y-45557036D01*
X69061800Y-45461798D01*
X69014180Y-45318940D01*
X69014180Y-45223702D01*
X69061800Y-45080845D01*
X69109419Y-45033226D01*
X69014180Y-44128464D02*
X69014180Y-44604655D01*
X69490371Y-44652274D01*
X69442752Y-44604655D01*
X69395133Y-44509417D01*
X69395133Y-44271321D01*
X69442752Y-44176083D01*
X69490371Y-44128464D01*
X69585609Y-44080845D01*
X69823704Y-44080845D01*
X69918942Y-44128464D01*
X69966561Y-44176083D01*
X70014180Y-44271321D01*
X70014180Y-44509417D01*
X69966561Y-44604655D01*
X69918942Y-44652274D01*
X127307702Y-89893377D02*
X127355321Y-89940996D01*
X127402940Y-90083853D01*
X127402940Y-90179091D01*
X127355321Y-90321948D01*
X127260083Y-90417186D01*
X127164845Y-90464805D01*
X126974369Y-90512424D01*
X126831512Y-90512424D01*
X126641036Y-90464805D01*
X126545798Y-90417186D01*
X126450560Y-90321948D01*
X126402940Y-90179091D01*
X126402940Y-90083853D01*
X126450560Y-89940996D01*
X126498179Y-89893377D01*
X127402940Y-88940996D02*
X127402940Y-89512424D01*
X127402940Y-89226710D02*
X126402940Y-89226710D01*
X126545798Y-89321948D01*
X126641036Y-89417186D01*
X126688655Y-89512424D01*
X126402940Y-88083853D02*
X126402940Y-88274329D01*
X126450560Y-88369567D01*
X126498179Y-88417186D01*
X126641036Y-88512424D01*
X126831512Y-88560043D01*
X127212464Y-88560043D01*
X127307702Y-88512424D01*
X127355321Y-88464805D01*
X127402940Y-88369567D01*
X127402940Y-88179091D01*
X127355321Y-88083853D01*
X127307702Y-88036234D01*
X127212464Y-87988615D01*
X126974369Y-87988615D01*
X126879131Y-88036234D01*
X126831512Y-88083853D01*
X126783893Y-88179091D01*
X126783893Y-88369567D01*
X126831512Y-88464805D01*
X126879131Y-88512424D01*
X126974369Y-88560043D01*
X131706982Y-54607697D02*
X131754601Y-54655316D01*
X131802220Y-54798173D01*
X131802220Y-54893411D01*
X131754601Y-55036268D01*
X131659363Y-55131506D01*
X131564125Y-55179125D01*
X131373649Y-55226744D01*
X131230792Y-55226744D01*
X131040316Y-55179125D01*
X130945078Y-55131506D01*
X130849840Y-55036268D01*
X130802220Y-54893411D01*
X130802220Y-54798173D01*
X130849840Y-54655316D01*
X130897459Y-54607697D01*
X131802220Y-53655316D02*
X131802220Y-54226744D01*
X131802220Y-53941030D02*
X130802220Y-53941030D01*
X130945078Y-54036268D01*
X131040316Y-54131506D01*
X131087935Y-54226744D01*
X131135554Y-52798173D02*
X131802220Y-52798173D01*
X130754601Y-53036268D02*
X131468887Y-53274363D01*
X131468887Y-52655316D01*
X131790622Y-54663577D02*
X131838241Y-54711196D01*
X131885860Y-54854053D01*
X131885860Y-54949291D01*
X131838241Y-55092148D01*
X131743003Y-55187386D01*
X131647765Y-55235005D01*
X131457289Y-55282624D01*
X131314432Y-55282624D01*
X131123956Y-55235005D01*
X131028718Y-55187386D01*
X130933480Y-55092148D01*
X130885860Y-54949291D01*
X130885860Y-54854053D01*
X130933480Y-54711196D01*
X130981099Y-54663577D01*
X131885860Y-53711196D02*
X131885860Y-54282624D01*
X131885860Y-53996910D02*
X130885860Y-53996910D01*
X131028718Y-54092148D01*
X131123956Y-54187386D01*
X131171575Y-54282624D01*
X130885860Y-52806434D02*
X130885860Y-53282624D01*
X131362051Y-53330243D01*
X131314432Y-53282624D01*
X131266813Y-53187386D01*
X131266813Y-52949291D01*
X131314432Y-52854053D01*
X131362051Y-52806434D01*
X131457289Y-52758815D01*
X131695384Y-52758815D01*
X131790622Y-52806434D01*
X131838241Y-52854053D01*
X131885860Y-52949291D01*
X131885860Y-53187386D01*
X131838241Y-53282624D01*
X131790622Y-53330243D01*
X132918382Y-61272657D02*
X132966001Y-61320276D01*
X133013620Y-61463133D01*
X133013620Y-61558371D01*
X132966001Y-61701228D01*
X132870763Y-61796466D01*
X132775525Y-61844085D01*
X132585049Y-61891704D01*
X132442192Y-61891704D01*
X132251716Y-61844085D01*
X132156478Y-61796466D01*
X132061240Y-61701228D01*
X132013620Y-61558371D01*
X132013620Y-61463133D01*
X132061240Y-61320276D01*
X132108859Y-61272657D01*
X133013620Y-60320276D02*
X133013620Y-60891704D01*
X133013620Y-60605990D02*
X132013620Y-60605990D01*
X132156478Y-60701228D01*
X132251716Y-60796466D01*
X132299335Y-60891704D01*
X132013620Y-59986942D02*
X132013620Y-59320276D01*
X133013620Y-59748847D01*
X124317522Y-80835760D02*
X123984189Y-80359570D01*
X123746094Y-80835760D02*
X123746094Y-79835760D01*
X124127046Y-79835760D01*
X124222284Y-79883380D01*
X124269903Y-79930999D01*
X124317522Y-80026237D01*
X124317522Y-80169094D01*
X124269903Y-80264332D01*
X124222284Y-80311951D01*
X124127046Y-80359570D01*
X123746094Y-80359570D01*
X124698475Y-79930999D02*
X124746094Y-79883380D01*
X124841332Y-79835760D01*
X125079427Y-79835760D01*
X125174665Y-79883380D01*
X125222284Y-79930999D01*
X125269903Y-80026237D01*
X125269903Y-80121475D01*
X125222284Y-80264332D01*
X124650856Y-80835760D01*
X125269903Y-80835760D01*
X125603237Y-79835760D02*
X126269903Y-79835760D01*
X125841332Y-80835760D01*
X124302282Y-74760080D02*
X123968949Y-74283890D01*
X123730854Y-74760080D02*
X123730854Y-73760080D01*
X124111806Y-73760080D01*
X124207044Y-73807700D01*
X124254663Y-73855319D01*
X124302282Y-73950557D01*
X124302282Y-74093414D01*
X124254663Y-74188652D01*
X124207044Y-74236271D01*
X124111806Y-74283890D01*
X123730854Y-74283890D01*
X124683235Y-73855319D02*
X124730854Y-73807700D01*
X124826092Y-73760080D01*
X125064187Y-73760080D01*
X125159425Y-73807700D01*
X125207044Y-73855319D01*
X125254663Y-73950557D01*
X125254663Y-74045795D01*
X125207044Y-74188652D01*
X124635616Y-74760080D01*
X125254663Y-74760080D01*
X126159425Y-73760080D02*
X125683235Y-73760080D01*
X125635616Y-74236271D01*
X125683235Y-74188652D01*
X125778473Y-74141033D01*
X126016568Y-74141033D01*
X126111806Y-74188652D01*
X126159425Y-74236271D01*
X126207044Y-74331509D01*
X126207044Y-74569604D01*
X126159425Y-74664842D01*
X126111806Y-74712461D01*
X126016568Y-74760080D01*
X125778473Y-74760080D01*
X125683235Y-74712461D01*
X125635616Y-74664842D01*
X127835422Y-64211460D02*
X127502089Y-63735270D01*
X127263994Y-64211460D02*
X127263994Y-63211460D01*
X127644946Y-63211460D01*
X127740184Y-63259080D01*
X127787803Y-63306699D01*
X127835422Y-63401937D01*
X127835422Y-63544794D01*
X127787803Y-63640032D01*
X127740184Y-63687651D01*
X127644946Y-63735270D01*
X127263994Y-63735270D01*
X128216375Y-63306699D02*
X128263994Y-63259080D01*
X128359232Y-63211460D01*
X128597327Y-63211460D01*
X128692565Y-63259080D01*
X128740184Y-63306699D01*
X128787803Y-63401937D01*
X128787803Y-63497175D01*
X128740184Y-63640032D01*
X128168756Y-64211460D01*
X128787803Y-64211460D01*
X129644946Y-63544794D02*
X129644946Y-64211460D01*
X129406851Y-63163841D02*
X129168756Y-63878127D01*
X129787803Y-63878127D01*
X128341380Y-83878657D02*
X127865190Y-84211990D01*
X128341380Y-84450085D02*
X127341380Y-84450085D01*
X127341380Y-84069133D01*
X127389000Y-83973895D01*
X127436619Y-83926276D01*
X127531857Y-83878657D01*
X127674714Y-83878657D01*
X127769952Y-83926276D01*
X127817571Y-83973895D01*
X127865190Y-84069133D01*
X127865190Y-84450085D01*
X127436619Y-83497704D02*
X127389000Y-83450085D01*
X127341380Y-83354847D01*
X127341380Y-83116752D01*
X127389000Y-83021514D01*
X127436619Y-82973895D01*
X127531857Y-82926276D01*
X127627095Y-82926276D01*
X127769952Y-82973895D01*
X128341380Y-83545323D01*
X128341380Y-82926276D01*
X128341380Y-82450085D02*
X128341380Y-82259609D01*
X128293761Y-82164371D01*
X128246142Y-82116752D01*
X128103285Y-82021514D01*
X127912809Y-81973895D01*
X127531857Y-81973895D01*
X127436619Y-82021514D01*
X127389000Y-82069133D01*
X127341380Y-82164371D01*
X127341380Y-82354847D01*
X127389000Y-82450085D01*
X127436619Y-82497704D01*
X127531857Y-82545323D01*
X127769952Y-82545323D01*
X127865190Y-82497704D01*
X127912809Y-82450085D01*
X127960428Y-82354847D01*
X127960428Y-82164371D01*
X127912809Y-82069133D01*
X127865190Y-82021514D01*
X127769952Y-81973895D01*
X124289582Y-68346580D02*
X123956249Y-67870390D01*
X123718154Y-68346580D02*
X123718154Y-67346580D01*
X124099106Y-67346580D01*
X124194344Y-67394200D01*
X124241963Y-67441819D01*
X124289582Y-67537057D01*
X124289582Y-67679914D01*
X124241963Y-67775152D01*
X124194344Y-67822771D01*
X124099106Y-67870390D01*
X123718154Y-67870390D01*
X124622916Y-67346580D02*
X125241963Y-67346580D01*
X124908630Y-67727533D01*
X125051487Y-67727533D01*
X125146725Y-67775152D01*
X125194344Y-67822771D01*
X125241963Y-67918009D01*
X125241963Y-68156104D01*
X125194344Y-68251342D01*
X125146725Y-68298961D01*
X125051487Y-68346580D01*
X124765773Y-68346580D01*
X124670535Y-68298961D01*
X124622916Y-68251342D01*
X125861011Y-67346580D02*
X125956249Y-67346580D01*
X126051487Y-67394200D01*
X126099106Y-67441819D01*
X126146725Y-67537057D01*
X126194344Y-67727533D01*
X126194344Y-67965628D01*
X126146725Y-68156104D01*
X126099106Y-68251342D01*
X126051487Y-68298961D01*
X125956249Y-68346580D01*
X125861011Y-68346580D01*
X125765773Y-68298961D01*
X125718154Y-68251342D01*
X125670535Y-68156104D01*
X125622916Y-67965628D01*
X125622916Y-67727533D01*
X125670535Y-67537057D01*
X125718154Y-67441819D01*
X125765773Y-67394200D01*
X125861011Y-67346580D01*
X128660060Y-61171057D02*
X128183870Y-61504390D01*
X128660060Y-61742485D02*
X127660060Y-61742485D01*
X127660060Y-61361533D01*
X127707680Y-61266295D01*
X127755299Y-61218676D01*
X127850537Y-61171057D01*
X127993394Y-61171057D01*
X128088632Y-61218676D01*
X128136251Y-61266295D01*
X128183870Y-61361533D01*
X128183870Y-61742485D01*
X127660060Y-60837723D02*
X127660060Y-60218676D01*
X128041013Y-60552009D01*
X128041013Y-60409152D01*
X128088632Y-60313914D01*
X128136251Y-60266295D01*
X128231489Y-60218676D01*
X128469584Y-60218676D01*
X128564822Y-60266295D01*
X128612441Y-60313914D01*
X128660060Y-60409152D01*
X128660060Y-60694866D01*
X128612441Y-60790104D01*
X128564822Y-60837723D01*
X128660060Y-59266295D02*
X128660060Y-59837723D01*
X128660060Y-59552009D02*
X127660060Y-59552009D01*
X127802918Y-59647247D01*
X127898156Y-59742485D01*
X127945775Y-59837723D01*
X124914422Y-51166020D02*
X124581089Y-50689830D01*
X124342994Y-51166020D02*
X124342994Y-50166020D01*
X124723946Y-50166020D01*
X124819184Y-50213640D01*
X124866803Y-50261259D01*
X124914422Y-50356497D01*
X124914422Y-50499354D01*
X124866803Y-50594592D01*
X124819184Y-50642211D01*
X124723946Y-50689830D01*
X124342994Y-50689830D01*
X125295375Y-50261259D02*
X125342994Y-50213640D01*
X125438232Y-50166020D01*
X125676327Y-50166020D01*
X125771565Y-50213640D01*
X125819184Y-50261259D01*
X125866803Y-50356497D01*
X125866803Y-50451735D01*
X125819184Y-50594592D01*
X125247756Y-51166020D01*
X125866803Y-51166020D01*
X126485851Y-50166020D02*
X126581089Y-50166020D01*
X126676327Y-50213640D01*
X126723946Y-50261259D01*
X126771565Y-50356497D01*
X126819184Y-50546973D01*
X126819184Y-50785068D01*
X126771565Y-50975544D01*
X126723946Y-51070782D01*
X126676327Y-51118401D01*
X126581089Y-51166020D01*
X126485851Y-51166020D01*
X126390613Y-51118401D01*
X126342994Y-51070782D01*
X126295375Y-50975544D01*
X126247756Y-50785068D01*
X126247756Y-50546973D01*
X126295375Y-50356497D01*
X126342994Y-50261259D01*
X126390613Y-50213640D01*
X126485851Y-50166020D01*
X117776666Y-50252380D02*
X117776666Y-50966666D01*
X117729047Y-51109523D01*
X117633809Y-51204761D01*
X117490952Y-51252380D01*
X117395714Y-51252380D01*
X118776666Y-51252380D02*
X118205238Y-51252380D01*
X118490952Y-51252380D02*
X118490952Y-50252380D01*
X118395714Y-50395238D01*
X118300476Y-50490476D01*
X118205238Y-50538095D01*
X57545859Y-52480198D02*
X57498240Y-52575436D01*
X57403001Y-52670674D01*
X57260144Y-52813531D01*
X57212525Y-52908769D01*
X57212525Y-53004007D01*
X57450620Y-52956388D02*
X57403001Y-53051626D01*
X57307763Y-53146864D01*
X57117287Y-53194483D01*
X56783954Y-53194483D01*
X56593478Y-53146864D01*
X56498240Y-53051626D01*
X56450620Y-52956388D01*
X56450620Y-52765912D01*
X56498240Y-52670674D01*
X56593478Y-52575436D01*
X56783954Y-52527817D01*
X57117287Y-52527817D01*
X57307763Y-52575436D01*
X57403001Y-52670674D01*
X57450620Y-52765912D01*
X57450620Y-52956388D01*
X56783954Y-51670674D02*
X57450620Y-51670674D01*
X56403001Y-51908769D02*
X57117287Y-52146864D01*
X57117287Y-51527817D01*
X115680099Y-62802758D02*
X115632480Y-62897996D01*
X115537241Y-62993234D01*
X115394384Y-63136091D01*
X115346765Y-63231329D01*
X115346765Y-63326567D01*
X115584860Y-63278948D02*
X115537241Y-63374186D01*
X115442003Y-63469424D01*
X115251527Y-63517043D01*
X114918194Y-63517043D01*
X114727718Y-63469424D01*
X114632480Y-63374186D01*
X114584860Y-63278948D01*
X114584860Y-63088472D01*
X114632480Y-62993234D01*
X114727718Y-62897996D01*
X114918194Y-62850377D01*
X115251527Y-62850377D01*
X115442003Y-62897996D01*
X115537241Y-62993234D01*
X115584860Y-63088472D01*
X115584860Y-63278948D01*
X114680099Y-62469424D02*
X114632480Y-62421805D01*
X114584860Y-62326567D01*
X114584860Y-62088472D01*
X114632480Y-61993234D01*
X114680099Y-61945615D01*
X114775337Y-61897996D01*
X114870575Y-61897996D01*
X115013432Y-61945615D01*
X115584860Y-62517043D01*
X115584860Y-61897996D01*
X108888139Y-75253838D02*
X108840520Y-75349076D01*
X108745281Y-75444314D01*
X108602424Y-75587171D01*
X108554805Y-75682409D01*
X108554805Y-75777647D01*
X108792900Y-75730028D02*
X108745281Y-75825266D01*
X108650043Y-75920504D01*
X108459567Y-75968123D01*
X108126234Y-75968123D01*
X107935758Y-75920504D01*
X107840520Y-75825266D01*
X107792900Y-75730028D01*
X107792900Y-75539552D01*
X107840520Y-75444314D01*
X107935758Y-75349076D01*
X108126234Y-75301457D01*
X108459567Y-75301457D01*
X108650043Y-75349076D01*
X108745281Y-75444314D01*
X108792900Y-75539552D01*
X108792900Y-75730028D01*
X108792900Y-74349076D02*
X108792900Y-74920504D01*
X108792900Y-74634790D02*
X107792900Y-74634790D01*
X107935758Y-74730028D01*
X108030996Y-74825266D01*
X108078615Y-74920504D01*
X109126899Y-83036398D02*
X109079280Y-83131636D01*
X108984041Y-83226874D01*
X108841184Y-83369731D01*
X108793565Y-83464969D01*
X108793565Y-83560207D01*
X109031660Y-83512588D02*
X108984041Y-83607826D01*
X108888803Y-83703064D01*
X108698327Y-83750683D01*
X108364994Y-83750683D01*
X108174518Y-83703064D01*
X108079280Y-83607826D01*
X108031660Y-83512588D01*
X108031660Y-83322112D01*
X108079280Y-83226874D01*
X108174518Y-83131636D01*
X108364994Y-83084017D01*
X108698327Y-83084017D01*
X108888803Y-83131636D01*
X108984041Y-83226874D01*
X109031660Y-83322112D01*
X109031660Y-83512588D01*
X108031660Y-82750683D02*
X108031660Y-82131636D01*
X108412613Y-82464969D01*
X108412613Y-82322112D01*
X108460232Y-82226874D01*
X108507851Y-82179255D01*
X108603089Y-82131636D01*
X108841184Y-82131636D01*
X108936422Y-82179255D01*
X108984041Y-82226874D01*
X109031660Y-82322112D01*
X109031660Y-82607826D01*
X108984041Y-82703064D01*
X108936422Y-82750683D01*
X127867019Y-77235038D02*
X127819400Y-77330276D01*
X127724161Y-77425514D01*
X127581304Y-77568371D01*
X127533685Y-77663609D01*
X127533685Y-77758847D01*
X127771780Y-77711228D02*
X127724161Y-77806466D01*
X127628923Y-77901704D01*
X127438447Y-77949323D01*
X127105114Y-77949323D01*
X126914638Y-77901704D01*
X126819400Y-77806466D01*
X126771780Y-77711228D01*
X126771780Y-77520752D01*
X126819400Y-77425514D01*
X126914638Y-77330276D01*
X127105114Y-77282657D01*
X127438447Y-77282657D01*
X127628923Y-77330276D01*
X127724161Y-77425514D01*
X127771780Y-77520752D01*
X127771780Y-77711228D01*
X126771780Y-76425514D02*
X126771780Y-76615990D01*
X126819400Y-76711228D01*
X126867019Y-76758847D01*
X127009876Y-76854085D01*
X127200352Y-76901704D01*
X127581304Y-76901704D01*
X127676542Y-76854085D01*
X127724161Y-76806466D01*
X127771780Y-76711228D01*
X127771780Y-76520752D01*
X127724161Y-76425514D01*
X127676542Y-76377895D01*
X127581304Y-76330276D01*
X127343209Y-76330276D01*
X127247971Y-76377895D01*
X127200352Y-76425514D01*
X127152733Y-76520752D01*
X127152733Y-76711228D01*
X127200352Y-76806466D01*
X127247971Y-76854085D01*
X127343209Y-76901704D01*
X128977401Y-68161779D02*
X128882163Y-68114160D01*
X128786925Y-68018921D01*
X128644068Y-67876064D01*
X128548830Y-67828445D01*
X128453592Y-67828445D01*
X128501211Y-68066540D02*
X128405973Y-68018921D01*
X128310735Y-67923683D01*
X128263116Y-67733207D01*
X128263116Y-67399874D01*
X128310735Y-67209398D01*
X128405973Y-67114160D01*
X128501211Y-67066540D01*
X128691687Y-67066540D01*
X128786925Y-67114160D01*
X128882163Y-67209398D01*
X128929782Y-67399874D01*
X128929782Y-67733207D01*
X128882163Y-67923683D01*
X128786925Y-68018921D01*
X128691687Y-68066540D01*
X128501211Y-68066540D01*
X129834544Y-67066540D02*
X129358354Y-67066540D01*
X129310735Y-67542731D01*
X129358354Y-67495112D01*
X129453592Y-67447493D01*
X129691687Y-67447493D01*
X129786925Y-67495112D01*
X129834544Y-67542731D01*
X129882163Y-67637969D01*
X129882163Y-67876064D01*
X129834544Y-67971302D01*
X129786925Y-68018921D01*
X129691687Y-68066540D01*
X129453592Y-68066540D01*
X129358354Y-68018921D01*
X129310735Y-67971302D01*
X125604281Y-63819659D02*
X125509043Y-63772040D01*
X125413805Y-63676801D01*
X125270948Y-63533944D01*
X125175710Y-63486325D01*
X125080472Y-63486325D01*
X125128091Y-63724420D02*
X125032853Y-63676801D01*
X124937615Y-63581563D01*
X124889996Y-63391087D01*
X124889996Y-63057754D01*
X124937615Y-62867278D01*
X125032853Y-62772040D01*
X125128091Y-62724420D01*
X125318567Y-62724420D01*
X125413805Y-62772040D01*
X125509043Y-62867278D01*
X125556662Y-63057754D01*
X125556662Y-63391087D01*
X125509043Y-63581563D01*
X125413805Y-63676801D01*
X125318567Y-63724420D01*
X125128091Y-63724420D01*
X125889996Y-62724420D02*
X126556662Y-62724420D01*
X126128091Y-63724420D01*
M02*
