G04 #@! TF.GenerationSoftware,KiCad,Pcbnew,(5.1.5)-3*
G04 #@! TF.CreationDate,2020-10-28T17:30:45+01:00*
G04 #@! TF.ProjectId,exciter,65786369-7465-4722-9e6b-696361645f70,rev?*
G04 #@! TF.SameCoordinates,Original*
G04 #@! TF.FileFunction,Paste,Top*
G04 #@! TF.FilePolarity,Positive*
%FSLAX46Y46*%
G04 Gerber Fmt 4.6, Leading zero omitted, Abs format (unit mm)*
G04 Created by KiCad (PCBNEW (5.1.5)-3) date 2020-10-28 17:30:45*
%MOMM*%
%LPD*%
G04 APERTURE LIST*
%ADD10C,0.100000*%
%ADD11R,1.500000X3.600000*%
%ADD12R,1.500000X2.000000*%
%ADD13R,3.800000X2.000000*%
%ADD14R,0.800000X0.900000*%
%ADD15R,0.900000X0.800000*%
G04 APERTURE END LIST*
D10*
G36*
X143905504Y-87390204D02*
G01*
X143929773Y-87393804D01*
X143953571Y-87399765D01*
X143976671Y-87408030D01*
X143998849Y-87418520D01*
X144019893Y-87431133D01*
X144039598Y-87445747D01*
X144057777Y-87462223D01*
X144074253Y-87480402D01*
X144088867Y-87500107D01*
X144101480Y-87521151D01*
X144111970Y-87543329D01*
X144120235Y-87566429D01*
X144126196Y-87590227D01*
X144129796Y-87614496D01*
X144131000Y-87639000D01*
X144131000Y-88564000D01*
X144129796Y-88588504D01*
X144126196Y-88612773D01*
X144120235Y-88636571D01*
X144111970Y-88659671D01*
X144101480Y-88681849D01*
X144088867Y-88702893D01*
X144074253Y-88722598D01*
X144057777Y-88740777D01*
X144039598Y-88757253D01*
X144019893Y-88771867D01*
X143998849Y-88784480D01*
X143976671Y-88794970D01*
X143953571Y-88803235D01*
X143929773Y-88809196D01*
X143905504Y-88812796D01*
X143881000Y-88814000D01*
X142631000Y-88814000D01*
X142606496Y-88812796D01*
X142582227Y-88809196D01*
X142558429Y-88803235D01*
X142535329Y-88794970D01*
X142513151Y-88784480D01*
X142492107Y-88771867D01*
X142472402Y-88757253D01*
X142454223Y-88740777D01*
X142437747Y-88722598D01*
X142423133Y-88702893D01*
X142410520Y-88681849D01*
X142400030Y-88659671D01*
X142391765Y-88636571D01*
X142385804Y-88612773D01*
X142382204Y-88588504D01*
X142381000Y-88564000D01*
X142381000Y-87639000D01*
X142382204Y-87614496D01*
X142385804Y-87590227D01*
X142391765Y-87566429D01*
X142400030Y-87543329D01*
X142410520Y-87521151D01*
X142423133Y-87500107D01*
X142437747Y-87480402D01*
X142454223Y-87462223D01*
X142472402Y-87445747D01*
X142492107Y-87431133D01*
X142513151Y-87418520D01*
X142535329Y-87408030D01*
X142558429Y-87399765D01*
X142582227Y-87393804D01*
X142606496Y-87390204D01*
X142631000Y-87389000D01*
X143881000Y-87389000D01*
X143905504Y-87390204D01*
G37*
G36*
X143905504Y-84415204D02*
G01*
X143929773Y-84418804D01*
X143953571Y-84424765D01*
X143976671Y-84433030D01*
X143998849Y-84443520D01*
X144019893Y-84456133D01*
X144039598Y-84470747D01*
X144057777Y-84487223D01*
X144074253Y-84505402D01*
X144088867Y-84525107D01*
X144101480Y-84546151D01*
X144111970Y-84568329D01*
X144120235Y-84591429D01*
X144126196Y-84615227D01*
X144129796Y-84639496D01*
X144131000Y-84664000D01*
X144131000Y-85589000D01*
X144129796Y-85613504D01*
X144126196Y-85637773D01*
X144120235Y-85661571D01*
X144111970Y-85684671D01*
X144101480Y-85706849D01*
X144088867Y-85727893D01*
X144074253Y-85747598D01*
X144057777Y-85765777D01*
X144039598Y-85782253D01*
X144019893Y-85796867D01*
X143998849Y-85809480D01*
X143976671Y-85819970D01*
X143953571Y-85828235D01*
X143929773Y-85834196D01*
X143905504Y-85837796D01*
X143881000Y-85839000D01*
X142631000Y-85839000D01*
X142606496Y-85837796D01*
X142582227Y-85834196D01*
X142558429Y-85828235D01*
X142535329Y-85819970D01*
X142513151Y-85809480D01*
X142492107Y-85796867D01*
X142472402Y-85782253D01*
X142454223Y-85765777D01*
X142437747Y-85747598D01*
X142423133Y-85727893D01*
X142410520Y-85706849D01*
X142400030Y-85684671D01*
X142391765Y-85661571D01*
X142385804Y-85637773D01*
X142382204Y-85613504D01*
X142381000Y-85589000D01*
X142381000Y-84664000D01*
X142382204Y-84639496D01*
X142385804Y-84615227D01*
X142391765Y-84591429D01*
X142400030Y-84568329D01*
X142410520Y-84546151D01*
X142423133Y-84525107D01*
X142437747Y-84505402D01*
X142454223Y-84487223D01*
X142472402Y-84470747D01*
X142492107Y-84456133D01*
X142513151Y-84443520D01*
X142535329Y-84433030D01*
X142558429Y-84424765D01*
X142582227Y-84418804D01*
X142606496Y-84415204D01*
X142631000Y-84414000D01*
X143881000Y-84414000D01*
X143905504Y-84415204D01*
G37*
G36*
X128466504Y-47132204D02*
G01*
X128490773Y-47135804D01*
X128514571Y-47141765D01*
X128537671Y-47150030D01*
X128559849Y-47160520D01*
X128580893Y-47173133D01*
X128600598Y-47187747D01*
X128618777Y-47204223D01*
X128635253Y-47222402D01*
X128649867Y-47242107D01*
X128662480Y-47263151D01*
X128672970Y-47285329D01*
X128681235Y-47308429D01*
X128687196Y-47332227D01*
X128690796Y-47356496D01*
X128692000Y-47381000D01*
X128692000Y-48631000D01*
X128690796Y-48655504D01*
X128687196Y-48679773D01*
X128681235Y-48703571D01*
X128672970Y-48726671D01*
X128662480Y-48748849D01*
X128649867Y-48769893D01*
X128635253Y-48789598D01*
X128618777Y-48807777D01*
X128600598Y-48824253D01*
X128580893Y-48838867D01*
X128559849Y-48851480D01*
X128537671Y-48861970D01*
X128514571Y-48870235D01*
X128490773Y-48876196D01*
X128466504Y-48879796D01*
X128442000Y-48881000D01*
X127517000Y-48881000D01*
X127492496Y-48879796D01*
X127468227Y-48876196D01*
X127444429Y-48870235D01*
X127421329Y-48861970D01*
X127399151Y-48851480D01*
X127378107Y-48838867D01*
X127358402Y-48824253D01*
X127340223Y-48807777D01*
X127323747Y-48789598D01*
X127309133Y-48769893D01*
X127296520Y-48748849D01*
X127286030Y-48726671D01*
X127277765Y-48703571D01*
X127271804Y-48679773D01*
X127268204Y-48655504D01*
X127267000Y-48631000D01*
X127267000Y-47381000D01*
X127268204Y-47356496D01*
X127271804Y-47332227D01*
X127277765Y-47308429D01*
X127286030Y-47285329D01*
X127296520Y-47263151D01*
X127309133Y-47242107D01*
X127323747Y-47222402D01*
X127340223Y-47204223D01*
X127358402Y-47187747D01*
X127378107Y-47173133D01*
X127399151Y-47160520D01*
X127421329Y-47150030D01*
X127444429Y-47141765D01*
X127468227Y-47135804D01*
X127492496Y-47132204D01*
X127517000Y-47131000D01*
X128442000Y-47131000D01*
X128466504Y-47132204D01*
G37*
G36*
X125491504Y-47132204D02*
G01*
X125515773Y-47135804D01*
X125539571Y-47141765D01*
X125562671Y-47150030D01*
X125584849Y-47160520D01*
X125605893Y-47173133D01*
X125625598Y-47187747D01*
X125643777Y-47204223D01*
X125660253Y-47222402D01*
X125674867Y-47242107D01*
X125687480Y-47263151D01*
X125697970Y-47285329D01*
X125706235Y-47308429D01*
X125712196Y-47332227D01*
X125715796Y-47356496D01*
X125717000Y-47381000D01*
X125717000Y-48631000D01*
X125715796Y-48655504D01*
X125712196Y-48679773D01*
X125706235Y-48703571D01*
X125697970Y-48726671D01*
X125687480Y-48748849D01*
X125674867Y-48769893D01*
X125660253Y-48789598D01*
X125643777Y-48807777D01*
X125625598Y-48824253D01*
X125605893Y-48838867D01*
X125584849Y-48851480D01*
X125562671Y-48861970D01*
X125539571Y-48870235D01*
X125515773Y-48876196D01*
X125491504Y-48879796D01*
X125467000Y-48881000D01*
X124542000Y-48881000D01*
X124517496Y-48879796D01*
X124493227Y-48876196D01*
X124469429Y-48870235D01*
X124446329Y-48861970D01*
X124424151Y-48851480D01*
X124403107Y-48838867D01*
X124383402Y-48824253D01*
X124365223Y-48807777D01*
X124348747Y-48789598D01*
X124334133Y-48769893D01*
X124321520Y-48748849D01*
X124311030Y-48726671D01*
X124302765Y-48703571D01*
X124296804Y-48679773D01*
X124293204Y-48655504D01*
X124292000Y-48631000D01*
X124292000Y-47381000D01*
X124293204Y-47356496D01*
X124296804Y-47332227D01*
X124302765Y-47308429D01*
X124311030Y-47285329D01*
X124321520Y-47263151D01*
X124334133Y-47242107D01*
X124348747Y-47222402D01*
X124365223Y-47204223D01*
X124383402Y-47187747D01*
X124403107Y-47173133D01*
X124424151Y-47160520D01*
X124446329Y-47150030D01*
X124469429Y-47141765D01*
X124493227Y-47135804D01*
X124517496Y-47132204D01*
X124542000Y-47131000D01*
X125467000Y-47131000D01*
X125491504Y-47132204D01*
G37*
D11*
X156719000Y-83312000D03*
X153669000Y-83312000D03*
D10*
G36*
X131713504Y-44537204D02*
G01*
X131737773Y-44540804D01*
X131761571Y-44546765D01*
X131784671Y-44555030D01*
X131806849Y-44565520D01*
X131827893Y-44578133D01*
X131847598Y-44592747D01*
X131865777Y-44609223D01*
X131882253Y-44627402D01*
X131896867Y-44647107D01*
X131909480Y-44668151D01*
X131919970Y-44690329D01*
X131928235Y-44713429D01*
X131934196Y-44737227D01*
X131937796Y-44761496D01*
X131939000Y-44786000D01*
X131939000Y-45711000D01*
X131937796Y-45735504D01*
X131934196Y-45759773D01*
X131928235Y-45783571D01*
X131919970Y-45806671D01*
X131909480Y-45828849D01*
X131896867Y-45849893D01*
X131882253Y-45869598D01*
X131865777Y-45887777D01*
X131847598Y-45904253D01*
X131827893Y-45918867D01*
X131806849Y-45931480D01*
X131784671Y-45941970D01*
X131761571Y-45950235D01*
X131737773Y-45956196D01*
X131713504Y-45959796D01*
X131689000Y-45961000D01*
X130439000Y-45961000D01*
X130414496Y-45959796D01*
X130390227Y-45956196D01*
X130366429Y-45950235D01*
X130343329Y-45941970D01*
X130321151Y-45931480D01*
X130300107Y-45918867D01*
X130280402Y-45904253D01*
X130262223Y-45887777D01*
X130245747Y-45869598D01*
X130231133Y-45849893D01*
X130218520Y-45828849D01*
X130208030Y-45806671D01*
X130199765Y-45783571D01*
X130193804Y-45759773D01*
X130190204Y-45735504D01*
X130189000Y-45711000D01*
X130189000Y-44786000D01*
X130190204Y-44761496D01*
X130193804Y-44737227D01*
X130199765Y-44713429D01*
X130208030Y-44690329D01*
X130218520Y-44668151D01*
X130231133Y-44647107D01*
X130245747Y-44627402D01*
X130262223Y-44609223D01*
X130280402Y-44592747D01*
X130300107Y-44578133D01*
X130321151Y-44565520D01*
X130343329Y-44555030D01*
X130366429Y-44546765D01*
X130390227Y-44540804D01*
X130414496Y-44537204D01*
X130439000Y-44536000D01*
X131689000Y-44536000D01*
X131713504Y-44537204D01*
G37*
G36*
X131713504Y-47512204D02*
G01*
X131737773Y-47515804D01*
X131761571Y-47521765D01*
X131784671Y-47530030D01*
X131806849Y-47540520D01*
X131827893Y-47553133D01*
X131847598Y-47567747D01*
X131865777Y-47584223D01*
X131882253Y-47602402D01*
X131896867Y-47622107D01*
X131909480Y-47643151D01*
X131919970Y-47665329D01*
X131928235Y-47688429D01*
X131934196Y-47712227D01*
X131937796Y-47736496D01*
X131939000Y-47761000D01*
X131939000Y-48686000D01*
X131937796Y-48710504D01*
X131934196Y-48734773D01*
X131928235Y-48758571D01*
X131919970Y-48781671D01*
X131909480Y-48803849D01*
X131896867Y-48824893D01*
X131882253Y-48844598D01*
X131865777Y-48862777D01*
X131847598Y-48879253D01*
X131827893Y-48893867D01*
X131806849Y-48906480D01*
X131784671Y-48916970D01*
X131761571Y-48925235D01*
X131737773Y-48931196D01*
X131713504Y-48934796D01*
X131689000Y-48936000D01*
X130439000Y-48936000D01*
X130414496Y-48934796D01*
X130390227Y-48931196D01*
X130366429Y-48925235D01*
X130343329Y-48916970D01*
X130321151Y-48906480D01*
X130300107Y-48893867D01*
X130280402Y-48879253D01*
X130262223Y-48862777D01*
X130245747Y-48844598D01*
X130231133Y-48824893D01*
X130218520Y-48803849D01*
X130208030Y-48781671D01*
X130199765Y-48758571D01*
X130193804Y-48734773D01*
X130190204Y-48710504D01*
X130189000Y-48686000D01*
X130189000Y-47761000D01*
X130190204Y-47736496D01*
X130193804Y-47712227D01*
X130199765Y-47688429D01*
X130208030Y-47665329D01*
X130218520Y-47643151D01*
X130231133Y-47622107D01*
X130245747Y-47602402D01*
X130262223Y-47584223D01*
X130280402Y-47567747D01*
X130300107Y-47553133D01*
X130321151Y-47540520D01*
X130343329Y-47530030D01*
X130366429Y-47521765D01*
X130390227Y-47515804D01*
X130414496Y-47512204D01*
X130439000Y-47511000D01*
X131689000Y-47511000D01*
X131713504Y-47512204D01*
G37*
G36*
X103393504Y-68468204D02*
G01*
X103417773Y-68471804D01*
X103441571Y-68477765D01*
X103464671Y-68486030D01*
X103486849Y-68496520D01*
X103507893Y-68509133D01*
X103527598Y-68523747D01*
X103545777Y-68540223D01*
X103562253Y-68558402D01*
X103576867Y-68578107D01*
X103589480Y-68599151D01*
X103599970Y-68621329D01*
X103608235Y-68644429D01*
X103614196Y-68668227D01*
X103617796Y-68692496D01*
X103619000Y-68717000D01*
X103619000Y-69967000D01*
X103617796Y-69991504D01*
X103614196Y-70015773D01*
X103608235Y-70039571D01*
X103599970Y-70062671D01*
X103589480Y-70084849D01*
X103576867Y-70105893D01*
X103562253Y-70125598D01*
X103545777Y-70143777D01*
X103527598Y-70160253D01*
X103507893Y-70174867D01*
X103486849Y-70187480D01*
X103464671Y-70197970D01*
X103441571Y-70206235D01*
X103417773Y-70212196D01*
X103393504Y-70215796D01*
X103369000Y-70217000D01*
X102444000Y-70217000D01*
X102419496Y-70215796D01*
X102395227Y-70212196D01*
X102371429Y-70206235D01*
X102348329Y-70197970D01*
X102326151Y-70187480D01*
X102305107Y-70174867D01*
X102285402Y-70160253D01*
X102267223Y-70143777D01*
X102250747Y-70125598D01*
X102236133Y-70105893D01*
X102223520Y-70084849D01*
X102213030Y-70062671D01*
X102204765Y-70039571D01*
X102198804Y-70015773D01*
X102195204Y-69991504D01*
X102194000Y-69967000D01*
X102194000Y-68717000D01*
X102195204Y-68692496D01*
X102198804Y-68668227D01*
X102204765Y-68644429D01*
X102213030Y-68621329D01*
X102223520Y-68599151D01*
X102236133Y-68578107D01*
X102250747Y-68558402D01*
X102267223Y-68540223D01*
X102285402Y-68523747D01*
X102305107Y-68509133D01*
X102326151Y-68496520D01*
X102348329Y-68486030D01*
X102371429Y-68477765D01*
X102395227Y-68471804D01*
X102419496Y-68468204D01*
X102444000Y-68467000D01*
X103369000Y-68467000D01*
X103393504Y-68468204D01*
G37*
G36*
X106368504Y-68468204D02*
G01*
X106392773Y-68471804D01*
X106416571Y-68477765D01*
X106439671Y-68486030D01*
X106461849Y-68496520D01*
X106482893Y-68509133D01*
X106502598Y-68523747D01*
X106520777Y-68540223D01*
X106537253Y-68558402D01*
X106551867Y-68578107D01*
X106564480Y-68599151D01*
X106574970Y-68621329D01*
X106583235Y-68644429D01*
X106589196Y-68668227D01*
X106592796Y-68692496D01*
X106594000Y-68717000D01*
X106594000Y-69967000D01*
X106592796Y-69991504D01*
X106589196Y-70015773D01*
X106583235Y-70039571D01*
X106574970Y-70062671D01*
X106564480Y-70084849D01*
X106551867Y-70105893D01*
X106537253Y-70125598D01*
X106520777Y-70143777D01*
X106502598Y-70160253D01*
X106482893Y-70174867D01*
X106461849Y-70187480D01*
X106439671Y-70197970D01*
X106416571Y-70206235D01*
X106392773Y-70212196D01*
X106368504Y-70215796D01*
X106344000Y-70217000D01*
X105419000Y-70217000D01*
X105394496Y-70215796D01*
X105370227Y-70212196D01*
X105346429Y-70206235D01*
X105323329Y-70197970D01*
X105301151Y-70187480D01*
X105280107Y-70174867D01*
X105260402Y-70160253D01*
X105242223Y-70143777D01*
X105225747Y-70125598D01*
X105211133Y-70105893D01*
X105198520Y-70084849D01*
X105188030Y-70062671D01*
X105179765Y-70039571D01*
X105173804Y-70015773D01*
X105170204Y-69991504D01*
X105169000Y-69967000D01*
X105169000Y-68717000D01*
X105170204Y-68692496D01*
X105173804Y-68668227D01*
X105179765Y-68644429D01*
X105188030Y-68621329D01*
X105198520Y-68599151D01*
X105211133Y-68578107D01*
X105225747Y-68558402D01*
X105242223Y-68540223D01*
X105260402Y-68523747D01*
X105280107Y-68509133D01*
X105301151Y-68496520D01*
X105323329Y-68486030D01*
X105346429Y-68477765D01*
X105370227Y-68471804D01*
X105394496Y-68468204D01*
X105419000Y-68467000D01*
X106344000Y-68467000D01*
X106368504Y-68468204D01*
G37*
G36*
X103393504Y-55006204D02*
G01*
X103417773Y-55009804D01*
X103441571Y-55015765D01*
X103464671Y-55024030D01*
X103486849Y-55034520D01*
X103507893Y-55047133D01*
X103527598Y-55061747D01*
X103545777Y-55078223D01*
X103562253Y-55096402D01*
X103576867Y-55116107D01*
X103589480Y-55137151D01*
X103599970Y-55159329D01*
X103608235Y-55182429D01*
X103614196Y-55206227D01*
X103617796Y-55230496D01*
X103619000Y-55255000D01*
X103619000Y-56505000D01*
X103617796Y-56529504D01*
X103614196Y-56553773D01*
X103608235Y-56577571D01*
X103599970Y-56600671D01*
X103589480Y-56622849D01*
X103576867Y-56643893D01*
X103562253Y-56663598D01*
X103545777Y-56681777D01*
X103527598Y-56698253D01*
X103507893Y-56712867D01*
X103486849Y-56725480D01*
X103464671Y-56735970D01*
X103441571Y-56744235D01*
X103417773Y-56750196D01*
X103393504Y-56753796D01*
X103369000Y-56755000D01*
X102444000Y-56755000D01*
X102419496Y-56753796D01*
X102395227Y-56750196D01*
X102371429Y-56744235D01*
X102348329Y-56735970D01*
X102326151Y-56725480D01*
X102305107Y-56712867D01*
X102285402Y-56698253D01*
X102267223Y-56681777D01*
X102250747Y-56663598D01*
X102236133Y-56643893D01*
X102223520Y-56622849D01*
X102213030Y-56600671D01*
X102204765Y-56577571D01*
X102198804Y-56553773D01*
X102195204Y-56529504D01*
X102194000Y-56505000D01*
X102194000Y-55255000D01*
X102195204Y-55230496D01*
X102198804Y-55206227D01*
X102204765Y-55182429D01*
X102213030Y-55159329D01*
X102223520Y-55137151D01*
X102236133Y-55116107D01*
X102250747Y-55096402D01*
X102267223Y-55078223D01*
X102285402Y-55061747D01*
X102305107Y-55047133D01*
X102326151Y-55034520D01*
X102348329Y-55024030D01*
X102371429Y-55015765D01*
X102395227Y-55009804D01*
X102419496Y-55006204D01*
X102444000Y-55005000D01*
X103369000Y-55005000D01*
X103393504Y-55006204D01*
G37*
G36*
X106368504Y-55006204D02*
G01*
X106392773Y-55009804D01*
X106416571Y-55015765D01*
X106439671Y-55024030D01*
X106461849Y-55034520D01*
X106482893Y-55047133D01*
X106502598Y-55061747D01*
X106520777Y-55078223D01*
X106537253Y-55096402D01*
X106551867Y-55116107D01*
X106564480Y-55137151D01*
X106574970Y-55159329D01*
X106583235Y-55182429D01*
X106589196Y-55206227D01*
X106592796Y-55230496D01*
X106594000Y-55255000D01*
X106594000Y-56505000D01*
X106592796Y-56529504D01*
X106589196Y-56553773D01*
X106583235Y-56577571D01*
X106574970Y-56600671D01*
X106564480Y-56622849D01*
X106551867Y-56643893D01*
X106537253Y-56663598D01*
X106520777Y-56681777D01*
X106502598Y-56698253D01*
X106482893Y-56712867D01*
X106461849Y-56725480D01*
X106439671Y-56735970D01*
X106416571Y-56744235D01*
X106392773Y-56750196D01*
X106368504Y-56753796D01*
X106344000Y-56755000D01*
X105419000Y-56755000D01*
X105394496Y-56753796D01*
X105370227Y-56750196D01*
X105346429Y-56744235D01*
X105323329Y-56735970D01*
X105301151Y-56725480D01*
X105280107Y-56712867D01*
X105260402Y-56698253D01*
X105242223Y-56681777D01*
X105225747Y-56663598D01*
X105211133Y-56643893D01*
X105198520Y-56622849D01*
X105188030Y-56600671D01*
X105179765Y-56577571D01*
X105173804Y-56553773D01*
X105170204Y-56529504D01*
X105169000Y-56505000D01*
X105169000Y-55255000D01*
X105170204Y-55230496D01*
X105173804Y-55206227D01*
X105179765Y-55182429D01*
X105188030Y-55159329D01*
X105198520Y-55137151D01*
X105211133Y-55116107D01*
X105225747Y-55096402D01*
X105242223Y-55078223D01*
X105260402Y-55061747D01*
X105280107Y-55047133D01*
X105301151Y-55034520D01*
X105323329Y-55024030D01*
X105346429Y-55015765D01*
X105370227Y-55009804D01*
X105394496Y-55006204D01*
X105419000Y-55005000D01*
X106344000Y-55005000D01*
X106368504Y-55006204D01*
G37*
G36*
X133491504Y-89676204D02*
G01*
X133515773Y-89679804D01*
X133539571Y-89685765D01*
X133562671Y-89694030D01*
X133584849Y-89704520D01*
X133605893Y-89717133D01*
X133625598Y-89731747D01*
X133643777Y-89748223D01*
X133660253Y-89766402D01*
X133674867Y-89786107D01*
X133687480Y-89807151D01*
X133697970Y-89829329D01*
X133706235Y-89852429D01*
X133712196Y-89876227D01*
X133715796Y-89900496D01*
X133717000Y-89925000D01*
X133717000Y-90850000D01*
X133715796Y-90874504D01*
X133712196Y-90898773D01*
X133706235Y-90922571D01*
X133697970Y-90945671D01*
X133687480Y-90967849D01*
X133674867Y-90988893D01*
X133660253Y-91008598D01*
X133643777Y-91026777D01*
X133625598Y-91043253D01*
X133605893Y-91057867D01*
X133584849Y-91070480D01*
X133562671Y-91080970D01*
X133539571Y-91089235D01*
X133515773Y-91095196D01*
X133491504Y-91098796D01*
X133467000Y-91100000D01*
X132217000Y-91100000D01*
X132192496Y-91098796D01*
X132168227Y-91095196D01*
X132144429Y-91089235D01*
X132121329Y-91080970D01*
X132099151Y-91070480D01*
X132078107Y-91057867D01*
X132058402Y-91043253D01*
X132040223Y-91026777D01*
X132023747Y-91008598D01*
X132009133Y-90988893D01*
X131996520Y-90967849D01*
X131986030Y-90945671D01*
X131977765Y-90922571D01*
X131971804Y-90898773D01*
X131968204Y-90874504D01*
X131967000Y-90850000D01*
X131967000Y-89925000D01*
X131968204Y-89900496D01*
X131971804Y-89876227D01*
X131977765Y-89852429D01*
X131986030Y-89829329D01*
X131996520Y-89807151D01*
X132009133Y-89786107D01*
X132023747Y-89766402D01*
X132040223Y-89748223D01*
X132058402Y-89731747D01*
X132078107Y-89717133D01*
X132099151Y-89704520D01*
X132121329Y-89694030D01*
X132144429Y-89685765D01*
X132168227Y-89679804D01*
X132192496Y-89676204D01*
X132217000Y-89675000D01*
X133467000Y-89675000D01*
X133491504Y-89676204D01*
G37*
G36*
X133491504Y-86701204D02*
G01*
X133515773Y-86704804D01*
X133539571Y-86710765D01*
X133562671Y-86719030D01*
X133584849Y-86729520D01*
X133605893Y-86742133D01*
X133625598Y-86756747D01*
X133643777Y-86773223D01*
X133660253Y-86791402D01*
X133674867Y-86811107D01*
X133687480Y-86832151D01*
X133697970Y-86854329D01*
X133706235Y-86877429D01*
X133712196Y-86901227D01*
X133715796Y-86925496D01*
X133717000Y-86950000D01*
X133717000Y-87875000D01*
X133715796Y-87899504D01*
X133712196Y-87923773D01*
X133706235Y-87947571D01*
X133697970Y-87970671D01*
X133687480Y-87992849D01*
X133674867Y-88013893D01*
X133660253Y-88033598D01*
X133643777Y-88051777D01*
X133625598Y-88068253D01*
X133605893Y-88082867D01*
X133584849Y-88095480D01*
X133562671Y-88105970D01*
X133539571Y-88114235D01*
X133515773Y-88120196D01*
X133491504Y-88123796D01*
X133467000Y-88125000D01*
X132217000Y-88125000D01*
X132192496Y-88123796D01*
X132168227Y-88120196D01*
X132144429Y-88114235D01*
X132121329Y-88105970D01*
X132099151Y-88095480D01*
X132078107Y-88082867D01*
X132058402Y-88068253D01*
X132040223Y-88051777D01*
X132023747Y-88033598D01*
X132009133Y-88013893D01*
X131996520Y-87992849D01*
X131986030Y-87970671D01*
X131977765Y-87947571D01*
X131971804Y-87923773D01*
X131968204Y-87899504D01*
X131967000Y-87875000D01*
X131967000Y-86950000D01*
X131968204Y-86925496D01*
X131971804Y-86901227D01*
X131977765Y-86877429D01*
X131986030Y-86854329D01*
X131996520Y-86832151D01*
X132009133Y-86811107D01*
X132023747Y-86791402D01*
X132040223Y-86773223D01*
X132058402Y-86756747D01*
X132078107Y-86742133D01*
X132099151Y-86729520D01*
X132121329Y-86719030D01*
X132144429Y-86710765D01*
X132168227Y-86704804D01*
X132192496Y-86701204D01*
X132217000Y-86700000D01*
X133467000Y-86700000D01*
X133491504Y-86701204D01*
G37*
G36*
X133491504Y-81113204D02*
G01*
X133515773Y-81116804D01*
X133539571Y-81122765D01*
X133562671Y-81131030D01*
X133584849Y-81141520D01*
X133605893Y-81154133D01*
X133625598Y-81168747D01*
X133643777Y-81185223D01*
X133660253Y-81203402D01*
X133674867Y-81223107D01*
X133687480Y-81244151D01*
X133697970Y-81266329D01*
X133706235Y-81289429D01*
X133712196Y-81313227D01*
X133715796Y-81337496D01*
X133717000Y-81362000D01*
X133717000Y-82287000D01*
X133715796Y-82311504D01*
X133712196Y-82335773D01*
X133706235Y-82359571D01*
X133697970Y-82382671D01*
X133687480Y-82404849D01*
X133674867Y-82425893D01*
X133660253Y-82445598D01*
X133643777Y-82463777D01*
X133625598Y-82480253D01*
X133605893Y-82494867D01*
X133584849Y-82507480D01*
X133562671Y-82517970D01*
X133539571Y-82526235D01*
X133515773Y-82532196D01*
X133491504Y-82535796D01*
X133467000Y-82537000D01*
X132217000Y-82537000D01*
X132192496Y-82535796D01*
X132168227Y-82532196D01*
X132144429Y-82526235D01*
X132121329Y-82517970D01*
X132099151Y-82507480D01*
X132078107Y-82494867D01*
X132058402Y-82480253D01*
X132040223Y-82463777D01*
X132023747Y-82445598D01*
X132009133Y-82425893D01*
X131996520Y-82404849D01*
X131986030Y-82382671D01*
X131977765Y-82359571D01*
X131971804Y-82335773D01*
X131968204Y-82311504D01*
X131967000Y-82287000D01*
X131967000Y-81362000D01*
X131968204Y-81337496D01*
X131971804Y-81313227D01*
X131977765Y-81289429D01*
X131986030Y-81266329D01*
X131996520Y-81244151D01*
X132009133Y-81223107D01*
X132023747Y-81203402D01*
X132040223Y-81185223D01*
X132058402Y-81168747D01*
X132078107Y-81154133D01*
X132099151Y-81141520D01*
X132121329Y-81131030D01*
X132144429Y-81122765D01*
X132168227Y-81116804D01*
X132192496Y-81113204D01*
X132217000Y-81112000D01*
X133467000Y-81112000D01*
X133491504Y-81113204D01*
G37*
G36*
X133491504Y-84088204D02*
G01*
X133515773Y-84091804D01*
X133539571Y-84097765D01*
X133562671Y-84106030D01*
X133584849Y-84116520D01*
X133605893Y-84129133D01*
X133625598Y-84143747D01*
X133643777Y-84160223D01*
X133660253Y-84178402D01*
X133674867Y-84198107D01*
X133687480Y-84219151D01*
X133697970Y-84241329D01*
X133706235Y-84264429D01*
X133712196Y-84288227D01*
X133715796Y-84312496D01*
X133717000Y-84337000D01*
X133717000Y-85262000D01*
X133715796Y-85286504D01*
X133712196Y-85310773D01*
X133706235Y-85334571D01*
X133697970Y-85357671D01*
X133687480Y-85379849D01*
X133674867Y-85400893D01*
X133660253Y-85420598D01*
X133643777Y-85438777D01*
X133625598Y-85455253D01*
X133605893Y-85469867D01*
X133584849Y-85482480D01*
X133562671Y-85492970D01*
X133539571Y-85501235D01*
X133515773Y-85507196D01*
X133491504Y-85510796D01*
X133467000Y-85512000D01*
X132217000Y-85512000D01*
X132192496Y-85510796D01*
X132168227Y-85507196D01*
X132144429Y-85501235D01*
X132121329Y-85492970D01*
X132099151Y-85482480D01*
X132078107Y-85469867D01*
X132058402Y-85455253D01*
X132040223Y-85438777D01*
X132023747Y-85420598D01*
X132009133Y-85400893D01*
X131996520Y-85379849D01*
X131986030Y-85357671D01*
X131977765Y-85334571D01*
X131971804Y-85310773D01*
X131968204Y-85286504D01*
X131967000Y-85262000D01*
X131967000Y-84337000D01*
X131968204Y-84312496D01*
X131971804Y-84288227D01*
X131977765Y-84264429D01*
X131986030Y-84241329D01*
X131996520Y-84219151D01*
X132009133Y-84198107D01*
X132023747Y-84178402D01*
X132040223Y-84160223D01*
X132058402Y-84143747D01*
X132078107Y-84129133D01*
X132099151Y-84116520D01*
X132121329Y-84106030D01*
X132144429Y-84097765D01*
X132168227Y-84091804D01*
X132192496Y-84088204D01*
X132217000Y-84087000D01*
X133467000Y-84087000D01*
X133491504Y-84088204D01*
G37*
G36*
X65093504Y-82184204D02*
G01*
X65117773Y-82187804D01*
X65141571Y-82193765D01*
X65164671Y-82202030D01*
X65186849Y-82212520D01*
X65207893Y-82225133D01*
X65227598Y-82239747D01*
X65245777Y-82256223D01*
X65262253Y-82274402D01*
X65276867Y-82294107D01*
X65289480Y-82315151D01*
X65299970Y-82337329D01*
X65308235Y-82360429D01*
X65314196Y-82384227D01*
X65317796Y-82408496D01*
X65319000Y-82433000D01*
X65319000Y-83683000D01*
X65317796Y-83707504D01*
X65314196Y-83731773D01*
X65308235Y-83755571D01*
X65299970Y-83778671D01*
X65289480Y-83800849D01*
X65276867Y-83821893D01*
X65262253Y-83841598D01*
X65245777Y-83859777D01*
X65227598Y-83876253D01*
X65207893Y-83890867D01*
X65186849Y-83903480D01*
X65164671Y-83913970D01*
X65141571Y-83922235D01*
X65117773Y-83928196D01*
X65093504Y-83931796D01*
X65069000Y-83933000D01*
X64144000Y-83933000D01*
X64119496Y-83931796D01*
X64095227Y-83928196D01*
X64071429Y-83922235D01*
X64048329Y-83913970D01*
X64026151Y-83903480D01*
X64005107Y-83890867D01*
X63985402Y-83876253D01*
X63967223Y-83859777D01*
X63950747Y-83841598D01*
X63936133Y-83821893D01*
X63923520Y-83800849D01*
X63913030Y-83778671D01*
X63904765Y-83755571D01*
X63898804Y-83731773D01*
X63895204Y-83707504D01*
X63894000Y-83683000D01*
X63894000Y-82433000D01*
X63895204Y-82408496D01*
X63898804Y-82384227D01*
X63904765Y-82360429D01*
X63913030Y-82337329D01*
X63923520Y-82315151D01*
X63936133Y-82294107D01*
X63950747Y-82274402D01*
X63967223Y-82256223D01*
X63985402Y-82239747D01*
X64005107Y-82225133D01*
X64026151Y-82212520D01*
X64048329Y-82202030D01*
X64071429Y-82193765D01*
X64095227Y-82187804D01*
X64119496Y-82184204D01*
X64144000Y-82183000D01*
X65069000Y-82183000D01*
X65093504Y-82184204D01*
G37*
G36*
X62118504Y-82184204D02*
G01*
X62142773Y-82187804D01*
X62166571Y-82193765D01*
X62189671Y-82202030D01*
X62211849Y-82212520D01*
X62232893Y-82225133D01*
X62252598Y-82239747D01*
X62270777Y-82256223D01*
X62287253Y-82274402D01*
X62301867Y-82294107D01*
X62314480Y-82315151D01*
X62324970Y-82337329D01*
X62333235Y-82360429D01*
X62339196Y-82384227D01*
X62342796Y-82408496D01*
X62344000Y-82433000D01*
X62344000Y-83683000D01*
X62342796Y-83707504D01*
X62339196Y-83731773D01*
X62333235Y-83755571D01*
X62324970Y-83778671D01*
X62314480Y-83800849D01*
X62301867Y-83821893D01*
X62287253Y-83841598D01*
X62270777Y-83859777D01*
X62252598Y-83876253D01*
X62232893Y-83890867D01*
X62211849Y-83903480D01*
X62189671Y-83913970D01*
X62166571Y-83922235D01*
X62142773Y-83928196D01*
X62118504Y-83931796D01*
X62094000Y-83933000D01*
X61169000Y-83933000D01*
X61144496Y-83931796D01*
X61120227Y-83928196D01*
X61096429Y-83922235D01*
X61073329Y-83913970D01*
X61051151Y-83903480D01*
X61030107Y-83890867D01*
X61010402Y-83876253D01*
X60992223Y-83859777D01*
X60975747Y-83841598D01*
X60961133Y-83821893D01*
X60948520Y-83800849D01*
X60938030Y-83778671D01*
X60929765Y-83755571D01*
X60923804Y-83731773D01*
X60920204Y-83707504D01*
X60919000Y-83683000D01*
X60919000Y-82433000D01*
X60920204Y-82408496D01*
X60923804Y-82384227D01*
X60929765Y-82360429D01*
X60938030Y-82337329D01*
X60948520Y-82315151D01*
X60961133Y-82294107D01*
X60975747Y-82274402D01*
X60992223Y-82256223D01*
X61010402Y-82239747D01*
X61030107Y-82225133D01*
X61051151Y-82212520D01*
X61073329Y-82202030D01*
X61096429Y-82193765D01*
X61120227Y-82187804D01*
X61144496Y-82184204D01*
X61169000Y-82183000D01*
X62094000Y-82183000D01*
X62118504Y-82184204D01*
G37*
G36*
X65093504Y-85105204D02*
G01*
X65117773Y-85108804D01*
X65141571Y-85114765D01*
X65164671Y-85123030D01*
X65186849Y-85133520D01*
X65207893Y-85146133D01*
X65227598Y-85160747D01*
X65245777Y-85177223D01*
X65262253Y-85195402D01*
X65276867Y-85215107D01*
X65289480Y-85236151D01*
X65299970Y-85258329D01*
X65308235Y-85281429D01*
X65314196Y-85305227D01*
X65317796Y-85329496D01*
X65319000Y-85354000D01*
X65319000Y-86604000D01*
X65317796Y-86628504D01*
X65314196Y-86652773D01*
X65308235Y-86676571D01*
X65299970Y-86699671D01*
X65289480Y-86721849D01*
X65276867Y-86742893D01*
X65262253Y-86762598D01*
X65245777Y-86780777D01*
X65227598Y-86797253D01*
X65207893Y-86811867D01*
X65186849Y-86824480D01*
X65164671Y-86834970D01*
X65141571Y-86843235D01*
X65117773Y-86849196D01*
X65093504Y-86852796D01*
X65069000Y-86854000D01*
X64144000Y-86854000D01*
X64119496Y-86852796D01*
X64095227Y-86849196D01*
X64071429Y-86843235D01*
X64048329Y-86834970D01*
X64026151Y-86824480D01*
X64005107Y-86811867D01*
X63985402Y-86797253D01*
X63967223Y-86780777D01*
X63950747Y-86762598D01*
X63936133Y-86742893D01*
X63923520Y-86721849D01*
X63913030Y-86699671D01*
X63904765Y-86676571D01*
X63898804Y-86652773D01*
X63895204Y-86628504D01*
X63894000Y-86604000D01*
X63894000Y-85354000D01*
X63895204Y-85329496D01*
X63898804Y-85305227D01*
X63904765Y-85281429D01*
X63913030Y-85258329D01*
X63923520Y-85236151D01*
X63936133Y-85215107D01*
X63950747Y-85195402D01*
X63967223Y-85177223D01*
X63985402Y-85160747D01*
X64005107Y-85146133D01*
X64026151Y-85133520D01*
X64048329Y-85123030D01*
X64071429Y-85114765D01*
X64095227Y-85108804D01*
X64119496Y-85105204D01*
X64144000Y-85104000D01*
X65069000Y-85104000D01*
X65093504Y-85105204D01*
G37*
G36*
X62118504Y-85105204D02*
G01*
X62142773Y-85108804D01*
X62166571Y-85114765D01*
X62189671Y-85123030D01*
X62211849Y-85133520D01*
X62232893Y-85146133D01*
X62252598Y-85160747D01*
X62270777Y-85177223D01*
X62287253Y-85195402D01*
X62301867Y-85215107D01*
X62314480Y-85236151D01*
X62324970Y-85258329D01*
X62333235Y-85281429D01*
X62339196Y-85305227D01*
X62342796Y-85329496D01*
X62344000Y-85354000D01*
X62344000Y-86604000D01*
X62342796Y-86628504D01*
X62339196Y-86652773D01*
X62333235Y-86676571D01*
X62324970Y-86699671D01*
X62314480Y-86721849D01*
X62301867Y-86742893D01*
X62287253Y-86762598D01*
X62270777Y-86780777D01*
X62252598Y-86797253D01*
X62232893Y-86811867D01*
X62211849Y-86824480D01*
X62189671Y-86834970D01*
X62166571Y-86843235D01*
X62142773Y-86849196D01*
X62118504Y-86852796D01*
X62094000Y-86854000D01*
X61169000Y-86854000D01*
X61144496Y-86852796D01*
X61120227Y-86849196D01*
X61096429Y-86843235D01*
X61073329Y-86834970D01*
X61051151Y-86824480D01*
X61030107Y-86811867D01*
X61010402Y-86797253D01*
X60992223Y-86780777D01*
X60975747Y-86762598D01*
X60961133Y-86742893D01*
X60948520Y-86721849D01*
X60938030Y-86699671D01*
X60929765Y-86676571D01*
X60923804Y-86652773D01*
X60920204Y-86628504D01*
X60919000Y-86604000D01*
X60919000Y-85354000D01*
X60920204Y-85329496D01*
X60923804Y-85305227D01*
X60929765Y-85281429D01*
X60938030Y-85258329D01*
X60948520Y-85236151D01*
X60961133Y-85215107D01*
X60975747Y-85195402D01*
X60992223Y-85177223D01*
X61010402Y-85160747D01*
X61030107Y-85146133D01*
X61051151Y-85133520D01*
X61073329Y-85123030D01*
X61096429Y-85114765D01*
X61120227Y-85108804D01*
X61144496Y-85105204D01*
X61169000Y-85104000D01*
X62094000Y-85104000D01*
X62118504Y-85105204D01*
G37*
G36*
X62118504Y-88153204D02*
G01*
X62142773Y-88156804D01*
X62166571Y-88162765D01*
X62189671Y-88171030D01*
X62211849Y-88181520D01*
X62232893Y-88194133D01*
X62252598Y-88208747D01*
X62270777Y-88225223D01*
X62287253Y-88243402D01*
X62301867Y-88263107D01*
X62314480Y-88284151D01*
X62324970Y-88306329D01*
X62333235Y-88329429D01*
X62339196Y-88353227D01*
X62342796Y-88377496D01*
X62344000Y-88402000D01*
X62344000Y-89652000D01*
X62342796Y-89676504D01*
X62339196Y-89700773D01*
X62333235Y-89724571D01*
X62324970Y-89747671D01*
X62314480Y-89769849D01*
X62301867Y-89790893D01*
X62287253Y-89810598D01*
X62270777Y-89828777D01*
X62252598Y-89845253D01*
X62232893Y-89859867D01*
X62211849Y-89872480D01*
X62189671Y-89882970D01*
X62166571Y-89891235D01*
X62142773Y-89897196D01*
X62118504Y-89900796D01*
X62094000Y-89902000D01*
X61169000Y-89902000D01*
X61144496Y-89900796D01*
X61120227Y-89897196D01*
X61096429Y-89891235D01*
X61073329Y-89882970D01*
X61051151Y-89872480D01*
X61030107Y-89859867D01*
X61010402Y-89845253D01*
X60992223Y-89828777D01*
X60975747Y-89810598D01*
X60961133Y-89790893D01*
X60948520Y-89769849D01*
X60938030Y-89747671D01*
X60929765Y-89724571D01*
X60923804Y-89700773D01*
X60920204Y-89676504D01*
X60919000Y-89652000D01*
X60919000Y-88402000D01*
X60920204Y-88377496D01*
X60923804Y-88353227D01*
X60929765Y-88329429D01*
X60938030Y-88306329D01*
X60948520Y-88284151D01*
X60961133Y-88263107D01*
X60975747Y-88243402D01*
X60992223Y-88225223D01*
X61010402Y-88208747D01*
X61030107Y-88194133D01*
X61051151Y-88181520D01*
X61073329Y-88171030D01*
X61096429Y-88162765D01*
X61120227Y-88156804D01*
X61144496Y-88153204D01*
X61169000Y-88152000D01*
X62094000Y-88152000D01*
X62118504Y-88153204D01*
G37*
G36*
X65093504Y-88153204D02*
G01*
X65117773Y-88156804D01*
X65141571Y-88162765D01*
X65164671Y-88171030D01*
X65186849Y-88181520D01*
X65207893Y-88194133D01*
X65227598Y-88208747D01*
X65245777Y-88225223D01*
X65262253Y-88243402D01*
X65276867Y-88263107D01*
X65289480Y-88284151D01*
X65299970Y-88306329D01*
X65308235Y-88329429D01*
X65314196Y-88353227D01*
X65317796Y-88377496D01*
X65319000Y-88402000D01*
X65319000Y-89652000D01*
X65317796Y-89676504D01*
X65314196Y-89700773D01*
X65308235Y-89724571D01*
X65299970Y-89747671D01*
X65289480Y-89769849D01*
X65276867Y-89790893D01*
X65262253Y-89810598D01*
X65245777Y-89828777D01*
X65227598Y-89845253D01*
X65207893Y-89859867D01*
X65186849Y-89872480D01*
X65164671Y-89882970D01*
X65141571Y-89891235D01*
X65117773Y-89897196D01*
X65093504Y-89900796D01*
X65069000Y-89902000D01*
X64144000Y-89902000D01*
X64119496Y-89900796D01*
X64095227Y-89897196D01*
X64071429Y-89891235D01*
X64048329Y-89882970D01*
X64026151Y-89872480D01*
X64005107Y-89859867D01*
X63985402Y-89845253D01*
X63967223Y-89828777D01*
X63950747Y-89810598D01*
X63936133Y-89790893D01*
X63923520Y-89769849D01*
X63913030Y-89747671D01*
X63904765Y-89724571D01*
X63898804Y-89700773D01*
X63895204Y-89676504D01*
X63894000Y-89652000D01*
X63894000Y-88402000D01*
X63895204Y-88377496D01*
X63898804Y-88353227D01*
X63904765Y-88329429D01*
X63913030Y-88306329D01*
X63923520Y-88284151D01*
X63936133Y-88263107D01*
X63950747Y-88243402D01*
X63967223Y-88225223D01*
X63985402Y-88208747D01*
X64005107Y-88194133D01*
X64026151Y-88181520D01*
X64048329Y-88171030D01*
X64071429Y-88162765D01*
X64095227Y-88156804D01*
X64119496Y-88153204D01*
X64144000Y-88152000D01*
X65069000Y-88152000D01*
X65093504Y-88153204D01*
G37*
G36*
X85794504Y-48529204D02*
G01*
X85818773Y-48532804D01*
X85842571Y-48538765D01*
X85865671Y-48547030D01*
X85887849Y-48557520D01*
X85908893Y-48570133D01*
X85928598Y-48584747D01*
X85946777Y-48601223D01*
X85963253Y-48619402D01*
X85977867Y-48639107D01*
X85990480Y-48660151D01*
X86000970Y-48682329D01*
X86009235Y-48705429D01*
X86015196Y-48729227D01*
X86018796Y-48753496D01*
X86020000Y-48778000D01*
X86020000Y-50028000D01*
X86018796Y-50052504D01*
X86015196Y-50076773D01*
X86009235Y-50100571D01*
X86000970Y-50123671D01*
X85990480Y-50145849D01*
X85977867Y-50166893D01*
X85963253Y-50186598D01*
X85946777Y-50204777D01*
X85928598Y-50221253D01*
X85908893Y-50235867D01*
X85887849Y-50248480D01*
X85865671Y-50258970D01*
X85842571Y-50267235D01*
X85818773Y-50273196D01*
X85794504Y-50276796D01*
X85770000Y-50278000D01*
X84845000Y-50278000D01*
X84820496Y-50276796D01*
X84796227Y-50273196D01*
X84772429Y-50267235D01*
X84749329Y-50258970D01*
X84727151Y-50248480D01*
X84706107Y-50235867D01*
X84686402Y-50221253D01*
X84668223Y-50204777D01*
X84651747Y-50186598D01*
X84637133Y-50166893D01*
X84624520Y-50145849D01*
X84614030Y-50123671D01*
X84605765Y-50100571D01*
X84599804Y-50076773D01*
X84596204Y-50052504D01*
X84595000Y-50028000D01*
X84595000Y-48778000D01*
X84596204Y-48753496D01*
X84599804Y-48729227D01*
X84605765Y-48705429D01*
X84614030Y-48682329D01*
X84624520Y-48660151D01*
X84637133Y-48639107D01*
X84651747Y-48619402D01*
X84668223Y-48601223D01*
X84686402Y-48584747D01*
X84706107Y-48570133D01*
X84727151Y-48557520D01*
X84749329Y-48547030D01*
X84772429Y-48538765D01*
X84796227Y-48532804D01*
X84820496Y-48529204D01*
X84845000Y-48528000D01*
X85770000Y-48528000D01*
X85794504Y-48529204D01*
G37*
G36*
X82819504Y-48529204D02*
G01*
X82843773Y-48532804D01*
X82867571Y-48538765D01*
X82890671Y-48547030D01*
X82912849Y-48557520D01*
X82933893Y-48570133D01*
X82953598Y-48584747D01*
X82971777Y-48601223D01*
X82988253Y-48619402D01*
X83002867Y-48639107D01*
X83015480Y-48660151D01*
X83025970Y-48682329D01*
X83034235Y-48705429D01*
X83040196Y-48729227D01*
X83043796Y-48753496D01*
X83045000Y-48778000D01*
X83045000Y-50028000D01*
X83043796Y-50052504D01*
X83040196Y-50076773D01*
X83034235Y-50100571D01*
X83025970Y-50123671D01*
X83015480Y-50145849D01*
X83002867Y-50166893D01*
X82988253Y-50186598D01*
X82971777Y-50204777D01*
X82953598Y-50221253D01*
X82933893Y-50235867D01*
X82912849Y-50248480D01*
X82890671Y-50258970D01*
X82867571Y-50267235D01*
X82843773Y-50273196D01*
X82819504Y-50276796D01*
X82795000Y-50278000D01*
X81870000Y-50278000D01*
X81845496Y-50276796D01*
X81821227Y-50273196D01*
X81797429Y-50267235D01*
X81774329Y-50258970D01*
X81752151Y-50248480D01*
X81731107Y-50235867D01*
X81711402Y-50221253D01*
X81693223Y-50204777D01*
X81676747Y-50186598D01*
X81662133Y-50166893D01*
X81649520Y-50145849D01*
X81639030Y-50123671D01*
X81630765Y-50100571D01*
X81624804Y-50076773D01*
X81621204Y-50052504D01*
X81620000Y-50028000D01*
X81620000Y-48778000D01*
X81621204Y-48753496D01*
X81624804Y-48729227D01*
X81630765Y-48705429D01*
X81639030Y-48682329D01*
X81649520Y-48660151D01*
X81662133Y-48639107D01*
X81676747Y-48619402D01*
X81693223Y-48601223D01*
X81711402Y-48584747D01*
X81731107Y-48570133D01*
X81752151Y-48557520D01*
X81774329Y-48547030D01*
X81797429Y-48538765D01*
X81821227Y-48532804D01*
X81845496Y-48529204D01*
X81870000Y-48528000D01*
X82795000Y-48528000D01*
X82819504Y-48529204D01*
G37*
G36*
X85794504Y-45735204D02*
G01*
X85818773Y-45738804D01*
X85842571Y-45744765D01*
X85865671Y-45753030D01*
X85887849Y-45763520D01*
X85908893Y-45776133D01*
X85928598Y-45790747D01*
X85946777Y-45807223D01*
X85963253Y-45825402D01*
X85977867Y-45845107D01*
X85990480Y-45866151D01*
X86000970Y-45888329D01*
X86009235Y-45911429D01*
X86015196Y-45935227D01*
X86018796Y-45959496D01*
X86020000Y-45984000D01*
X86020000Y-47234000D01*
X86018796Y-47258504D01*
X86015196Y-47282773D01*
X86009235Y-47306571D01*
X86000970Y-47329671D01*
X85990480Y-47351849D01*
X85977867Y-47372893D01*
X85963253Y-47392598D01*
X85946777Y-47410777D01*
X85928598Y-47427253D01*
X85908893Y-47441867D01*
X85887849Y-47454480D01*
X85865671Y-47464970D01*
X85842571Y-47473235D01*
X85818773Y-47479196D01*
X85794504Y-47482796D01*
X85770000Y-47484000D01*
X84845000Y-47484000D01*
X84820496Y-47482796D01*
X84796227Y-47479196D01*
X84772429Y-47473235D01*
X84749329Y-47464970D01*
X84727151Y-47454480D01*
X84706107Y-47441867D01*
X84686402Y-47427253D01*
X84668223Y-47410777D01*
X84651747Y-47392598D01*
X84637133Y-47372893D01*
X84624520Y-47351849D01*
X84614030Y-47329671D01*
X84605765Y-47306571D01*
X84599804Y-47282773D01*
X84596204Y-47258504D01*
X84595000Y-47234000D01*
X84595000Y-45984000D01*
X84596204Y-45959496D01*
X84599804Y-45935227D01*
X84605765Y-45911429D01*
X84614030Y-45888329D01*
X84624520Y-45866151D01*
X84637133Y-45845107D01*
X84651747Y-45825402D01*
X84668223Y-45807223D01*
X84686402Y-45790747D01*
X84706107Y-45776133D01*
X84727151Y-45763520D01*
X84749329Y-45753030D01*
X84772429Y-45744765D01*
X84796227Y-45738804D01*
X84820496Y-45735204D01*
X84845000Y-45734000D01*
X85770000Y-45734000D01*
X85794504Y-45735204D01*
G37*
G36*
X82819504Y-45735204D02*
G01*
X82843773Y-45738804D01*
X82867571Y-45744765D01*
X82890671Y-45753030D01*
X82912849Y-45763520D01*
X82933893Y-45776133D01*
X82953598Y-45790747D01*
X82971777Y-45807223D01*
X82988253Y-45825402D01*
X83002867Y-45845107D01*
X83015480Y-45866151D01*
X83025970Y-45888329D01*
X83034235Y-45911429D01*
X83040196Y-45935227D01*
X83043796Y-45959496D01*
X83045000Y-45984000D01*
X83045000Y-47234000D01*
X83043796Y-47258504D01*
X83040196Y-47282773D01*
X83034235Y-47306571D01*
X83025970Y-47329671D01*
X83015480Y-47351849D01*
X83002867Y-47372893D01*
X82988253Y-47392598D01*
X82971777Y-47410777D01*
X82953598Y-47427253D01*
X82933893Y-47441867D01*
X82912849Y-47454480D01*
X82890671Y-47464970D01*
X82867571Y-47473235D01*
X82843773Y-47479196D01*
X82819504Y-47482796D01*
X82795000Y-47484000D01*
X81870000Y-47484000D01*
X81845496Y-47482796D01*
X81821227Y-47479196D01*
X81797429Y-47473235D01*
X81774329Y-47464970D01*
X81752151Y-47454480D01*
X81731107Y-47441867D01*
X81711402Y-47427253D01*
X81693223Y-47410777D01*
X81676747Y-47392598D01*
X81662133Y-47372893D01*
X81649520Y-47351849D01*
X81639030Y-47329671D01*
X81630765Y-47306571D01*
X81624804Y-47282773D01*
X81621204Y-47258504D01*
X81620000Y-47234000D01*
X81620000Y-45984000D01*
X81621204Y-45959496D01*
X81624804Y-45935227D01*
X81630765Y-45911429D01*
X81639030Y-45888329D01*
X81649520Y-45866151D01*
X81662133Y-45845107D01*
X81676747Y-45825402D01*
X81693223Y-45807223D01*
X81711402Y-45790747D01*
X81731107Y-45776133D01*
X81752151Y-45763520D01*
X81774329Y-45753030D01*
X81797429Y-45744765D01*
X81821227Y-45738804D01*
X81845496Y-45735204D01*
X81870000Y-45734000D01*
X82795000Y-45734000D01*
X82819504Y-45735204D01*
G37*
G36*
X82819504Y-43068204D02*
G01*
X82843773Y-43071804D01*
X82867571Y-43077765D01*
X82890671Y-43086030D01*
X82912849Y-43096520D01*
X82933893Y-43109133D01*
X82953598Y-43123747D01*
X82971777Y-43140223D01*
X82988253Y-43158402D01*
X83002867Y-43178107D01*
X83015480Y-43199151D01*
X83025970Y-43221329D01*
X83034235Y-43244429D01*
X83040196Y-43268227D01*
X83043796Y-43292496D01*
X83045000Y-43317000D01*
X83045000Y-44567000D01*
X83043796Y-44591504D01*
X83040196Y-44615773D01*
X83034235Y-44639571D01*
X83025970Y-44662671D01*
X83015480Y-44684849D01*
X83002867Y-44705893D01*
X82988253Y-44725598D01*
X82971777Y-44743777D01*
X82953598Y-44760253D01*
X82933893Y-44774867D01*
X82912849Y-44787480D01*
X82890671Y-44797970D01*
X82867571Y-44806235D01*
X82843773Y-44812196D01*
X82819504Y-44815796D01*
X82795000Y-44817000D01*
X81870000Y-44817000D01*
X81845496Y-44815796D01*
X81821227Y-44812196D01*
X81797429Y-44806235D01*
X81774329Y-44797970D01*
X81752151Y-44787480D01*
X81731107Y-44774867D01*
X81711402Y-44760253D01*
X81693223Y-44743777D01*
X81676747Y-44725598D01*
X81662133Y-44705893D01*
X81649520Y-44684849D01*
X81639030Y-44662671D01*
X81630765Y-44639571D01*
X81624804Y-44615773D01*
X81621204Y-44591504D01*
X81620000Y-44567000D01*
X81620000Y-43317000D01*
X81621204Y-43292496D01*
X81624804Y-43268227D01*
X81630765Y-43244429D01*
X81639030Y-43221329D01*
X81649520Y-43199151D01*
X81662133Y-43178107D01*
X81676747Y-43158402D01*
X81693223Y-43140223D01*
X81711402Y-43123747D01*
X81731107Y-43109133D01*
X81752151Y-43096520D01*
X81774329Y-43086030D01*
X81797429Y-43077765D01*
X81821227Y-43071804D01*
X81845496Y-43068204D01*
X81870000Y-43067000D01*
X82795000Y-43067000D01*
X82819504Y-43068204D01*
G37*
G36*
X85794504Y-43068204D02*
G01*
X85818773Y-43071804D01*
X85842571Y-43077765D01*
X85865671Y-43086030D01*
X85887849Y-43096520D01*
X85908893Y-43109133D01*
X85928598Y-43123747D01*
X85946777Y-43140223D01*
X85963253Y-43158402D01*
X85977867Y-43178107D01*
X85990480Y-43199151D01*
X86000970Y-43221329D01*
X86009235Y-43244429D01*
X86015196Y-43268227D01*
X86018796Y-43292496D01*
X86020000Y-43317000D01*
X86020000Y-44567000D01*
X86018796Y-44591504D01*
X86015196Y-44615773D01*
X86009235Y-44639571D01*
X86000970Y-44662671D01*
X85990480Y-44684849D01*
X85977867Y-44705893D01*
X85963253Y-44725598D01*
X85946777Y-44743777D01*
X85928598Y-44760253D01*
X85908893Y-44774867D01*
X85887849Y-44787480D01*
X85865671Y-44797970D01*
X85842571Y-44806235D01*
X85818773Y-44812196D01*
X85794504Y-44815796D01*
X85770000Y-44817000D01*
X84845000Y-44817000D01*
X84820496Y-44815796D01*
X84796227Y-44812196D01*
X84772429Y-44806235D01*
X84749329Y-44797970D01*
X84727151Y-44787480D01*
X84706107Y-44774867D01*
X84686402Y-44760253D01*
X84668223Y-44743777D01*
X84651747Y-44725598D01*
X84637133Y-44705893D01*
X84624520Y-44684849D01*
X84614030Y-44662671D01*
X84605765Y-44639571D01*
X84599804Y-44615773D01*
X84596204Y-44591504D01*
X84595000Y-44567000D01*
X84595000Y-43317000D01*
X84596204Y-43292496D01*
X84599804Y-43268227D01*
X84605765Y-43244429D01*
X84614030Y-43221329D01*
X84624520Y-43199151D01*
X84637133Y-43178107D01*
X84651747Y-43158402D01*
X84668223Y-43140223D01*
X84686402Y-43123747D01*
X84706107Y-43109133D01*
X84727151Y-43096520D01*
X84749329Y-43086030D01*
X84772429Y-43077765D01*
X84796227Y-43071804D01*
X84820496Y-43068204D01*
X84845000Y-43067000D01*
X85770000Y-43067000D01*
X85794504Y-43068204D01*
G37*
G36*
X47324504Y-62951204D02*
G01*
X47348773Y-62954804D01*
X47372571Y-62960765D01*
X47395671Y-62969030D01*
X47417849Y-62979520D01*
X47438893Y-62992133D01*
X47458598Y-63006747D01*
X47476777Y-63023223D01*
X47493253Y-63041402D01*
X47507867Y-63061107D01*
X47520480Y-63082151D01*
X47530970Y-63104329D01*
X47539235Y-63127429D01*
X47545196Y-63151227D01*
X47548796Y-63175496D01*
X47550000Y-63200000D01*
X47550000Y-64125000D01*
X47548796Y-64149504D01*
X47545196Y-64173773D01*
X47539235Y-64197571D01*
X47530970Y-64220671D01*
X47520480Y-64242849D01*
X47507867Y-64263893D01*
X47493253Y-64283598D01*
X47476777Y-64301777D01*
X47458598Y-64318253D01*
X47438893Y-64332867D01*
X47417849Y-64345480D01*
X47395671Y-64355970D01*
X47372571Y-64364235D01*
X47348773Y-64370196D01*
X47324504Y-64373796D01*
X47300000Y-64375000D01*
X46050000Y-64375000D01*
X46025496Y-64373796D01*
X46001227Y-64370196D01*
X45977429Y-64364235D01*
X45954329Y-64355970D01*
X45932151Y-64345480D01*
X45911107Y-64332867D01*
X45891402Y-64318253D01*
X45873223Y-64301777D01*
X45856747Y-64283598D01*
X45842133Y-64263893D01*
X45829520Y-64242849D01*
X45819030Y-64220671D01*
X45810765Y-64197571D01*
X45804804Y-64173773D01*
X45801204Y-64149504D01*
X45800000Y-64125000D01*
X45800000Y-63200000D01*
X45801204Y-63175496D01*
X45804804Y-63151227D01*
X45810765Y-63127429D01*
X45819030Y-63104329D01*
X45829520Y-63082151D01*
X45842133Y-63061107D01*
X45856747Y-63041402D01*
X45873223Y-63023223D01*
X45891402Y-63006747D01*
X45911107Y-62992133D01*
X45932151Y-62979520D01*
X45954329Y-62969030D01*
X45977429Y-62960765D01*
X46001227Y-62954804D01*
X46025496Y-62951204D01*
X46050000Y-62950000D01*
X47300000Y-62950000D01*
X47324504Y-62951204D01*
G37*
G36*
X47324504Y-65926204D02*
G01*
X47348773Y-65929804D01*
X47372571Y-65935765D01*
X47395671Y-65944030D01*
X47417849Y-65954520D01*
X47438893Y-65967133D01*
X47458598Y-65981747D01*
X47476777Y-65998223D01*
X47493253Y-66016402D01*
X47507867Y-66036107D01*
X47520480Y-66057151D01*
X47530970Y-66079329D01*
X47539235Y-66102429D01*
X47545196Y-66126227D01*
X47548796Y-66150496D01*
X47550000Y-66175000D01*
X47550000Y-67100000D01*
X47548796Y-67124504D01*
X47545196Y-67148773D01*
X47539235Y-67172571D01*
X47530970Y-67195671D01*
X47520480Y-67217849D01*
X47507867Y-67238893D01*
X47493253Y-67258598D01*
X47476777Y-67276777D01*
X47458598Y-67293253D01*
X47438893Y-67307867D01*
X47417849Y-67320480D01*
X47395671Y-67330970D01*
X47372571Y-67339235D01*
X47348773Y-67345196D01*
X47324504Y-67348796D01*
X47300000Y-67350000D01*
X46050000Y-67350000D01*
X46025496Y-67348796D01*
X46001227Y-67345196D01*
X45977429Y-67339235D01*
X45954329Y-67330970D01*
X45932151Y-67320480D01*
X45911107Y-67307867D01*
X45891402Y-67293253D01*
X45873223Y-67276777D01*
X45856747Y-67258598D01*
X45842133Y-67238893D01*
X45829520Y-67217849D01*
X45819030Y-67195671D01*
X45810765Y-67172571D01*
X45804804Y-67148773D01*
X45801204Y-67124504D01*
X45800000Y-67100000D01*
X45800000Y-66175000D01*
X45801204Y-66150496D01*
X45804804Y-66126227D01*
X45810765Y-66102429D01*
X45819030Y-66079329D01*
X45829520Y-66057151D01*
X45842133Y-66036107D01*
X45856747Y-66016402D01*
X45873223Y-65998223D01*
X45891402Y-65981747D01*
X45911107Y-65967133D01*
X45932151Y-65954520D01*
X45954329Y-65944030D01*
X45977429Y-65935765D01*
X46001227Y-65929804D01*
X46025496Y-65926204D01*
X46050000Y-65925000D01*
X47300000Y-65925000D01*
X47324504Y-65926204D01*
G37*
G36*
X158764504Y-53481204D02*
G01*
X158788773Y-53484804D01*
X158812571Y-53490765D01*
X158835671Y-53499030D01*
X158857849Y-53509520D01*
X158878893Y-53522133D01*
X158898598Y-53536747D01*
X158916777Y-53553223D01*
X158933253Y-53571402D01*
X158947867Y-53591107D01*
X158960480Y-53612151D01*
X158970970Y-53634329D01*
X158979235Y-53657429D01*
X158985196Y-53681227D01*
X158988796Y-53705496D01*
X158990000Y-53730000D01*
X158990000Y-54655000D01*
X158988796Y-54679504D01*
X158985196Y-54703773D01*
X158979235Y-54727571D01*
X158970970Y-54750671D01*
X158960480Y-54772849D01*
X158947867Y-54793893D01*
X158933253Y-54813598D01*
X158916777Y-54831777D01*
X158898598Y-54848253D01*
X158878893Y-54862867D01*
X158857849Y-54875480D01*
X158835671Y-54885970D01*
X158812571Y-54894235D01*
X158788773Y-54900196D01*
X158764504Y-54903796D01*
X158740000Y-54905000D01*
X157490000Y-54905000D01*
X157465496Y-54903796D01*
X157441227Y-54900196D01*
X157417429Y-54894235D01*
X157394329Y-54885970D01*
X157372151Y-54875480D01*
X157351107Y-54862867D01*
X157331402Y-54848253D01*
X157313223Y-54831777D01*
X157296747Y-54813598D01*
X157282133Y-54793893D01*
X157269520Y-54772849D01*
X157259030Y-54750671D01*
X157250765Y-54727571D01*
X157244804Y-54703773D01*
X157241204Y-54679504D01*
X157240000Y-54655000D01*
X157240000Y-53730000D01*
X157241204Y-53705496D01*
X157244804Y-53681227D01*
X157250765Y-53657429D01*
X157259030Y-53634329D01*
X157269520Y-53612151D01*
X157282133Y-53591107D01*
X157296747Y-53571402D01*
X157313223Y-53553223D01*
X157331402Y-53536747D01*
X157351107Y-53522133D01*
X157372151Y-53509520D01*
X157394329Y-53499030D01*
X157417429Y-53490765D01*
X157441227Y-53484804D01*
X157465496Y-53481204D01*
X157490000Y-53480000D01*
X158740000Y-53480000D01*
X158764504Y-53481204D01*
G37*
G36*
X158764504Y-50506204D02*
G01*
X158788773Y-50509804D01*
X158812571Y-50515765D01*
X158835671Y-50524030D01*
X158857849Y-50534520D01*
X158878893Y-50547133D01*
X158898598Y-50561747D01*
X158916777Y-50578223D01*
X158933253Y-50596402D01*
X158947867Y-50616107D01*
X158960480Y-50637151D01*
X158970970Y-50659329D01*
X158979235Y-50682429D01*
X158985196Y-50706227D01*
X158988796Y-50730496D01*
X158990000Y-50755000D01*
X158990000Y-51680000D01*
X158988796Y-51704504D01*
X158985196Y-51728773D01*
X158979235Y-51752571D01*
X158970970Y-51775671D01*
X158960480Y-51797849D01*
X158947867Y-51818893D01*
X158933253Y-51838598D01*
X158916777Y-51856777D01*
X158898598Y-51873253D01*
X158878893Y-51887867D01*
X158857849Y-51900480D01*
X158835671Y-51910970D01*
X158812571Y-51919235D01*
X158788773Y-51925196D01*
X158764504Y-51928796D01*
X158740000Y-51930000D01*
X157490000Y-51930000D01*
X157465496Y-51928796D01*
X157441227Y-51925196D01*
X157417429Y-51919235D01*
X157394329Y-51910970D01*
X157372151Y-51900480D01*
X157351107Y-51887867D01*
X157331402Y-51873253D01*
X157313223Y-51856777D01*
X157296747Y-51838598D01*
X157282133Y-51818893D01*
X157269520Y-51797849D01*
X157259030Y-51775671D01*
X157250765Y-51752571D01*
X157244804Y-51728773D01*
X157241204Y-51704504D01*
X157240000Y-51680000D01*
X157240000Y-50755000D01*
X157241204Y-50730496D01*
X157244804Y-50706227D01*
X157250765Y-50682429D01*
X157259030Y-50659329D01*
X157269520Y-50637151D01*
X157282133Y-50616107D01*
X157296747Y-50596402D01*
X157313223Y-50578223D01*
X157331402Y-50561747D01*
X157351107Y-50547133D01*
X157372151Y-50534520D01*
X157394329Y-50524030D01*
X157417429Y-50515765D01*
X157441227Y-50509804D01*
X157465496Y-50506204D01*
X157490000Y-50505000D01*
X158740000Y-50505000D01*
X158764504Y-50506204D01*
G37*
G36*
X154102724Y-73931744D02*
G01*
X154126993Y-73935344D01*
X154150791Y-73941305D01*
X154173891Y-73949570D01*
X154196069Y-73960060D01*
X154217113Y-73972673D01*
X154236818Y-73987287D01*
X154254997Y-74003763D01*
X154271473Y-74021942D01*
X154286087Y-74041647D01*
X154298700Y-74062691D01*
X154309190Y-74084869D01*
X154317455Y-74107969D01*
X154323416Y-74131767D01*
X154327016Y-74156036D01*
X154328220Y-74180540D01*
X154328220Y-75430540D01*
X154327016Y-75455044D01*
X154323416Y-75479313D01*
X154317455Y-75503111D01*
X154309190Y-75526211D01*
X154298700Y-75548389D01*
X154286087Y-75569433D01*
X154271473Y-75589138D01*
X154254997Y-75607317D01*
X154236818Y-75623793D01*
X154217113Y-75638407D01*
X154196069Y-75651020D01*
X154173891Y-75661510D01*
X154150791Y-75669775D01*
X154126993Y-75675736D01*
X154102724Y-75679336D01*
X154078220Y-75680540D01*
X153153220Y-75680540D01*
X153128716Y-75679336D01*
X153104447Y-75675736D01*
X153080649Y-75669775D01*
X153057549Y-75661510D01*
X153035371Y-75651020D01*
X153014327Y-75638407D01*
X152994622Y-75623793D01*
X152976443Y-75607317D01*
X152959967Y-75589138D01*
X152945353Y-75569433D01*
X152932740Y-75548389D01*
X152922250Y-75526211D01*
X152913985Y-75503111D01*
X152908024Y-75479313D01*
X152904424Y-75455044D01*
X152903220Y-75430540D01*
X152903220Y-74180540D01*
X152904424Y-74156036D01*
X152908024Y-74131767D01*
X152913985Y-74107969D01*
X152922250Y-74084869D01*
X152932740Y-74062691D01*
X152945353Y-74041647D01*
X152959967Y-74021942D01*
X152976443Y-74003763D01*
X152994622Y-73987287D01*
X153014327Y-73972673D01*
X153035371Y-73960060D01*
X153057549Y-73949570D01*
X153080649Y-73941305D01*
X153104447Y-73935344D01*
X153128716Y-73931744D01*
X153153220Y-73930540D01*
X154078220Y-73930540D01*
X154102724Y-73931744D01*
G37*
G36*
X151127724Y-73931744D02*
G01*
X151151993Y-73935344D01*
X151175791Y-73941305D01*
X151198891Y-73949570D01*
X151221069Y-73960060D01*
X151242113Y-73972673D01*
X151261818Y-73987287D01*
X151279997Y-74003763D01*
X151296473Y-74021942D01*
X151311087Y-74041647D01*
X151323700Y-74062691D01*
X151334190Y-74084869D01*
X151342455Y-74107969D01*
X151348416Y-74131767D01*
X151352016Y-74156036D01*
X151353220Y-74180540D01*
X151353220Y-75430540D01*
X151352016Y-75455044D01*
X151348416Y-75479313D01*
X151342455Y-75503111D01*
X151334190Y-75526211D01*
X151323700Y-75548389D01*
X151311087Y-75569433D01*
X151296473Y-75589138D01*
X151279997Y-75607317D01*
X151261818Y-75623793D01*
X151242113Y-75638407D01*
X151221069Y-75651020D01*
X151198891Y-75661510D01*
X151175791Y-75669775D01*
X151151993Y-75675736D01*
X151127724Y-75679336D01*
X151103220Y-75680540D01*
X150178220Y-75680540D01*
X150153716Y-75679336D01*
X150129447Y-75675736D01*
X150105649Y-75669775D01*
X150082549Y-75661510D01*
X150060371Y-75651020D01*
X150039327Y-75638407D01*
X150019622Y-75623793D01*
X150001443Y-75607317D01*
X149984967Y-75589138D01*
X149970353Y-75569433D01*
X149957740Y-75548389D01*
X149947250Y-75526211D01*
X149938985Y-75503111D01*
X149933024Y-75479313D01*
X149929424Y-75455044D01*
X149928220Y-75430540D01*
X149928220Y-74180540D01*
X149929424Y-74156036D01*
X149933024Y-74131767D01*
X149938985Y-74107969D01*
X149947250Y-74084869D01*
X149957740Y-74062691D01*
X149970353Y-74041647D01*
X149984967Y-74021942D01*
X150001443Y-74003763D01*
X150019622Y-73987287D01*
X150039327Y-73972673D01*
X150060371Y-73960060D01*
X150082549Y-73949570D01*
X150105649Y-73941305D01*
X150129447Y-73935344D01*
X150153716Y-73931744D01*
X150178220Y-73930540D01*
X151103220Y-73930540D01*
X151127724Y-73931744D01*
G37*
G36*
X148026384Y-81333304D02*
G01*
X148050653Y-81336904D01*
X148074451Y-81342865D01*
X148097551Y-81351130D01*
X148119729Y-81361620D01*
X148140773Y-81374233D01*
X148160478Y-81388847D01*
X148178657Y-81405323D01*
X148195133Y-81423502D01*
X148209747Y-81443207D01*
X148222360Y-81464251D01*
X148232850Y-81486429D01*
X148241115Y-81509529D01*
X148247076Y-81533327D01*
X148250676Y-81557596D01*
X148251880Y-81582100D01*
X148251880Y-82832100D01*
X148250676Y-82856604D01*
X148247076Y-82880873D01*
X148241115Y-82904671D01*
X148232850Y-82927771D01*
X148222360Y-82949949D01*
X148209747Y-82970993D01*
X148195133Y-82990698D01*
X148178657Y-83008877D01*
X148160478Y-83025353D01*
X148140773Y-83039967D01*
X148119729Y-83052580D01*
X148097551Y-83063070D01*
X148074451Y-83071335D01*
X148050653Y-83077296D01*
X148026384Y-83080896D01*
X148001880Y-83082100D01*
X147076880Y-83082100D01*
X147052376Y-83080896D01*
X147028107Y-83077296D01*
X147004309Y-83071335D01*
X146981209Y-83063070D01*
X146959031Y-83052580D01*
X146937987Y-83039967D01*
X146918282Y-83025353D01*
X146900103Y-83008877D01*
X146883627Y-82990698D01*
X146869013Y-82970993D01*
X146856400Y-82949949D01*
X146845910Y-82927771D01*
X146837645Y-82904671D01*
X146831684Y-82880873D01*
X146828084Y-82856604D01*
X146826880Y-82832100D01*
X146826880Y-81582100D01*
X146828084Y-81557596D01*
X146831684Y-81533327D01*
X146837645Y-81509529D01*
X146845910Y-81486429D01*
X146856400Y-81464251D01*
X146869013Y-81443207D01*
X146883627Y-81423502D01*
X146900103Y-81405323D01*
X146918282Y-81388847D01*
X146937987Y-81374233D01*
X146959031Y-81361620D01*
X146981209Y-81351130D01*
X147004309Y-81342865D01*
X147028107Y-81336904D01*
X147052376Y-81333304D01*
X147076880Y-81332100D01*
X148001880Y-81332100D01*
X148026384Y-81333304D01*
G37*
G36*
X151001384Y-81333304D02*
G01*
X151025653Y-81336904D01*
X151049451Y-81342865D01*
X151072551Y-81351130D01*
X151094729Y-81361620D01*
X151115773Y-81374233D01*
X151135478Y-81388847D01*
X151153657Y-81405323D01*
X151170133Y-81423502D01*
X151184747Y-81443207D01*
X151197360Y-81464251D01*
X151207850Y-81486429D01*
X151216115Y-81509529D01*
X151222076Y-81533327D01*
X151225676Y-81557596D01*
X151226880Y-81582100D01*
X151226880Y-82832100D01*
X151225676Y-82856604D01*
X151222076Y-82880873D01*
X151216115Y-82904671D01*
X151207850Y-82927771D01*
X151197360Y-82949949D01*
X151184747Y-82970993D01*
X151170133Y-82990698D01*
X151153657Y-83008877D01*
X151135478Y-83025353D01*
X151115773Y-83039967D01*
X151094729Y-83052580D01*
X151072551Y-83063070D01*
X151049451Y-83071335D01*
X151025653Y-83077296D01*
X151001384Y-83080896D01*
X150976880Y-83082100D01*
X150051880Y-83082100D01*
X150027376Y-83080896D01*
X150003107Y-83077296D01*
X149979309Y-83071335D01*
X149956209Y-83063070D01*
X149934031Y-83052580D01*
X149912987Y-83039967D01*
X149893282Y-83025353D01*
X149875103Y-83008877D01*
X149858627Y-82990698D01*
X149844013Y-82970993D01*
X149831400Y-82949949D01*
X149820910Y-82927771D01*
X149812645Y-82904671D01*
X149806684Y-82880873D01*
X149803084Y-82856604D01*
X149801880Y-82832100D01*
X149801880Y-81582100D01*
X149803084Y-81557596D01*
X149806684Y-81533327D01*
X149812645Y-81509529D01*
X149820910Y-81486429D01*
X149831400Y-81464251D01*
X149844013Y-81443207D01*
X149858627Y-81423502D01*
X149875103Y-81405323D01*
X149893282Y-81388847D01*
X149912987Y-81374233D01*
X149934031Y-81361620D01*
X149956209Y-81351130D01*
X149979309Y-81342865D01*
X150003107Y-81336904D01*
X150027376Y-81333304D01*
X150051880Y-81332100D01*
X150976880Y-81332100D01*
X151001384Y-81333304D01*
G37*
G36*
X154102724Y-77795084D02*
G01*
X154126993Y-77798684D01*
X154150791Y-77804645D01*
X154173891Y-77812910D01*
X154196069Y-77823400D01*
X154217113Y-77836013D01*
X154236818Y-77850627D01*
X154254997Y-77867103D01*
X154271473Y-77885282D01*
X154286087Y-77904987D01*
X154298700Y-77926031D01*
X154309190Y-77948209D01*
X154317455Y-77971309D01*
X154323416Y-77995107D01*
X154327016Y-78019376D01*
X154328220Y-78043880D01*
X154328220Y-79293880D01*
X154327016Y-79318384D01*
X154323416Y-79342653D01*
X154317455Y-79366451D01*
X154309190Y-79389551D01*
X154298700Y-79411729D01*
X154286087Y-79432773D01*
X154271473Y-79452478D01*
X154254997Y-79470657D01*
X154236818Y-79487133D01*
X154217113Y-79501747D01*
X154196069Y-79514360D01*
X154173891Y-79524850D01*
X154150791Y-79533115D01*
X154126993Y-79539076D01*
X154102724Y-79542676D01*
X154078220Y-79543880D01*
X153153220Y-79543880D01*
X153128716Y-79542676D01*
X153104447Y-79539076D01*
X153080649Y-79533115D01*
X153057549Y-79524850D01*
X153035371Y-79514360D01*
X153014327Y-79501747D01*
X152994622Y-79487133D01*
X152976443Y-79470657D01*
X152959967Y-79452478D01*
X152945353Y-79432773D01*
X152932740Y-79411729D01*
X152922250Y-79389551D01*
X152913985Y-79366451D01*
X152908024Y-79342653D01*
X152904424Y-79318384D01*
X152903220Y-79293880D01*
X152903220Y-78043880D01*
X152904424Y-78019376D01*
X152908024Y-77995107D01*
X152913985Y-77971309D01*
X152922250Y-77948209D01*
X152932740Y-77926031D01*
X152945353Y-77904987D01*
X152959967Y-77885282D01*
X152976443Y-77867103D01*
X152994622Y-77850627D01*
X153014327Y-77836013D01*
X153035371Y-77823400D01*
X153057549Y-77812910D01*
X153080649Y-77804645D01*
X153104447Y-77798684D01*
X153128716Y-77795084D01*
X153153220Y-77793880D01*
X154078220Y-77793880D01*
X154102724Y-77795084D01*
G37*
G36*
X151127724Y-77795084D02*
G01*
X151151993Y-77798684D01*
X151175791Y-77804645D01*
X151198891Y-77812910D01*
X151221069Y-77823400D01*
X151242113Y-77836013D01*
X151261818Y-77850627D01*
X151279997Y-77867103D01*
X151296473Y-77885282D01*
X151311087Y-77904987D01*
X151323700Y-77926031D01*
X151334190Y-77948209D01*
X151342455Y-77971309D01*
X151348416Y-77995107D01*
X151352016Y-78019376D01*
X151353220Y-78043880D01*
X151353220Y-79293880D01*
X151352016Y-79318384D01*
X151348416Y-79342653D01*
X151342455Y-79366451D01*
X151334190Y-79389551D01*
X151323700Y-79411729D01*
X151311087Y-79432773D01*
X151296473Y-79452478D01*
X151279997Y-79470657D01*
X151261818Y-79487133D01*
X151242113Y-79501747D01*
X151221069Y-79514360D01*
X151198891Y-79524850D01*
X151175791Y-79533115D01*
X151151993Y-79539076D01*
X151127724Y-79542676D01*
X151103220Y-79543880D01*
X150178220Y-79543880D01*
X150153716Y-79542676D01*
X150129447Y-79539076D01*
X150105649Y-79533115D01*
X150082549Y-79524850D01*
X150060371Y-79514360D01*
X150039327Y-79501747D01*
X150019622Y-79487133D01*
X150001443Y-79470657D01*
X149984967Y-79452478D01*
X149970353Y-79432773D01*
X149957740Y-79411729D01*
X149947250Y-79389551D01*
X149938985Y-79366451D01*
X149933024Y-79342653D01*
X149929424Y-79318384D01*
X149928220Y-79293880D01*
X149928220Y-78043880D01*
X149929424Y-78019376D01*
X149933024Y-77995107D01*
X149938985Y-77971309D01*
X149947250Y-77948209D01*
X149957740Y-77926031D01*
X149970353Y-77904987D01*
X149984967Y-77885282D01*
X150001443Y-77867103D01*
X150019622Y-77850627D01*
X150039327Y-77836013D01*
X150060371Y-77823400D01*
X150082549Y-77812910D01*
X150105649Y-77804645D01*
X150129447Y-77798684D01*
X150153716Y-77795084D01*
X150178220Y-77793880D01*
X151103220Y-77793880D01*
X151127724Y-77795084D01*
G37*
D12*
X142426660Y-78445760D03*
X147026660Y-78445760D03*
X144726660Y-78445760D03*
D13*
X144726660Y-72145760D03*
D10*
G36*
X151181064Y-70558624D02*
G01*
X151205333Y-70562224D01*
X151229131Y-70568185D01*
X151252231Y-70576450D01*
X151274409Y-70586940D01*
X151295453Y-70599553D01*
X151315158Y-70614167D01*
X151333337Y-70630643D01*
X151349813Y-70648822D01*
X151364427Y-70668527D01*
X151377040Y-70689571D01*
X151387530Y-70711749D01*
X151395795Y-70734849D01*
X151401756Y-70758647D01*
X151405356Y-70782916D01*
X151406560Y-70807420D01*
X151406560Y-72057420D01*
X151405356Y-72081924D01*
X151401756Y-72106193D01*
X151395795Y-72129991D01*
X151387530Y-72153091D01*
X151377040Y-72175269D01*
X151364427Y-72196313D01*
X151349813Y-72216018D01*
X151333337Y-72234197D01*
X151315158Y-72250673D01*
X151295453Y-72265287D01*
X151274409Y-72277900D01*
X151252231Y-72288390D01*
X151229131Y-72296655D01*
X151205333Y-72302616D01*
X151181064Y-72306216D01*
X151156560Y-72307420D01*
X150231560Y-72307420D01*
X150207056Y-72306216D01*
X150182787Y-72302616D01*
X150158989Y-72296655D01*
X150135889Y-72288390D01*
X150113711Y-72277900D01*
X150092667Y-72265287D01*
X150072962Y-72250673D01*
X150054783Y-72234197D01*
X150038307Y-72216018D01*
X150023693Y-72196313D01*
X150011080Y-72175269D01*
X150000590Y-72153091D01*
X149992325Y-72129991D01*
X149986364Y-72106193D01*
X149982764Y-72081924D01*
X149981560Y-72057420D01*
X149981560Y-70807420D01*
X149982764Y-70782916D01*
X149986364Y-70758647D01*
X149992325Y-70734849D01*
X150000590Y-70711749D01*
X150011080Y-70689571D01*
X150023693Y-70668527D01*
X150038307Y-70648822D01*
X150054783Y-70630643D01*
X150072962Y-70614167D01*
X150092667Y-70599553D01*
X150113711Y-70586940D01*
X150135889Y-70576450D01*
X150158989Y-70568185D01*
X150182787Y-70562224D01*
X150207056Y-70558624D01*
X150231560Y-70557420D01*
X151156560Y-70557420D01*
X151181064Y-70558624D01*
G37*
G36*
X154156064Y-70558624D02*
G01*
X154180333Y-70562224D01*
X154204131Y-70568185D01*
X154227231Y-70576450D01*
X154249409Y-70586940D01*
X154270453Y-70599553D01*
X154290158Y-70614167D01*
X154308337Y-70630643D01*
X154324813Y-70648822D01*
X154339427Y-70668527D01*
X154352040Y-70689571D01*
X154362530Y-70711749D01*
X154370795Y-70734849D01*
X154376756Y-70758647D01*
X154380356Y-70782916D01*
X154381560Y-70807420D01*
X154381560Y-72057420D01*
X154380356Y-72081924D01*
X154376756Y-72106193D01*
X154370795Y-72129991D01*
X154362530Y-72153091D01*
X154352040Y-72175269D01*
X154339427Y-72196313D01*
X154324813Y-72216018D01*
X154308337Y-72234197D01*
X154290158Y-72250673D01*
X154270453Y-72265287D01*
X154249409Y-72277900D01*
X154227231Y-72288390D01*
X154204131Y-72296655D01*
X154180333Y-72302616D01*
X154156064Y-72306216D01*
X154131560Y-72307420D01*
X153206560Y-72307420D01*
X153182056Y-72306216D01*
X153157787Y-72302616D01*
X153133989Y-72296655D01*
X153110889Y-72288390D01*
X153088711Y-72277900D01*
X153067667Y-72265287D01*
X153047962Y-72250673D01*
X153029783Y-72234197D01*
X153013307Y-72216018D01*
X152998693Y-72196313D01*
X152986080Y-72175269D01*
X152975590Y-72153091D01*
X152967325Y-72129991D01*
X152961364Y-72106193D01*
X152957764Y-72081924D01*
X152956560Y-72057420D01*
X152956560Y-70807420D01*
X152957764Y-70782916D01*
X152961364Y-70758647D01*
X152967325Y-70734849D01*
X152975590Y-70711749D01*
X152986080Y-70689571D01*
X152998693Y-70668527D01*
X153013307Y-70648822D01*
X153029783Y-70630643D01*
X153047962Y-70614167D01*
X153067667Y-70599553D01*
X153088711Y-70586940D01*
X153110889Y-70576450D01*
X153133989Y-70568185D01*
X153157787Y-70562224D01*
X153182056Y-70558624D01*
X153206560Y-70557420D01*
X154131560Y-70557420D01*
X154156064Y-70558624D01*
G37*
G36*
X145177164Y-81386644D02*
G01*
X145201433Y-81390244D01*
X145225231Y-81396205D01*
X145248331Y-81404470D01*
X145270509Y-81414960D01*
X145291553Y-81427573D01*
X145311258Y-81442187D01*
X145329437Y-81458663D01*
X145345913Y-81476842D01*
X145360527Y-81496547D01*
X145373140Y-81517591D01*
X145383630Y-81539769D01*
X145391895Y-81562869D01*
X145397856Y-81586667D01*
X145401456Y-81610936D01*
X145402660Y-81635440D01*
X145402660Y-82885440D01*
X145401456Y-82909944D01*
X145397856Y-82934213D01*
X145391895Y-82958011D01*
X145383630Y-82981111D01*
X145373140Y-83003289D01*
X145360527Y-83024333D01*
X145345913Y-83044038D01*
X145329437Y-83062217D01*
X145311258Y-83078693D01*
X145291553Y-83093307D01*
X145270509Y-83105920D01*
X145248331Y-83116410D01*
X145225231Y-83124675D01*
X145201433Y-83130636D01*
X145177164Y-83134236D01*
X145152660Y-83135440D01*
X144227660Y-83135440D01*
X144203156Y-83134236D01*
X144178887Y-83130636D01*
X144155089Y-83124675D01*
X144131989Y-83116410D01*
X144109811Y-83105920D01*
X144088767Y-83093307D01*
X144069062Y-83078693D01*
X144050883Y-83062217D01*
X144034407Y-83044038D01*
X144019793Y-83024333D01*
X144007180Y-83003289D01*
X143996690Y-82981111D01*
X143988425Y-82958011D01*
X143982464Y-82934213D01*
X143978864Y-82909944D01*
X143977660Y-82885440D01*
X143977660Y-81635440D01*
X143978864Y-81610936D01*
X143982464Y-81586667D01*
X143988425Y-81562869D01*
X143996690Y-81539769D01*
X144007180Y-81517591D01*
X144019793Y-81496547D01*
X144034407Y-81476842D01*
X144050883Y-81458663D01*
X144069062Y-81442187D01*
X144088767Y-81427573D01*
X144109811Y-81414960D01*
X144131989Y-81404470D01*
X144155089Y-81396205D01*
X144178887Y-81390244D01*
X144203156Y-81386644D01*
X144227660Y-81385440D01*
X145152660Y-81385440D01*
X145177164Y-81386644D01*
G37*
G36*
X142202164Y-81386644D02*
G01*
X142226433Y-81390244D01*
X142250231Y-81396205D01*
X142273331Y-81404470D01*
X142295509Y-81414960D01*
X142316553Y-81427573D01*
X142336258Y-81442187D01*
X142354437Y-81458663D01*
X142370913Y-81476842D01*
X142385527Y-81496547D01*
X142398140Y-81517591D01*
X142408630Y-81539769D01*
X142416895Y-81562869D01*
X142422856Y-81586667D01*
X142426456Y-81610936D01*
X142427660Y-81635440D01*
X142427660Y-82885440D01*
X142426456Y-82909944D01*
X142422856Y-82934213D01*
X142416895Y-82958011D01*
X142408630Y-82981111D01*
X142398140Y-83003289D01*
X142385527Y-83024333D01*
X142370913Y-83044038D01*
X142354437Y-83062217D01*
X142336258Y-83078693D01*
X142316553Y-83093307D01*
X142295509Y-83105920D01*
X142273331Y-83116410D01*
X142250231Y-83124675D01*
X142226433Y-83130636D01*
X142202164Y-83134236D01*
X142177660Y-83135440D01*
X141252660Y-83135440D01*
X141228156Y-83134236D01*
X141203887Y-83130636D01*
X141180089Y-83124675D01*
X141156989Y-83116410D01*
X141134811Y-83105920D01*
X141113767Y-83093307D01*
X141094062Y-83078693D01*
X141075883Y-83062217D01*
X141059407Y-83044038D01*
X141044793Y-83024333D01*
X141032180Y-83003289D01*
X141021690Y-82981111D01*
X141013425Y-82958011D01*
X141007464Y-82934213D01*
X141003864Y-82909944D01*
X141002660Y-82885440D01*
X141002660Y-81635440D01*
X141003864Y-81610936D01*
X141007464Y-81586667D01*
X141013425Y-81562869D01*
X141021690Y-81539769D01*
X141032180Y-81517591D01*
X141044793Y-81496547D01*
X141059407Y-81476842D01*
X141075883Y-81458663D01*
X141094062Y-81442187D01*
X141113767Y-81427573D01*
X141134811Y-81414960D01*
X141156989Y-81404470D01*
X141180089Y-81396205D01*
X141203887Y-81390244D01*
X141228156Y-81386644D01*
X141252660Y-81385440D01*
X142177660Y-81385440D01*
X142202164Y-81386644D01*
G37*
G36*
X118870384Y-81213924D02*
G01*
X118894653Y-81217524D01*
X118918451Y-81223485D01*
X118941551Y-81231750D01*
X118963729Y-81242240D01*
X118984773Y-81254853D01*
X119004478Y-81269467D01*
X119022657Y-81285943D01*
X119039133Y-81304122D01*
X119053747Y-81323827D01*
X119066360Y-81344871D01*
X119076850Y-81367049D01*
X119085115Y-81390149D01*
X119091076Y-81413947D01*
X119094676Y-81438216D01*
X119095880Y-81462720D01*
X119095880Y-82712720D01*
X119094676Y-82737224D01*
X119091076Y-82761493D01*
X119085115Y-82785291D01*
X119076850Y-82808391D01*
X119066360Y-82830569D01*
X119053747Y-82851613D01*
X119039133Y-82871318D01*
X119022657Y-82889497D01*
X119004478Y-82905973D01*
X118984773Y-82920587D01*
X118963729Y-82933200D01*
X118941551Y-82943690D01*
X118918451Y-82951955D01*
X118894653Y-82957916D01*
X118870384Y-82961516D01*
X118845880Y-82962720D01*
X117920880Y-82962720D01*
X117896376Y-82961516D01*
X117872107Y-82957916D01*
X117848309Y-82951955D01*
X117825209Y-82943690D01*
X117803031Y-82933200D01*
X117781987Y-82920587D01*
X117762282Y-82905973D01*
X117744103Y-82889497D01*
X117727627Y-82871318D01*
X117713013Y-82851613D01*
X117700400Y-82830569D01*
X117689910Y-82808391D01*
X117681645Y-82785291D01*
X117675684Y-82761493D01*
X117672084Y-82737224D01*
X117670880Y-82712720D01*
X117670880Y-81462720D01*
X117672084Y-81438216D01*
X117675684Y-81413947D01*
X117681645Y-81390149D01*
X117689910Y-81367049D01*
X117700400Y-81344871D01*
X117713013Y-81323827D01*
X117727627Y-81304122D01*
X117744103Y-81285943D01*
X117762282Y-81269467D01*
X117781987Y-81254853D01*
X117803031Y-81242240D01*
X117825209Y-81231750D01*
X117848309Y-81223485D01*
X117872107Y-81217524D01*
X117896376Y-81213924D01*
X117920880Y-81212720D01*
X118845880Y-81212720D01*
X118870384Y-81213924D01*
G37*
G36*
X115895384Y-81213924D02*
G01*
X115919653Y-81217524D01*
X115943451Y-81223485D01*
X115966551Y-81231750D01*
X115988729Y-81242240D01*
X116009773Y-81254853D01*
X116029478Y-81269467D01*
X116047657Y-81285943D01*
X116064133Y-81304122D01*
X116078747Y-81323827D01*
X116091360Y-81344871D01*
X116101850Y-81367049D01*
X116110115Y-81390149D01*
X116116076Y-81413947D01*
X116119676Y-81438216D01*
X116120880Y-81462720D01*
X116120880Y-82712720D01*
X116119676Y-82737224D01*
X116116076Y-82761493D01*
X116110115Y-82785291D01*
X116101850Y-82808391D01*
X116091360Y-82830569D01*
X116078747Y-82851613D01*
X116064133Y-82871318D01*
X116047657Y-82889497D01*
X116029478Y-82905973D01*
X116009773Y-82920587D01*
X115988729Y-82933200D01*
X115966551Y-82943690D01*
X115943451Y-82951955D01*
X115919653Y-82957916D01*
X115895384Y-82961516D01*
X115870880Y-82962720D01*
X114945880Y-82962720D01*
X114921376Y-82961516D01*
X114897107Y-82957916D01*
X114873309Y-82951955D01*
X114850209Y-82943690D01*
X114828031Y-82933200D01*
X114806987Y-82920587D01*
X114787282Y-82905973D01*
X114769103Y-82889497D01*
X114752627Y-82871318D01*
X114738013Y-82851613D01*
X114725400Y-82830569D01*
X114714910Y-82808391D01*
X114706645Y-82785291D01*
X114700684Y-82761493D01*
X114697084Y-82737224D01*
X114695880Y-82712720D01*
X114695880Y-81462720D01*
X114697084Y-81438216D01*
X114700684Y-81413947D01*
X114706645Y-81390149D01*
X114714910Y-81367049D01*
X114725400Y-81344871D01*
X114738013Y-81323827D01*
X114752627Y-81304122D01*
X114769103Y-81285943D01*
X114787282Y-81269467D01*
X114806987Y-81254853D01*
X114828031Y-81242240D01*
X114850209Y-81231750D01*
X114873309Y-81223485D01*
X114897107Y-81217524D01*
X114921376Y-81213924D01*
X114945880Y-81212720D01*
X115870880Y-81212720D01*
X115895384Y-81213924D01*
G37*
G36*
X117951784Y-57006724D02*
G01*
X117976053Y-57010324D01*
X117999851Y-57016285D01*
X118022951Y-57024550D01*
X118045129Y-57035040D01*
X118066173Y-57047653D01*
X118085878Y-57062267D01*
X118104057Y-57078743D01*
X118120533Y-57096922D01*
X118135147Y-57116627D01*
X118147760Y-57137671D01*
X118158250Y-57159849D01*
X118166515Y-57182949D01*
X118172476Y-57206747D01*
X118176076Y-57231016D01*
X118177280Y-57255520D01*
X118177280Y-58180520D01*
X118176076Y-58205024D01*
X118172476Y-58229293D01*
X118166515Y-58253091D01*
X118158250Y-58276191D01*
X118147760Y-58298369D01*
X118135147Y-58319413D01*
X118120533Y-58339118D01*
X118104057Y-58357297D01*
X118085878Y-58373773D01*
X118066173Y-58388387D01*
X118045129Y-58401000D01*
X118022951Y-58411490D01*
X117999851Y-58419755D01*
X117976053Y-58425716D01*
X117951784Y-58429316D01*
X117927280Y-58430520D01*
X116677280Y-58430520D01*
X116652776Y-58429316D01*
X116628507Y-58425716D01*
X116604709Y-58419755D01*
X116581609Y-58411490D01*
X116559431Y-58401000D01*
X116538387Y-58388387D01*
X116518682Y-58373773D01*
X116500503Y-58357297D01*
X116484027Y-58339118D01*
X116469413Y-58319413D01*
X116456800Y-58298369D01*
X116446310Y-58276191D01*
X116438045Y-58253091D01*
X116432084Y-58229293D01*
X116428484Y-58205024D01*
X116427280Y-58180520D01*
X116427280Y-57255520D01*
X116428484Y-57231016D01*
X116432084Y-57206747D01*
X116438045Y-57182949D01*
X116446310Y-57159849D01*
X116456800Y-57137671D01*
X116469413Y-57116627D01*
X116484027Y-57096922D01*
X116500503Y-57078743D01*
X116518682Y-57062267D01*
X116538387Y-57047653D01*
X116559431Y-57035040D01*
X116581609Y-57024550D01*
X116604709Y-57016285D01*
X116628507Y-57010324D01*
X116652776Y-57006724D01*
X116677280Y-57005520D01*
X117927280Y-57005520D01*
X117951784Y-57006724D01*
G37*
G36*
X117951784Y-54031724D02*
G01*
X117976053Y-54035324D01*
X117999851Y-54041285D01*
X118022951Y-54049550D01*
X118045129Y-54060040D01*
X118066173Y-54072653D01*
X118085878Y-54087267D01*
X118104057Y-54103743D01*
X118120533Y-54121922D01*
X118135147Y-54141627D01*
X118147760Y-54162671D01*
X118158250Y-54184849D01*
X118166515Y-54207949D01*
X118172476Y-54231747D01*
X118176076Y-54256016D01*
X118177280Y-54280520D01*
X118177280Y-55205520D01*
X118176076Y-55230024D01*
X118172476Y-55254293D01*
X118166515Y-55278091D01*
X118158250Y-55301191D01*
X118147760Y-55323369D01*
X118135147Y-55344413D01*
X118120533Y-55364118D01*
X118104057Y-55382297D01*
X118085878Y-55398773D01*
X118066173Y-55413387D01*
X118045129Y-55426000D01*
X118022951Y-55436490D01*
X117999851Y-55444755D01*
X117976053Y-55450716D01*
X117951784Y-55454316D01*
X117927280Y-55455520D01*
X116677280Y-55455520D01*
X116652776Y-55454316D01*
X116628507Y-55450716D01*
X116604709Y-55444755D01*
X116581609Y-55436490D01*
X116559431Y-55426000D01*
X116538387Y-55413387D01*
X116518682Y-55398773D01*
X116500503Y-55382297D01*
X116484027Y-55364118D01*
X116469413Y-55344413D01*
X116456800Y-55323369D01*
X116446310Y-55301191D01*
X116438045Y-55278091D01*
X116432084Y-55254293D01*
X116428484Y-55230024D01*
X116427280Y-55205520D01*
X116427280Y-54280520D01*
X116428484Y-54256016D01*
X116432084Y-54231747D01*
X116438045Y-54207949D01*
X116446310Y-54184849D01*
X116456800Y-54162671D01*
X116469413Y-54141627D01*
X116484027Y-54121922D01*
X116500503Y-54103743D01*
X116518682Y-54087267D01*
X116538387Y-54072653D01*
X116559431Y-54060040D01*
X116581609Y-54049550D01*
X116604709Y-54041285D01*
X116628507Y-54035324D01*
X116652776Y-54031724D01*
X116677280Y-54030520D01*
X117927280Y-54030520D01*
X117951784Y-54031724D01*
G37*
G36*
X114075744Y-60640804D02*
G01*
X114100013Y-60644404D01*
X114123811Y-60650365D01*
X114146911Y-60658630D01*
X114169089Y-60669120D01*
X114190133Y-60681733D01*
X114209838Y-60696347D01*
X114228017Y-60712823D01*
X114244493Y-60731002D01*
X114259107Y-60750707D01*
X114271720Y-60771751D01*
X114282210Y-60793929D01*
X114290475Y-60817029D01*
X114296436Y-60840827D01*
X114300036Y-60865096D01*
X114301240Y-60889600D01*
X114301240Y-61814600D01*
X114300036Y-61839104D01*
X114296436Y-61863373D01*
X114290475Y-61887171D01*
X114282210Y-61910271D01*
X114271720Y-61932449D01*
X114259107Y-61953493D01*
X114244493Y-61973198D01*
X114228017Y-61991377D01*
X114209838Y-62007853D01*
X114190133Y-62022467D01*
X114169089Y-62035080D01*
X114146911Y-62045570D01*
X114123811Y-62053835D01*
X114100013Y-62059796D01*
X114075744Y-62063396D01*
X114051240Y-62064600D01*
X112801240Y-62064600D01*
X112776736Y-62063396D01*
X112752467Y-62059796D01*
X112728669Y-62053835D01*
X112705569Y-62045570D01*
X112683391Y-62035080D01*
X112662347Y-62022467D01*
X112642642Y-62007853D01*
X112624463Y-61991377D01*
X112607987Y-61973198D01*
X112593373Y-61953493D01*
X112580760Y-61932449D01*
X112570270Y-61910271D01*
X112562005Y-61887171D01*
X112556044Y-61863373D01*
X112552444Y-61839104D01*
X112551240Y-61814600D01*
X112551240Y-60889600D01*
X112552444Y-60865096D01*
X112556044Y-60840827D01*
X112562005Y-60817029D01*
X112570270Y-60793929D01*
X112580760Y-60771751D01*
X112593373Y-60750707D01*
X112607987Y-60731002D01*
X112624463Y-60712823D01*
X112642642Y-60696347D01*
X112662347Y-60681733D01*
X112683391Y-60669120D01*
X112705569Y-60658630D01*
X112728669Y-60650365D01*
X112752467Y-60644404D01*
X112776736Y-60640804D01*
X112801240Y-60639600D01*
X114051240Y-60639600D01*
X114075744Y-60640804D01*
G37*
G36*
X114075744Y-63615804D02*
G01*
X114100013Y-63619404D01*
X114123811Y-63625365D01*
X114146911Y-63633630D01*
X114169089Y-63644120D01*
X114190133Y-63656733D01*
X114209838Y-63671347D01*
X114228017Y-63687823D01*
X114244493Y-63706002D01*
X114259107Y-63725707D01*
X114271720Y-63746751D01*
X114282210Y-63768929D01*
X114290475Y-63792029D01*
X114296436Y-63815827D01*
X114300036Y-63840096D01*
X114301240Y-63864600D01*
X114301240Y-64789600D01*
X114300036Y-64814104D01*
X114296436Y-64838373D01*
X114290475Y-64862171D01*
X114282210Y-64885271D01*
X114271720Y-64907449D01*
X114259107Y-64928493D01*
X114244493Y-64948198D01*
X114228017Y-64966377D01*
X114209838Y-64982853D01*
X114190133Y-64997467D01*
X114169089Y-65010080D01*
X114146911Y-65020570D01*
X114123811Y-65028835D01*
X114100013Y-65034796D01*
X114075744Y-65038396D01*
X114051240Y-65039600D01*
X112801240Y-65039600D01*
X112776736Y-65038396D01*
X112752467Y-65034796D01*
X112728669Y-65028835D01*
X112705569Y-65020570D01*
X112683391Y-65010080D01*
X112662347Y-64997467D01*
X112642642Y-64982853D01*
X112624463Y-64966377D01*
X112607987Y-64948198D01*
X112593373Y-64928493D01*
X112580760Y-64907449D01*
X112570270Y-64885271D01*
X112562005Y-64862171D01*
X112556044Y-64838373D01*
X112552444Y-64814104D01*
X112551240Y-64789600D01*
X112551240Y-63864600D01*
X112552444Y-63840096D01*
X112556044Y-63815827D01*
X112562005Y-63792029D01*
X112570270Y-63768929D01*
X112580760Y-63746751D01*
X112593373Y-63725707D01*
X112607987Y-63706002D01*
X112624463Y-63687823D01*
X112642642Y-63671347D01*
X112662347Y-63656733D01*
X112683391Y-63644120D01*
X112705569Y-63633630D01*
X112728669Y-63625365D01*
X112752467Y-63619404D01*
X112776736Y-63615804D01*
X112801240Y-63614600D01*
X114051240Y-63614600D01*
X114075744Y-63615804D01*
G37*
G36*
X110814384Y-66406604D02*
G01*
X110838653Y-66410204D01*
X110862451Y-66416165D01*
X110885551Y-66424430D01*
X110907729Y-66434920D01*
X110928773Y-66447533D01*
X110948478Y-66462147D01*
X110966657Y-66478623D01*
X110983133Y-66496802D01*
X110997747Y-66516507D01*
X111010360Y-66537551D01*
X111020850Y-66559729D01*
X111029115Y-66582829D01*
X111035076Y-66606627D01*
X111038676Y-66630896D01*
X111039880Y-66655400D01*
X111039880Y-67580400D01*
X111038676Y-67604904D01*
X111035076Y-67629173D01*
X111029115Y-67652971D01*
X111020850Y-67676071D01*
X111010360Y-67698249D01*
X110997747Y-67719293D01*
X110983133Y-67738998D01*
X110966657Y-67757177D01*
X110948478Y-67773653D01*
X110928773Y-67788267D01*
X110907729Y-67800880D01*
X110885551Y-67811370D01*
X110862451Y-67819635D01*
X110838653Y-67825596D01*
X110814384Y-67829196D01*
X110789880Y-67830400D01*
X109539880Y-67830400D01*
X109515376Y-67829196D01*
X109491107Y-67825596D01*
X109467309Y-67819635D01*
X109444209Y-67811370D01*
X109422031Y-67800880D01*
X109400987Y-67788267D01*
X109381282Y-67773653D01*
X109363103Y-67757177D01*
X109346627Y-67738998D01*
X109332013Y-67719293D01*
X109319400Y-67698249D01*
X109308910Y-67676071D01*
X109300645Y-67652971D01*
X109294684Y-67629173D01*
X109291084Y-67604904D01*
X109289880Y-67580400D01*
X109289880Y-66655400D01*
X109291084Y-66630896D01*
X109294684Y-66606627D01*
X109300645Y-66582829D01*
X109308910Y-66559729D01*
X109319400Y-66537551D01*
X109332013Y-66516507D01*
X109346627Y-66496802D01*
X109363103Y-66478623D01*
X109381282Y-66462147D01*
X109400987Y-66447533D01*
X109422031Y-66434920D01*
X109444209Y-66424430D01*
X109467309Y-66416165D01*
X109491107Y-66410204D01*
X109515376Y-66406604D01*
X109539880Y-66405400D01*
X110789880Y-66405400D01*
X110814384Y-66406604D01*
G37*
G36*
X110814384Y-69381604D02*
G01*
X110838653Y-69385204D01*
X110862451Y-69391165D01*
X110885551Y-69399430D01*
X110907729Y-69409920D01*
X110928773Y-69422533D01*
X110948478Y-69437147D01*
X110966657Y-69453623D01*
X110983133Y-69471802D01*
X110997747Y-69491507D01*
X111010360Y-69512551D01*
X111020850Y-69534729D01*
X111029115Y-69557829D01*
X111035076Y-69581627D01*
X111038676Y-69605896D01*
X111039880Y-69630400D01*
X111039880Y-70555400D01*
X111038676Y-70579904D01*
X111035076Y-70604173D01*
X111029115Y-70627971D01*
X111020850Y-70651071D01*
X111010360Y-70673249D01*
X110997747Y-70694293D01*
X110983133Y-70713998D01*
X110966657Y-70732177D01*
X110948478Y-70748653D01*
X110928773Y-70763267D01*
X110907729Y-70775880D01*
X110885551Y-70786370D01*
X110862451Y-70794635D01*
X110838653Y-70800596D01*
X110814384Y-70804196D01*
X110789880Y-70805400D01*
X109539880Y-70805400D01*
X109515376Y-70804196D01*
X109491107Y-70800596D01*
X109467309Y-70794635D01*
X109444209Y-70786370D01*
X109422031Y-70775880D01*
X109400987Y-70763267D01*
X109381282Y-70748653D01*
X109363103Y-70732177D01*
X109346627Y-70713998D01*
X109332013Y-70694293D01*
X109319400Y-70673249D01*
X109308910Y-70651071D01*
X109300645Y-70627971D01*
X109294684Y-70604173D01*
X109291084Y-70579904D01*
X109289880Y-70555400D01*
X109289880Y-69630400D01*
X109291084Y-69605896D01*
X109294684Y-69581627D01*
X109300645Y-69557829D01*
X109308910Y-69534729D01*
X109319400Y-69512551D01*
X109332013Y-69491507D01*
X109346627Y-69471802D01*
X109363103Y-69453623D01*
X109381282Y-69437147D01*
X109400987Y-69422533D01*
X109422031Y-69409920D01*
X109444209Y-69399430D01*
X109467309Y-69391165D01*
X109491107Y-69385204D01*
X109515376Y-69381604D01*
X109539880Y-69380400D01*
X110789880Y-69380400D01*
X110814384Y-69381604D01*
G37*
G36*
X111355404Y-87056804D02*
G01*
X111379673Y-87060404D01*
X111403471Y-87066365D01*
X111426571Y-87074630D01*
X111448749Y-87085120D01*
X111469793Y-87097733D01*
X111489498Y-87112347D01*
X111507677Y-87128823D01*
X111524153Y-87147002D01*
X111538767Y-87166707D01*
X111551380Y-87187751D01*
X111561870Y-87209929D01*
X111570135Y-87233029D01*
X111576096Y-87256827D01*
X111579696Y-87281096D01*
X111580900Y-87305600D01*
X111580900Y-88230600D01*
X111579696Y-88255104D01*
X111576096Y-88279373D01*
X111570135Y-88303171D01*
X111561870Y-88326271D01*
X111551380Y-88348449D01*
X111538767Y-88369493D01*
X111524153Y-88389198D01*
X111507677Y-88407377D01*
X111489498Y-88423853D01*
X111469793Y-88438467D01*
X111448749Y-88451080D01*
X111426571Y-88461570D01*
X111403471Y-88469835D01*
X111379673Y-88475796D01*
X111355404Y-88479396D01*
X111330900Y-88480600D01*
X110080900Y-88480600D01*
X110056396Y-88479396D01*
X110032127Y-88475796D01*
X110008329Y-88469835D01*
X109985229Y-88461570D01*
X109963051Y-88451080D01*
X109942007Y-88438467D01*
X109922302Y-88423853D01*
X109904123Y-88407377D01*
X109887647Y-88389198D01*
X109873033Y-88369493D01*
X109860420Y-88348449D01*
X109849930Y-88326271D01*
X109841665Y-88303171D01*
X109835704Y-88279373D01*
X109832104Y-88255104D01*
X109830900Y-88230600D01*
X109830900Y-87305600D01*
X109832104Y-87281096D01*
X109835704Y-87256827D01*
X109841665Y-87233029D01*
X109849930Y-87209929D01*
X109860420Y-87187751D01*
X109873033Y-87166707D01*
X109887647Y-87147002D01*
X109904123Y-87128823D01*
X109922302Y-87112347D01*
X109942007Y-87097733D01*
X109963051Y-87085120D01*
X109985229Y-87074630D01*
X110008329Y-87066365D01*
X110032127Y-87060404D01*
X110056396Y-87056804D01*
X110080900Y-87055600D01*
X111330900Y-87055600D01*
X111355404Y-87056804D01*
G37*
G36*
X111355404Y-90031804D02*
G01*
X111379673Y-90035404D01*
X111403471Y-90041365D01*
X111426571Y-90049630D01*
X111448749Y-90060120D01*
X111469793Y-90072733D01*
X111489498Y-90087347D01*
X111507677Y-90103823D01*
X111524153Y-90122002D01*
X111538767Y-90141707D01*
X111551380Y-90162751D01*
X111561870Y-90184929D01*
X111570135Y-90208029D01*
X111576096Y-90231827D01*
X111579696Y-90256096D01*
X111580900Y-90280600D01*
X111580900Y-91205600D01*
X111579696Y-91230104D01*
X111576096Y-91254373D01*
X111570135Y-91278171D01*
X111561870Y-91301271D01*
X111551380Y-91323449D01*
X111538767Y-91344493D01*
X111524153Y-91364198D01*
X111507677Y-91382377D01*
X111489498Y-91398853D01*
X111469793Y-91413467D01*
X111448749Y-91426080D01*
X111426571Y-91436570D01*
X111403471Y-91444835D01*
X111379673Y-91450796D01*
X111355404Y-91454396D01*
X111330900Y-91455600D01*
X110080900Y-91455600D01*
X110056396Y-91454396D01*
X110032127Y-91450796D01*
X110008329Y-91444835D01*
X109985229Y-91436570D01*
X109963051Y-91426080D01*
X109942007Y-91413467D01*
X109922302Y-91398853D01*
X109904123Y-91382377D01*
X109887647Y-91364198D01*
X109873033Y-91344493D01*
X109860420Y-91323449D01*
X109849930Y-91301271D01*
X109841665Y-91278171D01*
X109835704Y-91254373D01*
X109832104Y-91230104D01*
X109830900Y-91205600D01*
X109830900Y-90280600D01*
X109832104Y-90256096D01*
X109835704Y-90231827D01*
X109841665Y-90208029D01*
X109849930Y-90184929D01*
X109860420Y-90162751D01*
X109873033Y-90141707D01*
X109887647Y-90122002D01*
X109904123Y-90103823D01*
X109922302Y-90087347D01*
X109942007Y-90072733D01*
X109963051Y-90060120D01*
X109985229Y-90049630D01*
X110008329Y-90041365D01*
X110032127Y-90035404D01*
X110056396Y-90031804D01*
X110080900Y-90030600D01*
X111330900Y-90030600D01*
X111355404Y-90031804D01*
G37*
G36*
X53974504Y-73526204D02*
G01*
X53998773Y-73529804D01*
X54022571Y-73535765D01*
X54045671Y-73544030D01*
X54067849Y-73554520D01*
X54088893Y-73567133D01*
X54108598Y-73581747D01*
X54126777Y-73598223D01*
X54143253Y-73616402D01*
X54157867Y-73636107D01*
X54170480Y-73657151D01*
X54180970Y-73679329D01*
X54189235Y-73702429D01*
X54195196Y-73726227D01*
X54198796Y-73750496D01*
X54200000Y-73775000D01*
X54200000Y-75025000D01*
X54198796Y-75049504D01*
X54195196Y-75073773D01*
X54189235Y-75097571D01*
X54180970Y-75120671D01*
X54170480Y-75142849D01*
X54157867Y-75163893D01*
X54143253Y-75183598D01*
X54126777Y-75201777D01*
X54108598Y-75218253D01*
X54088893Y-75232867D01*
X54067849Y-75245480D01*
X54045671Y-75255970D01*
X54022571Y-75264235D01*
X53998773Y-75270196D01*
X53974504Y-75273796D01*
X53950000Y-75275000D01*
X53025000Y-75275000D01*
X53000496Y-75273796D01*
X52976227Y-75270196D01*
X52952429Y-75264235D01*
X52929329Y-75255970D01*
X52907151Y-75245480D01*
X52886107Y-75232867D01*
X52866402Y-75218253D01*
X52848223Y-75201777D01*
X52831747Y-75183598D01*
X52817133Y-75163893D01*
X52804520Y-75142849D01*
X52794030Y-75120671D01*
X52785765Y-75097571D01*
X52779804Y-75073773D01*
X52776204Y-75049504D01*
X52775000Y-75025000D01*
X52775000Y-73775000D01*
X52776204Y-73750496D01*
X52779804Y-73726227D01*
X52785765Y-73702429D01*
X52794030Y-73679329D01*
X52804520Y-73657151D01*
X52817133Y-73636107D01*
X52831747Y-73616402D01*
X52848223Y-73598223D01*
X52866402Y-73581747D01*
X52886107Y-73567133D01*
X52907151Y-73554520D01*
X52929329Y-73544030D01*
X52952429Y-73535765D01*
X52976227Y-73529804D01*
X53000496Y-73526204D01*
X53025000Y-73525000D01*
X53950000Y-73525000D01*
X53974504Y-73526204D01*
G37*
G36*
X56949504Y-73526204D02*
G01*
X56973773Y-73529804D01*
X56997571Y-73535765D01*
X57020671Y-73544030D01*
X57042849Y-73554520D01*
X57063893Y-73567133D01*
X57083598Y-73581747D01*
X57101777Y-73598223D01*
X57118253Y-73616402D01*
X57132867Y-73636107D01*
X57145480Y-73657151D01*
X57155970Y-73679329D01*
X57164235Y-73702429D01*
X57170196Y-73726227D01*
X57173796Y-73750496D01*
X57175000Y-73775000D01*
X57175000Y-75025000D01*
X57173796Y-75049504D01*
X57170196Y-75073773D01*
X57164235Y-75097571D01*
X57155970Y-75120671D01*
X57145480Y-75142849D01*
X57132867Y-75163893D01*
X57118253Y-75183598D01*
X57101777Y-75201777D01*
X57083598Y-75218253D01*
X57063893Y-75232867D01*
X57042849Y-75245480D01*
X57020671Y-75255970D01*
X56997571Y-75264235D01*
X56973773Y-75270196D01*
X56949504Y-75273796D01*
X56925000Y-75275000D01*
X56000000Y-75275000D01*
X55975496Y-75273796D01*
X55951227Y-75270196D01*
X55927429Y-75264235D01*
X55904329Y-75255970D01*
X55882151Y-75245480D01*
X55861107Y-75232867D01*
X55841402Y-75218253D01*
X55823223Y-75201777D01*
X55806747Y-75183598D01*
X55792133Y-75163893D01*
X55779520Y-75142849D01*
X55769030Y-75120671D01*
X55760765Y-75097571D01*
X55754804Y-75073773D01*
X55751204Y-75049504D01*
X55750000Y-75025000D01*
X55750000Y-73775000D01*
X55751204Y-73750496D01*
X55754804Y-73726227D01*
X55760765Y-73702429D01*
X55769030Y-73679329D01*
X55779520Y-73657151D01*
X55792133Y-73636107D01*
X55806747Y-73616402D01*
X55823223Y-73598223D01*
X55841402Y-73581747D01*
X55861107Y-73567133D01*
X55882151Y-73554520D01*
X55904329Y-73544030D01*
X55927429Y-73535765D01*
X55951227Y-73529804D01*
X55975496Y-73526204D01*
X56000000Y-73525000D01*
X56925000Y-73525000D01*
X56949504Y-73526204D01*
G37*
G36*
X46394964Y-54005444D02*
G01*
X46419233Y-54009044D01*
X46443031Y-54015005D01*
X46466131Y-54023270D01*
X46488309Y-54033760D01*
X46509353Y-54046373D01*
X46529058Y-54060987D01*
X46547237Y-54077463D01*
X46563713Y-54095642D01*
X46578327Y-54115347D01*
X46590940Y-54136391D01*
X46601430Y-54158569D01*
X46609695Y-54181669D01*
X46615656Y-54205467D01*
X46619256Y-54229736D01*
X46620460Y-54254240D01*
X46620460Y-55504240D01*
X46619256Y-55528744D01*
X46615656Y-55553013D01*
X46609695Y-55576811D01*
X46601430Y-55599911D01*
X46590940Y-55622089D01*
X46578327Y-55643133D01*
X46563713Y-55662838D01*
X46547237Y-55681017D01*
X46529058Y-55697493D01*
X46509353Y-55712107D01*
X46488309Y-55724720D01*
X46466131Y-55735210D01*
X46443031Y-55743475D01*
X46419233Y-55749436D01*
X46394964Y-55753036D01*
X46370460Y-55754240D01*
X45445460Y-55754240D01*
X45420956Y-55753036D01*
X45396687Y-55749436D01*
X45372889Y-55743475D01*
X45349789Y-55735210D01*
X45327611Y-55724720D01*
X45306567Y-55712107D01*
X45286862Y-55697493D01*
X45268683Y-55681017D01*
X45252207Y-55662838D01*
X45237593Y-55643133D01*
X45224980Y-55622089D01*
X45214490Y-55599911D01*
X45206225Y-55576811D01*
X45200264Y-55553013D01*
X45196664Y-55528744D01*
X45195460Y-55504240D01*
X45195460Y-54254240D01*
X45196664Y-54229736D01*
X45200264Y-54205467D01*
X45206225Y-54181669D01*
X45214490Y-54158569D01*
X45224980Y-54136391D01*
X45237593Y-54115347D01*
X45252207Y-54095642D01*
X45268683Y-54077463D01*
X45286862Y-54060987D01*
X45306567Y-54046373D01*
X45327611Y-54033760D01*
X45349789Y-54023270D01*
X45372889Y-54015005D01*
X45396687Y-54009044D01*
X45420956Y-54005444D01*
X45445460Y-54004240D01*
X46370460Y-54004240D01*
X46394964Y-54005444D01*
G37*
G36*
X49369964Y-54005444D02*
G01*
X49394233Y-54009044D01*
X49418031Y-54015005D01*
X49441131Y-54023270D01*
X49463309Y-54033760D01*
X49484353Y-54046373D01*
X49504058Y-54060987D01*
X49522237Y-54077463D01*
X49538713Y-54095642D01*
X49553327Y-54115347D01*
X49565940Y-54136391D01*
X49576430Y-54158569D01*
X49584695Y-54181669D01*
X49590656Y-54205467D01*
X49594256Y-54229736D01*
X49595460Y-54254240D01*
X49595460Y-55504240D01*
X49594256Y-55528744D01*
X49590656Y-55553013D01*
X49584695Y-55576811D01*
X49576430Y-55599911D01*
X49565940Y-55622089D01*
X49553327Y-55643133D01*
X49538713Y-55662838D01*
X49522237Y-55681017D01*
X49504058Y-55697493D01*
X49484353Y-55712107D01*
X49463309Y-55724720D01*
X49441131Y-55735210D01*
X49418031Y-55743475D01*
X49394233Y-55749436D01*
X49369964Y-55753036D01*
X49345460Y-55754240D01*
X48420460Y-55754240D01*
X48395956Y-55753036D01*
X48371687Y-55749436D01*
X48347889Y-55743475D01*
X48324789Y-55735210D01*
X48302611Y-55724720D01*
X48281567Y-55712107D01*
X48261862Y-55697493D01*
X48243683Y-55681017D01*
X48227207Y-55662838D01*
X48212593Y-55643133D01*
X48199980Y-55622089D01*
X48189490Y-55599911D01*
X48181225Y-55576811D01*
X48175264Y-55553013D01*
X48171664Y-55528744D01*
X48170460Y-55504240D01*
X48170460Y-54254240D01*
X48171664Y-54229736D01*
X48175264Y-54205467D01*
X48181225Y-54181669D01*
X48189490Y-54158569D01*
X48199980Y-54136391D01*
X48212593Y-54115347D01*
X48227207Y-54095642D01*
X48243683Y-54077463D01*
X48261862Y-54060987D01*
X48281567Y-54046373D01*
X48302611Y-54033760D01*
X48324789Y-54023270D01*
X48347889Y-54015005D01*
X48371687Y-54009044D01*
X48395956Y-54005444D01*
X48420460Y-54004240D01*
X49345460Y-54004240D01*
X49369964Y-54005444D01*
G37*
G36*
X46411144Y-48640964D02*
G01*
X46435413Y-48644564D01*
X46459211Y-48650525D01*
X46482311Y-48658790D01*
X46504489Y-48669280D01*
X46525533Y-48681893D01*
X46545238Y-48696507D01*
X46563417Y-48712983D01*
X46579893Y-48731162D01*
X46594507Y-48750867D01*
X46607120Y-48771911D01*
X46617610Y-48794089D01*
X46625875Y-48817189D01*
X46631836Y-48840987D01*
X46635436Y-48865256D01*
X46636640Y-48889760D01*
X46636640Y-50139760D01*
X46635436Y-50164264D01*
X46631836Y-50188533D01*
X46625875Y-50212331D01*
X46617610Y-50235431D01*
X46607120Y-50257609D01*
X46594507Y-50278653D01*
X46579893Y-50298358D01*
X46563417Y-50316537D01*
X46545238Y-50333013D01*
X46525533Y-50347627D01*
X46504489Y-50360240D01*
X46482311Y-50370730D01*
X46459211Y-50378995D01*
X46435413Y-50384956D01*
X46411144Y-50388556D01*
X46386640Y-50389760D01*
X45461640Y-50389760D01*
X45437136Y-50388556D01*
X45412867Y-50384956D01*
X45389069Y-50378995D01*
X45365969Y-50370730D01*
X45343791Y-50360240D01*
X45322747Y-50347627D01*
X45303042Y-50333013D01*
X45284863Y-50316537D01*
X45268387Y-50298358D01*
X45253773Y-50278653D01*
X45241160Y-50257609D01*
X45230670Y-50235431D01*
X45222405Y-50212331D01*
X45216444Y-50188533D01*
X45212844Y-50164264D01*
X45211640Y-50139760D01*
X45211640Y-48889760D01*
X45212844Y-48865256D01*
X45216444Y-48840987D01*
X45222405Y-48817189D01*
X45230670Y-48794089D01*
X45241160Y-48771911D01*
X45253773Y-48750867D01*
X45268387Y-48731162D01*
X45284863Y-48712983D01*
X45303042Y-48696507D01*
X45322747Y-48681893D01*
X45343791Y-48669280D01*
X45365969Y-48658790D01*
X45389069Y-48650525D01*
X45412867Y-48644564D01*
X45437136Y-48640964D01*
X45461640Y-48639760D01*
X46386640Y-48639760D01*
X46411144Y-48640964D01*
G37*
G36*
X49386144Y-48640964D02*
G01*
X49410413Y-48644564D01*
X49434211Y-48650525D01*
X49457311Y-48658790D01*
X49479489Y-48669280D01*
X49500533Y-48681893D01*
X49520238Y-48696507D01*
X49538417Y-48712983D01*
X49554893Y-48731162D01*
X49569507Y-48750867D01*
X49582120Y-48771911D01*
X49592610Y-48794089D01*
X49600875Y-48817189D01*
X49606836Y-48840987D01*
X49610436Y-48865256D01*
X49611640Y-48889760D01*
X49611640Y-50139760D01*
X49610436Y-50164264D01*
X49606836Y-50188533D01*
X49600875Y-50212331D01*
X49592610Y-50235431D01*
X49582120Y-50257609D01*
X49569507Y-50278653D01*
X49554893Y-50298358D01*
X49538417Y-50316537D01*
X49520238Y-50333013D01*
X49500533Y-50347627D01*
X49479489Y-50360240D01*
X49457311Y-50370730D01*
X49434211Y-50378995D01*
X49410413Y-50384956D01*
X49386144Y-50388556D01*
X49361640Y-50389760D01*
X48436640Y-50389760D01*
X48412136Y-50388556D01*
X48387867Y-50384956D01*
X48364069Y-50378995D01*
X48340969Y-50370730D01*
X48318791Y-50360240D01*
X48297747Y-50347627D01*
X48278042Y-50333013D01*
X48259863Y-50316537D01*
X48243387Y-50298358D01*
X48228773Y-50278653D01*
X48216160Y-50257609D01*
X48205670Y-50235431D01*
X48197405Y-50212331D01*
X48191444Y-50188533D01*
X48187844Y-50164264D01*
X48186640Y-50139760D01*
X48186640Y-48889760D01*
X48187844Y-48865256D01*
X48191444Y-48840987D01*
X48197405Y-48817189D01*
X48205670Y-48794089D01*
X48216160Y-48771911D01*
X48228773Y-48750867D01*
X48243387Y-48731162D01*
X48259863Y-48712983D01*
X48278042Y-48696507D01*
X48297747Y-48681893D01*
X48318791Y-48669280D01*
X48340969Y-48658790D01*
X48364069Y-48650525D01*
X48387867Y-48644564D01*
X48412136Y-48640964D01*
X48436640Y-48639760D01*
X49361640Y-48639760D01*
X49386144Y-48640964D01*
G37*
G36*
X110870264Y-54006324D02*
G01*
X110894533Y-54009924D01*
X110918331Y-54015885D01*
X110941431Y-54024150D01*
X110963609Y-54034640D01*
X110984653Y-54047253D01*
X111004358Y-54061867D01*
X111022537Y-54078343D01*
X111039013Y-54096522D01*
X111053627Y-54116227D01*
X111066240Y-54137271D01*
X111076730Y-54159449D01*
X111084995Y-54182549D01*
X111090956Y-54206347D01*
X111094556Y-54230616D01*
X111095760Y-54255120D01*
X111095760Y-55180120D01*
X111094556Y-55204624D01*
X111090956Y-55228893D01*
X111084995Y-55252691D01*
X111076730Y-55275791D01*
X111066240Y-55297969D01*
X111053627Y-55319013D01*
X111039013Y-55338718D01*
X111022537Y-55356897D01*
X111004358Y-55373373D01*
X110984653Y-55387987D01*
X110963609Y-55400600D01*
X110941431Y-55411090D01*
X110918331Y-55419355D01*
X110894533Y-55425316D01*
X110870264Y-55428916D01*
X110845760Y-55430120D01*
X109595760Y-55430120D01*
X109571256Y-55428916D01*
X109546987Y-55425316D01*
X109523189Y-55419355D01*
X109500089Y-55411090D01*
X109477911Y-55400600D01*
X109456867Y-55387987D01*
X109437162Y-55373373D01*
X109418983Y-55356897D01*
X109402507Y-55338718D01*
X109387893Y-55319013D01*
X109375280Y-55297969D01*
X109364790Y-55275791D01*
X109356525Y-55252691D01*
X109350564Y-55228893D01*
X109346964Y-55204624D01*
X109345760Y-55180120D01*
X109345760Y-54255120D01*
X109346964Y-54230616D01*
X109350564Y-54206347D01*
X109356525Y-54182549D01*
X109364790Y-54159449D01*
X109375280Y-54137271D01*
X109387893Y-54116227D01*
X109402507Y-54096522D01*
X109418983Y-54078343D01*
X109437162Y-54061867D01*
X109456867Y-54047253D01*
X109477911Y-54034640D01*
X109500089Y-54024150D01*
X109523189Y-54015885D01*
X109546987Y-54009924D01*
X109571256Y-54006324D01*
X109595760Y-54005120D01*
X110845760Y-54005120D01*
X110870264Y-54006324D01*
G37*
G36*
X110870264Y-56981324D02*
G01*
X110894533Y-56984924D01*
X110918331Y-56990885D01*
X110941431Y-56999150D01*
X110963609Y-57009640D01*
X110984653Y-57022253D01*
X111004358Y-57036867D01*
X111022537Y-57053343D01*
X111039013Y-57071522D01*
X111053627Y-57091227D01*
X111066240Y-57112271D01*
X111076730Y-57134449D01*
X111084995Y-57157549D01*
X111090956Y-57181347D01*
X111094556Y-57205616D01*
X111095760Y-57230120D01*
X111095760Y-58155120D01*
X111094556Y-58179624D01*
X111090956Y-58203893D01*
X111084995Y-58227691D01*
X111076730Y-58250791D01*
X111066240Y-58272969D01*
X111053627Y-58294013D01*
X111039013Y-58313718D01*
X111022537Y-58331897D01*
X111004358Y-58348373D01*
X110984653Y-58362987D01*
X110963609Y-58375600D01*
X110941431Y-58386090D01*
X110918331Y-58394355D01*
X110894533Y-58400316D01*
X110870264Y-58403916D01*
X110845760Y-58405120D01*
X109595760Y-58405120D01*
X109571256Y-58403916D01*
X109546987Y-58400316D01*
X109523189Y-58394355D01*
X109500089Y-58386090D01*
X109477911Y-58375600D01*
X109456867Y-58362987D01*
X109437162Y-58348373D01*
X109418983Y-58331897D01*
X109402507Y-58313718D01*
X109387893Y-58294013D01*
X109375280Y-58272969D01*
X109364790Y-58250791D01*
X109356525Y-58227691D01*
X109350564Y-58203893D01*
X109346964Y-58179624D01*
X109345760Y-58155120D01*
X109345760Y-57230120D01*
X109346964Y-57205616D01*
X109350564Y-57181347D01*
X109356525Y-57157549D01*
X109364790Y-57134449D01*
X109375280Y-57112271D01*
X109387893Y-57091227D01*
X109402507Y-57071522D01*
X109418983Y-57053343D01*
X109437162Y-57036867D01*
X109456867Y-57022253D01*
X109477911Y-57009640D01*
X109500089Y-56999150D01*
X109523189Y-56990885D01*
X109546987Y-56984924D01*
X109571256Y-56981324D01*
X109595760Y-56980120D01*
X110845760Y-56980120D01*
X110870264Y-56981324D01*
G37*
G36*
X114715824Y-69447644D02*
G01*
X114740093Y-69451244D01*
X114763891Y-69457205D01*
X114786991Y-69465470D01*
X114809169Y-69475960D01*
X114830213Y-69488573D01*
X114849918Y-69503187D01*
X114868097Y-69519663D01*
X114884573Y-69537842D01*
X114899187Y-69557547D01*
X114911800Y-69578591D01*
X114922290Y-69600769D01*
X114930555Y-69623869D01*
X114936516Y-69647667D01*
X114940116Y-69671936D01*
X114941320Y-69696440D01*
X114941320Y-70621440D01*
X114940116Y-70645944D01*
X114936516Y-70670213D01*
X114930555Y-70694011D01*
X114922290Y-70717111D01*
X114911800Y-70739289D01*
X114899187Y-70760333D01*
X114884573Y-70780038D01*
X114868097Y-70798217D01*
X114849918Y-70814693D01*
X114830213Y-70829307D01*
X114809169Y-70841920D01*
X114786991Y-70852410D01*
X114763891Y-70860675D01*
X114740093Y-70866636D01*
X114715824Y-70870236D01*
X114691320Y-70871440D01*
X113441320Y-70871440D01*
X113416816Y-70870236D01*
X113392547Y-70866636D01*
X113368749Y-70860675D01*
X113345649Y-70852410D01*
X113323471Y-70841920D01*
X113302427Y-70829307D01*
X113282722Y-70814693D01*
X113264543Y-70798217D01*
X113248067Y-70780038D01*
X113233453Y-70760333D01*
X113220840Y-70739289D01*
X113210350Y-70717111D01*
X113202085Y-70694011D01*
X113196124Y-70670213D01*
X113192524Y-70645944D01*
X113191320Y-70621440D01*
X113191320Y-69696440D01*
X113192524Y-69671936D01*
X113196124Y-69647667D01*
X113202085Y-69623869D01*
X113210350Y-69600769D01*
X113220840Y-69578591D01*
X113233453Y-69557547D01*
X113248067Y-69537842D01*
X113264543Y-69519663D01*
X113282722Y-69503187D01*
X113302427Y-69488573D01*
X113323471Y-69475960D01*
X113345649Y-69465470D01*
X113368749Y-69457205D01*
X113392547Y-69451244D01*
X113416816Y-69447644D01*
X113441320Y-69446440D01*
X114691320Y-69446440D01*
X114715824Y-69447644D01*
G37*
G36*
X114715824Y-66472644D02*
G01*
X114740093Y-66476244D01*
X114763891Y-66482205D01*
X114786991Y-66490470D01*
X114809169Y-66500960D01*
X114830213Y-66513573D01*
X114849918Y-66528187D01*
X114868097Y-66544663D01*
X114884573Y-66562842D01*
X114899187Y-66582547D01*
X114911800Y-66603591D01*
X114922290Y-66625769D01*
X114930555Y-66648869D01*
X114936516Y-66672667D01*
X114940116Y-66696936D01*
X114941320Y-66721440D01*
X114941320Y-67646440D01*
X114940116Y-67670944D01*
X114936516Y-67695213D01*
X114930555Y-67719011D01*
X114922290Y-67742111D01*
X114911800Y-67764289D01*
X114899187Y-67785333D01*
X114884573Y-67805038D01*
X114868097Y-67823217D01*
X114849918Y-67839693D01*
X114830213Y-67854307D01*
X114809169Y-67866920D01*
X114786991Y-67877410D01*
X114763891Y-67885675D01*
X114740093Y-67891636D01*
X114715824Y-67895236D01*
X114691320Y-67896440D01*
X113441320Y-67896440D01*
X113416816Y-67895236D01*
X113392547Y-67891636D01*
X113368749Y-67885675D01*
X113345649Y-67877410D01*
X113323471Y-67866920D01*
X113302427Y-67854307D01*
X113282722Y-67839693D01*
X113264543Y-67823217D01*
X113248067Y-67805038D01*
X113233453Y-67785333D01*
X113220840Y-67764289D01*
X113210350Y-67742111D01*
X113202085Y-67719011D01*
X113196124Y-67695213D01*
X113192524Y-67670944D01*
X113191320Y-67646440D01*
X113191320Y-66721440D01*
X113192524Y-66696936D01*
X113196124Y-66672667D01*
X113202085Y-66648869D01*
X113210350Y-66625769D01*
X113220840Y-66603591D01*
X113233453Y-66582547D01*
X113248067Y-66562842D01*
X113264543Y-66544663D01*
X113282722Y-66528187D01*
X113302427Y-66513573D01*
X113323471Y-66500960D01*
X113345649Y-66490470D01*
X113368749Y-66482205D01*
X113392547Y-66476244D01*
X113416816Y-66472644D01*
X113441320Y-66471440D01*
X114691320Y-66471440D01*
X114715824Y-66472644D01*
G37*
G36*
X117799384Y-69793084D02*
G01*
X117823653Y-69796684D01*
X117847451Y-69802645D01*
X117870551Y-69810910D01*
X117892729Y-69821400D01*
X117913773Y-69834013D01*
X117933478Y-69848627D01*
X117951657Y-69865103D01*
X117968133Y-69883282D01*
X117982747Y-69902987D01*
X117995360Y-69924031D01*
X118005850Y-69946209D01*
X118014115Y-69969309D01*
X118020076Y-69993107D01*
X118023676Y-70017376D01*
X118024880Y-70041880D01*
X118024880Y-70966880D01*
X118023676Y-70991384D01*
X118020076Y-71015653D01*
X118014115Y-71039451D01*
X118005850Y-71062551D01*
X117995360Y-71084729D01*
X117982747Y-71105773D01*
X117968133Y-71125478D01*
X117951657Y-71143657D01*
X117933478Y-71160133D01*
X117913773Y-71174747D01*
X117892729Y-71187360D01*
X117870551Y-71197850D01*
X117847451Y-71206115D01*
X117823653Y-71212076D01*
X117799384Y-71215676D01*
X117774880Y-71216880D01*
X116524880Y-71216880D01*
X116500376Y-71215676D01*
X116476107Y-71212076D01*
X116452309Y-71206115D01*
X116429209Y-71197850D01*
X116407031Y-71187360D01*
X116385987Y-71174747D01*
X116366282Y-71160133D01*
X116348103Y-71143657D01*
X116331627Y-71125478D01*
X116317013Y-71105773D01*
X116304400Y-71084729D01*
X116293910Y-71062551D01*
X116285645Y-71039451D01*
X116279684Y-71015653D01*
X116276084Y-70991384D01*
X116274880Y-70966880D01*
X116274880Y-70041880D01*
X116276084Y-70017376D01*
X116279684Y-69993107D01*
X116285645Y-69969309D01*
X116293910Y-69946209D01*
X116304400Y-69924031D01*
X116317013Y-69902987D01*
X116331627Y-69883282D01*
X116348103Y-69865103D01*
X116366282Y-69848627D01*
X116385987Y-69834013D01*
X116407031Y-69821400D01*
X116429209Y-69810910D01*
X116452309Y-69802645D01*
X116476107Y-69796684D01*
X116500376Y-69793084D01*
X116524880Y-69791880D01*
X117774880Y-69791880D01*
X117799384Y-69793084D01*
G37*
G36*
X117799384Y-66818084D02*
G01*
X117823653Y-66821684D01*
X117847451Y-66827645D01*
X117870551Y-66835910D01*
X117892729Y-66846400D01*
X117913773Y-66859013D01*
X117933478Y-66873627D01*
X117951657Y-66890103D01*
X117968133Y-66908282D01*
X117982747Y-66927987D01*
X117995360Y-66949031D01*
X118005850Y-66971209D01*
X118014115Y-66994309D01*
X118020076Y-67018107D01*
X118023676Y-67042376D01*
X118024880Y-67066880D01*
X118024880Y-67991880D01*
X118023676Y-68016384D01*
X118020076Y-68040653D01*
X118014115Y-68064451D01*
X118005850Y-68087551D01*
X117995360Y-68109729D01*
X117982747Y-68130773D01*
X117968133Y-68150478D01*
X117951657Y-68168657D01*
X117933478Y-68185133D01*
X117913773Y-68199747D01*
X117892729Y-68212360D01*
X117870551Y-68222850D01*
X117847451Y-68231115D01*
X117823653Y-68237076D01*
X117799384Y-68240676D01*
X117774880Y-68241880D01*
X116524880Y-68241880D01*
X116500376Y-68240676D01*
X116476107Y-68237076D01*
X116452309Y-68231115D01*
X116429209Y-68222850D01*
X116407031Y-68212360D01*
X116385987Y-68199747D01*
X116366282Y-68185133D01*
X116348103Y-68168657D01*
X116331627Y-68150478D01*
X116317013Y-68130773D01*
X116304400Y-68109729D01*
X116293910Y-68087551D01*
X116285645Y-68064451D01*
X116279684Y-68040653D01*
X116276084Y-68016384D01*
X116274880Y-67991880D01*
X116274880Y-67066880D01*
X116276084Y-67042376D01*
X116279684Y-67018107D01*
X116285645Y-66994309D01*
X116293910Y-66971209D01*
X116304400Y-66949031D01*
X116317013Y-66927987D01*
X116331627Y-66908282D01*
X116348103Y-66890103D01*
X116366282Y-66873627D01*
X116385987Y-66859013D01*
X116407031Y-66846400D01*
X116429209Y-66835910D01*
X116452309Y-66827645D01*
X116476107Y-66821684D01*
X116500376Y-66818084D01*
X116524880Y-66816880D01*
X117774880Y-66816880D01*
X117799384Y-66818084D01*
G37*
G36*
X115015544Y-87041564D02*
G01*
X115039813Y-87045164D01*
X115063611Y-87051125D01*
X115086711Y-87059390D01*
X115108889Y-87069880D01*
X115129933Y-87082493D01*
X115149638Y-87097107D01*
X115167817Y-87113583D01*
X115184293Y-87131762D01*
X115198907Y-87151467D01*
X115211520Y-87172511D01*
X115222010Y-87194689D01*
X115230275Y-87217789D01*
X115236236Y-87241587D01*
X115239836Y-87265856D01*
X115241040Y-87290360D01*
X115241040Y-88215360D01*
X115239836Y-88239864D01*
X115236236Y-88264133D01*
X115230275Y-88287931D01*
X115222010Y-88311031D01*
X115211520Y-88333209D01*
X115198907Y-88354253D01*
X115184293Y-88373958D01*
X115167817Y-88392137D01*
X115149638Y-88408613D01*
X115129933Y-88423227D01*
X115108889Y-88435840D01*
X115086711Y-88446330D01*
X115063611Y-88454595D01*
X115039813Y-88460556D01*
X115015544Y-88464156D01*
X114991040Y-88465360D01*
X113741040Y-88465360D01*
X113716536Y-88464156D01*
X113692267Y-88460556D01*
X113668469Y-88454595D01*
X113645369Y-88446330D01*
X113623191Y-88435840D01*
X113602147Y-88423227D01*
X113582442Y-88408613D01*
X113564263Y-88392137D01*
X113547787Y-88373958D01*
X113533173Y-88354253D01*
X113520560Y-88333209D01*
X113510070Y-88311031D01*
X113501805Y-88287931D01*
X113495844Y-88264133D01*
X113492244Y-88239864D01*
X113491040Y-88215360D01*
X113491040Y-87290360D01*
X113492244Y-87265856D01*
X113495844Y-87241587D01*
X113501805Y-87217789D01*
X113510070Y-87194689D01*
X113520560Y-87172511D01*
X113533173Y-87151467D01*
X113547787Y-87131762D01*
X113564263Y-87113583D01*
X113582442Y-87097107D01*
X113602147Y-87082493D01*
X113623191Y-87069880D01*
X113645369Y-87059390D01*
X113668469Y-87051125D01*
X113692267Y-87045164D01*
X113716536Y-87041564D01*
X113741040Y-87040360D01*
X114991040Y-87040360D01*
X115015544Y-87041564D01*
G37*
G36*
X115015544Y-90016564D02*
G01*
X115039813Y-90020164D01*
X115063611Y-90026125D01*
X115086711Y-90034390D01*
X115108889Y-90044880D01*
X115129933Y-90057493D01*
X115149638Y-90072107D01*
X115167817Y-90088583D01*
X115184293Y-90106762D01*
X115198907Y-90126467D01*
X115211520Y-90147511D01*
X115222010Y-90169689D01*
X115230275Y-90192789D01*
X115236236Y-90216587D01*
X115239836Y-90240856D01*
X115241040Y-90265360D01*
X115241040Y-91190360D01*
X115239836Y-91214864D01*
X115236236Y-91239133D01*
X115230275Y-91262931D01*
X115222010Y-91286031D01*
X115211520Y-91308209D01*
X115198907Y-91329253D01*
X115184293Y-91348958D01*
X115167817Y-91367137D01*
X115149638Y-91383613D01*
X115129933Y-91398227D01*
X115108889Y-91410840D01*
X115086711Y-91421330D01*
X115063611Y-91429595D01*
X115039813Y-91435556D01*
X115015544Y-91439156D01*
X114991040Y-91440360D01*
X113741040Y-91440360D01*
X113716536Y-91439156D01*
X113692267Y-91435556D01*
X113668469Y-91429595D01*
X113645369Y-91421330D01*
X113623191Y-91410840D01*
X113602147Y-91398227D01*
X113582442Y-91383613D01*
X113564263Y-91367137D01*
X113547787Y-91348958D01*
X113533173Y-91329253D01*
X113520560Y-91308209D01*
X113510070Y-91286031D01*
X113501805Y-91262931D01*
X113495844Y-91239133D01*
X113492244Y-91214864D01*
X113491040Y-91190360D01*
X113491040Y-90265360D01*
X113492244Y-90240856D01*
X113495844Y-90216587D01*
X113501805Y-90192789D01*
X113510070Y-90169689D01*
X113520560Y-90147511D01*
X113533173Y-90126467D01*
X113547787Y-90106762D01*
X113564263Y-90088583D01*
X113582442Y-90072107D01*
X113602147Y-90057493D01*
X113623191Y-90044880D01*
X113645369Y-90034390D01*
X113668469Y-90026125D01*
X113692267Y-90020164D01*
X113716536Y-90016564D01*
X113741040Y-90015360D01*
X114991040Y-90015360D01*
X115015544Y-90016564D01*
G37*
G36*
X54477184Y-42749044D02*
G01*
X54501453Y-42752644D01*
X54525251Y-42758605D01*
X54548351Y-42766870D01*
X54570529Y-42777360D01*
X54591573Y-42789973D01*
X54611278Y-42804587D01*
X54629457Y-42821063D01*
X54645933Y-42839242D01*
X54660547Y-42858947D01*
X54673160Y-42879991D01*
X54683650Y-42902169D01*
X54691915Y-42925269D01*
X54697876Y-42949067D01*
X54701476Y-42973336D01*
X54702680Y-42997840D01*
X54702680Y-43922840D01*
X54701476Y-43947344D01*
X54697876Y-43971613D01*
X54691915Y-43995411D01*
X54683650Y-44018511D01*
X54673160Y-44040689D01*
X54660547Y-44061733D01*
X54645933Y-44081438D01*
X54629457Y-44099617D01*
X54611278Y-44116093D01*
X54591573Y-44130707D01*
X54570529Y-44143320D01*
X54548351Y-44153810D01*
X54525251Y-44162075D01*
X54501453Y-44168036D01*
X54477184Y-44171636D01*
X54452680Y-44172840D01*
X53202680Y-44172840D01*
X53178176Y-44171636D01*
X53153907Y-44168036D01*
X53130109Y-44162075D01*
X53107009Y-44153810D01*
X53084831Y-44143320D01*
X53063787Y-44130707D01*
X53044082Y-44116093D01*
X53025903Y-44099617D01*
X53009427Y-44081438D01*
X52994813Y-44061733D01*
X52982200Y-44040689D01*
X52971710Y-44018511D01*
X52963445Y-43995411D01*
X52957484Y-43971613D01*
X52953884Y-43947344D01*
X52952680Y-43922840D01*
X52952680Y-42997840D01*
X52953884Y-42973336D01*
X52957484Y-42949067D01*
X52963445Y-42925269D01*
X52971710Y-42902169D01*
X52982200Y-42879991D01*
X52994813Y-42858947D01*
X53009427Y-42839242D01*
X53025903Y-42821063D01*
X53044082Y-42804587D01*
X53063787Y-42789973D01*
X53084831Y-42777360D01*
X53107009Y-42766870D01*
X53130109Y-42758605D01*
X53153907Y-42752644D01*
X53178176Y-42749044D01*
X53202680Y-42747840D01*
X54452680Y-42747840D01*
X54477184Y-42749044D01*
G37*
G36*
X54477184Y-45724044D02*
G01*
X54501453Y-45727644D01*
X54525251Y-45733605D01*
X54548351Y-45741870D01*
X54570529Y-45752360D01*
X54591573Y-45764973D01*
X54611278Y-45779587D01*
X54629457Y-45796063D01*
X54645933Y-45814242D01*
X54660547Y-45833947D01*
X54673160Y-45854991D01*
X54683650Y-45877169D01*
X54691915Y-45900269D01*
X54697876Y-45924067D01*
X54701476Y-45948336D01*
X54702680Y-45972840D01*
X54702680Y-46897840D01*
X54701476Y-46922344D01*
X54697876Y-46946613D01*
X54691915Y-46970411D01*
X54683650Y-46993511D01*
X54673160Y-47015689D01*
X54660547Y-47036733D01*
X54645933Y-47056438D01*
X54629457Y-47074617D01*
X54611278Y-47091093D01*
X54591573Y-47105707D01*
X54570529Y-47118320D01*
X54548351Y-47128810D01*
X54525251Y-47137075D01*
X54501453Y-47143036D01*
X54477184Y-47146636D01*
X54452680Y-47147840D01*
X53202680Y-47147840D01*
X53178176Y-47146636D01*
X53153907Y-47143036D01*
X53130109Y-47137075D01*
X53107009Y-47128810D01*
X53084831Y-47118320D01*
X53063787Y-47105707D01*
X53044082Y-47091093D01*
X53025903Y-47074617D01*
X53009427Y-47056438D01*
X52994813Y-47036733D01*
X52982200Y-47015689D01*
X52971710Y-46993511D01*
X52963445Y-46970411D01*
X52957484Y-46946613D01*
X52953884Y-46922344D01*
X52952680Y-46897840D01*
X52952680Y-45972840D01*
X52953884Y-45948336D01*
X52957484Y-45924067D01*
X52963445Y-45900269D01*
X52971710Y-45877169D01*
X52982200Y-45854991D01*
X52994813Y-45833947D01*
X53009427Y-45814242D01*
X53025903Y-45796063D01*
X53044082Y-45779587D01*
X53063787Y-45764973D01*
X53084831Y-45752360D01*
X53107009Y-45741870D01*
X53130109Y-45733605D01*
X53153907Y-45727644D01*
X53178176Y-45724044D01*
X53202680Y-45722840D01*
X54452680Y-45722840D01*
X54477184Y-45724044D01*
G37*
G36*
X58642784Y-45724044D02*
G01*
X58667053Y-45727644D01*
X58690851Y-45733605D01*
X58713951Y-45741870D01*
X58736129Y-45752360D01*
X58757173Y-45764973D01*
X58776878Y-45779587D01*
X58795057Y-45796063D01*
X58811533Y-45814242D01*
X58826147Y-45833947D01*
X58838760Y-45854991D01*
X58849250Y-45877169D01*
X58857515Y-45900269D01*
X58863476Y-45924067D01*
X58867076Y-45948336D01*
X58868280Y-45972840D01*
X58868280Y-46897840D01*
X58867076Y-46922344D01*
X58863476Y-46946613D01*
X58857515Y-46970411D01*
X58849250Y-46993511D01*
X58838760Y-47015689D01*
X58826147Y-47036733D01*
X58811533Y-47056438D01*
X58795057Y-47074617D01*
X58776878Y-47091093D01*
X58757173Y-47105707D01*
X58736129Y-47118320D01*
X58713951Y-47128810D01*
X58690851Y-47137075D01*
X58667053Y-47143036D01*
X58642784Y-47146636D01*
X58618280Y-47147840D01*
X57368280Y-47147840D01*
X57343776Y-47146636D01*
X57319507Y-47143036D01*
X57295709Y-47137075D01*
X57272609Y-47128810D01*
X57250431Y-47118320D01*
X57229387Y-47105707D01*
X57209682Y-47091093D01*
X57191503Y-47074617D01*
X57175027Y-47056438D01*
X57160413Y-47036733D01*
X57147800Y-47015689D01*
X57137310Y-46993511D01*
X57129045Y-46970411D01*
X57123084Y-46946613D01*
X57119484Y-46922344D01*
X57118280Y-46897840D01*
X57118280Y-45972840D01*
X57119484Y-45948336D01*
X57123084Y-45924067D01*
X57129045Y-45900269D01*
X57137310Y-45877169D01*
X57147800Y-45854991D01*
X57160413Y-45833947D01*
X57175027Y-45814242D01*
X57191503Y-45796063D01*
X57209682Y-45779587D01*
X57229387Y-45764973D01*
X57250431Y-45752360D01*
X57272609Y-45741870D01*
X57295709Y-45733605D01*
X57319507Y-45727644D01*
X57343776Y-45724044D01*
X57368280Y-45722840D01*
X58618280Y-45722840D01*
X58642784Y-45724044D01*
G37*
G36*
X58642784Y-42749044D02*
G01*
X58667053Y-42752644D01*
X58690851Y-42758605D01*
X58713951Y-42766870D01*
X58736129Y-42777360D01*
X58757173Y-42789973D01*
X58776878Y-42804587D01*
X58795057Y-42821063D01*
X58811533Y-42839242D01*
X58826147Y-42858947D01*
X58838760Y-42879991D01*
X58849250Y-42902169D01*
X58857515Y-42925269D01*
X58863476Y-42949067D01*
X58867076Y-42973336D01*
X58868280Y-42997840D01*
X58868280Y-43922840D01*
X58867076Y-43947344D01*
X58863476Y-43971613D01*
X58857515Y-43995411D01*
X58849250Y-44018511D01*
X58838760Y-44040689D01*
X58826147Y-44061733D01*
X58811533Y-44081438D01*
X58795057Y-44099617D01*
X58776878Y-44116093D01*
X58757173Y-44130707D01*
X58736129Y-44143320D01*
X58713951Y-44153810D01*
X58690851Y-44162075D01*
X58667053Y-44168036D01*
X58642784Y-44171636D01*
X58618280Y-44172840D01*
X57368280Y-44172840D01*
X57343776Y-44171636D01*
X57319507Y-44168036D01*
X57295709Y-44162075D01*
X57272609Y-44153810D01*
X57250431Y-44143320D01*
X57229387Y-44130707D01*
X57209682Y-44116093D01*
X57191503Y-44099617D01*
X57175027Y-44081438D01*
X57160413Y-44061733D01*
X57147800Y-44040689D01*
X57137310Y-44018511D01*
X57129045Y-43995411D01*
X57123084Y-43971613D01*
X57119484Y-43947344D01*
X57118280Y-43922840D01*
X57118280Y-42997840D01*
X57119484Y-42973336D01*
X57123084Y-42949067D01*
X57129045Y-42925269D01*
X57137310Y-42902169D01*
X57147800Y-42879991D01*
X57160413Y-42858947D01*
X57175027Y-42839242D01*
X57191503Y-42821063D01*
X57209682Y-42804587D01*
X57229387Y-42789973D01*
X57250431Y-42777360D01*
X57272609Y-42766870D01*
X57295709Y-42758605D01*
X57319507Y-42752644D01*
X57343776Y-42749044D01*
X57368280Y-42747840D01*
X58618280Y-42747840D01*
X58642784Y-42749044D01*
G37*
G36*
X49350584Y-58714604D02*
G01*
X49374853Y-58718204D01*
X49398651Y-58724165D01*
X49421751Y-58732430D01*
X49443929Y-58742920D01*
X49464973Y-58755533D01*
X49484678Y-58770147D01*
X49502857Y-58786623D01*
X49519333Y-58804802D01*
X49533947Y-58824507D01*
X49546560Y-58845551D01*
X49557050Y-58867729D01*
X49565315Y-58890829D01*
X49571276Y-58914627D01*
X49574876Y-58938896D01*
X49576080Y-58963400D01*
X49576080Y-60213400D01*
X49574876Y-60237904D01*
X49571276Y-60262173D01*
X49565315Y-60285971D01*
X49557050Y-60309071D01*
X49546560Y-60331249D01*
X49533947Y-60352293D01*
X49519333Y-60371998D01*
X49502857Y-60390177D01*
X49484678Y-60406653D01*
X49464973Y-60421267D01*
X49443929Y-60433880D01*
X49421751Y-60444370D01*
X49398651Y-60452635D01*
X49374853Y-60458596D01*
X49350584Y-60462196D01*
X49326080Y-60463400D01*
X48401080Y-60463400D01*
X48376576Y-60462196D01*
X48352307Y-60458596D01*
X48328509Y-60452635D01*
X48305409Y-60444370D01*
X48283231Y-60433880D01*
X48262187Y-60421267D01*
X48242482Y-60406653D01*
X48224303Y-60390177D01*
X48207827Y-60371998D01*
X48193213Y-60352293D01*
X48180600Y-60331249D01*
X48170110Y-60309071D01*
X48161845Y-60285971D01*
X48155884Y-60262173D01*
X48152284Y-60237904D01*
X48151080Y-60213400D01*
X48151080Y-58963400D01*
X48152284Y-58938896D01*
X48155884Y-58914627D01*
X48161845Y-58890829D01*
X48170110Y-58867729D01*
X48180600Y-58845551D01*
X48193213Y-58824507D01*
X48207827Y-58804802D01*
X48224303Y-58786623D01*
X48242482Y-58770147D01*
X48262187Y-58755533D01*
X48283231Y-58742920D01*
X48305409Y-58732430D01*
X48328509Y-58724165D01*
X48352307Y-58718204D01*
X48376576Y-58714604D01*
X48401080Y-58713400D01*
X49326080Y-58713400D01*
X49350584Y-58714604D01*
G37*
G36*
X46375584Y-58714604D02*
G01*
X46399853Y-58718204D01*
X46423651Y-58724165D01*
X46446751Y-58732430D01*
X46468929Y-58742920D01*
X46489973Y-58755533D01*
X46509678Y-58770147D01*
X46527857Y-58786623D01*
X46544333Y-58804802D01*
X46558947Y-58824507D01*
X46571560Y-58845551D01*
X46582050Y-58867729D01*
X46590315Y-58890829D01*
X46596276Y-58914627D01*
X46599876Y-58938896D01*
X46601080Y-58963400D01*
X46601080Y-60213400D01*
X46599876Y-60237904D01*
X46596276Y-60262173D01*
X46590315Y-60285971D01*
X46582050Y-60309071D01*
X46571560Y-60331249D01*
X46558947Y-60352293D01*
X46544333Y-60371998D01*
X46527857Y-60390177D01*
X46509678Y-60406653D01*
X46489973Y-60421267D01*
X46468929Y-60433880D01*
X46446751Y-60444370D01*
X46423651Y-60452635D01*
X46399853Y-60458596D01*
X46375584Y-60462196D01*
X46351080Y-60463400D01*
X45426080Y-60463400D01*
X45401576Y-60462196D01*
X45377307Y-60458596D01*
X45353509Y-60452635D01*
X45330409Y-60444370D01*
X45308231Y-60433880D01*
X45287187Y-60421267D01*
X45267482Y-60406653D01*
X45249303Y-60390177D01*
X45232827Y-60371998D01*
X45218213Y-60352293D01*
X45205600Y-60331249D01*
X45195110Y-60309071D01*
X45186845Y-60285971D01*
X45180884Y-60262173D01*
X45177284Y-60237904D01*
X45176080Y-60213400D01*
X45176080Y-58963400D01*
X45177284Y-58938896D01*
X45180884Y-58914627D01*
X45186845Y-58890829D01*
X45195110Y-58867729D01*
X45205600Y-58845551D01*
X45218213Y-58824507D01*
X45232827Y-58804802D01*
X45249303Y-58786623D01*
X45267482Y-58770147D01*
X45287187Y-58755533D01*
X45308231Y-58742920D01*
X45330409Y-58732430D01*
X45353509Y-58724165D01*
X45377307Y-58718204D01*
X45401576Y-58714604D01*
X45426080Y-58713400D01*
X46351080Y-58713400D01*
X46375584Y-58714604D01*
G37*
G36*
X64433984Y-42749044D02*
G01*
X64458253Y-42752644D01*
X64482051Y-42758605D01*
X64505151Y-42766870D01*
X64527329Y-42777360D01*
X64548373Y-42789973D01*
X64568078Y-42804587D01*
X64586257Y-42821063D01*
X64602733Y-42839242D01*
X64617347Y-42858947D01*
X64629960Y-42879991D01*
X64640450Y-42902169D01*
X64648715Y-42925269D01*
X64654676Y-42949067D01*
X64658276Y-42973336D01*
X64659480Y-42997840D01*
X64659480Y-43922840D01*
X64658276Y-43947344D01*
X64654676Y-43971613D01*
X64648715Y-43995411D01*
X64640450Y-44018511D01*
X64629960Y-44040689D01*
X64617347Y-44061733D01*
X64602733Y-44081438D01*
X64586257Y-44099617D01*
X64568078Y-44116093D01*
X64548373Y-44130707D01*
X64527329Y-44143320D01*
X64505151Y-44153810D01*
X64482051Y-44162075D01*
X64458253Y-44168036D01*
X64433984Y-44171636D01*
X64409480Y-44172840D01*
X63159480Y-44172840D01*
X63134976Y-44171636D01*
X63110707Y-44168036D01*
X63086909Y-44162075D01*
X63063809Y-44153810D01*
X63041631Y-44143320D01*
X63020587Y-44130707D01*
X63000882Y-44116093D01*
X62982703Y-44099617D01*
X62966227Y-44081438D01*
X62951613Y-44061733D01*
X62939000Y-44040689D01*
X62928510Y-44018511D01*
X62920245Y-43995411D01*
X62914284Y-43971613D01*
X62910684Y-43947344D01*
X62909480Y-43922840D01*
X62909480Y-42997840D01*
X62910684Y-42973336D01*
X62914284Y-42949067D01*
X62920245Y-42925269D01*
X62928510Y-42902169D01*
X62939000Y-42879991D01*
X62951613Y-42858947D01*
X62966227Y-42839242D01*
X62982703Y-42821063D01*
X63000882Y-42804587D01*
X63020587Y-42789973D01*
X63041631Y-42777360D01*
X63063809Y-42766870D01*
X63086909Y-42758605D01*
X63110707Y-42752644D01*
X63134976Y-42749044D01*
X63159480Y-42747840D01*
X64409480Y-42747840D01*
X64433984Y-42749044D01*
G37*
G36*
X64433984Y-45724044D02*
G01*
X64458253Y-45727644D01*
X64482051Y-45733605D01*
X64505151Y-45741870D01*
X64527329Y-45752360D01*
X64548373Y-45764973D01*
X64568078Y-45779587D01*
X64586257Y-45796063D01*
X64602733Y-45814242D01*
X64617347Y-45833947D01*
X64629960Y-45854991D01*
X64640450Y-45877169D01*
X64648715Y-45900269D01*
X64654676Y-45924067D01*
X64658276Y-45948336D01*
X64659480Y-45972840D01*
X64659480Y-46897840D01*
X64658276Y-46922344D01*
X64654676Y-46946613D01*
X64648715Y-46970411D01*
X64640450Y-46993511D01*
X64629960Y-47015689D01*
X64617347Y-47036733D01*
X64602733Y-47056438D01*
X64586257Y-47074617D01*
X64568078Y-47091093D01*
X64548373Y-47105707D01*
X64527329Y-47118320D01*
X64505151Y-47128810D01*
X64482051Y-47137075D01*
X64458253Y-47143036D01*
X64433984Y-47146636D01*
X64409480Y-47147840D01*
X63159480Y-47147840D01*
X63134976Y-47146636D01*
X63110707Y-47143036D01*
X63086909Y-47137075D01*
X63063809Y-47128810D01*
X63041631Y-47118320D01*
X63020587Y-47105707D01*
X63000882Y-47091093D01*
X62982703Y-47074617D01*
X62966227Y-47056438D01*
X62951613Y-47036733D01*
X62939000Y-47015689D01*
X62928510Y-46993511D01*
X62920245Y-46970411D01*
X62914284Y-46946613D01*
X62910684Y-46922344D01*
X62909480Y-46897840D01*
X62909480Y-45972840D01*
X62910684Y-45948336D01*
X62914284Y-45924067D01*
X62920245Y-45900269D01*
X62928510Y-45877169D01*
X62939000Y-45854991D01*
X62951613Y-45833947D01*
X62966227Y-45814242D01*
X62982703Y-45796063D01*
X63000882Y-45779587D01*
X63020587Y-45764973D01*
X63041631Y-45752360D01*
X63063809Y-45741870D01*
X63086909Y-45733605D01*
X63110707Y-45727644D01*
X63134976Y-45724044D01*
X63159480Y-45722840D01*
X64409480Y-45722840D01*
X64433984Y-45724044D01*
G37*
G36*
X61319064Y-58806044D02*
G01*
X61343333Y-58809644D01*
X61367131Y-58815605D01*
X61390231Y-58823870D01*
X61412409Y-58834360D01*
X61433453Y-58846973D01*
X61453158Y-58861587D01*
X61471337Y-58878063D01*
X61487813Y-58896242D01*
X61502427Y-58915947D01*
X61515040Y-58936991D01*
X61525530Y-58959169D01*
X61533795Y-58982269D01*
X61539756Y-59006067D01*
X61543356Y-59030336D01*
X61544560Y-59054840D01*
X61544560Y-60304840D01*
X61543356Y-60329344D01*
X61539756Y-60353613D01*
X61533795Y-60377411D01*
X61525530Y-60400511D01*
X61515040Y-60422689D01*
X61502427Y-60443733D01*
X61487813Y-60463438D01*
X61471337Y-60481617D01*
X61453158Y-60498093D01*
X61433453Y-60512707D01*
X61412409Y-60525320D01*
X61390231Y-60535810D01*
X61367131Y-60544075D01*
X61343333Y-60550036D01*
X61319064Y-60553636D01*
X61294560Y-60554840D01*
X60369560Y-60554840D01*
X60345056Y-60553636D01*
X60320787Y-60550036D01*
X60296989Y-60544075D01*
X60273889Y-60535810D01*
X60251711Y-60525320D01*
X60230667Y-60512707D01*
X60210962Y-60498093D01*
X60192783Y-60481617D01*
X60176307Y-60463438D01*
X60161693Y-60443733D01*
X60149080Y-60422689D01*
X60138590Y-60400511D01*
X60130325Y-60377411D01*
X60124364Y-60353613D01*
X60120764Y-60329344D01*
X60119560Y-60304840D01*
X60119560Y-59054840D01*
X60120764Y-59030336D01*
X60124364Y-59006067D01*
X60130325Y-58982269D01*
X60138590Y-58959169D01*
X60149080Y-58936991D01*
X60161693Y-58915947D01*
X60176307Y-58896242D01*
X60192783Y-58878063D01*
X60210962Y-58861587D01*
X60230667Y-58846973D01*
X60251711Y-58834360D01*
X60273889Y-58823870D01*
X60296989Y-58815605D01*
X60320787Y-58809644D01*
X60345056Y-58806044D01*
X60369560Y-58804840D01*
X61294560Y-58804840D01*
X61319064Y-58806044D01*
G37*
G36*
X58344064Y-58806044D02*
G01*
X58368333Y-58809644D01*
X58392131Y-58815605D01*
X58415231Y-58823870D01*
X58437409Y-58834360D01*
X58458453Y-58846973D01*
X58478158Y-58861587D01*
X58496337Y-58878063D01*
X58512813Y-58896242D01*
X58527427Y-58915947D01*
X58540040Y-58936991D01*
X58550530Y-58959169D01*
X58558795Y-58982269D01*
X58564756Y-59006067D01*
X58568356Y-59030336D01*
X58569560Y-59054840D01*
X58569560Y-60304840D01*
X58568356Y-60329344D01*
X58564756Y-60353613D01*
X58558795Y-60377411D01*
X58550530Y-60400511D01*
X58540040Y-60422689D01*
X58527427Y-60443733D01*
X58512813Y-60463438D01*
X58496337Y-60481617D01*
X58478158Y-60498093D01*
X58458453Y-60512707D01*
X58437409Y-60525320D01*
X58415231Y-60535810D01*
X58392131Y-60544075D01*
X58368333Y-60550036D01*
X58344064Y-60553636D01*
X58319560Y-60554840D01*
X57394560Y-60554840D01*
X57370056Y-60553636D01*
X57345787Y-60550036D01*
X57321989Y-60544075D01*
X57298889Y-60535810D01*
X57276711Y-60525320D01*
X57255667Y-60512707D01*
X57235962Y-60498093D01*
X57217783Y-60481617D01*
X57201307Y-60463438D01*
X57186693Y-60443733D01*
X57174080Y-60422689D01*
X57163590Y-60400511D01*
X57155325Y-60377411D01*
X57149364Y-60353613D01*
X57145764Y-60329344D01*
X57144560Y-60304840D01*
X57144560Y-59054840D01*
X57145764Y-59030336D01*
X57149364Y-59006067D01*
X57155325Y-58982269D01*
X57163590Y-58959169D01*
X57174080Y-58936991D01*
X57186693Y-58915947D01*
X57201307Y-58896242D01*
X57217783Y-58878063D01*
X57235962Y-58861587D01*
X57255667Y-58846973D01*
X57276711Y-58834360D01*
X57298889Y-58823870D01*
X57321989Y-58815605D01*
X57345787Y-58809644D01*
X57370056Y-58806044D01*
X57394560Y-58804840D01*
X58319560Y-58804840D01*
X58344064Y-58806044D01*
G37*
G36*
X52786544Y-63200244D02*
G01*
X52810813Y-63203844D01*
X52834611Y-63209805D01*
X52857711Y-63218070D01*
X52879889Y-63228560D01*
X52900933Y-63241173D01*
X52920638Y-63255787D01*
X52938817Y-63272263D01*
X52955293Y-63290442D01*
X52969907Y-63310147D01*
X52982520Y-63331191D01*
X52993010Y-63353369D01*
X53001275Y-63376469D01*
X53007236Y-63400267D01*
X53010836Y-63424536D01*
X53012040Y-63449040D01*
X53012040Y-64699040D01*
X53010836Y-64723544D01*
X53007236Y-64747813D01*
X53001275Y-64771611D01*
X52993010Y-64794711D01*
X52982520Y-64816889D01*
X52969907Y-64837933D01*
X52955293Y-64857638D01*
X52938817Y-64875817D01*
X52920638Y-64892293D01*
X52900933Y-64906907D01*
X52879889Y-64919520D01*
X52857711Y-64930010D01*
X52834611Y-64938275D01*
X52810813Y-64944236D01*
X52786544Y-64947836D01*
X52762040Y-64949040D01*
X51837040Y-64949040D01*
X51812536Y-64947836D01*
X51788267Y-64944236D01*
X51764469Y-64938275D01*
X51741369Y-64930010D01*
X51719191Y-64919520D01*
X51698147Y-64906907D01*
X51678442Y-64892293D01*
X51660263Y-64875817D01*
X51643787Y-64857638D01*
X51629173Y-64837933D01*
X51616560Y-64816889D01*
X51606070Y-64794711D01*
X51597805Y-64771611D01*
X51591844Y-64747813D01*
X51588244Y-64723544D01*
X51587040Y-64699040D01*
X51587040Y-63449040D01*
X51588244Y-63424536D01*
X51591844Y-63400267D01*
X51597805Y-63376469D01*
X51606070Y-63353369D01*
X51616560Y-63331191D01*
X51629173Y-63310147D01*
X51643787Y-63290442D01*
X51660263Y-63272263D01*
X51678442Y-63255787D01*
X51698147Y-63241173D01*
X51719191Y-63228560D01*
X51741369Y-63218070D01*
X51764469Y-63209805D01*
X51788267Y-63203844D01*
X51812536Y-63200244D01*
X51837040Y-63199040D01*
X52762040Y-63199040D01*
X52786544Y-63200244D01*
G37*
G36*
X55761544Y-63200244D02*
G01*
X55785813Y-63203844D01*
X55809611Y-63209805D01*
X55832711Y-63218070D01*
X55854889Y-63228560D01*
X55875933Y-63241173D01*
X55895638Y-63255787D01*
X55913817Y-63272263D01*
X55930293Y-63290442D01*
X55944907Y-63310147D01*
X55957520Y-63331191D01*
X55968010Y-63353369D01*
X55976275Y-63376469D01*
X55982236Y-63400267D01*
X55985836Y-63424536D01*
X55987040Y-63449040D01*
X55987040Y-64699040D01*
X55985836Y-64723544D01*
X55982236Y-64747813D01*
X55976275Y-64771611D01*
X55968010Y-64794711D01*
X55957520Y-64816889D01*
X55944907Y-64837933D01*
X55930293Y-64857638D01*
X55913817Y-64875817D01*
X55895638Y-64892293D01*
X55875933Y-64906907D01*
X55854889Y-64919520D01*
X55832711Y-64930010D01*
X55809611Y-64938275D01*
X55785813Y-64944236D01*
X55761544Y-64947836D01*
X55737040Y-64949040D01*
X54812040Y-64949040D01*
X54787536Y-64947836D01*
X54763267Y-64944236D01*
X54739469Y-64938275D01*
X54716369Y-64930010D01*
X54694191Y-64919520D01*
X54673147Y-64906907D01*
X54653442Y-64892293D01*
X54635263Y-64875817D01*
X54618787Y-64857638D01*
X54604173Y-64837933D01*
X54591560Y-64816889D01*
X54581070Y-64794711D01*
X54572805Y-64771611D01*
X54566844Y-64747813D01*
X54563244Y-64723544D01*
X54562040Y-64699040D01*
X54562040Y-63449040D01*
X54563244Y-63424536D01*
X54566844Y-63400267D01*
X54572805Y-63376469D01*
X54581070Y-63353369D01*
X54591560Y-63331191D01*
X54604173Y-63310147D01*
X54618787Y-63290442D01*
X54635263Y-63272263D01*
X54653442Y-63255787D01*
X54673147Y-63241173D01*
X54694191Y-63228560D01*
X54716369Y-63218070D01*
X54739469Y-63209805D01*
X54763267Y-63203844D01*
X54787536Y-63200244D01*
X54812040Y-63199040D01*
X55737040Y-63199040D01*
X55761544Y-63200244D01*
G37*
G36*
X110941384Y-60600164D02*
G01*
X110965653Y-60603764D01*
X110989451Y-60609725D01*
X111012551Y-60617990D01*
X111034729Y-60628480D01*
X111055773Y-60641093D01*
X111075478Y-60655707D01*
X111093657Y-60672183D01*
X111110133Y-60690362D01*
X111124747Y-60710067D01*
X111137360Y-60731111D01*
X111147850Y-60753289D01*
X111156115Y-60776389D01*
X111162076Y-60800187D01*
X111165676Y-60824456D01*
X111166880Y-60848960D01*
X111166880Y-61773960D01*
X111165676Y-61798464D01*
X111162076Y-61822733D01*
X111156115Y-61846531D01*
X111147850Y-61869631D01*
X111137360Y-61891809D01*
X111124747Y-61912853D01*
X111110133Y-61932558D01*
X111093657Y-61950737D01*
X111075478Y-61967213D01*
X111055773Y-61981827D01*
X111034729Y-61994440D01*
X111012551Y-62004930D01*
X110989451Y-62013195D01*
X110965653Y-62019156D01*
X110941384Y-62022756D01*
X110916880Y-62023960D01*
X109666880Y-62023960D01*
X109642376Y-62022756D01*
X109618107Y-62019156D01*
X109594309Y-62013195D01*
X109571209Y-62004930D01*
X109549031Y-61994440D01*
X109527987Y-61981827D01*
X109508282Y-61967213D01*
X109490103Y-61950737D01*
X109473627Y-61932558D01*
X109459013Y-61912853D01*
X109446400Y-61891809D01*
X109435910Y-61869631D01*
X109427645Y-61846531D01*
X109421684Y-61822733D01*
X109418084Y-61798464D01*
X109416880Y-61773960D01*
X109416880Y-60848960D01*
X109418084Y-60824456D01*
X109421684Y-60800187D01*
X109427645Y-60776389D01*
X109435910Y-60753289D01*
X109446400Y-60731111D01*
X109459013Y-60710067D01*
X109473627Y-60690362D01*
X109490103Y-60672183D01*
X109508282Y-60655707D01*
X109527987Y-60641093D01*
X109549031Y-60628480D01*
X109571209Y-60617990D01*
X109594309Y-60609725D01*
X109618107Y-60603764D01*
X109642376Y-60600164D01*
X109666880Y-60598960D01*
X110916880Y-60598960D01*
X110941384Y-60600164D01*
G37*
G36*
X110941384Y-63575164D02*
G01*
X110965653Y-63578764D01*
X110989451Y-63584725D01*
X111012551Y-63592990D01*
X111034729Y-63603480D01*
X111055773Y-63616093D01*
X111075478Y-63630707D01*
X111093657Y-63647183D01*
X111110133Y-63665362D01*
X111124747Y-63685067D01*
X111137360Y-63706111D01*
X111147850Y-63728289D01*
X111156115Y-63751389D01*
X111162076Y-63775187D01*
X111165676Y-63799456D01*
X111166880Y-63823960D01*
X111166880Y-64748960D01*
X111165676Y-64773464D01*
X111162076Y-64797733D01*
X111156115Y-64821531D01*
X111147850Y-64844631D01*
X111137360Y-64866809D01*
X111124747Y-64887853D01*
X111110133Y-64907558D01*
X111093657Y-64925737D01*
X111075478Y-64942213D01*
X111055773Y-64956827D01*
X111034729Y-64969440D01*
X111012551Y-64979930D01*
X110989451Y-64988195D01*
X110965653Y-64994156D01*
X110941384Y-64997756D01*
X110916880Y-64998960D01*
X109666880Y-64998960D01*
X109642376Y-64997756D01*
X109618107Y-64994156D01*
X109594309Y-64988195D01*
X109571209Y-64979930D01*
X109549031Y-64969440D01*
X109527987Y-64956827D01*
X109508282Y-64942213D01*
X109490103Y-64925737D01*
X109473627Y-64907558D01*
X109459013Y-64887853D01*
X109446400Y-64866809D01*
X109435910Y-64844631D01*
X109427645Y-64821531D01*
X109421684Y-64797733D01*
X109418084Y-64773464D01*
X109416880Y-64748960D01*
X109416880Y-63823960D01*
X109418084Y-63799456D01*
X109421684Y-63775187D01*
X109427645Y-63751389D01*
X109435910Y-63728289D01*
X109446400Y-63706111D01*
X109459013Y-63685067D01*
X109473627Y-63665362D01*
X109490103Y-63647183D01*
X109508282Y-63630707D01*
X109527987Y-63616093D01*
X109549031Y-63603480D01*
X109571209Y-63592990D01*
X109594309Y-63584725D01*
X109618107Y-63578764D01*
X109642376Y-63575164D01*
X109666880Y-63573960D01*
X110916880Y-63573960D01*
X110941384Y-63575164D01*
G37*
G36*
X119201464Y-72868364D02*
G01*
X119225733Y-72871964D01*
X119249531Y-72877925D01*
X119272631Y-72886190D01*
X119294809Y-72896680D01*
X119315853Y-72909293D01*
X119335558Y-72923907D01*
X119353737Y-72940383D01*
X119370213Y-72958562D01*
X119384827Y-72978267D01*
X119397440Y-72999311D01*
X119407930Y-73021489D01*
X119416195Y-73044589D01*
X119422156Y-73068387D01*
X119425756Y-73092656D01*
X119426960Y-73117160D01*
X119426960Y-74042160D01*
X119425756Y-74066664D01*
X119422156Y-74090933D01*
X119416195Y-74114731D01*
X119407930Y-74137831D01*
X119397440Y-74160009D01*
X119384827Y-74181053D01*
X119370213Y-74200758D01*
X119353737Y-74218937D01*
X119335558Y-74235413D01*
X119315853Y-74250027D01*
X119294809Y-74262640D01*
X119272631Y-74273130D01*
X119249531Y-74281395D01*
X119225733Y-74287356D01*
X119201464Y-74290956D01*
X119176960Y-74292160D01*
X117926960Y-74292160D01*
X117902456Y-74290956D01*
X117878187Y-74287356D01*
X117854389Y-74281395D01*
X117831289Y-74273130D01*
X117809111Y-74262640D01*
X117788067Y-74250027D01*
X117768362Y-74235413D01*
X117750183Y-74218937D01*
X117733707Y-74200758D01*
X117719093Y-74181053D01*
X117706480Y-74160009D01*
X117695990Y-74137831D01*
X117687725Y-74114731D01*
X117681764Y-74090933D01*
X117678164Y-74066664D01*
X117676960Y-74042160D01*
X117676960Y-73117160D01*
X117678164Y-73092656D01*
X117681764Y-73068387D01*
X117687725Y-73044589D01*
X117695990Y-73021489D01*
X117706480Y-72999311D01*
X117719093Y-72978267D01*
X117733707Y-72958562D01*
X117750183Y-72940383D01*
X117768362Y-72923907D01*
X117788067Y-72909293D01*
X117809111Y-72896680D01*
X117831289Y-72886190D01*
X117854389Y-72877925D01*
X117878187Y-72871964D01*
X117902456Y-72868364D01*
X117926960Y-72867160D01*
X119176960Y-72867160D01*
X119201464Y-72868364D01*
G37*
G36*
X119201464Y-75843364D02*
G01*
X119225733Y-75846964D01*
X119249531Y-75852925D01*
X119272631Y-75861190D01*
X119294809Y-75871680D01*
X119315853Y-75884293D01*
X119335558Y-75898907D01*
X119353737Y-75915383D01*
X119370213Y-75933562D01*
X119384827Y-75953267D01*
X119397440Y-75974311D01*
X119407930Y-75996489D01*
X119416195Y-76019589D01*
X119422156Y-76043387D01*
X119425756Y-76067656D01*
X119426960Y-76092160D01*
X119426960Y-77017160D01*
X119425756Y-77041664D01*
X119422156Y-77065933D01*
X119416195Y-77089731D01*
X119407930Y-77112831D01*
X119397440Y-77135009D01*
X119384827Y-77156053D01*
X119370213Y-77175758D01*
X119353737Y-77193937D01*
X119335558Y-77210413D01*
X119315853Y-77225027D01*
X119294809Y-77237640D01*
X119272631Y-77248130D01*
X119249531Y-77256395D01*
X119225733Y-77262356D01*
X119201464Y-77265956D01*
X119176960Y-77267160D01*
X117926960Y-77267160D01*
X117902456Y-77265956D01*
X117878187Y-77262356D01*
X117854389Y-77256395D01*
X117831289Y-77248130D01*
X117809111Y-77237640D01*
X117788067Y-77225027D01*
X117768362Y-77210413D01*
X117750183Y-77193937D01*
X117733707Y-77175758D01*
X117719093Y-77156053D01*
X117706480Y-77135009D01*
X117695990Y-77112831D01*
X117687725Y-77089731D01*
X117681764Y-77065933D01*
X117678164Y-77041664D01*
X117676960Y-77017160D01*
X117676960Y-76092160D01*
X117678164Y-76067656D01*
X117681764Y-76043387D01*
X117687725Y-76019589D01*
X117695990Y-75996489D01*
X117706480Y-75974311D01*
X117719093Y-75953267D01*
X117733707Y-75933562D01*
X117750183Y-75915383D01*
X117768362Y-75898907D01*
X117788067Y-75884293D01*
X117809111Y-75871680D01*
X117831289Y-75861190D01*
X117854389Y-75852925D01*
X117878187Y-75846964D01*
X117902456Y-75843364D01*
X117926960Y-75842160D01*
X119176960Y-75842160D01*
X119201464Y-75843364D01*
G37*
G36*
X114548184Y-56981324D02*
G01*
X114572453Y-56984924D01*
X114596251Y-56990885D01*
X114619351Y-56999150D01*
X114641529Y-57009640D01*
X114662573Y-57022253D01*
X114682278Y-57036867D01*
X114700457Y-57053343D01*
X114716933Y-57071522D01*
X114731547Y-57091227D01*
X114744160Y-57112271D01*
X114754650Y-57134449D01*
X114762915Y-57157549D01*
X114768876Y-57181347D01*
X114772476Y-57205616D01*
X114773680Y-57230120D01*
X114773680Y-58155120D01*
X114772476Y-58179624D01*
X114768876Y-58203893D01*
X114762915Y-58227691D01*
X114754650Y-58250791D01*
X114744160Y-58272969D01*
X114731547Y-58294013D01*
X114716933Y-58313718D01*
X114700457Y-58331897D01*
X114682278Y-58348373D01*
X114662573Y-58362987D01*
X114641529Y-58375600D01*
X114619351Y-58386090D01*
X114596251Y-58394355D01*
X114572453Y-58400316D01*
X114548184Y-58403916D01*
X114523680Y-58405120D01*
X113273680Y-58405120D01*
X113249176Y-58403916D01*
X113224907Y-58400316D01*
X113201109Y-58394355D01*
X113178009Y-58386090D01*
X113155831Y-58375600D01*
X113134787Y-58362987D01*
X113115082Y-58348373D01*
X113096903Y-58331897D01*
X113080427Y-58313718D01*
X113065813Y-58294013D01*
X113053200Y-58272969D01*
X113042710Y-58250791D01*
X113034445Y-58227691D01*
X113028484Y-58203893D01*
X113024884Y-58179624D01*
X113023680Y-58155120D01*
X113023680Y-57230120D01*
X113024884Y-57205616D01*
X113028484Y-57181347D01*
X113034445Y-57157549D01*
X113042710Y-57134449D01*
X113053200Y-57112271D01*
X113065813Y-57091227D01*
X113080427Y-57071522D01*
X113096903Y-57053343D01*
X113115082Y-57036867D01*
X113134787Y-57022253D01*
X113155831Y-57009640D01*
X113178009Y-56999150D01*
X113201109Y-56990885D01*
X113224907Y-56984924D01*
X113249176Y-56981324D01*
X113273680Y-56980120D01*
X114523680Y-56980120D01*
X114548184Y-56981324D01*
G37*
G36*
X114548184Y-54006324D02*
G01*
X114572453Y-54009924D01*
X114596251Y-54015885D01*
X114619351Y-54024150D01*
X114641529Y-54034640D01*
X114662573Y-54047253D01*
X114682278Y-54061867D01*
X114700457Y-54078343D01*
X114716933Y-54096522D01*
X114731547Y-54116227D01*
X114744160Y-54137271D01*
X114754650Y-54159449D01*
X114762915Y-54182549D01*
X114768876Y-54206347D01*
X114772476Y-54230616D01*
X114773680Y-54255120D01*
X114773680Y-55180120D01*
X114772476Y-55204624D01*
X114768876Y-55228893D01*
X114762915Y-55252691D01*
X114754650Y-55275791D01*
X114744160Y-55297969D01*
X114731547Y-55319013D01*
X114716933Y-55338718D01*
X114700457Y-55356897D01*
X114682278Y-55373373D01*
X114662573Y-55387987D01*
X114641529Y-55400600D01*
X114619351Y-55411090D01*
X114596251Y-55419355D01*
X114572453Y-55425316D01*
X114548184Y-55428916D01*
X114523680Y-55430120D01*
X113273680Y-55430120D01*
X113249176Y-55428916D01*
X113224907Y-55425316D01*
X113201109Y-55419355D01*
X113178009Y-55411090D01*
X113155831Y-55400600D01*
X113134787Y-55387987D01*
X113115082Y-55373373D01*
X113096903Y-55356897D01*
X113080427Y-55338718D01*
X113065813Y-55319013D01*
X113053200Y-55297969D01*
X113042710Y-55275791D01*
X113034445Y-55252691D01*
X113028484Y-55228893D01*
X113024884Y-55204624D01*
X113023680Y-55180120D01*
X113023680Y-54255120D01*
X113024884Y-54230616D01*
X113028484Y-54206347D01*
X113034445Y-54182549D01*
X113042710Y-54159449D01*
X113053200Y-54137271D01*
X113065813Y-54116227D01*
X113080427Y-54096522D01*
X113096903Y-54078343D01*
X113115082Y-54061867D01*
X113134787Y-54047253D01*
X113155831Y-54034640D01*
X113178009Y-54024150D01*
X113201109Y-54015885D01*
X113224907Y-54009924D01*
X113249176Y-54006324D01*
X113273680Y-54005120D01*
X114523680Y-54005120D01*
X114548184Y-54006324D01*
G37*
G36*
X115960424Y-75843364D02*
G01*
X115984693Y-75846964D01*
X116008491Y-75852925D01*
X116031591Y-75861190D01*
X116053769Y-75871680D01*
X116074813Y-75884293D01*
X116094518Y-75898907D01*
X116112697Y-75915383D01*
X116129173Y-75933562D01*
X116143787Y-75953267D01*
X116156400Y-75974311D01*
X116166890Y-75996489D01*
X116175155Y-76019589D01*
X116181116Y-76043387D01*
X116184716Y-76067656D01*
X116185920Y-76092160D01*
X116185920Y-77017160D01*
X116184716Y-77041664D01*
X116181116Y-77065933D01*
X116175155Y-77089731D01*
X116166890Y-77112831D01*
X116156400Y-77135009D01*
X116143787Y-77156053D01*
X116129173Y-77175758D01*
X116112697Y-77193937D01*
X116094518Y-77210413D01*
X116074813Y-77225027D01*
X116053769Y-77237640D01*
X116031591Y-77248130D01*
X116008491Y-77256395D01*
X115984693Y-77262356D01*
X115960424Y-77265956D01*
X115935920Y-77267160D01*
X114685920Y-77267160D01*
X114661416Y-77265956D01*
X114637147Y-77262356D01*
X114613349Y-77256395D01*
X114590249Y-77248130D01*
X114568071Y-77237640D01*
X114547027Y-77225027D01*
X114527322Y-77210413D01*
X114509143Y-77193937D01*
X114492667Y-77175758D01*
X114478053Y-77156053D01*
X114465440Y-77135009D01*
X114454950Y-77112831D01*
X114446685Y-77089731D01*
X114440724Y-77065933D01*
X114437124Y-77041664D01*
X114435920Y-77017160D01*
X114435920Y-76092160D01*
X114437124Y-76067656D01*
X114440724Y-76043387D01*
X114446685Y-76019589D01*
X114454950Y-75996489D01*
X114465440Y-75974311D01*
X114478053Y-75953267D01*
X114492667Y-75933562D01*
X114509143Y-75915383D01*
X114527322Y-75898907D01*
X114547027Y-75884293D01*
X114568071Y-75871680D01*
X114590249Y-75861190D01*
X114613349Y-75852925D01*
X114637147Y-75846964D01*
X114661416Y-75843364D01*
X114685920Y-75842160D01*
X115935920Y-75842160D01*
X115960424Y-75843364D01*
G37*
G36*
X115960424Y-72868364D02*
G01*
X115984693Y-72871964D01*
X116008491Y-72877925D01*
X116031591Y-72886190D01*
X116053769Y-72896680D01*
X116074813Y-72909293D01*
X116094518Y-72923907D01*
X116112697Y-72940383D01*
X116129173Y-72958562D01*
X116143787Y-72978267D01*
X116156400Y-72999311D01*
X116166890Y-73021489D01*
X116175155Y-73044589D01*
X116181116Y-73068387D01*
X116184716Y-73092656D01*
X116185920Y-73117160D01*
X116185920Y-74042160D01*
X116184716Y-74066664D01*
X116181116Y-74090933D01*
X116175155Y-74114731D01*
X116166890Y-74137831D01*
X116156400Y-74160009D01*
X116143787Y-74181053D01*
X116129173Y-74200758D01*
X116112697Y-74218937D01*
X116094518Y-74235413D01*
X116074813Y-74250027D01*
X116053769Y-74262640D01*
X116031591Y-74273130D01*
X116008491Y-74281395D01*
X115984693Y-74287356D01*
X115960424Y-74290956D01*
X115935920Y-74292160D01*
X114685920Y-74292160D01*
X114661416Y-74290956D01*
X114637147Y-74287356D01*
X114613349Y-74281395D01*
X114590249Y-74273130D01*
X114568071Y-74262640D01*
X114547027Y-74250027D01*
X114527322Y-74235413D01*
X114509143Y-74218937D01*
X114492667Y-74200758D01*
X114478053Y-74181053D01*
X114465440Y-74160009D01*
X114454950Y-74137831D01*
X114446685Y-74114731D01*
X114440724Y-74090933D01*
X114437124Y-74066664D01*
X114435920Y-74042160D01*
X114435920Y-73117160D01*
X114437124Y-73092656D01*
X114440724Y-73068387D01*
X114446685Y-73044589D01*
X114454950Y-73021489D01*
X114465440Y-72999311D01*
X114478053Y-72978267D01*
X114492667Y-72958562D01*
X114509143Y-72940383D01*
X114527322Y-72923907D01*
X114547027Y-72909293D01*
X114568071Y-72896680D01*
X114590249Y-72886190D01*
X114613349Y-72877925D01*
X114637147Y-72871964D01*
X114661416Y-72868364D01*
X114685920Y-72867160D01*
X115935920Y-72867160D01*
X115960424Y-72868364D01*
G37*
G36*
X119033824Y-90031804D02*
G01*
X119058093Y-90035404D01*
X119081891Y-90041365D01*
X119104991Y-90049630D01*
X119127169Y-90060120D01*
X119148213Y-90072733D01*
X119167918Y-90087347D01*
X119186097Y-90103823D01*
X119202573Y-90122002D01*
X119217187Y-90141707D01*
X119229800Y-90162751D01*
X119240290Y-90184929D01*
X119248555Y-90208029D01*
X119254516Y-90231827D01*
X119258116Y-90256096D01*
X119259320Y-90280600D01*
X119259320Y-91205600D01*
X119258116Y-91230104D01*
X119254516Y-91254373D01*
X119248555Y-91278171D01*
X119240290Y-91301271D01*
X119229800Y-91323449D01*
X119217187Y-91344493D01*
X119202573Y-91364198D01*
X119186097Y-91382377D01*
X119167918Y-91398853D01*
X119148213Y-91413467D01*
X119127169Y-91426080D01*
X119104991Y-91436570D01*
X119081891Y-91444835D01*
X119058093Y-91450796D01*
X119033824Y-91454396D01*
X119009320Y-91455600D01*
X117759320Y-91455600D01*
X117734816Y-91454396D01*
X117710547Y-91450796D01*
X117686749Y-91444835D01*
X117663649Y-91436570D01*
X117641471Y-91426080D01*
X117620427Y-91413467D01*
X117600722Y-91398853D01*
X117582543Y-91382377D01*
X117566067Y-91364198D01*
X117551453Y-91344493D01*
X117538840Y-91323449D01*
X117528350Y-91301271D01*
X117520085Y-91278171D01*
X117514124Y-91254373D01*
X117510524Y-91230104D01*
X117509320Y-91205600D01*
X117509320Y-90280600D01*
X117510524Y-90256096D01*
X117514124Y-90231827D01*
X117520085Y-90208029D01*
X117528350Y-90184929D01*
X117538840Y-90162751D01*
X117551453Y-90141707D01*
X117566067Y-90122002D01*
X117582543Y-90103823D01*
X117600722Y-90087347D01*
X117620427Y-90072733D01*
X117641471Y-90060120D01*
X117663649Y-90049630D01*
X117686749Y-90041365D01*
X117710547Y-90035404D01*
X117734816Y-90031804D01*
X117759320Y-90030600D01*
X119009320Y-90030600D01*
X119033824Y-90031804D01*
G37*
G36*
X119033824Y-87056804D02*
G01*
X119058093Y-87060404D01*
X119081891Y-87066365D01*
X119104991Y-87074630D01*
X119127169Y-87085120D01*
X119148213Y-87097733D01*
X119167918Y-87112347D01*
X119186097Y-87128823D01*
X119202573Y-87147002D01*
X119217187Y-87166707D01*
X119229800Y-87187751D01*
X119240290Y-87209929D01*
X119248555Y-87233029D01*
X119254516Y-87256827D01*
X119258116Y-87281096D01*
X119259320Y-87305600D01*
X119259320Y-88230600D01*
X119258116Y-88255104D01*
X119254516Y-88279373D01*
X119248555Y-88303171D01*
X119240290Y-88326271D01*
X119229800Y-88348449D01*
X119217187Y-88369493D01*
X119202573Y-88389198D01*
X119186097Y-88407377D01*
X119167918Y-88423853D01*
X119148213Y-88438467D01*
X119127169Y-88451080D01*
X119104991Y-88461570D01*
X119081891Y-88469835D01*
X119058093Y-88475796D01*
X119033824Y-88479396D01*
X119009320Y-88480600D01*
X117759320Y-88480600D01*
X117734816Y-88479396D01*
X117710547Y-88475796D01*
X117686749Y-88469835D01*
X117663649Y-88461570D01*
X117641471Y-88451080D01*
X117620427Y-88438467D01*
X117600722Y-88423853D01*
X117582543Y-88407377D01*
X117566067Y-88389198D01*
X117551453Y-88369493D01*
X117538840Y-88348449D01*
X117528350Y-88326271D01*
X117520085Y-88303171D01*
X117514124Y-88279373D01*
X117510524Y-88255104D01*
X117509320Y-88230600D01*
X117509320Y-87305600D01*
X117510524Y-87281096D01*
X117514124Y-87256827D01*
X117520085Y-87233029D01*
X117528350Y-87209929D01*
X117538840Y-87187751D01*
X117551453Y-87166707D01*
X117566067Y-87147002D01*
X117582543Y-87128823D01*
X117600722Y-87112347D01*
X117620427Y-87097733D01*
X117641471Y-87085120D01*
X117663649Y-87074630D01*
X117686749Y-87066365D01*
X117710547Y-87060404D01*
X117734816Y-87056804D01*
X117759320Y-87055600D01*
X119009320Y-87055600D01*
X119033824Y-87056804D01*
G37*
D14*
X83312000Y-58690000D03*
X84262000Y-60690000D03*
X82362000Y-60690000D03*
X84262000Y-64786000D03*
X82362000Y-64786000D03*
X83312000Y-66786000D03*
X84582000Y-86852000D03*
X83632000Y-84852000D03*
X85532000Y-84852000D03*
X83632000Y-79740000D03*
X85532000Y-79740000D03*
X84582000Y-77740000D03*
D10*
G36*
X68391304Y-45642764D02*
G01*
X68415573Y-45646364D01*
X68439371Y-45652325D01*
X68462471Y-45660590D01*
X68484649Y-45671080D01*
X68505693Y-45683693D01*
X68525398Y-45698307D01*
X68543577Y-45714783D01*
X68560053Y-45732962D01*
X68574667Y-45752667D01*
X68587280Y-45773711D01*
X68597770Y-45795889D01*
X68606035Y-45818989D01*
X68611996Y-45842787D01*
X68615596Y-45867056D01*
X68616800Y-45891560D01*
X68616800Y-46816560D01*
X68615596Y-46841064D01*
X68611996Y-46865333D01*
X68606035Y-46889131D01*
X68597770Y-46912231D01*
X68587280Y-46934409D01*
X68574667Y-46955453D01*
X68560053Y-46975158D01*
X68543577Y-46993337D01*
X68525398Y-47009813D01*
X68505693Y-47024427D01*
X68484649Y-47037040D01*
X68462471Y-47047530D01*
X68439371Y-47055795D01*
X68415573Y-47061756D01*
X68391304Y-47065356D01*
X68366800Y-47066560D01*
X67116800Y-47066560D01*
X67092296Y-47065356D01*
X67068027Y-47061756D01*
X67044229Y-47055795D01*
X67021129Y-47047530D01*
X66998951Y-47037040D01*
X66977907Y-47024427D01*
X66958202Y-47009813D01*
X66940023Y-46993337D01*
X66923547Y-46975158D01*
X66908933Y-46955453D01*
X66896320Y-46934409D01*
X66885830Y-46912231D01*
X66877565Y-46889131D01*
X66871604Y-46865333D01*
X66868004Y-46841064D01*
X66866800Y-46816560D01*
X66866800Y-45891560D01*
X66868004Y-45867056D01*
X66871604Y-45842787D01*
X66877565Y-45818989D01*
X66885830Y-45795889D01*
X66896320Y-45773711D01*
X66908933Y-45752667D01*
X66923547Y-45732962D01*
X66940023Y-45714783D01*
X66958202Y-45698307D01*
X66977907Y-45683693D01*
X66998951Y-45671080D01*
X67021129Y-45660590D01*
X67044229Y-45652325D01*
X67068027Y-45646364D01*
X67092296Y-45642764D01*
X67116800Y-45641560D01*
X68366800Y-45641560D01*
X68391304Y-45642764D01*
G37*
G36*
X68391304Y-42667764D02*
G01*
X68415573Y-42671364D01*
X68439371Y-42677325D01*
X68462471Y-42685590D01*
X68484649Y-42696080D01*
X68505693Y-42708693D01*
X68525398Y-42723307D01*
X68543577Y-42739783D01*
X68560053Y-42757962D01*
X68574667Y-42777667D01*
X68587280Y-42798711D01*
X68597770Y-42820889D01*
X68606035Y-42843989D01*
X68611996Y-42867787D01*
X68615596Y-42892056D01*
X68616800Y-42916560D01*
X68616800Y-43841560D01*
X68615596Y-43866064D01*
X68611996Y-43890333D01*
X68606035Y-43914131D01*
X68597770Y-43937231D01*
X68587280Y-43959409D01*
X68574667Y-43980453D01*
X68560053Y-44000158D01*
X68543577Y-44018337D01*
X68525398Y-44034813D01*
X68505693Y-44049427D01*
X68484649Y-44062040D01*
X68462471Y-44072530D01*
X68439371Y-44080795D01*
X68415573Y-44086756D01*
X68391304Y-44090356D01*
X68366800Y-44091560D01*
X67116800Y-44091560D01*
X67092296Y-44090356D01*
X67068027Y-44086756D01*
X67044229Y-44080795D01*
X67021129Y-44072530D01*
X66998951Y-44062040D01*
X66977907Y-44049427D01*
X66958202Y-44034813D01*
X66940023Y-44018337D01*
X66923547Y-44000158D01*
X66908933Y-43980453D01*
X66896320Y-43959409D01*
X66885830Y-43937231D01*
X66877565Y-43914131D01*
X66871604Y-43890333D01*
X66868004Y-43866064D01*
X66866800Y-43841560D01*
X66866800Y-42916560D01*
X66868004Y-42892056D01*
X66871604Y-42867787D01*
X66877565Y-42843989D01*
X66885830Y-42820889D01*
X66896320Y-42798711D01*
X66908933Y-42777667D01*
X66923547Y-42757962D01*
X66940023Y-42739783D01*
X66958202Y-42723307D01*
X66977907Y-42708693D01*
X66998951Y-42696080D01*
X67021129Y-42685590D01*
X67044229Y-42677325D01*
X67068027Y-42671364D01*
X67092296Y-42667764D01*
X67116800Y-42666560D01*
X68366800Y-42666560D01*
X68391304Y-42667764D01*
G37*
G36*
X125780064Y-90026724D02*
G01*
X125804333Y-90030324D01*
X125828131Y-90036285D01*
X125851231Y-90044550D01*
X125873409Y-90055040D01*
X125894453Y-90067653D01*
X125914158Y-90082267D01*
X125932337Y-90098743D01*
X125948813Y-90116922D01*
X125963427Y-90136627D01*
X125976040Y-90157671D01*
X125986530Y-90179849D01*
X125994795Y-90202949D01*
X126000756Y-90226747D01*
X126004356Y-90251016D01*
X126005560Y-90275520D01*
X126005560Y-91200520D01*
X126004356Y-91225024D01*
X126000756Y-91249293D01*
X125994795Y-91273091D01*
X125986530Y-91296191D01*
X125976040Y-91318369D01*
X125963427Y-91339413D01*
X125948813Y-91359118D01*
X125932337Y-91377297D01*
X125914158Y-91393773D01*
X125894453Y-91408387D01*
X125873409Y-91421000D01*
X125851231Y-91431490D01*
X125828131Y-91439755D01*
X125804333Y-91445716D01*
X125780064Y-91449316D01*
X125755560Y-91450520D01*
X124505560Y-91450520D01*
X124481056Y-91449316D01*
X124456787Y-91445716D01*
X124432989Y-91439755D01*
X124409889Y-91431490D01*
X124387711Y-91421000D01*
X124366667Y-91408387D01*
X124346962Y-91393773D01*
X124328783Y-91377297D01*
X124312307Y-91359118D01*
X124297693Y-91339413D01*
X124285080Y-91318369D01*
X124274590Y-91296191D01*
X124266325Y-91273091D01*
X124260364Y-91249293D01*
X124256764Y-91225024D01*
X124255560Y-91200520D01*
X124255560Y-90275520D01*
X124256764Y-90251016D01*
X124260364Y-90226747D01*
X124266325Y-90202949D01*
X124274590Y-90179849D01*
X124285080Y-90157671D01*
X124297693Y-90136627D01*
X124312307Y-90116922D01*
X124328783Y-90098743D01*
X124346962Y-90082267D01*
X124366667Y-90067653D01*
X124387711Y-90055040D01*
X124409889Y-90044550D01*
X124432989Y-90036285D01*
X124456787Y-90030324D01*
X124481056Y-90026724D01*
X124505560Y-90025520D01*
X125755560Y-90025520D01*
X125780064Y-90026724D01*
G37*
G36*
X125780064Y-87051724D02*
G01*
X125804333Y-87055324D01*
X125828131Y-87061285D01*
X125851231Y-87069550D01*
X125873409Y-87080040D01*
X125894453Y-87092653D01*
X125914158Y-87107267D01*
X125932337Y-87123743D01*
X125948813Y-87141922D01*
X125963427Y-87161627D01*
X125976040Y-87182671D01*
X125986530Y-87204849D01*
X125994795Y-87227949D01*
X126000756Y-87251747D01*
X126004356Y-87276016D01*
X126005560Y-87300520D01*
X126005560Y-88225520D01*
X126004356Y-88250024D01*
X126000756Y-88274293D01*
X125994795Y-88298091D01*
X125986530Y-88321191D01*
X125976040Y-88343369D01*
X125963427Y-88364413D01*
X125948813Y-88384118D01*
X125932337Y-88402297D01*
X125914158Y-88418773D01*
X125894453Y-88433387D01*
X125873409Y-88446000D01*
X125851231Y-88456490D01*
X125828131Y-88464755D01*
X125804333Y-88470716D01*
X125780064Y-88474316D01*
X125755560Y-88475520D01*
X124505560Y-88475520D01*
X124481056Y-88474316D01*
X124456787Y-88470716D01*
X124432989Y-88464755D01*
X124409889Y-88456490D01*
X124387711Y-88446000D01*
X124366667Y-88433387D01*
X124346962Y-88418773D01*
X124328783Y-88402297D01*
X124312307Y-88384118D01*
X124297693Y-88364413D01*
X124285080Y-88343369D01*
X124274590Y-88321191D01*
X124266325Y-88298091D01*
X124260364Y-88274293D01*
X124256764Y-88250024D01*
X124255560Y-88225520D01*
X124255560Y-87300520D01*
X124256764Y-87276016D01*
X124260364Y-87251747D01*
X124266325Y-87227949D01*
X124274590Y-87204849D01*
X124285080Y-87182671D01*
X124297693Y-87161627D01*
X124312307Y-87141922D01*
X124328783Y-87123743D01*
X124346962Y-87107267D01*
X124366667Y-87092653D01*
X124387711Y-87080040D01*
X124409889Y-87069550D01*
X124432989Y-87061285D01*
X124456787Y-87055324D01*
X124481056Y-87051724D01*
X124505560Y-87050520D01*
X125755560Y-87050520D01*
X125780064Y-87051724D01*
G37*
G36*
X130179344Y-51766044D02*
G01*
X130203613Y-51769644D01*
X130227411Y-51775605D01*
X130250511Y-51783870D01*
X130272689Y-51794360D01*
X130293733Y-51806973D01*
X130313438Y-51821587D01*
X130331617Y-51838063D01*
X130348093Y-51856242D01*
X130362707Y-51875947D01*
X130375320Y-51896991D01*
X130385810Y-51919169D01*
X130394075Y-51942269D01*
X130400036Y-51966067D01*
X130403636Y-51990336D01*
X130404840Y-52014840D01*
X130404840Y-52939840D01*
X130403636Y-52964344D01*
X130400036Y-52988613D01*
X130394075Y-53012411D01*
X130385810Y-53035511D01*
X130375320Y-53057689D01*
X130362707Y-53078733D01*
X130348093Y-53098438D01*
X130331617Y-53116617D01*
X130313438Y-53133093D01*
X130293733Y-53147707D01*
X130272689Y-53160320D01*
X130250511Y-53170810D01*
X130227411Y-53179075D01*
X130203613Y-53185036D01*
X130179344Y-53188636D01*
X130154840Y-53189840D01*
X128904840Y-53189840D01*
X128880336Y-53188636D01*
X128856067Y-53185036D01*
X128832269Y-53179075D01*
X128809169Y-53170810D01*
X128786991Y-53160320D01*
X128765947Y-53147707D01*
X128746242Y-53133093D01*
X128728063Y-53116617D01*
X128711587Y-53098438D01*
X128696973Y-53078733D01*
X128684360Y-53057689D01*
X128673870Y-53035511D01*
X128665605Y-53012411D01*
X128659644Y-52988613D01*
X128656044Y-52964344D01*
X128654840Y-52939840D01*
X128654840Y-52014840D01*
X128656044Y-51990336D01*
X128659644Y-51966067D01*
X128665605Y-51942269D01*
X128673870Y-51919169D01*
X128684360Y-51896991D01*
X128696973Y-51875947D01*
X128711587Y-51856242D01*
X128728063Y-51838063D01*
X128746242Y-51821587D01*
X128765947Y-51806973D01*
X128786991Y-51794360D01*
X128809169Y-51783870D01*
X128832269Y-51775605D01*
X128856067Y-51769644D01*
X128880336Y-51766044D01*
X128904840Y-51764840D01*
X130154840Y-51764840D01*
X130179344Y-51766044D01*
G37*
G36*
X130179344Y-54741044D02*
G01*
X130203613Y-54744644D01*
X130227411Y-54750605D01*
X130250511Y-54758870D01*
X130272689Y-54769360D01*
X130293733Y-54781973D01*
X130313438Y-54796587D01*
X130331617Y-54813063D01*
X130348093Y-54831242D01*
X130362707Y-54850947D01*
X130375320Y-54871991D01*
X130385810Y-54894169D01*
X130394075Y-54917269D01*
X130400036Y-54941067D01*
X130403636Y-54965336D01*
X130404840Y-54989840D01*
X130404840Y-55914840D01*
X130403636Y-55939344D01*
X130400036Y-55963613D01*
X130394075Y-55987411D01*
X130385810Y-56010511D01*
X130375320Y-56032689D01*
X130362707Y-56053733D01*
X130348093Y-56073438D01*
X130331617Y-56091617D01*
X130313438Y-56108093D01*
X130293733Y-56122707D01*
X130272689Y-56135320D01*
X130250511Y-56145810D01*
X130227411Y-56154075D01*
X130203613Y-56160036D01*
X130179344Y-56163636D01*
X130154840Y-56164840D01*
X128904840Y-56164840D01*
X128880336Y-56163636D01*
X128856067Y-56160036D01*
X128832269Y-56154075D01*
X128809169Y-56145810D01*
X128786991Y-56135320D01*
X128765947Y-56122707D01*
X128746242Y-56108093D01*
X128728063Y-56091617D01*
X128711587Y-56073438D01*
X128696973Y-56053733D01*
X128684360Y-56032689D01*
X128673870Y-56010511D01*
X128665605Y-55987411D01*
X128659644Y-55963613D01*
X128656044Y-55939344D01*
X128654840Y-55914840D01*
X128654840Y-54989840D01*
X128656044Y-54965336D01*
X128659644Y-54941067D01*
X128665605Y-54917269D01*
X128673870Y-54894169D01*
X128684360Y-54871991D01*
X128696973Y-54850947D01*
X128711587Y-54831242D01*
X128728063Y-54813063D01*
X128746242Y-54796587D01*
X128765947Y-54781973D01*
X128786991Y-54769360D01*
X128809169Y-54758870D01*
X128832269Y-54750605D01*
X128856067Y-54744644D01*
X128880336Y-54741044D01*
X128904840Y-54739840D01*
X130154840Y-54739840D01*
X130179344Y-54741044D01*
G37*
G36*
X133902984Y-51821924D02*
G01*
X133927253Y-51825524D01*
X133951051Y-51831485D01*
X133974151Y-51839750D01*
X133996329Y-51850240D01*
X134017373Y-51862853D01*
X134037078Y-51877467D01*
X134055257Y-51893943D01*
X134071733Y-51912122D01*
X134086347Y-51931827D01*
X134098960Y-51952871D01*
X134109450Y-51975049D01*
X134117715Y-51998149D01*
X134123676Y-52021947D01*
X134127276Y-52046216D01*
X134128480Y-52070720D01*
X134128480Y-52995720D01*
X134127276Y-53020224D01*
X134123676Y-53044493D01*
X134117715Y-53068291D01*
X134109450Y-53091391D01*
X134098960Y-53113569D01*
X134086347Y-53134613D01*
X134071733Y-53154318D01*
X134055257Y-53172497D01*
X134037078Y-53188973D01*
X134017373Y-53203587D01*
X133996329Y-53216200D01*
X133974151Y-53226690D01*
X133951051Y-53234955D01*
X133927253Y-53240916D01*
X133902984Y-53244516D01*
X133878480Y-53245720D01*
X132628480Y-53245720D01*
X132603976Y-53244516D01*
X132579707Y-53240916D01*
X132555909Y-53234955D01*
X132532809Y-53226690D01*
X132510631Y-53216200D01*
X132489587Y-53203587D01*
X132469882Y-53188973D01*
X132451703Y-53172497D01*
X132435227Y-53154318D01*
X132420613Y-53134613D01*
X132408000Y-53113569D01*
X132397510Y-53091391D01*
X132389245Y-53068291D01*
X132383284Y-53044493D01*
X132379684Y-53020224D01*
X132378480Y-52995720D01*
X132378480Y-52070720D01*
X132379684Y-52046216D01*
X132383284Y-52021947D01*
X132389245Y-51998149D01*
X132397510Y-51975049D01*
X132408000Y-51952871D01*
X132420613Y-51931827D01*
X132435227Y-51912122D01*
X132451703Y-51893943D01*
X132469882Y-51877467D01*
X132489587Y-51862853D01*
X132510631Y-51850240D01*
X132532809Y-51839750D01*
X132555909Y-51831485D01*
X132579707Y-51825524D01*
X132603976Y-51821924D01*
X132628480Y-51820720D01*
X133878480Y-51820720D01*
X133902984Y-51821924D01*
G37*
G36*
X133902984Y-54796924D02*
G01*
X133927253Y-54800524D01*
X133951051Y-54806485D01*
X133974151Y-54814750D01*
X133996329Y-54825240D01*
X134017373Y-54837853D01*
X134037078Y-54852467D01*
X134055257Y-54868943D01*
X134071733Y-54887122D01*
X134086347Y-54906827D01*
X134098960Y-54927871D01*
X134109450Y-54950049D01*
X134117715Y-54973149D01*
X134123676Y-54996947D01*
X134127276Y-55021216D01*
X134128480Y-55045720D01*
X134128480Y-55970720D01*
X134127276Y-55995224D01*
X134123676Y-56019493D01*
X134117715Y-56043291D01*
X134109450Y-56066391D01*
X134098960Y-56088569D01*
X134086347Y-56109613D01*
X134071733Y-56129318D01*
X134055257Y-56147497D01*
X134037078Y-56163973D01*
X134017373Y-56178587D01*
X133996329Y-56191200D01*
X133974151Y-56201690D01*
X133951051Y-56209955D01*
X133927253Y-56215916D01*
X133902984Y-56219516D01*
X133878480Y-56220720D01*
X132628480Y-56220720D01*
X132603976Y-56219516D01*
X132579707Y-56215916D01*
X132555909Y-56209955D01*
X132532809Y-56201690D01*
X132510631Y-56191200D01*
X132489587Y-56178587D01*
X132469882Y-56163973D01*
X132451703Y-56147497D01*
X132435227Y-56129318D01*
X132420613Y-56109613D01*
X132408000Y-56088569D01*
X132397510Y-56066391D01*
X132389245Y-56043291D01*
X132383284Y-56019493D01*
X132379684Y-55995224D01*
X132378480Y-55970720D01*
X132378480Y-55045720D01*
X132379684Y-55021216D01*
X132383284Y-54996947D01*
X132389245Y-54973149D01*
X132397510Y-54950049D01*
X132408000Y-54927871D01*
X132420613Y-54906827D01*
X132435227Y-54887122D01*
X132451703Y-54868943D01*
X132469882Y-54852467D01*
X132489587Y-54837853D01*
X132510631Y-54825240D01*
X132532809Y-54814750D01*
X132555909Y-54806485D01*
X132579707Y-54800524D01*
X132603976Y-54796924D01*
X132628480Y-54795720D01*
X133878480Y-54795720D01*
X133902984Y-54796924D01*
G37*
G36*
X135030744Y-61406004D02*
G01*
X135055013Y-61409604D01*
X135078811Y-61415565D01*
X135101911Y-61423830D01*
X135124089Y-61434320D01*
X135145133Y-61446933D01*
X135164838Y-61461547D01*
X135183017Y-61478023D01*
X135199493Y-61496202D01*
X135214107Y-61515907D01*
X135226720Y-61536951D01*
X135237210Y-61559129D01*
X135245475Y-61582229D01*
X135251436Y-61606027D01*
X135255036Y-61630296D01*
X135256240Y-61654800D01*
X135256240Y-62579800D01*
X135255036Y-62604304D01*
X135251436Y-62628573D01*
X135245475Y-62652371D01*
X135237210Y-62675471D01*
X135226720Y-62697649D01*
X135214107Y-62718693D01*
X135199493Y-62738398D01*
X135183017Y-62756577D01*
X135164838Y-62773053D01*
X135145133Y-62787667D01*
X135124089Y-62800280D01*
X135101911Y-62810770D01*
X135078811Y-62819035D01*
X135055013Y-62824996D01*
X135030744Y-62828596D01*
X135006240Y-62829800D01*
X133756240Y-62829800D01*
X133731736Y-62828596D01*
X133707467Y-62824996D01*
X133683669Y-62819035D01*
X133660569Y-62810770D01*
X133638391Y-62800280D01*
X133617347Y-62787667D01*
X133597642Y-62773053D01*
X133579463Y-62756577D01*
X133562987Y-62738398D01*
X133548373Y-62718693D01*
X133535760Y-62697649D01*
X133525270Y-62675471D01*
X133517005Y-62652371D01*
X133511044Y-62628573D01*
X133507444Y-62604304D01*
X133506240Y-62579800D01*
X133506240Y-61654800D01*
X133507444Y-61630296D01*
X133511044Y-61606027D01*
X133517005Y-61582229D01*
X133525270Y-61559129D01*
X133535760Y-61536951D01*
X133548373Y-61515907D01*
X133562987Y-61496202D01*
X133579463Y-61478023D01*
X133597642Y-61461547D01*
X133617347Y-61446933D01*
X133638391Y-61434320D01*
X133660569Y-61423830D01*
X133683669Y-61415565D01*
X133707467Y-61409604D01*
X133731736Y-61406004D01*
X133756240Y-61404800D01*
X135006240Y-61404800D01*
X135030744Y-61406004D01*
G37*
G36*
X135030744Y-58431004D02*
G01*
X135055013Y-58434604D01*
X135078811Y-58440565D01*
X135101911Y-58448830D01*
X135124089Y-58459320D01*
X135145133Y-58471933D01*
X135164838Y-58486547D01*
X135183017Y-58503023D01*
X135199493Y-58521202D01*
X135214107Y-58540907D01*
X135226720Y-58561951D01*
X135237210Y-58584129D01*
X135245475Y-58607229D01*
X135251436Y-58631027D01*
X135255036Y-58655296D01*
X135256240Y-58679800D01*
X135256240Y-59604800D01*
X135255036Y-59629304D01*
X135251436Y-59653573D01*
X135245475Y-59677371D01*
X135237210Y-59700471D01*
X135226720Y-59722649D01*
X135214107Y-59743693D01*
X135199493Y-59763398D01*
X135183017Y-59781577D01*
X135164838Y-59798053D01*
X135145133Y-59812667D01*
X135124089Y-59825280D01*
X135101911Y-59835770D01*
X135078811Y-59844035D01*
X135055013Y-59849996D01*
X135030744Y-59853596D01*
X135006240Y-59854800D01*
X133756240Y-59854800D01*
X133731736Y-59853596D01*
X133707467Y-59849996D01*
X133683669Y-59844035D01*
X133660569Y-59835770D01*
X133638391Y-59825280D01*
X133617347Y-59812667D01*
X133597642Y-59798053D01*
X133579463Y-59781577D01*
X133562987Y-59763398D01*
X133548373Y-59743693D01*
X133535760Y-59722649D01*
X133525270Y-59700471D01*
X133517005Y-59677371D01*
X133511044Y-59653573D01*
X133507444Y-59629304D01*
X133506240Y-59604800D01*
X133506240Y-58679800D01*
X133507444Y-58655296D01*
X133511044Y-58631027D01*
X133517005Y-58607229D01*
X133525270Y-58584129D01*
X133535760Y-58561951D01*
X133548373Y-58540907D01*
X133562987Y-58521202D01*
X133579463Y-58503023D01*
X133597642Y-58486547D01*
X133617347Y-58471933D01*
X133638391Y-58459320D01*
X133660569Y-58448830D01*
X133683669Y-58440565D01*
X133707467Y-58434604D01*
X133731736Y-58431004D01*
X133756240Y-58429800D01*
X135006240Y-58429800D01*
X135030744Y-58431004D01*
G37*
G36*
X125795304Y-84113604D02*
G01*
X125819573Y-84117204D01*
X125843371Y-84123165D01*
X125866471Y-84131430D01*
X125888649Y-84141920D01*
X125909693Y-84154533D01*
X125929398Y-84169147D01*
X125947577Y-84185623D01*
X125964053Y-84203802D01*
X125978667Y-84223507D01*
X125991280Y-84244551D01*
X126001770Y-84266729D01*
X126010035Y-84289829D01*
X126015996Y-84313627D01*
X126019596Y-84337896D01*
X126020800Y-84362400D01*
X126020800Y-85287400D01*
X126019596Y-85311904D01*
X126015996Y-85336173D01*
X126010035Y-85359971D01*
X126001770Y-85383071D01*
X125991280Y-85405249D01*
X125978667Y-85426293D01*
X125964053Y-85445998D01*
X125947577Y-85464177D01*
X125929398Y-85480653D01*
X125909693Y-85495267D01*
X125888649Y-85507880D01*
X125866471Y-85518370D01*
X125843371Y-85526635D01*
X125819573Y-85532596D01*
X125795304Y-85536196D01*
X125770800Y-85537400D01*
X124520800Y-85537400D01*
X124496296Y-85536196D01*
X124472027Y-85532596D01*
X124448229Y-85526635D01*
X124425129Y-85518370D01*
X124402951Y-85507880D01*
X124381907Y-85495267D01*
X124362202Y-85480653D01*
X124344023Y-85464177D01*
X124327547Y-85445998D01*
X124312933Y-85426293D01*
X124300320Y-85405249D01*
X124289830Y-85383071D01*
X124281565Y-85359971D01*
X124275604Y-85336173D01*
X124272004Y-85311904D01*
X124270800Y-85287400D01*
X124270800Y-84362400D01*
X124272004Y-84337896D01*
X124275604Y-84313627D01*
X124281565Y-84289829D01*
X124289830Y-84266729D01*
X124300320Y-84244551D01*
X124312933Y-84223507D01*
X124327547Y-84203802D01*
X124344023Y-84185623D01*
X124362202Y-84169147D01*
X124381907Y-84154533D01*
X124402951Y-84141920D01*
X124425129Y-84131430D01*
X124448229Y-84123165D01*
X124472027Y-84117204D01*
X124496296Y-84113604D01*
X124520800Y-84112400D01*
X125770800Y-84112400D01*
X125795304Y-84113604D01*
G37*
G36*
X125795304Y-81138604D02*
G01*
X125819573Y-81142204D01*
X125843371Y-81148165D01*
X125866471Y-81156430D01*
X125888649Y-81166920D01*
X125909693Y-81179533D01*
X125929398Y-81194147D01*
X125947577Y-81210623D01*
X125964053Y-81228802D01*
X125978667Y-81248507D01*
X125991280Y-81269551D01*
X126001770Y-81291729D01*
X126010035Y-81314829D01*
X126015996Y-81338627D01*
X126019596Y-81362896D01*
X126020800Y-81387400D01*
X126020800Y-82312400D01*
X126019596Y-82336904D01*
X126015996Y-82361173D01*
X126010035Y-82384971D01*
X126001770Y-82408071D01*
X125991280Y-82430249D01*
X125978667Y-82451293D01*
X125964053Y-82470998D01*
X125947577Y-82489177D01*
X125929398Y-82505653D01*
X125909693Y-82520267D01*
X125888649Y-82532880D01*
X125866471Y-82543370D01*
X125843371Y-82551635D01*
X125819573Y-82557596D01*
X125795304Y-82561196D01*
X125770800Y-82562400D01*
X124520800Y-82562400D01*
X124496296Y-82561196D01*
X124472027Y-82557596D01*
X124448229Y-82551635D01*
X124425129Y-82543370D01*
X124402951Y-82532880D01*
X124381907Y-82520267D01*
X124362202Y-82505653D01*
X124344023Y-82489177D01*
X124327547Y-82470998D01*
X124312933Y-82451293D01*
X124300320Y-82430249D01*
X124289830Y-82408071D01*
X124281565Y-82384971D01*
X124275604Y-82361173D01*
X124272004Y-82336904D01*
X124270800Y-82312400D01*
X124270800Y-81387400D01*
X124272004Y-81362896D01*
X124275604Y-81338627D01*
X124281565Y-81314829D01*
X124289830Y-81291729D01*
X124300320Y-81269551D01*
X124312933Y-81248507D01*
X124327547Y-81228802D01*
X124344023Y-81210623D01*
X124362202Y-81194147D01*
X124381907Y-81179533D01*
X124402951Y-81166920D01*
X124425129Y-81156430D01*
X124448229Y-81148165D01*
X124472027Y-81142204D01*
X124496296Y-81138604D01*
X124520800Y-81137400D01*
X125770800Y-81137400D01*
X125795304Y-81138604D01*
G37*
G36*
X125714024Y-75149284D02*
G01*
X125738293Y-75152884D01*
X125762091Y-75158845D01*
X125785191Y-75167110D01*
X125807369Y-75177600D01*
X125828413Y-75190213D01*
X125848118Y-75204827D01*
X125866297Y-75221303D01*
X125882773Y-75239482D01*
X125897387Y-75259187D01*
X125910000Y-75280231D01*
X125920490Y-75302409D01*
X125928755Y-75325509D01*
X125934716Y-75349307D01*
X125938316Y-75373576D01*
X125939520Y-75398080D01*
X125939520Y-76323080D01*
X125938316Y-76347584D01*
X125934716Y-76371853D01*
X125928755Y-76395651D01*
X125920490Y-76418751D01*
X125910000Y-76440929D01*
X125897387Y-76461973D01*
X125882773Y-76481678D01*
X125866297Y-76499857D01*
X125848118Y-76516333D01*
X125828413Y-76530947D01*
X125807369Y-76543560D01*
X125785191Y-76554050D01*
X125762091Y-76562315D01*
X125738293Y-76568276D01*
X125714024Y-76571876D01*
X125689520Y-76573080D01*
X124439520Y-76573080D01*
X124415016Y-76571876D01*
X124390747Y-76568276D01*
X124366949Y-76562315D01*
X124343849Y-76554050D01*
X124321671Y-76543560D01*
X124300627Y-76530947D01*
X124280922Y-76516333D01*
X124262743Y-76499857D01*
X124246267Y-76481678D01*
X124231653Y-76461973D01*
X124219040Y-76440929D01*
X124208550Y-76418751D01*
X124200285Y-76395651D01*
X124194324Y-76371853D01*
X124190724Y-76347584D01*
X124189520Y-76323080D01*
X124189520Y-75398080D01*
X124190724Y-75373576D01*
X124194324Y-75349307D01*
X124200285Y-75325509D01*
X124208550Y-75302409D01*
X124219040Y-75280231D01*
X124231653Y-75259187D01*
X124246267Y-75239482D01*
X124262743Y-75221303D01*
X124280922Y-75204827D01*
X124300627Y-75190213D01*
X124321671Y-75177600D01*
X124343849Y-75167110D01*
X124366949Y-75158845D01*
X124390747Y-75152884D01*
X124415016Y-75149284D01*
X124439520Y-75148080D01*
X125689520Y-75148080D01*
X125714024Y-75149284D01*
G37*
G36*
X125714024Y-78124284D02*
G01*
X125738293Y-78127884D01*
X125762091Y-78133845D01*
X125785191Y-78142110D01*
X125807369Y-78152600D01*
X125828413Y-78165213D01*
X125848118Y-78179827D01*
X125866297Y-78196303D01*
X125882773Y-78214482D01*
X125897387Y-78234187D01*
X125910000Y-78255231D01*
X125920490Y-78277409D01*
X125928755Y-78300509D01*
X125934716Y-78324307D01*
X125938316Y-78348576D01*
X125939520Y-78373080D01*
X125939520Y-79298080D01*
X125938316Y-79322584D01*
X125934716Y-79346853D01*
X125928755Y-79370651D01*
X125920490Y-79393751D01*
X125910000Y-79415929D01*
X125897387Y-79436973D01*
X125882773Y-79456678D01*
X125866297Y-79474857D01*
X125848118Y-79491333D01*
X125828413Y-79505947D01*
X125807369Y-79518560D01*
X125785191Y-79529050D01*
X125762091Y-79537315D01*
X125738293Y-79543276D01*
X125714024Y-79546876D01*
X125689520Y-79548080D01*
X124439520Y-79548080D01*
X124415016Y-79546876D01*
X124390747Y-79543276D01*
X124366949Y-79537315D01*
X124343849Y-79529050D01*
X124321671Y-79518560D01*
X124300627Y-79505947D01*
X124280922Y-79491333D01*
X124262743Y-79474857D01*
X124246267Y-79456678D01*
X124231653Y-79436973D01*
X124219040Y-79415929D01*
X124208550Y-79393751D01*
X124200285Y-79370651D01*
X124194324Y-79346853D01*
X124190724Y-79322584D01*
X124189520Y-79298080D01*
X124189520Y-78373080D01*
X124190724Y-78348576D01*
X124194324Y-78324307D01*
X124200285Y-78300509D01*
X124208550Y-78277409D01*
X124219040Y-78255231D01*
X124231653Y-78234187D01*
X124246267Y-78214482D01*
X124262743Y-78196303D01*
X124280922Y-78179827D01*
X124300627Y-78165213D01*
X124321671Y-78152600D01*
X124343849Y-78142110D01*
X124366949Y-78133845D01*
X124390747Y-78127884D01*
X124415016Y-78124284D01*
X124439520Y-78123080D01*
X125689520Y-78123080D01*
X125714024Y-78124284D01*
G37*
G36*
X130407064Y-64896964D02*
G01*
X130431333Y-64900564D01*
X130455131Y-64906525D01*
X130478231Y-64914790D01*
X130500409Y-64925280D01*
X130521453Y-64937893D01*
X130541158Y-64952507D01*
X130559337Y-64968983D01*
X130575813Y-64987162D01*
X130590427Y-65006867D01*
X130603040Y-65027911D01*
X130613530Y-65050089D01*
X130621795Y-65073189D01*
X130627756Y-65096987D01*
X130631356Y-65121256D01*
X130632560Y-65145760D01*
X130632560Y-66395760D01*
X130631356Y-66420264D01*
X130627756Y-66444533D01*
X130621795Y-66468331D01*
X130613530Y-66491431D01*
X130603040Y-66513609D01*
X130590427Y-66534653D01*
X130575813Y-66554358D01*
X130559337Y-66572537D01*
X130541158Y-66589013D01*
X130521453Y-66603627D01*
X130500409Y-66616240D01*
X130478231Y-66626730D01*
X130455131Y-66634995D01*
X130431333Y-66640956D01*
X130407064Y-66644556D01*
X130382560Y-66645760D01*
X129457560Y-66645760D01*
X129433056Y-66644556D01*
X129408787Y-66640956D01*
X129384989Y-66634995D01*
X129361889Y-66626730D01*
X129339711Y-66616240D01*
X129318667Y-66603627D01*
X129298962Y-66589013D01*
X129280783Y-66572537D01*
X129264307Y-66554358D01*
X129249693Y-66534653D01*
X129237080Y-66513609D01*
X129226590Y-66491431D01*
X129218325Y-66468331D01*
X129212364Y-66444533D01*
X129208764Y-66420264D01*
X129207560Y-66395760D01*
X129207560Y-65145760D01*
X129208764Y-65121256D01*
X129212364Y-65096987D01*
X129218325Y-65073189D01*
X129226590Y-65050089D01*
X129237080Y-65027911D01*
X129249693Y-65006867D01*
X129264307Y-64987162D01*
X129280783Y-64968983D01*
X129298962Y-64952507D01*
X129318667Y-64937893D01*
X129339711Y-64925280D01*
X129361889Y-64914790D01*
X129384989Y-64906525D01*
X129408787Y-64900564D01*
X129433056Y-64896964D01*
X129457560Y-64895760D01*
X130382560Y-64895760D01*
X130407064Y-64896964D01*
G37*
G36*
X127432064Y-64896964D02*
G01*
X127456333Y-64900564D01*
X127480131Y-64906525D01*
X127503231Y-64914790D01*
X127525409Y-64925280D01*
X127546453Y-64937893D01*
X127566158Y-64952507D01*
X127584337Y-64968983D01*
X127600813Y-64987162D01*
X127615427Y-65006867D01*
X127628040Y-65027911D01*
X127638530Y-65050089D01*
X127646795Y-65073189D01*
X127652756Y-65096987D01*
X127656356Y-65121256D01*
X127657560Y-65145760D01*
X127657560Y-66395760D01*
X127656356Y-66420264D01*
X127652756Y-66444533D01*
X127646795Y-66468331D01*
X127638530Y-66491431D01*
X127628040Y-66513609D01*
X127615427Y-66534653D01*
X127600813Y-66554358D01*
X127584337Y-66572537D01*
X127566158Y-66589013D01*
X127546453Y-66603627D01*
X127525409Y-66616240D01*
X127503231Y-66626730D01*
X127480131Y-66634995D01*
X127456333Y-66640956D01*
X127432064Y-66644556D01*
X127407560Y-66645760D01*
X126482560Y-66645760D01*
X126458056Y-66644556D01*
X126433787Y-66640956D01*
X126409989Y-66634995D01*
X126386889Y-66626730D01*
X126364711Y-66616240D01*
X126343667Y-66603627D01*
X126323962Y-66589013D01*
X126305783Y-66572537D01*
X126289307Y-66554358D01*
X126274693Y-66534653D01*
X126262080Y-66513609D01*
X126251590Y-66491431D01*
X126243325Y-66468331D01*
X126237364Y-66444533D01*
X126233764Y-66420264D01*
X126232560Y-66395760D01*
X126232560Y-65145760D01*
X126233764Y-65121256D01*
X126237364Y-65096987D01*
X126243325Y-65073189D01*
X126251590Y-65050089D01*
X126262080Y-65027911D01*
X126274693Y-65006867D01*
X126289307Y-64987162D01*
X126305783Y-64968983D01*
X126323962Y-64952507D01*
X126343667Y-64937893D01*
X126364711Y-64925280D01*
X126386889Y-64914790D01*
X126409989Y-64906525D01*
X126433787Y-64900564D01*
X126458056Y-64896964D01*
X126482560Y-64895760D01*
X127407560Y-64895760D01*
X127432064Y-64896964D01*
G37*
G36*
X130260624Y-81097964D02*
G01*
X130284893Y-81101564D01*
X130308691Y-81107525D01*
X130331791Y-81115790D01*
X130353969Y-81126280D01*
X130375013Y-81138893D01*
X130394718Y-81153507D01*
X130412897Y-81169983D01*
X130429373Y-81188162D01*
X130443987Y-81207867D01*
X130456600Y-81228911D01*
X130467090Y-81251089D01*
X130475355Y-81274189D01*
X130481316Y-81297987D01*
X130484916Y-81322256D01*
X130486120Y-81346760D01*
X130486120Y-82271760D01*
X130484916Y-82296264D01*
X130481316Y-82320533D01*
X130475355Y-82344331D01*
X130467090Y-82367431D01*
X130456600Y-82389609D01*
X130443987Y-82410653D01*
X130429373Y-82430358D01*
X130412897Y-82448537D01*
X130394718Y-82465013D01*
X130375013Y-82479627D01*
X130353969Y-82492240D01*
X130331791Y-82502730D01*
X130308691Y-82510995D01*
X130284893Y-82516956D01*
X130260624Y-82520556D01*
X130236120Y-82521760D01*
X128986120Y-82521760D01*
X128961616Y-82520556D01*
X128937347Y-82516956D01*
X128913549Y-82510995D01*
X128890449Y-82502730D01*
X128868271Y-82492240D01*
X128847227Y-82479627D01*
X128827522Y-82465013D01*
X128809343Y-82448537D01*
X128792867Y-82430358D01*
X128778253Y-82410653D01*
X128765640Y-82389609D01*
X128755150Y-82367431D01*
X128746885Y-82344331D01*
X128740924Y-82320533D01*
X128737324Y-82296264D01*
X128736120Y-82271760D01*
X128736120Y-81346760D01*
X128737324Y-81322256D01*
X128740924Y-81297987D01*
X128746885Y-81274189D01*
X128755150Y-81251089D01*
X128765640Y-81228911D01*
X128778253Y-81207867D01*
X128792867Y-81188162D01*
X128809343Y-81169983D01*
X128827522Y-81153507D01*
X128847227Y-81138893D01*
X128868271Y-81126280D01*
X128890449Y-81115790D01*
X128913549Y-81107525D01*
X128937347Y-81101564D01*
X128961616Y-81097964D01*
X128986120Y-81096760D01*
X130236120Y-81096760D01*
X130260624Y-81097964D01*
G37*
G36*
X130260624Y-84072964D02*
G01*
X130284893Y-84076564D01*
X130308691Y-84082525D01*
X130331791Y-84090790D01*
X130353969Y-84101280D01*
X130375013Y-84113893D01*
X130394718Y-84128507D01*
X130412897Y-84144983D01*
X130429373Y-84163162D01*
X130443987Y-84182867D01*
X130456600Y-84203911D01*
X130467090Y-84226089D01*
X130475355Y-84249189D01*
X130481316Y-84272987D01*
X130484916Y-84297256D01*
X130486120Y-84321760D01*
X130486120Y-85246760D01*
X130484916Y-85271264D01*
X130481316Y-85295533D01*
X130475355Y-85319331D01*
X130467090Y-85342431D01*
X130456600Y-85364609D01*
X130443987Y-85385653D01*
X130429373Y-85405358D01*
X130412897Y-85423537D01*
X130394718Y-85440013D01*
X130375013Y-85454627D01*
X130353969Y-85467240D01*
X130331791Y-85477730D01*
X130308691Y-85485995D01*
X130284893Y-85491956D01*
X130260624Y-85495556D01*
X130236120Y-85496760D01*
X128986120Y-85496760D01*
X128961616Y-85495556D01*
X128937347Y-85491956D01*
X128913549Y-85485995D01*
X128890449Y-85477730D01*
X128868271Y-85467240D01*
X128847227Y-85454627D01*
X128827522Y-85440013D01*
X128809343Y-85423537D01*
X128792867Y-85405358D01*
X128778253Y-85385653D01*
X128765640Y-85364609D01*
X128755150Y-85342431D01*
X128746885Y-85319331D01*
X128740924Y-85295533D01*
X128737324Y-85271264D01*
X128736120Y-85246760D01*
X128736120Y-84321760D01*
X128737324Y-84297256D01*
X128740924Y-84272987D01*
X128746885Y-84249189D01*
X128755150Y-84226089D01*
X128765640Y-84203911D01*
X128778253Y-84182867D01*
X128792867Y-84163162D01*
X128809343Y-84144983D01*
X128827522Y-84128507D01*
X128847227Y-84113893D01*
X128868271Y-84101280D01*
X128890449Y-84090790D01*
X128913549Y-84082525D01*
X128937347Y-84076564D01*
X128961616Y-84072964D01*
X128986120Y-84071760D01*
X130236120Y-84071760D01*
X130260624Y-84072964D01*
G37*
G36*
X125592104Y-68860244D02*
G01*
X125616373Y-68863844D01*
X125640171Y-68869805D01*
X125663271Y-68878070D01*
X125685449Y-68888560D01*
X125706493Y-68901173D01*
X125726198Y-68915787D01*
X125744377Y-68932263D01*
X125760853Y-68950442D01*
X125775467Y-68970147D01*
X125788080Y-68991191D01*
X125798570Y-69013369D01*
X125806835Y-69036469D01*
X125812796Y-69060267D01*
X125816396Y-69084536D01*
X125817600Y-69109040D01*
X125817600Y-70034040D01*
X125816396Y-70058544D01*
X125812796Y-70082813D01*
X125806835Y-70106611D01*
X125798570Y-70129711D01*
X125788080Y-70151889D01*
X125775467Y-70172933D01*
X125760853Y-70192638D01*
X125744377Y-70210817D01*
X125726198Y-70227293D01*
X125706493Y-70241907D01*
X125685449Y-70254520D01*
X125663271Y-70265010D01*
X125640171Y-70273275D01*
X125616373Y-70279236D01*
X125592104Y-70282836D01*
X125567600Y-70284040D01*
X124317600Y-70284040D01*
X124293096Y-70282836D01*
X124268827Y-70279236D01*
X124245029Y-70273275D01*
X124221929Y-70265010D01*
X124199751Y-70254520D01*
X124178707Y-70241907D01*
X124159002Y-70227293D01*
X124140823Y-70210817D01*
X124124347Y-70192638D01*
X124109733Y-70172933D01*
X124097120Y-70151889D01*
X124086630Y-70129711D01*
X124078365Y-70106611D01*
X124072404Y-70082813D01*
X124068804Y-70058544D01*
X124067600Y-70034040D01*
X124067600Y-69109040D01*
X124068804Y-69084536D01*
X124072404Y-69060267D01*
X124078365Y-69036469D01*
X124086630Y-69013369D01*
X124097120Y-68991191D01*
X124109733Y-68970147D01*
X124124347Y-68950442D01*
X124140823Y-68932263D01*
X124159002Y-68915787D01*
X124178707Y-68901173D01*
X124199751Y-68888560D01*
X124221929Y-68878070D01*
X124245029Y-68869805D01*
X124268827Y-68863844D01*
X124293096Y-68860244D01*
X124317600Y-68859040D01*
X125567600Y-68859040D01*
X125592104Y-68860244D01*
G37*
G36*
X125592104Y-71835244D02*
G01*
X125616373Y-71838844D01*
X125640171Y-71844805D01*
X125663271Y-71853070D01*
X125685449Y-71863560D01*
X125706493Y-71876173D01*
X125726198Y-71890787D01*
X125744377Y-71907263D01*
X125760853Y-71925442D01*
X125775467Y-71945147D01*
X125788080Y-71966191D01*
X125798570Y-71988369D01*
X125806835Y-72011469D01*
X125812796Y-72035267D01*
X125816396Y-72059536D01*
X125817600Y-72084040D01*
X125817600Y-73009040D01*
X125816396Y-73033544D01*
X125812796Y-73057813D01*
X125806835Y-73081611D01*
X125798570Y-73104711D01*
X125788080Y-73126889D01*
X125775467Y-73147933D01*
X125760853Y-73167638D01*
X125744377Y-73185817D01*
X125726198Y-73202293D01*
X125706493Y-73216907D01*
X125685449Y-73229520D01*
X125663271Y-73240010D01*
X125640171Y-73248275D01*
X125616373Y-73254236D01*
X125592104Y-73257836D01*
X125567600Y-73259040D01*
X124317600Y-73259040D01*
X124293096Y-73257836D01*
X124268827Y-73254236D01*
X124245029Y-73248275D01*
X124221929Y-73240010D01*
X124199751Y-73229520D01*
X124178707Y-73216907D01*
X124159002Y-73202293D01*
X124140823Y-73185817D01*
X124124347Y-73167638D01*
X124109733Y-73147933D01*
X124097120Y-73126889D01*
X124086630Y-73104711D01*
X124078365Y-73081611D01*
X124072404Y-73057813D01*
X124068804Y-73033544D01*
X124067600Y-73009040D01*
X124067600Y-72084040D01*
X124068804Y-72059536D01*
X124072404Y-72035267D01*
X124078365Y-72011469D01*
X124086630Y-71988369D01*
X124097120Y-71966191D01*
X124109733Y-71945147D01*
X124124347Y-71925442D01*
X124140823Y-71907263D01*
X124159002Y-71890787D01*
X124178707Y-71876173D01*
X124199751Y-71863560D01*
X124221929Y-71853070D01*
X124245029Y-71844805D01*
X124268827Y-71838844D01*
X124293096Y-71835244D01*
X124317600Y-71834040D01*
X125567600Y-71834040D01*
X125592104Y-71835244D01*
G37*
G36*
X130677184Y-58329404D02*
G01*
X130701453Y-58333004D01*
X130725251Y-58338965D01*
X130748351Y-58347230D01*
X130770529Y-58357720D01*
X130791573Y-58370333D01*
X130811278Y-58384947D01*
X130829457Y-58401423D01*
X130845933Y-58419602D01*
X130860547Y-58439307D01*
X130873160Y-58460351D01*
X130883650Y-58482529D01*
X130891915Y-58505629D01*
X130897876Y-58529427D01*
X130901476Y-58553696D01*
X130902680Y-58578200D01*
X130902680Y-59503200D01*
X130901476Y-59527704D01*
X130897876Y-59551973D01*
X130891915Y-59575771D01*
X130883650Y-59598871D01*
X130873160Y-59621049D01*
X130860547Y-59642093D01*
X130845933Y-59661798D01*
X130829457Y-59679977D01*
X130811278Y-59696453D01*
X130791573Y-59711067D01*
X130770529Y-59723680D01*
X130748351Y-59734170D01*
X130725251Y-59742435D01*
X130701453Y-59748396D01*
X130677184Y-59751996D01*
X130652680Y-59753200D01*
X129402680Y-59753200D01*
X129378176Y-59751996D01*
X129353907Y-59748396D01*
X129330109Y-59742435D01*
X129307009Y-59734170D01*
X129284831Y-59723680D01*
X129263787Y-59711067D01*
X129244082Y-59696453D01*
X129225903Y-59679977D01*
X129209427Y-59661798D01*
X129194813Y-59642093D01*
X129182200Y-59621049D01*
X129171710Y-59598871D01*
X129163445Y-59575771D01*
X129157484Y-59551973D01*
X129153884Y-59527704D01*
X129152680Y-59503200D01*
X129152680Y-58578200D01*
X129153884Y-58553696D01*
X129157484Y-58529427D01*
X129163445Y-58505629D01*
X129171710Y-58482529D01*
X129182200Y-58460351D01*
X129194813Y-58439307D01*
X129209427Y-58419602D01*
X129225903Y-58401423D01*
X129244082Y-58384947D01*
X129263787Y-58370333D01*
X129284831Y-58357720D01*
X129307009Y-58347230D01*
X129330109Y-58338965D01*
X129353907Y-58333004D01*
X129378176Y-58329404D01*
X129402680Y-58328200D01*
X130652680Y-58328200D01*
X130677184Y-58329404D01*
G37*
G36*
X130677184Y-61304404D02*
G01*
X130701453Y-61308004D01*
X130725251Y-61313965D01*
X130748351Y-61322230D01*
X130770529Y-61332720D01*
X130791573Y-61345333D01*
X130811278Y-61359947D01*
X130829457Y-61376423D01*
X130845933Y-61394602D01*
X130860547Y-61414307D01*
X130873160Y-61435351D01*
X130883650Y-61457529D01*
X130891915Y-61480629D01*
X130897876Y-61504427D01*
X130901476Y-61528696D01*
X130902680Y-61553200D01*
X130902680Y-62478200D01*
X130901476Y-62502704D01*
X130897876Y-62526973D01*
X130891915Y-62550771D01*
X130883650Y-62573871D01*
X130873160Y-62596049D01*
X130860547Y-62617093D01*
X130845933Y-62636798D01*
X130829457Y-62654977D01*
X130811278Y-62671453D01*
X130791573Y-62686067D01*
X130770529Y-62698680D01*
X130748351Y-62709170D01*
X130725251Y-62717435D01*
X130701453Y-62723396D01*
X130677184Y-62726996D01*
X130652680Y-62728200D01*
X129402680Y-62728200D01*
X129378176Y-62726996D01*
X129353907Y-62723396D01*
X129330109Y-62717435D01*
X129307009Y-62709170D01*
X129284831Y-62698680D01*
X129263787Y-62686067D01*
X129244082Y-62671453D01*
X129225903Y-62654977D01*
X129209427Y-62636798D01*
X129194813Y-62617093D01*
X129182200Y-62596049D01*
X129171710Y-62573871D01*
X129163445Y-62550771D01*
X129157484Y-62526973D01*
X129153884Y-62502704D01*
X129152680Y-62478200D01*
X129152680Y-61553200D01*
X129153884Y-61528696D01*
X129157484Y-61504427D01*
X129163445Y-61480629D01*
X129171710Y-61457529D01*
X129182200Y-61435351D01*
X129194813Y-61414307D01*
X129209427Y-61394602D01*
X129225903Y-61376423D01*
X129244082Y-61359947D01*
X129263787Y-61345333D01*
X129284831Y-61332720D01*
X129307009Y-61322230D01*
X129330109Y-61313965D01*
X129353907Y-61308004D01*
X129378176Y-61304404D01*
X129402680Y-61303200D01*
X130652680Y-61303200D01*
X130677184Y-61304404D01*
G37*
G36*
X126450624Y-54796924D02*
G01*
X126474893Y-54800524D01*
X126498691Y-54806485D01*
X126521791Y-54814750D01*
X126543969Y-54825240D01*
X126565013Y-54837853D01*
X126584718Y-54852467D01*
X126602897Y-54868943D01*
X126619373Y-54887122D01*
X126633987Y-54906827D01*
X126646600Y-54927871D01*
X126657090Y-54950049D01*
X126665355Y-54973149D01*
X126671316Y-54996947D01*
X126674916Y-55021216D01*
X126676120Y-55045720D01*
X126676120Y-55970720D01*
X126674916Y-55995224D01*
X126671316Y-56019493D01*
X126665355Y-56043291D01*
X126657090Y-56066391D01*
X126646600Y-56088569D01*
X126633987Y-56109613D01*
X126619373Y-56129318D01*
X126602897Y-56147497D01*
X126584718Y-56163973D01*
X126565013Y-56178587D01*
X126543969Y-56191200D01*
X126521791Y-56201690D01*
X126498691Y-56209955D01*
X126474893Y-56215916D01*
X126450624Y-56219516D01*
X126426120Y-56220720D01*
X125176120Y-56220720D01*
X125151616Y-56219516D01*
X125127347Y-56215916D01*
X125103549Y-56209955D01*
X125080449Y-56201690D01*
X125058271Y-56191200D01*
X125037227Y-56178587D01*
X125017522Y-56163973D01*
X124999343Y-56147497D01*
X124982867Y-56129318D01*
X124968253Y-56109613D01*
X124955640Y-56088569D01*
X124945150Y-56066391D01*
X124936885Y-56043291D01*
X124930924Y-56019493D01*
X124927324Y-55995224D01*
X124926120Y-55970720D01*
X124926120Y-55045720D01*
X124927324Y-55021216D01*
X124930924Y-54996947D01*
X124936885Y-54973149D01*
X124945150Y-54950049D01*
X124955640Y-54927871D01*
X124968253Y-54906827D01*
X124982867Y-54887122D01*
X124999343Y-54868943D01*
X125017522Y-54852467D01*
X125037227Y-54837853D01*
X125058271Y-54825240D01*
X125080449Y-54814750D01*
X125103549Y-54806485D01*
X125127347Y-54800524D01*
X125151616Y-54796924D01*
X125176120Y-54795720D01*
X126426120Y-54795720D01*
X126450624Y-54796924D01*
G37*
G36*
X126450624Y-51821924D02*
G01*
X126474893Y-51825524D01*
X126498691Y-51831485D01*
X126521791Y-51839750D01*
X126543969Y-51850240D01*
X126565013Y-51862853D01*
X126584718Y-51877467D01*
X126602897Y-51893943D01*
X126619373Y-51912122D01*
X126633987Y-51931827D01*
X126646600Y-51952871D01*
X126657090Y-51975049D01*
X126665355Y-51998149D01*
X126671316Y-52021947D01*
X126674916Y-52046216D01*
X126676120Y-52070720D01*
X126676120Y-52995720D01*
X126674916Y-53020224D01*
X126671316Y-53044493D01*
X126665355Y-53068291D01*
X126657090Y-53091391D01*
X126646600Y-53113569D01*
X126633987Y-53134613D01*
X126619373Y-53154318D01*
X126602897Y-53172497D01*
X126584718Y-53188973D01*
X126565013Y-53203587D01*
X126543969Y-53216200D01*
X126521791Y-53226690D01*
X126498691Y-53234955D01*
X126474893Y-53240916D01*
X126450624Y-53244516D01*
X126426120Y-53245720D01*
X125176120Y-53245720D01*
X125151616Y-53244516D01*
X125127347Y-53240916D01*
X125103549Y-53234955D01*
X125080449Y-53226690D01*
X125058271Y-53216200D01*
X125037227Y-53203587D01*
X125017522Y-53188973D01*
X124999343Y-53172497D01*
X124982867Y-53154318D01*
X124968253Y-53134613D01*
X124955640Y-53113569D01*
X124945150Y-53091391D01*
X124936885Y-53068291D01*
X124930924Y-53044493D01*
X124927324Y-53020224D01*
X124926120Y-52995720D01*
X124926120Y-52070720D01*
X124927324Y-52046216D01*
X124930924Y-52021947D01*
X124936885Y-51998149D01*
X124945150Y-51975049D01*
X124955640Y-51952871D01*
X124968253Y-51931827D01*
X124982867Y-51912122D01*
X124999343Y-51893943D01*
X125017522Y-51877467D01*
X125037227Y-51862853D01*
X125058271Y-51850240D01*
X125080449Y-51839750D01*
X125103549Y-51831485D01*
X125127347Y-51825524D01*
X125151616Y-51821924D01*
X125176120Y-51820720D01*
X126426120Y-51820720D01*
X126450624Y-51821924D01*
G37*
D14*
X55448240Y-51384960D03*
X53548240Y-51384960D03*
X54498240Y-53384960D03*
X117632480Y-61707520D03*
X118582480Y-63707520D03*
X116682480Y-63707520D03*
X109890520Y-76158600D03*
X111790520Y-76158600D03*
X110840520Y-74158600D03*
X111079280Y-81941160D03*
X112029280Y-83941160D03*
X110129280Y-83941160D03*
X128869400Y-78139800D03*
X130769400Y-78139800D03*
X129819400Y-76139800D03*
D15*
X130072640Y-70114160D03*
X128072640Y-71064160D03*
X128072640Y-69164160D03*
X124699520Y-60772040D03*
X126699520Y-59822040D03*
X126699520Y-61722040D03*
M02*
