M48
; DRILL file {KiCad (5.1.5)-3} date 28-10-2020 17:30:47
; FORMAT={-:-/ absolute / metric / decimal}
; #@! TF.CreationDate,2020-10-28T17:30:47+01:00
; #@! TF.GenerationSoftware,Kicad,Pcbnew,(5.1.5)-3
; #@! TF.FileFunction,Plated,1,2,PTH
FMAT,2
METRIC
T1C0.400
T2C0.600
T3C0.800
T4C1.200
T5C1.300
T6C1.500
T7C1.700
%
G90
G05
T1
X46.675Y-61.65
X50.607Y-56.058
X50.607Y-61.072
X50.968Y-65.994
X51.054Y-71.369
X55.367Y-93.726
X55.738Y-60.914
X55.926Y-55.875
X57.846Y-93.726
X59.492Y-56.545
X60.462Y-93.726
X62.474Y-93.726
X62.581Y-91.653
X64.994Y-48.565
X65.054Y-93.726
X65.933Y-50.719
X67.544Y-93.726
X70.079Y-93.726
X71.069Y-45.857
X71.277Y-50.719
X72.629Y-93.726
X75.184Y-93.726
X77.201Y-51.034
X77.76Y-93.726
X80.264Y-93.726
X83.18Y-56.286
X83.276Y-62.347
X83.292Y-52.827
X91.811Y-93.675
X93.96Y-93.726
X96.52Y-45.72
X96.52Y-49.53
X96.545Y-93.726
X99.578Y-93.726
X100.086Y-50.719
X102.606Y-93.726
X102.87Y-53.34
X102.87Y-72.39
X105.41Y-53.34
X105.41Y-72.39
X105.41Y-76.2
X105.41Y-78.74
X105.41Y-81.28
X105.41Y-83.82
X105.41Y-86.36
X105.41Y-88.9
X106.162Y-93.726
X107.523Y-53.308
X107.523Y-55.77
X107.523Y-70.542
X107.523Y-73.004
X107.523Y-75.466
X107.523Y-77.928
X107.523Y-80.39
X107.523Y-82.852
X107.523Y-85.314
X107.523Y-87.776
X108.422Y-93.726
X108.748Y-46.05
X108.778Y-43.353
X108.849Y-48.671
X109.515Y-71.816
X110.307Y-65.649
X110.891Y-79.207
X111.354Y-93.726
X114.066Y-71.816
X114.381Y-53.086
X115.098Y-93.726
X115.148Y-60.914
X115.341Y-59.507
X115.397Y-71.826
X116.901Y-76.571
X116.952Y-53.152
X117.686Y-59.388
X118.908Y-93.726
X119.522Y-53.086
X122.055Y-54.732
X122.055Y-58.489
X122.055Y-61.57
X122.055Y-64.877
X122.055Y-67.93
X122.055Y-70.622
X122.055Y-73.797
X122.055Y-76.845
X122.055Y-79.527
X122.055Y-81.879
X122.055Y-84.587
X122.055Y-87.295
X122.055Y-90.226
X122.748Y-42.479
X122.829Y-50.703
X122.931Y-93.731
X124.023Y-63.612
X124.516Y-50.744
X124.907Y-74.138
X125.844Y-44.811
X125.999Y-63.637
X126.032Y-41.968
X126.35Y-57.363
X126.98Y-93.701
X127.726Y-50.77
X128.941Y-44.811
X128.999Y-41.989
X129.596Y-86.711
X129.819Y-57.328
X130.759Y-50.795
X131.003Y-74.249
X131.648Y-93.731
X131.671Y-41.989
X133.624Y-57.257
X133.96Y-92.959
X134.277Y-44.773
X134.389Y-41.968
X134.544Y-50.719
X137.521Y-81.918
X137.521Y-88.737
X137.521Y-92.311
X137.566Y-85.166
X137.726Y-75.463
X137.752Y-43.203
X137.752Y-47.292
X137.757Y-70.609
X137.843Y-61.829
X137.871Y-51.625
X137.871Y-55.529
X137.881Y-66.053
X137.95Y-58.237
X141.064Y-41.801
X141.163Y-45.679
X141.227Y-48.417
X142.184Y-93.708
X142.24Y-91.44
X144.742Y-93.754
X144.78Y-91.44
X146.05Y-88.9
X147.32Y-86.36
X147.32Y-91.44
X147.348Y-93.767
X148.59Y-88.9
X149.86Y-86.36
X149.86Y-91.44
X149.863Y-93.779
X151.13Y-88.9
X152.362Y-93.759
X152.4Y-91.44
X153.67Y-88.9
X154.907Y-93.789
X156.21Y-71.12
X156.21Y-73.66
X156.21Y-76.2
X156.21Y-78.74
X157.48Y-64.77
X157.48Y-67.31
X157.48Y-69.85
X157.48Y-72.39
X157.48Y-74.93
X157.48Y-77.47
X157.48Y-80.01
X159.863Y-48.87
X159.863Y-53.965
X160.02Y-55.88
X160.02Y-58.42
X160.02Y-60.96
X160.02Y-63.5
X160.02Y-66.04
X160.02Y-68.58
X160.02Y-71.12
X160.02Y-73.66
X160.02Y-76.2
X160.02Y-78.74
X160.02Y-81.28
X160.02Y-83.82
X160.02Y-86.36
T2
X54.075Y-79.35
X56.075Y-79.35
X53.467Y-69.967
X55.467Y-69.967
X60.655Y-51.989
X60.655Y-53.989
T3
X104.648Y-60.198
X104.648Y-62.738
X104.648Y-65.278
X60.93Y-64.14
X60.93Y-66.64
T4
X68.491Y-53.88
X68.491Y-61.88
X68.491Y-69.88
X78.491Y-53.88
X78.491Y-69.88
X88.9Y-53.848
X88.9Y-69.848
X98.9Y-53.848
X98.9Y-59.148
X98.9Y-65.148
X98.9Y-69.848
X90.584Y-74.932
X90.584Y-82.932
X90.584Y-90.932
X100.584Y-74.932
X100.584Y-90.932
X68.483Y-74.808
X68.483Y-90.808
X78.483Y-74.808
X78.483Y-82.808
X78.483Y-90.808
X143.83Y-51.95
X143.83Y-59.95
X143.83Y-67.95
X153.83Y-51.95
X153.83Y-67.95
T5
X46.665Y-71.407
X46.665Y-76.407
X46.665Y-81.407
X60.381Y-72.735
X60.381Y-77.735
X62.881Y-75.235
X112.776Y-45.369
X117.776Y-45.369
T6
X55.626Y-89.027
X90.678Y-45.791
X148.166Y-45.273
X102.961Y-45.745
X76.439Y-46.071
T7
X100.421Y-43.205
X100.421Y-48.285
X105.501Y-43.205
X105.501Y-48.285
X53.086Y-86.487
X53.086Y-91.567
X58.166Y-86.487
X58.166Y-91.567
X88.138Y-43.251
X88.138Y-48.331
X93.218Y-43.251
X93.218Y-48.331
X73.899Y-43.531
X73.899Y-48.611
X78.979Y-43.531
X78.979Y-48.611
X145.626Y-42.733
X145.626Y-47.813
X150.706Y-42.733
X150.706Y-47.813
T0
M30
